G75*
%MOIN*%
%OFA0B0*%
%FSLAX25Y25*%
%IPPOS*%
%LPD*%
%AMOC8*
5,1,8,0,0,1.08239X$1,22.5*
%
%ADD10C,0.00340*%
%ADD11C,0.00567*%
%ADD12C,0.00461*%
%ADD13C,0.00266*%
%ADD14C,0.00314*%
D10*
X0274061Y0081521D02*
X0275721Y0081521D01*
X0275721Y0079861D01*
X0274061Y0079861D01*
X0274061Y0081521D01*
X0274061Y0080200D02*
X0275721Y0080200D01*
X0275721Y0080539D02*
X0274061Y0080539D01*
X0274061Y0080878D02*
X0275721Y0080878D01*
X0275721Y0081217D02*
X0274061Y0081217D01*
X0277661Y0081521D02*
X0279321Y0081521D01*
X0279321Y0079861D01*
X0277661Y0079861D01*
X0277661Y0081521D01*
X0277661Y0080200D02*
X0279321Y0080200D01*
X0279321Y0080539D02*
X0277661Y0080539D01*
X0277661Y0080878D02*
X0279321Y0080878D01*
X0279321Y0081217D02*
X0277661Y0081217D01*
X0282785Y0082861D02*
X0284445Y0082861D01*
X0282785Y0082861D02*
X0282785Y0084521D01*
X0284445Y0084521D01*
X0284445Y0082861D01*
X0284445Y0083200D02*
X0282785Y0083200D01*
X0282785Y0083539D02*
X0284445Y0083539D01*
X0284445Y0083878D02*
X0282785Y0083878D01*
X0282785Y0084217D02*
X0284445Y0084217D01*
X0286385Y0082861D02*
X0288045Y0082861D01*
X0286385Y0082861D02*
X0286385Y0084521D01*
X0288045Y0084521D01*
X0288045Y0082861D01*
X0288045Y0083200D02*
X0286385Y0083200D01*
X0286385Y0083539D02*
X0288045Y0083539D01*
X0288045Y0083878D02*
X0286385Y0083878D01*
X0286385Y0084217D02*
X0288045Y0084217D01*
X0279321Y0086955D02*
X0277661Y0086955D01*
X0277661Y0088615D01*
X0279321Y0088615D01*
X0279321Y0086955D01*
X0279321Y0087294D02*
X0277661Y0087294D01*
X0277661Y0087633D02*
X0279321Y0087633D01*
X0279321Y0087972D02*
X0277661Y0087972D01*
X0277661Y0088311D02*
X0279321Y0088311D01*
X0275721Y0086955D02*
X0274061Y0086955D01*
X0274061Y0088615D01*
X0275721Y0088615D01*
X0275721Y0086955D01*
X0275721Y0087294D02*
X0274061Y0087294D01*
X0274061Y0087633D02*
X0275721Y0087633D01*
X0275721Y0087972D02*
X0274061Y0087972D01*
X0274061Y0088311D02*
X0275721Y0088311D01*
X0329285Y0083955D02*
X0330945Y0083955D01*
X0329285Y0083955D02*
X0329285Y0085615D01*
X0330945Y0085615D01*
X0330945Y0083955D01*
X0330945Y0084294D02*
X0329285Y0084294D01*
X0329285Y0084633D02*
X0330945Y0084633D01*
X0330945Y0084972D02*
X0329285Y0084972D01*
X0329285Y0085311D02*
X0330945Y0085311D01*
X0332885Y0083955D02*
X0334545Y0083955D01*
X0332885Y0083955D02*
X0332885Y0085615D01*
X0334545Y0085615D01*
X0334545Y0083955D01*
X0334545Y0084294D02*
X0332885Y0084294D01*
X0332885Y0084633D02*
X0334545Y0084633D01*
X0334545Y0084972D02*
X0332885Y0084972D01*
X0332885Y0085311D02*
X0334545Y0085311D01*
X0334597Y0081676D02*
X0332937Y0081676D01*
X0334597Y0081676D02*
X0334597Y0080016D01*
X0332937Y0080016D01*
X0332937Y0081676D01*
X0332937Y0080355D02*
X0334597Y0080355D01*
X0334597Y0080694D02*
X0332937Y0080694D01*
X0332937Y0081033D02*
X0334597Y0081033D01*
X0334597Y0081372D02*
X0332937Y0081372D01*
X0330997Y0081676D02*
X0329337Y0081676D01*
X0330997Y0081676D02*
X0330997Y0080016D01*
X0329337Y0080016D01*
X0329337Y0081676D01*
X0329337Y0080355D02*
X0330997Y0080355D01*
X0330997Y0080694D02*
X0329337Y0080694D01*
X0329337Y0081033D02*
X0330997Y0081033D01*
X0330997Y0081372D02*
X0329337Y0081372D01*
X0341785Y0079955D02*
X0343445Y0079955D01*
X0341785Y0079955D02*
X0341785Y0081615D01*
X0343445Y0081615D01*
X0343445Y0079955D01*
X0343445Y0080294D02*
X0341785Y0080294D01*
X0341785Y0080633D02*
X0343445Y0080633D01*
X0343445Y0080972D02*
X0341785Y0080972D01*
X0341785Y0081311D02*
X0343445Y0081311D01*
X0345385Y0079955D02*
X0347045Y0079955D01*
X0345385Y0079955D02*
X0345385Y0081615D01*
X0347045Y0081615D01*
X0347045Y0079955D01*
X0347045Y0080294D02*
X0345385Y0080294D01*
X0345385Y0080633D02*
X0347045Y0080633D01*
X0347045Y0080972D02*
X0345385Y0080972D01*
X0345385Y0081311D02*
X0347045Y0081311D01*
X0329561Y0153061D02*
X0329561Y0154721D01*
X0331221Y0154721D01*
X0331221Y0153061D01*
X0329561Y0153061D01*
X0329561Y0153400D02*
X0331221Y0153400D01*
X0331221Y0153739D02*
X0329561Y0153739D01*
X0329561Y0154078D02*
X0331221Y0154078D01*
X0331221Y0154417D02*
X0329561Y0154417D01*
X0327321Y0154721D02*
X0327321Y0153061D01*
X0325661Y0153061D01*
X0325661Y0154721D01*
X0327321Y0154721D01*
X0327321Y0153400D02*
X0325661Y0153400D01*
X0325661Y0153739D02*
X0327321Y0153739D01*
X0327321Y0154078D02*
X0325661Y0154078D01*
X0325661Y0154417D02*
X0327321Y0154417D01*
X0327321Y0156661D02*
X0327321Y0158321D01*
X0327321Y0156661D02*
X0325661Y0156661D01*
X0325661Y0158321D01*
X0327321Y0158321D01*
X0327321Y0157000D02*
X0325661Y0157000D01*
X0325661Y0157339D02*
X0327321Y0157339D01*
X0327321Y0157678D02*
X0325661Y0157678D01*
X0325661Y0158017D02*
X0327321Y0158017D01*
X0329561Y0158321D02*
X0329561Y0156661D01*
X0329561Y0158321D02*
X0331221Y0158321D01*
X0331221Y0156661D01*
X0329561Y0156661D01*
X0329561Y0157000D02*
X0331221Y0157000D01*
X0331221Y0157339D02*
X0329561Y0157339D01*
X0329561Y0157678D02*
X0331221Y0157678D01*
X0331221Y0158017D02*
X0329561Y0158017D01*
X0334261Y0199121D02*
X0335921Y0199121D01*
X0335921Y0197461D01*
X0334261Y0197461D01*
X0334261Y0199121D01*
X0334261Y0197800D02*
X0335921Y0197800D01*
X0335921Y0198139D02*
X0334261Y0198139D01*
X0334261Y0198478D02*
X0335921Y0198478D01*
X0335921Y0198817D02*
X0334261Y0198817D01*
X0337861Y0199121D02*
X0339521Y0199121D01*
X0339521Y0197461D01*
X0337861Y0197461D01*
X0337861Y0199121D01*
X0337861Y0197800D02*
X0339521Y0197800D01*
X0339521Y0198139D02*
X0337861Y0198139D01*
X0337861Y0198478D02*
X0339521Y0198478D01*
X0339521Y0198817D02*
X0337861Y0198817D01*
X0330321Y0228761D02*
X0328661Y0228761D01*
X0328661Y0230421D01*
X0330321Y0230421D01*
X0330321Y0228761D01*
X0330321Y0229100D02*
X0328661Y0229100D01*
X0328661Y0229439D02*
X0330321Y0229439D01*
X0330321Y0229778D02*
X0328661Y0229778D01*
X0328661Y0230117D02*
X0330321Y0230117D01*
X0330321Y0234121D02*
X0328661Y0234121D01*
X0330321Y0234121D02*
X0330321Y0232461D01*
X0328661Y0232461D01*
X0328661Y0234121D01*
X0328661Y0232800D02*
X0330321Y0232800D01*
X0330321Y0233139D02*
X0328661Y0233139D01*
X0328661Y0233478D02*
X0330321Y0233478D01*
X0330321Y0233817D02*
X0328661Y0233817D01*
X0326721Y0234121D02*
X0325061Y0234121D01*
X0326721Y0234121D02*
X0326721Y0232461D01*
X0325061Y0232461D01*
X0325061Y0234121D01*
X0325061Y0232800D02*
X0326721Y0232800D01*
X0326721Y0233139D02*
X0325061Y0233139D01*
X0325061Y0233478D02*
X0326721Y0233478D01*
X0326721Y0233817D02*
X0325061Y0233817D01*
X0325061Y0236461D02*
X0326721Y0236461D01*
X0325061Y0236461D02*
X0325061Y0238121D01*
X0326721Y0238121D01*
X0326721Y0236461D01*
X0326721Y0236800D02*
X0325061Y0236800D01*
X0325061Y0237139D02*
X0326721Y0237139D01*
X0326721Y0237478D02*
X0325061Y0237478D01*
X0325061Y0237817D02*
X0326721Y0237817D01*
X0328661Y0236461D02*
X0330321Y0236461D01*
X0328661Y0236461D02*
X0328661Y0238121D01*
X0330321Y0238121D01*
X0330321Y0236461D01*
X0330321Y0236800D02*
X0328661Y0236800D01*
X0328661Y0237139D02*
X0330321Y0237139D01*
X0330321Y0237478D02*
X0328661Y0237478D01*
X0328661Y0237817D02*
X0330321Y0237817D01*
X0326721Y0228761D02*
X0325061Y0228761D01*
X0325061Y0230421D01*
X0326721Y0230421D01*
X0326721Y0228761D01*
X0326721Y0229100D02*
X0325061Y0229100D01*
X0325061Y0229439D02*
X0326721Y0229439D01*
X0326721Y0229778D02*
X0325061Y0229778D01*
X0325061Y0230117D02*
X0326721Y0230117D01*
X0319321Y0234621D02*
X0317661Y0234621D01*
X0319321Y0234621D02*
X0319321Y0232961D01*
X0317661Y0232961D01*
X0317661Y0234621D01*
X0317661Y0233300D02*
X0319321Y0233300D01*
X0319321Y0233639D02*
X0317661Y0233639D01*
X0317661Y0233978D02*
X0319321Y0233978D01*
X0319321Y0234317D02*
X0317661Y0234317D01*
X0315721Y0234621D02*
X0314061Y0234621D01*
X0315721Y0234621D02*
X0315721Y0232961D01*
X0314061Y0232961D01*
X0314061Y0234621D01*
X0314061Y0233300D02*
X0315721Y0233300D01*
X0315721Y0233639D02*
X0314061Y0233639D01*
X0314061Y0233978D02*
X0315721Y0233978D01*
X0315721Y0234317D02*
X0314061Y0234317D01*
X0313961Y0238621D02*
X0315621Y0238621D01*
X0315621Y0236961D01*
X0313961Y0236961D01*
X0313961Y0238621D01*
X0313961Y0237300D02*
X0315621Y0237300D01*
X0315621Y0237639D02*
X0313961Y0237639D01*
X0313961Y0237978D02*
X0315621Y0237978D01*
X0315621Y0238317D02*
X0313961Y0238317D01*
X0317561Y0238621D02*
X0319221Y0238621D01*
X0319221Y0236961D01*
X0317561Y0236961D01*
X0317561Y0238621D01*
X0317561Y0237300D02*
X0319221Y0237300D01*
X0319221Y0237639D02*
X0317561Y0237639D01*
X0317561Y0237978D02*
X0319221Y0237978D01*
X0319221Y0238317D02*
X0317561Y0238317D01*
X0248321Y0216361D02*
X0246661Y0216361D01*
X0246661Y0218021D01*
X0248321Y0218021D01*
X0248321Y0216361D01*
X0248321Y0216700D02*
X0246661Y0216700D01*
X0246661Y0217039D02*
X0248321Y0217039D01*
X0248321Y0217378D02*
X0246661Y0217378D01*
X0246661Y0217717D02*
X0248321Y0217717D01*
X0244721Y0216361D02*
X0243061Y0216361D01*
X0243061Y0218021D01*
X0244721Y0218021D01*
X0244721Y0216361D01*
X0244721Y0216700D02*
X0243061Y0216700D01*
X0243061Y0217039D02*
X0244721Y0217039D01*
X0244721Y0217378D02*
X0243061Y0217378D01*
X0243061Y0217717D02*
X0244721Y0217717D01*
X0239821Y0216361D02*
X0238161Y0216361D01*
X0238161Y0218021D01*
X0239821Y0218021D01*
X0239821Y0216361D01*
X0239821Y0216700D02*
X0238161Y0216700D01*
X0238161Y0217039D02*
X0239821Y0217039D01*
X0239821Y0217378D02*
X0238161Y0217378D01*
X0238161Y0217717D02*
X0239821Y0217717D01*
X0236221Y0216361D02*
X0234561Y0216361D01*
X0234561Y0218021D01*
X0236221Y0218021D01*
X0236221Y0216361D01*
X0236221Y0216700D02*
X0234561Y0216700D01*
X0234561Y0217039D02*
X0236221Y0217039D01*
X0236221Y0217378D02*
X0234561Y0217378D01*
X0234561Y0217717D02*
X0236221Y0217717D01*
X0238561Y0199361D02*
X0240221Y0199361D01*
X0238561Y0199361D02*
X0238561Y0201021D01*
X0240221Y0201021D01*
X0240221Y0199361D01*
X0240221Y0199700D02*
X0238561Y0199700D01*
X0238561Y0200039D02*
X0240221Y0200039D01*
X0240221Y0200378D02*
X0238561Y0200378D01*
X0238561Y0200717D02*
X0240221Y0200717D01*
X0242161Y0199361D02*
X0243821Y0199361D01*
X0242161Y0199361D02*
X0242161Y0201021D01*
X0243821Y0201021D01*
X0243821Y0199361D01*
X0243821Y0199700D02*
X0242161Y0199700D01*
X0242161Y0200039D02*
X0243821Y0200039D01*
X0243821Y0200378D02*
X0242161Y0200378D01*
X0242161Y0200717D02*
X0243821Y0200717D01*
X0243561Y0253861D02*
X0243561Y0255521D01*
X0245221Y0255521D01*
X0245221Y0253861D01*
X0243561Y0253861D01*
X0243561Y0254200D02*
X0245221Y0254200D01*
X0245221Y0254539D02*
X0243561Y0254539D01*
X0243561Y0254878D02*
X0245221Y0254878D01*
X0245221Y0255217D02*
X0243561Y0255217D01*
X0243561Y0257461D02*
X0243561Y0259121D01*
X0245221Y0259121D01*
X0245221Y0257461D01*
X0243561Y0257461D01*
X0243561Y0257800D02*
X0245221Y0257800D01*
X0245221Y0258139D02*
X0243561Y0258139D01*
X0243561Y0258478D02*
X0245221Y0258478D01*
X0245221Y0258817D02*
X0243561Y0258817D01*
X0239161Y0259121D02*
X0239161Y0257461D01*
X0239161Y0259121D02*
X0240821Y0259121D01*
X0240821Y0257461D01*
X0239161Y0257461D01*
X0239161Y0257800D02*
X0240821Y0257800D01*
X0240821Y0258139D02*
X0239161Y0258139D01*
X0239161Y0258478D02*
X0240821Y0258478D01*
X0240821Y0258817D02*
X0239161Y0258817D01*
X0234661Y0259021D02*
X0234661Y0257361D01*
X0234661Y0259021D02*
X0236321Y0259021D01*
X0236321Y0257361D01*
X0234661Y0257361D01*
X0234661Y0257700D02*
X0236321Y0257700D01*
X0236321Y0258039D02*
X0234661Y0258039D01*
X0234661Y0258378D02*
X0236321Y0258378D01*
X0236321Y0258717D02*
X0234661Y0258717D01*
X0231821Y0259021D02*
X0231821Y0257361D01*
X0230161Y0257361D01*
X0230161Y0259021D01*
X0231821Y0259021D01*
X0231821Y0257700D02*
X0230161Y0257700D01*
X0230161Y0258039D02*
X0231821Y0258039D01*
X0231821Y0258378D02*
X0230161Y0258378D01*
X0230161Y0258717D02*
X0231821Y0258717D01*
X0231821Y0255421D02*
X0231821Y0253761D01*
X0230161Y0253761D01*
X0230161Y0255421D01*
X0231821Y0255421D01*
X0231821Y0254100D02*
X0230161Y0254100D01*
X0230161Y0254439D02*
X0231821Y0254439D01*
X0231821Y0254778D02*
X0230161Y0254778D01*
X0230161Y0255117D02*
X0231821Y0255117D01*
X0234661Y0255421D02*
X0234661Y0253761D01*
X0234661Y0255421D02*
X0236321Y0255421D01*
X0236321Y0253761D01*
X0234661Y0253761D01*
X0234661Y0254100D02*
X0236321Y0254100D01*
X0236321Y0254439D02*
X0234661Y0254439D01*
X0234661Y0254778D02*
X0236321Y0254778D01*
X0236321Y0255117D02*
X0234661Y0255117D01*
X0239161Y0255521D02*
X0239161Y0253861D01*
X0239161Y0255521D02*
X0240821Y0255521D01*
X0240821Y0253861D01*
X0239161Y0253861D01*
X0239161Y0254200D02*
X0240821Y0254200D01*
X0240821Y0254539D02*
X0239161Y0254539D01*
X0239161Y0254878D02*
X0240821Y0254878D01*
X0240821Y0255217D02*
X0239161Y0255217D01*
X0227321Y0255421D02*
X0227321Y0253761D01*
X0225661Y0253761D01*
X0225661Y0255421D01*
X0227321Y0255421D01*
X0227321Y0254100D02*
X0225661Y0254100D01*
X0225661Y0254439D02*
X0227321Y0254439D01*
X0227321Y0254778D02*
X0225661Y0254778D01*
X0225661Y0255117D02*
X0227321Y0255117D01*
X0227321Y0257361D02*
X0227321Y0259021D01*
X0227321Y0257361D02*
X0225661Y0257361D01*
X0225661Y0259021D01*
X0227321Y0259021D01*
X0227321Y0257700D02*
X0225661Y0257700D01*
X0225661Y0258039D02*
X0227321Y0258039D01*
X0227321Y0258378D02*
X0225661Y0258378D01*
X0225661Y0258717D02*
X0227321Y0258717D01*
X0217461Y0259121D02*
X0217461Y0257461D01*
X0217461Y0259121D02*
X0219121Y0259121D01*
X0219121Y0257461D01*
X0217461Y0257461D01*
X0217461Y0257800D02*
X0219121Y0257800D01*
X0219121Y0258139D02*
X0217461Y0258139D01*
X0217461Y0258478D02*
X0219121Y0258478D01*
X0219121Y0258817D02*
X0217461Y0258817D01*
X0217461Y0255521D02*
X0217461Y0253861D01*
X0217461Y0255521D02*
X0219121Y0255521D01*
X0219121Y0253861D01*
X0217461Y0253861D01*
X0217461Y0254200D02*
X0219121Y0254200D01*
X0219121Y0254539D02*
X0217461Y0254539D01*
X0217461Y0254878D02*
X0219121Y0254878D01*
X0219121Y0255217D02*
X0217461Y0255217D01*
X0211221Y0255621D02*
X0211221Y0253961D01*
X0209561Y0253961D01*
X0209561Y0255621D01*
X0211221Y0255621D01*
X0211221Y0254300D02*
X0209561Y0254300D01*
X0209561Y0254639D02*
X0211221Y0254639D01*
X0211221Y0254978D02*
X0209561Y0254978D01*
X0209561Y0255317D02*
X0211221Y0255317D01*
X0211221Y0257561D02*
X0211221Y0259221D01*
X0211221Y0257561D02*
X0209561Y0257561D01*
X0209561Y0259221D01*
X0211221Y0259221D01*
X0211221Y0257900D02*
X0209561Y0257900D01*
X0209561Y0258239D02*
X0211221Y0258239D01*
X0211221Y0258578D02*
X0209561Y0258578D01*
X0209561Y0258917D02*
X0211221Y0258917D01*
X0203421Y0259221D02*
X0203421Y0257561D01*
X0201761Y0257561D01*
X0201761Y0259221D01*
X0203421Y0259221D01*
X0203421Y0257900D02*
X0201761Y0257900D01*
X0201761Y0258239D02*
X0203421Y0258239D01*
X0203421Y0258578D02*
X0201761Y0258578D01*
X0201761Y0258917D02*
X0203421Y0258917D01*
X0203421Y0255621D02*
X0203421Y0253961D01*
X0201761Y0253961D01*
X0201761Y0255621D01*
X0203421Y0255621D01*
X0203421Y0254300D02*
X0201761Y0254300D01*
X0201761Y0254639D02*
X0203421Y0254639D01*
X0203421Y0254978D02*
X0201761Y0254978D01*
X0201761Y0255317D02*
X0203421Y0255317D01*
D11*
X0253034Y0085610D02*
X0258136Y0085610D01*
X0258136Y0079720D01*
X0253034Y0079720D01*
X0253034Y0085610D01*
X0253034Y0080286D02*
X0258136Y0080286D01*
X0258136Y0080852D02*
X0253034Y0080852D01*
X0253034Y0081418D02*
X0258136Y0081418D01*
X0258136Y0081984D02*
X0253034Y0081984D01*
X0253034Y0082550D02*
X0258136Y0082550D01*
X0258136Y0083116D02*
X0253034Y0083116D01*
X0253034Y0083682D02*
X0258136Y0083682D01*
X0258136Y0084248D02*
X0253034Y0084248D01*
X0253034Y0084814D02*
X0258136Y0084814D01*
X0258136Y0085380D02*
X0253034Y0085380D01*
X0264057Y0085610D02*
X0269159Y0085610D01*
X0269159Y0079720D01*
X0264057Y0079720D01*
X0264057Y0085610D01*
X0264057Y0080286D02*
X0269159Y0080286D01*
X0269159Y0080852D02*
X0264057Y0080852D01*
X0264057Y0081418D02*
X0269159Y0081418D01*
X0269159Y0081984D02*
X0264057Y0081984D01*
X0264057Y0082550D02*
X0269159Y0082550D01*
X0269159Y0083116D02*
X0264057Y0083116D01*
X0264057Y0083682D02*
X0269159Y0083682D01*
X0269159Y0084248D02*
X0264057Y0084248D01*
X0264057Y0084814D02*
X0269159Y0084814D01*
X0269159Y0085380D02*
X0264057Y0085380D01*
X0363284Y0079970D02*
X0368386Y0079970D01*
X0363284Y0079970D02*
X0363284Y0085860D01*
X0368386Y0085860D01*
X0368386Y0079970D01*
X0368386Y0080536D02*
X0363284Y0080536D01*
X0363284Y0081102D02*
X0368386Y0081102D01*
X0368386Y0081668D02*
X0363284Y0081668D01*
X0363284Y0082234D02*
X0368386Y0082234D01*
X0368386Y0082800D02*
X0363284Y0082800D01*
X0363284Y0083366D02*
X0368386Y0083366D01*
X0368386Y0083932D02*
X0363284Y0083932D01*
X0363284Y0084498D02*
X0368386Y0084498D01*
X0368386Y0085064D02*
X0363284Y0085064D01*
X0363284Y0085630D02*
X0368386Y0085630D01*
X0374307Y0079970D02*
X0379409Y0079970D01*
X0374307Y0079970D02*
X0374307Y0085860D01*
X0379409Y0085860D01*
X0379409Y0079970D01*
X0379409Y0080536D02*
X0374307Y0080536D01*
X0374307Y0081102D02*
X0379409Y0081102D01*
X0379409Y0081668D02*
X0374307Y0081668D01*
X0374307Y0082234D02*
X0379409Y0082234D01*
X0379409Y0082800D02*
X0374307Y0082800D01*
X0374307Y0083366D02*
X0379409Y0083366D01*
X0379409Y0083932D02*
X0374307Y0083932D01*
X0374307Y0084498D02*
X0379409Y0084498D01*
X0379409Y0085064D02*
X0374307Y0085064D01*
X0374307Y0085630D02*
X0379409Y0085630D01*
D12*
X0383297Y0085563D02*
X0387443Y0085563D01*
X0387443Y0080629D01*
X0383297Y0080629D01*
X0383297Y0085563D01*
X0383297Y0081089D02*
X0387443Y0081089D01*
X0387443Y0081549D02*
X0383297Y0081549D01*
X0383297Y0082009D02*
X0387443Y0082009D01*
X0387443Y0082469D02*
X0383297Y0082469D01*
X0383297Y0082929D02*
X0387443Y0082929D01*
X0387443Y0083389D02*
X0383297Y0083389D01*
X0383297Y0083849D02*
X0387443Y0083849D01*
X0387443Y0084309D02*
X0383297Y0084309D01*
X0383297Y0084769D02*
X0387443Y0084769D01*
X0387443Y0085229D02*
X0383297Y0085229D01*
X0389990Y0085563D02*
X0394136Y0085563D01*
X0394136Y0080629D01*
X0389990Y0080629D01*
X0389990Y0085563D01*
X0389990Y0081089D02*
X0394136Y0081089D01*
X0394136Y0081549D02*
X0389990Y0081549D01*
X0389990Y0082009D02*
X0394136Y0082009D01*
X0394136Y0082469D02*
X0389990Y0082469D01*
X0389990Y0082929D02*
X0394136Y0082929D01*
X0394136Y0083389D02*
X0389990Y0083389D01*
X0389990Y0083849D02*
X0394136Y0083849D01*
X0394136Y0084309D02*
X0389990Y0084309D01*
X0389990Y0084769D02*
X0394136Y0084769D01*
X0394136Y0085229D02*
X0389990Y0085229D01*
D13*
X0242125Y0221481D02*
X0238461Y0221481D01*
X0238461Y0221995D01*
X0242125Y0221995D01*
X0242125Y0221481D01*
X0242125Y0221746D02*
X0238461Y0221746D01*
X0238461Y0223450D02*
X0242125Y0223450D01*
X0238461Y0223450D02*
X0238461Y0223964D01*
X0242125Y0223964D01*
X0242125Y0223450D01*
X0242125Y0223715D02*
X0238461Y0223715D01*
X0238461Y0225418D02*
X0242125Y0225418D01*
X0238461Y0225418D02*
X0238461Y0225932D01*
X0242125Y0225932D01*
X0242125Y0225418D01*
X0242125Y0225683D02*
X0238461Y0225683D01*
X0238461Y0227387D02*
X0242125Y0227387D01*
X0238461Y0227387D02*
X0238461Y0227901D01*
X0242125Y0227901D01*
X0242125Y0227387D01*
X0242125Y0227652D02*
X0238461Y0227652D01*
X0229921Y0227387D02*
X0226257Y0227387D01*
X0226257Y0227901D01*
X0229921Y0227901D01*
X0229921Y0227387D01*
X0229921Y0227652D02*
X0226257Y0227652D01*
X0226257Y0225418D02*
X0229921Y0225418D01*
X0226257Y0225418D02*
X0226257Y0225932D01*
X0229921Y0225932D01*
X0229921Y0225418D01*
X0229921Y0225683D02*
X0226257Y0225683D01*
X0226257Y0223450D02*
X0229921Y0223450D01*
X0226257Y0223450D02*
X0226257Y0223964D01*
X0229921Y0223964D01*
X0229921Y0223450D01*
X0229921Y0223715D02*
X0226257Y0223715D01*
X0226257Y0221481D02*
X0229921Y0221481D01*
X0226257Y0221481D02*
X0226257Y0221995D01*
X0229921Y0221995D01*
X0229921Y0221481D01*
X0229921Y0221746D02*
X0226257Y0221746D01*
D14*
X0234564Y0214345D02*
X0235818Y0214345D01*
X0235818Y0211123D01*
X0234564Y0211123D01*
X0234564Y0214345D01*
X0234564Y0211436D02*
X0235818Y0211436D01*
X0235818Y0211749D02*
X0234564Y0211749D01*
X0234564Y0212062D02*
X0235818Y0212062D01*
X0235818Y0212375D02*
X0234564Y0212375D01*
X0234564Y0212688D02*
X0235818Y0212688D01*
X0235818Y0213001D02*
X0234564Y0213001D01*
X0234564Y0213314D02*
X0235818Y0213314D01*
X0235818Y0213627D02*
X0234564Y0213627D01*
X0234564Y0213940D02*
X0235818Y0213940D01*
X0235818Y0214253D02*
X0234564Y0214253D01*
X0233259Y0207259D02*
X0232005Y0207259D01*
X0233259Y0207259D02*
X0233259Y0204037D01*
X0232005Y0204037D01*
X0232005Y0207259D01*
X0232005Y0204350D02*
X0233259Y0204350D01*
X0233259Y0204663D02*
X0232005Y0204663D01*
X0232005Y0204976D02*
X0233259Y0204976D01*
X0233259Y0205289D02*
X0232005Y0205289D01*
X0232005Y0205602D02*
X0233259Y0205602D01*
X0233259Y0205915D02*
X0232005Y0205915D01*
X0232005Y0206228D02*
X0233259Y0206228D01*
X0233259Y0206541D02*
X0232005Y0206541D01*
X0232005Y0206854D02*
X0233259Y0206854D01*
X0233259Y0207167D02*
X0232005Y0207167D01*
X0237123Y0207259D02*
X0238377Y0207259D01*
X0238377Y0204037D01*
X0237123Y0204037D01*
X0237123Y0207259D01*
X0237123Y0204350D02*
X0238377Y0204350D01*
X0238377Y0204663D02*
X0237123Y0204663D01*
X0237123Y0204976D02*
X0238377Y0204976D01*
X0238377Y0205289D02*
X0237123Y0205289D01*
X0237123Y0205602D02*
X0238377Y0205602D01*
X0238377Y0205915D02*
X0237123Y0205915D01*
X0237123Y0206228D02*
X0238377Y0206228D01*
X0238377Y0206541D02*
X0237123Y0206541D01*
X0237123Y0206854D02*
X0238377Y0206854D01*
X0238377Y0207167D02*
X0237123Y0207167D01*
M02*
