G75*
%MOIN*%
%OFA0B0*%
%FSLAX25Y25*%
%IPPOS*%
%LPD*%
%AMOC8*
5,1,8,0,0,1.08239X$1,22.5*
%
%ADD10C,0.05937*%
%ADD11C,0.06000*%
%ADD12C,0.05150*%
%ADD13C,0.05700*%
%ADD14C,0.10039*%
%ADD15C,0.07650*%
%ADD16C,0.05900*%
%ADD17C,0.06496*%
%ADD18C,0.05543*%
%ADD19C,0.09449*%
%ADD20C,0.05600*%
%ADD21C,0.03100*%
%ADD22C,0.02800*%
%ADD23C,0.02900*%
%ADD24C,0.01200*%
%ADD25C,0.01000*%
%ADD26C,0.04000*%
%ADD27C,0.02600*%
%ADD28C,0.03200*%
%ADD29C,0.01600*%
%ADD30C,0.06600*%
D10*
X0119323Y0062327D03*
X0137827Y0076107D03*
X0119481Y0086737D03*
D11*
X0168986Y0097230D03*
X0178986Y0097230D03*
X0188986Y0097230D03*
X0198986Y0097230D03*
X0208986Y0097230D03*
X0218986Y0097230D03*
X0228986Y0097230D03*
X0238986Y0097230D03*
X0238986Y0107230D03*
X0228986Y0107230D03*
X0218986Y0107230D03*
X0208986Y0107230D03*
X0198986Y0107230D03*
X0188986Y0107230D03*
X0178986Y0107230D03*
X0168986Y0107230D03*
X0173986Y0294081D03*
X0173986Y0304081D03*
X0183986Y0304081D03*
X0193986Y0304081D03*
X0203986Y0304081D03*
X0213986Y0304081D03*
X0223986Y0304081D03*
X0233986Y0304081D03*
X0233986Y0294081D03*
X0223986Y0294081D03*
X0213986Y0294081D03*
X0203986Y0294081D03*
X0193986Y0294081D03*
X0183986Y0294081D03*
D12*
X0345891Y0218274D03*
X0345891Y0210400D03*
X0345891Y0202526D03*
X0345891Y0194652D03*
X0345891Y0186778D03*
X0345891Y0178904D03*
X0345891Y0171030D03*
X0345891Y0163156D03*
X0345891Y0155282D03*
X0345891Y0147408D03*
X0325030Y0129467D03*
X0317156Y0129467D03*
X0309281Y0129467D03*
X0301407Y0129467D03*
X0293533Y0129467D03*
X0285659Y0129467D03*
X0277785Y0129467D03*
X0269911Y0129467D03*
X0262037Y0129467D03*
X0254163Y0129467D03*
X0254163Y0099467D03*
X0262037Y0099467D03*
X0269911Y0099467D03*
X0277785Y0099467D03*
X0285659Y0099467D03*
X0293533Y0099467D03*
X0301407Y0099467D03*
X0309281Y0099467D03*
X0317156Y0099467D03*
X0325030Y0099467D03*
X0339443Y0070199D03*
X0347474Y0070199D03*
X0355506Y0070199D03*
X0363537Y0070199D03*
X0359522Y0063191D03*
X0351490Y0063191D03*
X0343459Y0063191D03*
X0301530Y0070199D03*
X0293498Y0070199D03*
X0285467Y0070199D03*
X0277435Y0070199D03*
X0281451Y0063191D03*
X0289482Y0063191D03*
X0297514Y0063191D03*
X0432491Y0147408D03*
X0432491Y0155282D03*
X0432491Y0163156D03*
X0432491Y0171030D03*
X0432491Y0178904D03*
X0432491Y0186778D03*
X0432491Y0194652D03*
X0432491Y0202526D03*
X0432491Y0210400D03*
X0432491Y0218274D03*
X0156491Y0075196D03*
X0156491Y0063385D03*
X0085596Y0063691D03*
X0073785Y0063691D03*
D13*
X0305545Y0063191D03*
X0367553Y0063191D03*
D14*
X0385486Y0066695D03*
X0259502Y0066695D03*
D15*
X0406470Y0061667D03*
X0434030Y0061667D03*
D16*
X0429108Y0051825D03*
X0411392Y0051825D03*
D17*
X0267861Y0333427D03*
X0254081Y0333427D03*
X0240302Y0333427D03*
X0226522Y0333427D03*
X0212743Y0333427D03*
X0198963Y0333427D03*
X0185184Y0333427D03*
X0171404Y0333427D03*
X0157625Y0333427D03*
X0143845Y0333427D03*
X0130066Y0333427D03*
X0116286Y0333427D03*
X0102507Y0333427D03*
X0088727Y0333427D03*
D18*
X0451164Y0208222D03*
X0451164Y0198380D03*
X0451164Y0190506D03*
X0451164Y0180663D03*
D19*
X0480101Y0169246D03*
X0480101Y0219640D03*
D20*
X0390191Y0195191D03*
X0380191Y0195191D03*
X0370191Y0195191D03*
X0311191Y0161691D03*
X0301191Y0161691D03*
X0291191Y0161691D03*
D21*
X0289191Y0171691D03*
X0297191Y0172691D03*
X0310191Y0180691D03*
X0316691Y0172191D03*
X0322691Y0173191D03*
X0325691Y0167691D03*
X0318691Y0163691D03*
X0334691Y0162191D03*
X0334191Y0152191D03*
X0333191Y0141191D03*
X0333191Y0134191D03*
X0333191Y0127191D03*
X0342191Y0133691D03*
X0348691Y0141691D03*
X0350691Y0150191D03*
X0368191Y0155691D03*
X0377191Y0153191D03*
X0377691Y0147691D03*
X0383191Y0143691D03*
X0386691Y0147191D03*
X0398691Y0156191D03*
X0403691Y0153691D03*
X0416691Y0161191D03*
X0420191Y0172191D03*
X0419691Y0178691D03*
X0405191Y0185191D03*
X0401191Y0178691D03*
X0386691Y0164191D03*
X0375191Y0162691D03*
X0366191Y0166191D03*
X0356191Y0168191D03*
X0365691Y0177691D03*
X0357691Y0181191D03*
X0354191Y0193191D03*
X0354191Y0205191D03*
X0331191Y0212691D03*
X0333691Y0225691D03*
X0344191Y0234191D03*
X0340691Y0240191D03*
X0358691Y0241191D03*
X0355691Y0256191D03*
X0362691Y0256691D03*
X0360691Y0261691D03*
X0355691Y0263691D03*
X0351691Y0270691D03*
X0346691Y0263691D03*
X0340191Y0265691D03*
X0334191Y0264191D03*
X0327191Y0263191D03*
X0323691Y0268691D03*
X0311191Y0258191D03*
X0296691Y0258691D03*
X0287691Y0256191D03*
X0289191Y0266691D03*
X0290191Y0244191D03*
X0290191Y0234691D03*
X0292691Y0216691D03*
X0302191Y0216191D03*
X0305191Y0206691D03*
X0312691Y0206191D03*
X0296191Y0205691D03*
X0290691Y0200191D03*
X0310191Y0189191D03*
X0273191Y0169691D03*
X0263691Y0169691D03*
X0250691Y0170191D03*
X0242691Y0170191D03*
X0214691Y0170691D03*
X0202691Y0163691D03*
X0198691Y0169191D03*
X0200691Y0189191D03*
X0202191Y0200191D03*
X0212191Y0200691D03*
X0213191Y0193191D03*
X0217691Y0188691D03*
X0192691Y0203191D03*
X0182291Y0206091D03*
X0176191Y0200691D03*
X0168191Y0205991D03*
X0160391Y0214591D03*
X0154791Y0222591D03*
X0147691Y0227191D03*
X0160291Y0230891D03*
X0165591Y0235891D03*
X0154691Y0243191D03*
X0146691Y0250191D03*
X0143191Y0244191D03*
X0150191Y0237191D03*
X0167291Y0221591D03*
X0174091Y0228191D03*
X0183291Y0220991D03*
X0178591Y0214491D03*
X0192191Y0215191D03*
X0201191Y0210691D03*
X0198191Y0231191D03*
X0200191Y0237691D03*
X0193691Y0243191D03*
X0188991Y0249791D03*
X0183191Y0245191D03*
X0188191Y0237691D03*
X0200691Y0247491D03*
X0175391Y0250391D03*
X0146691Y0261191D03*
X0140191Y0259191D03*
X0131691Y0261191D03*
X0106691Y0269191D03*
X0104691Y0276191D03*
X0104691Y0261191D03*
X0105191Y0253191D03*
X0104691Y0244691D03*
X0104691Y0240191D03*
X0105691Y0230191D03*
X0104691Y0216191D03*
X0103691Y0204191D03*
X0103191Y0193691D03*
X0104191Y0180191D03*
X0104191Y0170691D03*
X0096691Y0169691D03*
X0096691Y0163191D03*
X0102191Y0163191D03*
X0108191Y0163191D03*
X0113691Y0163191D03*
X0119191Y0168191D03*
X0134691Y0165191D03*
X0135191Y0170191D03*
X0150191Y0169191D03*
X0157191Y0169191D03*
X0152191Y0154191D03*
X0151691Y0147691D03*
X0159191Y0148191D03*
X0178191Y0140691D03*
X0178191Y0134691D03*
X0175691Y0129191D03*
X0176691Y0123691D03*
X0192691Y0131191D03*
X0198191Y0133191D03*
X0196691Y0140191D03*
X0198691Y0125691D03*
X0194691Y0119691D03*
X0201691Y0116191D03*
X0227691Y0117691D03*
X0227691Y0127191D03*
X0227691Y0136191D03*
X0244691Y0131191D03*
X0245191Y0120191D03*
X0243691Y0115191D03*
X0270191Y0136191D03*
X0307691Y0144691D03*
X0312691Y0147691D03*
X0368191Y0131191D03*
X0370191Y0136191D03*
X0375191Y0131191D03*
X0368191Y0125191D03*
X0373191Y0115191D03*
X0373191Y0110191D03*
X0373191Y0103691D03*
X0373191Y0096691D03*
X0399191Y0075691D03*
X0413691Y0071691D03*
X0419191Y0075691D03*
X0441691Y0074691D03*
X0455191Y0077191D03*
X0454191Y0085191D03*
X0452691Y0101691D03*
X0450191Y0107691D03*
X0454691Y0115191D03*
X0452191Y0121691D03*
X0459691Y0121191D03*
X0459191Y0127191D03*
X0465191Y0144191D03*
X0458691Y0155191D03*
X0444691Y0152191D03*
X0441691Y0162191D03*
X0442691Y0180691D03*
X0462191Y0178191D03*
X0462691Y0184691D03*
X0483191Y0190691D03*
X0483691Y0210691D03*
X0481691Y0235191D03*
X0477691Y0243691D03*
X0474191Y0256191D03*
X0462191Y0262191D03*
X0456191Y0257191D03*
X0447691Y0254191D03*
X0438691Y0250191D03*
X0446691Y0243691D03*
X0441191Y0234691D03*
X0454191Y0229191D03*
X0451691Y0215191D03*
X0444191Y0209691D03*
X0441691Y0196191D03*
X0421691Y0194191D03*
X0420691Y0201191D03*
X0420691Y0207191D03*
X0420691Y0214191D03*
X0405191Y0217691D03*
X0396191Y0214691D03*
X0397191Y0228191D03*
X0406691Y0225691D03*
X0406691Y0238691D03*
X0399691Y0244191D03*
X0388691Y0237691D03*
X0385191Y0245191D03*
X0379191Y0246191D03*
X0383691Y0252191D03*
X0381691Y0262191D03*
X0381191Y0270691D03*
X0388191Y0269191D03*
X0386691Y0276191D03*
X0395191Y0277691D03*
X0398691Y0269191D03*
X0394191Y0258691D03*
X0408691Y0255691D03*
X0418691Y0245191D03*
X0419191Y0237191D03*
X0419691Y0228691D03*
X0428691Y0232191D03*
X0461691Y0244691D03*
X0443691Y0264191D03*
X0455191Y0269191D03*
X0459191Y0280191D03*
X0463191Y0287691D03*
X0455191Y0292691D03*
X0447691Y0287691D03*
X0443691Y0279191D03*
X0429191Y0271691D03*
X0428691Y0264191D03*
X0419191Y0266691D03*
X0413691Y0279191D03*
X0413691Y0289191D03*
X0415691Y0295691D03*
X0423191Y0290191D03*
X0430691Y0291191D03*
X0429691Y0299191D03*
X0428691Y0312191D03*
X0453191Y0311691D03*
X0404691Y0296191D03*
X0403691Y0288191D03*
X0394191Y0290191D03*
X0394191Y0296191D03*
X0386191Y0295691D03*
X0379191Y0289691D03*
X0377191Y0278191D03*
X0371191Y0275191D03*
X0346191Y0256691D03*
X0378691Y0238691D03*
X0378691Y0225191D03*
X0363191Y0225691D03*
X0398191Y0199691D03*
X0408191Y0200191D03*
X0375191Y0187691D03*
X0375191Y0179691D03*
X0419191Y0132191D03*
X0411191Y0128191D03*
X0421691Y0126691D03*
X0466691Y0109691D03*
X0453691Y0058691D03*
X0447191Y0052191D03*
X0334191Y0096691D03*
X0242191Y0071691D03*
X0229191Y0066691D03*
X0218191Y0066191D03*
X0203691Y0066191D03*
X0193691Y0066691D03*
X0199691Y0055191D03*
X0177691Y0079191D03*
X0176191Y0086191D03*
X0185191Y0084691D03*
X0194691Y0084691D03*
X0204691Y0085191D03*
X0214691Y0085191D03*
X0225691Y0085191D03*
X0232691Y0057191D03*
X0164691Y0051691D03*
X0102691Y0098691D03*
X0094691Y0103191D03*
X0077691Y0107691D03*
X0074191Y0098191D03*
X0067191Y0098191D03*
X0067191Y0089191D03*
X0073191Y0089191D03*
X0073191Y0083191D03*
X0067191Y0083191D03*
X0067191Y0077191D03*
X0074191Y0073191D03*
X0067191Y0071191D03*
X0067191Y0065191D03*
X0067191Y0059191D03*
X0067191Y0053191D03*
X0074191Y0053191D03*
X0078191Y0057191D03*
X0054691Y0108691D03*
X0061691Y0113191D03*
X0066691Y0110691D03*
X0064691Y0124191D03*
X0056691Y0123691D03*
X0052691Y0128191D03*
X0076691Y0128191D03*
X0101691Y0151191D03*
X0107191Y0154691D03*
X0113691Y0152691D03*
X0113691Y0145691D03*
X0108191Y0147691D03*
X0080191Y0163691D03*
X0080191Y0169191D03*
X0070691Y0168191D03*
X0060691Y0167691D03*
X0060691Y0160691D03*
X0070691Y0161691D03*
X0051691Y0162191D03*
X0051691Y0156691D03*
X0051691Y0168691D03*
X0073691Y0204691D03*
X0074691Y0216191D03*
X0076691Y0223691D03*
X0076691Y0231691D03*
X0076691Y0242691D03*
X0077191Y0254191D03*
X0076691Y0263691D03*
X0076491Y0272691D03*
X0076191Y0281691D03*
X0076191Y0290191D03*
X0095991Y0298491D03*
X0102091Y0294291D03*
X0075191Y0312691D03*
X0068691Y0310191D03*
X0068691Y0325191D03*
X0078691Y0325191D03*
X0078691Y0340191D03*
X0068691Y0340191D03*
X0151291Y0286891D03*
X0160691Y0287291D03*
X0248691Y0293191D03*
X0257691Y0293691D03*
X0268691Y0293191D03*
X0269691Y0300191D03*
X0260691Y0304691D03*
X0250691Y0301191D03*
X0250191Y0308691D03*
X0258191Y0313191D03*
X0271691Y0308691D03*
X0275691Y0319191D03*
X0295691Y0309691D03*
X0293191Y0299191D03*
X0293191Y0291191D03*
X0285191Y0289691D03*
X0306691Y0290191D03*
X0317191Y0290191D03*
X0319691Y0299191D03*
X0320691Y0308191D03*
X0341691Y0298691D03*
X0337191Y0291691D03*
X0332191Y0288191D03*
X0355191Y0294191D03*
X0354191Y0302691D03*
X0260191Y0250191D03*
X0260691Y0243191D03*
X0262191Y0229191D03*
X0249191Y0232191D03*
X0248191Y0222191D03*
X0252691Y0216691D03*
X0263691Y0218191D03*
X0252191Y0205691D03*
X0249691Y0195191D03*
X0185191Y0191691D03*
X0141191Y0188691D03*
X0134191Y0189691D03*
X0127191Y0189691D03*
X0127191Y0203691D03*
X0134191Y0212691D03*
X0138191Y0207191D03*
X0128691Y0217691D03*
X0255691Y0261691D03*
X0156191Y0117191D03*
X0154691Y0108191D03*
X0471191Y0269191D03*
X0479191Y0271191D03*
D22*
X0338691Y0278191D03*
X0330191Y0278191D03*
X0316191Y0278191D03*
X0309691Y0278191D03*
X0303191Y0278191D03*
X0282691Y0278191D03*
X0271691Y0278191D03*
D23*
X0281191Y0243191D03*
X0310691Y0229191D03*
X0321691Y0230691D03*
X0323191Y0236191D03*
X0331691Y0237191D03*
X0333691Y0232691D03*
X0337191Y0229191D03*
X0328191Y0204691D03*
X0335191Y0201191D03*
X0328691Y0184691D03*
X0295691Y0220191D03*
X0276691Y0198691D03*
X0256691Y0197191D03*
X0249791Y0184791D03*
X0235691Y0170191D03*
X0224891Y0193491D03*
X0242691Y0212691D03*
X0221191Y0221191D03*
X0221191Y0227191D03*
X0206591Y0242891D03*
X0219991Y0247791D03*
X0230991Y0243991D03*
X0239991Y0240291D03*
X0244391Y0236691D03*
X0218291Y0262891D03*
X0210491Y0263191D03*
X0202591Y0263491D03*
X0186691Y0280191D03*
X0163191Y0265691D03*
X0155691Y0265691D03*
X0133691Y0253691D03*
X0131191Y0245691D03*
X0143691Y0237191D03*
X0129191Y0229691D03*
X0130691Y0207691D03*
X0152191Y0204691D03*
X0164191Y0198691D03*
X0088191Y0183691D03*
X0060191Y0186191D03*
X0080191Y0141691D03*
X0057691Y0137691D03*
X0181691Y0119191D03*
X0240691Y0138191D03*
X0250191Y0142191D03*
X0261691Y0142191D03*
X0271191Y0142191D03*
X0285191Y0143691D03*
X0292191Y0143691D03*
X0301191Y0143191D03*
X0356191Y0114691D03*
X0398191Y0129191D03*
X0392691Y0156691D03*
X0317191Y0256691D03*
X0347191Y0313191D03*
D24*
X0065329Y0101987D02*
X0065329Y0049762D01*
X0079691Y0049762D01*
X0079691Y0084737D01*
X0079219Y0084932D01*
X0076657Y0087494D01*
X0075271Y0090840D01*
X0075271Y0094463D01*
X0076657Y0097809D01*
X0079219Y0100371D01*
X0082565Y0101757D01*
X0086188Y0101757D01*
X0089535Y0100371D01*
X0092096Y0097809D01*
X0093482Y0094463D01*
X0093482Y0092691D01*
X0145691Y0092691D01*
X0145691Y0049762D01*
X0248691Y0049762D01*
X0248691Y0115691D01*
X0330691Y0115691D01*
X0330691Y0088191D01*
X0393691Y0088191D01*
X0393691Y0049762D01*
X0425038Y0049762D01*
X0424558Y0050920D01*
X0424558Y0052730D01*
X0425251Y0054402D01*
X0426531Y0055682D01*
X0428203Y0056375D01*
X0430013Y0056375D01*
X0431686Y0055682D01*
X0432966Y0054402D01*
X0433658Y0052730D01*
X0433658Y0050920D01*
X0433179Y0049762D01*
X0458691Y0049762D01*
X0458691Y0101987D01*
X0459300Y0103457D01*
X0460425Y0104582D01*
X0461895Y0105191D01*
X0486191Y0105191D01*
X0486191Y0110191D01*
X0471691Y0110191D01*
X0471691Y0181691D01*
X0486191Y0181691D01*
X0486191Y0217815D01*
X0485463Y0216057D01*
X0483684Y0214278D01*
X0481359Y0213315D01*
X0478843Y0213315D01*
X0476519Y0214278D01*
X0474740Y0216057D01*
X0473777Y0218382D01*
X0473777Y0220898D01*
X0474740Y0223222D01*
X0476519Y0225001D01*
X0478843Y0225964D01*
X0481359Y0225964D01*
X0483684Y0225001D01*
X0485463Y0223222D01*
X0486191Y0221464D01*
X0486191Y0295191D01*
X0461895Y0295191D01*
X0460425Y0295800D01*
X0459300Y0296925D01*
X0458691Y0298395D01*
X0458691Y0315691D01*
X0349004Y0315691D01*
X0349777Y0314919D01*
X0350241Y0313798D01*
X0350241Y0312584D01*
X0349777Y0311463D01*
X0348919Y0310605D01*
X0347798Y0310141D01*
X0346584Y0310141D01*
X0345463Y0310605D01*
X0344605Y0311463D01*
X0344141Y0312584D01*
X0344141Y0313798D01*
X0344605Y0314919D01*
X0345378Y0315691D01*
X0277691Y0315691D01*
X0277691Y0342943D01*
X0065691Y0342943D01*
X0065691Y0299191D01*
X0072691Y0299191D01*
X0072691Y0178691D01*
X0050191Y0178691D01*
X0050191Y0105191D01*
X0062124Y0105191D01*
X0063595Y0104582D01*
X0064720Y0103457D01*
X0065329Y0101987D01*
X0065329Y0101592D02*
X0082166Y0101592D01*
X0079273Y0100393D02*
X0065329Y0100393D01*
X0065329Y0099195D02*
X0078043Y0099195D01*
X0076844Y0097996D02*
X0065329Y0097996D01*
X0065329Y0096798D02*
X0076238Y0096798D01*
X0075742Y0095599D02*
X0065329Y0095599D01*
X0065329Y0094401D02*
X0075271Y0094401D01*
X0075271Y0093202D02*
X0065329Y0093202D01*
X0065329Y0092004D02*
X0075271Y0092004D01*
X0075286Y0090805D02*
X0065329Y0090805D01*
X0065329Y0089607D02*
X0075782Y0089607D01*
X0076279Y0088408D02*
X0065329Y0088408D01*
X0065329Y0087210D02*
X0076942Y0087210D01*
X0078140Y0086011D02*
X0065329Y0086011D01*
X0065329Y0084813D02*
X0079508Y0084813D01*
X0079691Y0083614D02*
X0065329Y0083614D01*
X0065329Y0082415D02*
X0079691Y0082415D01*
X0079691Y0081217D02*
X0065329Y0081217D01*
X0065329Y0080018D02*
X0079691Y0080018D01*
X0079691Y0078820D02*
X0065329Y0078820D01*
X0065329Y0077621D02*
X0079691Y0077621D01*
X0079691Y0076423D02*
X0065329Y0076423D01*
X0065329Y0075224D02*
X0079691Y0075224D01*
X0079691Y0074026D02*
X0065329Y0074026D01*
X0065329Y0072827D02*
X0079691Y0072827D01*
X0079691Y0071629D02*
X0065329Y0071629D01*
X0065329Y0070430D02*
X0079691Y0070430D01*
X0079691Y0069232D02*
X0065329Y0069232D01*
X0065329Y0068033D02*
X0079691Y0068033D01*
X0079691Y0066835D02*
X0065329Y0066835D01*
X0065329Y0065636D02*
X0079691Y0065636D01*
X0079691Y0064438D02*
X0065329Y0064438D01*
X0065329Y0063239D02*
X0079691Y0063239D01*
X0079691Y0062041D02*
X0065329Y0062041D01*
X0065329Y0060842D02*
X0079691Y0060842D01*
X0079691Y0059644D02*
X0065329Y0059644D01*
X0065329Y0058445D02*
X0079691Y0058445D01*
X0079691Y0057247D02*
X0065329Y0057247D01*
X0065329Y0056048D02*
X0079691Y0056048D01*
X0079691Y0054850D02*
X0065329Y0054850D01*
X0065329Y0053651D02*
X0079691Y0053651D01*
X0079691Y0052453D02*
X0065329Y0052453D01*
X0065329Y0051254D02*
X0079691Y0051254D01*
X0079691Y0050056D02*
X0065329Y0050056D01*
X0093482Y0093202D02*
X0166691Y0093202D01*
X0166381Y0093331D02*
X0168071Y0092630D01*
X0169901Y0092630D01*
X0171592Y0093331D01*
X0172886Y0094625D01*
X0173586Y0096315D01*
X0173586Y0098145D01*
X0172886Y0099836D01*
X0171592Y0101130D01*
X0169901Y0101830D01*
X0168071Y0101830D01*
X0166381Y0101130D01*
X0165087Y0099836D01*
X0164386Y0098145D01*
X0164386Y0096315D01*
X0165087Y0094625D01*
X0166381Y0093331D01*
X0165311Y0094401D02*
X0093482Y0094401D01*
X0093012Y0095599D02*
X0164683Y0095599D01*
X0164386Y0096798D02*
X0092515Y0096798D01*
X0091909Y0097996D02*
X0164386Y0097996D01*
X0164821Y0099195D02*
X0090711Y0099195D01*
X0089481Y0100393D02*
X0165644Y0100393D01*
X0167495Y0101592D02*
X0086587Y0101592D01*
X0064996Y0102790D02*
X0167685Y0102790D01*
X0168071Y0102630D02*
X0169901Y0102630D01*
X0171592Y0103331D01*
X0172886Y0104625D01*
X0173586Y0106315D01*
X0173586Y0108145D01*
X0172886Y0109836D01*
X0171592Y0111130D01*
X0169901Y0111830D01*
X0168071Y0111830D01*
X0166381Y0111130D01*
X0165087Y0109836D01*
X0164386Y0108145D01*
X0164386Y0106315D01*
X0165087Y0104625D01*
X0166381Y0103331D01*
X0168071Y0102630D01*
X0170287Y0102790D02*
X0187685Y0102790D01*
X0188071Y0102630D02*
X0189901Y0102630D01*
X0191592Y0103331D01*
X0192886Y0104625D01*
X0193586Y0106315D01*
X0193586Y0108145D01*
X0192886Y0109836D01*
X0191592Y0111130D01*
X0189901Y0111830D01*
X0188071Y0111830D01*
X0186381Y0111130D01*
X0185087Y0109836D01*
X0184386Y0108145D01*
X0184386Y0106315D01*
X0185087Y0104625D01*
X0186381Y0103331D01*
X0188071Y0102630D01*
X0188071Y0101830D02*
X0186381Y0101130D01*
X0185087Y0099836D01*
X0184386Y0098145D01*
X0184386Y0096315D01*
X0185087Y0094625D01*
X0186381Y0093331D01*
X0188071Y0092630D01*
X0189901Y0092630D01*
X0191592Y0093331D01*
X0192886Y0094625D01*
X0193586Y0096315D01*
X0193586Y0098145D01*
X0192886Y0099836D01*
X0191592Y0101130D01*
X0189901Y0101830D01*
X0188071Y0101830D01*
X0187495Y0101592D02*
X0180477Y0101592D01*
X0179901Y0101830D02*
X0181592Y0101130D01*
X0182886Y0099836D01*
X0183586Y0098145D01*
X0183586Y0096315D01*
X0182886Y0094625D01*
X0181592Y0093331D01*
X0179901Y0092630D01*
X0178071Y0092630D01*
X0176381Y0093331D01*
X0175087Y0094625D01*
X0174386Y0096315D01*
X0174386Y0098145D01*
X0175087Y0099836D01*
X0176381Y0101130D01*
X0178071Y0101830D01*
X0179901Y0101830D01*
X0177495Y0101592D02*
X0170477Y0101592D01*
X0172329Y0100393D02*
X0175644Y0100393D01*
X0174821Y0099195D02*
X0173152Y0099195D01*
X0173586Y0097996D02*
X0174386Y0097996D01*
X0174386Y0096798D02*
X0173586Y0096798D01*
X0173290Y0095599D02*
X0174683Y0095599D01*
X0175311Y0094401D02*
X0172662Y0094401D01*
X0171282Y0093202D02*
X0176691Y0093202D01*
X0181282Y0093202D02*
X0186691Y0093202D01*
X0185311Y0094401D02*
X0182662Y0094401D01*
X0183290Y0095599D02*
X0184683Y0095599D01*
X0184386Y0096798D02*
X0183586Y0096798D01*
X0183586Y0097996D02*
X0184386Y0097996D01*
X0184821Y0099195D02*
X0183152Y0099195D01*
X0182329Y0100393D02*
X0185644Y0100393D01*
X0185722Y0103989D02*
X0172250Y0103989D01*
X0173119Y0105187D02*
X0184853Y0105187D01*
X0184386Y0106386D02*
X0173586Y0106386D01*
X0173586Y0107584D02*
X0184386Y0107584D01*
X0184650Y0108783D02*
X0173322Y0108783D01*
X0172741Y0109981D02*
X0185232Y0109981D01*
X0186501Y0111180D02*
X0171472Y0111180D01*
X0166501Y0111180D02*
X0050191Y0111180D01*
X0050191Y0112378D02*
X0227908Y0112378D01*
X0226886Y0111356D02*
X0230091Y0114561D01*
X0230091Y0162321D01*
X0227821Y0164591D01*
X0226591Y0165821D01*
X0226591Y0190894D01*
X0225498Y0190441D01*
X0224284Y0190441D01*
X0223163Y0190905D01*
X0222305Y0191763D01*
X0221841Y0192884D01*
X0221841Y0194098D01*
X0222305Y0195219D01*
X0223163Y0196077D01*
X0224284Y0196541D01*
X0225498Y0196541D01*
X0226591Y0196088D01*
X0226591Y0209821D01*
X0223821Y0212591D01*
X0222591Y0213821D01*
X0222591Y0216821D01*
X0221271Y0218141D01*
X0220584Y0218141D01*
X0219463Y0218605D01*
X0218605Y0219463D01*
X0218141Y0220584D01*
X0218141Y0221798D01*
X0218605Y0222919D01*
X0219463Y0223777D01*
X0220464Y0224191D01*
X0219463Y0224605D01*
X0218605Y0225463D01*
X0218141Y0226584D01*
X0218141Y0227798D01*
X0218605Y0228919D01*
X0219463Y0229777D01*
X0220584Y0230241D01*
X0221798Y0230241D01*
X0222919Y0229777D01*
X0223404Y0229291D01*
X0224561Y0229291D01*
X0225791Y0228061D01*
X0232791Y0221061D01*
X0232791Y0171160D01*
X0233105Y0171919D01*
X0233963Y0172777D01*
X0235084Y0173241D01*
X0236298Y0173241D01*
X0237419Y0172777D01*
X0238277Y0171919D01*
X0238741Y0170798D01*
X0238741Y0169584D01*
X0238277Y0168463D01*
X0237419Y0167605D01*
X0236298Y0167141D01*
X0235084Y0167141D01*
X0234447Y0167405D01*
X0236291Y0165561D01*
X0236291Y0111040D01*
X0236381Y0111130D01*
X0238071Y0111830D01*
X0239901Y0111830D01*
X0241592Y0111130D01*
X0242886Y0109836D01*
X0243586Y0108145D01*
X0243586Y0106315D01*
X0242886Y0104625D01*
X0241592Y0103331D01*
X0239901Y0102630D01*
X0238071Y0102630D01*
X0236381Y0103331D01*
X0236291Y0103420D01*
X0236291Y0101321D01*
X0235061Y0100091D01*
X0233448Y0098478D01*
X0233586Y0098145D01*
X0233586Y0096315D01*
X0232886Y0094625D01*
X0231592Y0093331D01*
X0229901Y0092630D01*
X0228071Y0092630D01*
X0226381Y0093331D01*
X0225087Y0094625D01*
X0224386Y0096315D01*
X0224386Y0098145D01*
X0225087Y0099836D01*
X0226381Y0101130D01*
X0228071Y0101830D01*
X0229901Y0101830D01*
X0230580Y0101549D01*
X0232091Y0103061D01*
X0232091Y0103830D01*
X0231592Y0103331D01*
X0229901Y0102630D01*
X0228071Y0102630D01*
X0226381Y0103331D01*
X0225087Y0104625D01*
X0224386Y0106315D01*
X0224386Y0108145D01*
X0225087Y0109836D01*
X0226381Y0111130D01*
X0226886Y0111339D01*
X0226886Y0111356D01*
X0226501Y0111180D02*
X0221472Y0111180D01*
X0221592Y0111130D02*
X0219901Y0111830D01*
X0218071Y0111830D01*
X0216381Y0111130D01*
X0215087Y0109836D01*
X0214386Y0108145D01*
X0214386Y0106315D01*
X0215087Y0104625D01*
X0216381Y0103331D01*
X0218071Y0102630D01*
X0219901Y0102630D01*
X0221592Y0103331D01*
X0222886Y0104625D01*
X0223586Y0106315D01*
X0223586Y0108145D01*
X0222886Y0109836D01*
X0221592Y0111130D01*
X0222741Y0109981D02*
X0225232Y0109981D01*
X0224650Y0108783D02*
X0223322Y0108783D01*
X0223586Y0107584D02*
X0224386Y0107584D01*
X0224386Y0106386D02*
X0223586Y0106386D01*
X0223119Y0105187D02*
X0224853Y0105187D01*
X0225722Y0103989D02*
X0222250Y0103989D01*
X0220287Y0102790D02*
X0227685Y0102790D01*
X0227495Y0101592D02*
X0210477Y0101592D01*
X0209901Y0101830D02*
X0211592Y0101130D01*
X0212886Y0099836D01*
X0213586Y0098145D01*
X0213586Y0096315D01*
X0212886Y0094625D01*
X0211592Y0093331D01*
X0209901Y0092630D01*
X0208071Y0092630D01*
X0206381Y0093331D01*
X0205087Y0094625D01*
X0204386Y0096315D01*
X0204386Y0098145D01*
X0205087Y0099836D01*
X0206381Y0101130D01*
X0208071Y0101830D01*
X0209901Y0101830D01*
X0209901Y0102630D02*
X0211592Y0103331D01*
X0212886Y0104625D01*
X0213586Y0106315D01*
X0213586Y0108145D01*
X0212886Y0109836D01*
X0211592Y0111130D01*
X0209901Y0111830D01*
X0208071Y0111830D01*
X0206381Y0111130D01*
X0205087Y0109836D01*
X0204386Y0108145D01*
X0204386Y0106315D01*
X0205087Y0104625D01*
X0206381Y0103331D01*
X0208071Y0102630D01*
X0209901Y0102630D01*
X0210287Y0102790D02*
X0217685Y0102790D01*
X0215722Y0103989D02*
X0212250Y0103989D01*
X0213119Y0105187D02*
X0214853Y0105187D01*
X0214386Y0106386D02*
X0213586Y0106386D01*
X0213586Y0107584D02*
X0214386Y0107584D01*
X0214650Y0108783D02*
X0213322Y0108783D01*
X0212741Y0109981D02*
X0215232Y0109981D01*
X0216501Y0111180D02*
X0211472Y0111180D01*
X0206501Y0111180D02*
X0201472Y0111180D01*
X0201592Y0111130D02*
X0199901Y0111830D01*
X0198071Y0111830D01*
X0196381Y0111130D01*
X0195087Y0109836D01*
X0194386Y0108145D01*
X0194386Y0106315D01*
X0195087Y0104625D01*
X0196381Y0103331D01*
X0198071Y0102630D01*
X0199901Y0102630D01*
X0201592Y0103331D01*
X0202886Y0104625D01*
X0203586Y0106315D01*
X0203586Y0108145D01*
X0202886Y0109836D01*
X0201592Y0111130D01*
X0202741Y0109981D02*
X0205232Y0109981D01*
X0204650Y0108783D02*
X0203322Y0108783D01*
X0203586Y0107584D02*
X0204386Y0107584D01*
X0204386Y0106386D02*
X0203586Y0106386D01*
X0203119Y0105187D02*
X0204853Y0105187D01*
X0205722Y0103989D02*
X0202250Y0103989D01*
X0200287Y0102790D02*
X0207685Y0102790D01*
X0207495Y0101592D02*
X0200477Y0101592D01*
X0199901Y0101830D02*
X0201592Y0101130D01*
X0202886Y0099836D01*
X0203586Y0098145D01*
X0203586Y0096315D01*
X0202886Y0094625D01*
X0201592Y0093331D01*
X0199901Y0092630D01*
X0198071Y0092630D01*
X0196381Y0093331D01*
X0195087Y0094625D01*
X0194386Y0096315D01*
X0194386Y0098145D01*
X0195087Y0099836D01*
X0196381Y0101130D01*
X0198071Y0101830D01*
X0199901Y0101830D01*
X0197685Y0102790D02*
X0190287Y0102790D01*
X0190477Y0101592D02*
X0197495Y0101592D01*
X0195644Y0100393D02*
X0192329Y0100393D01*
X0193152Y0099195D02*
X0194821Y0099195D01*
X0194386Y0097996D02*
X0193586Y0097996D01*
X0193586Y0096798D02*
X0194386Y0096798D01*
X0194683Y0095599D02*
X0193290Y0095599D01*
X0192662Y0094401D02*
X0195311Y0094401D01*
X0196691Y0093202D02*
X0191282Y0093202D01*
X0201282Y0093202D02*
X0206691Y0093202D01*
X0205311Y0094401D02*
X0202662Y0094401D01*
X0203290Y0095599D02*
X0204683Y0095599D01*
X0204386Y0096798D02*
X0203586Y0096798D01*
X0203586Y0097996D02*
X0204386Y0097996D01*
X0204821Y0099195D02*
X0203152Y0099195D01*
X0202329Y0100393D02*
X0205644Y0100393D01*
X0212329Y0100393D02*
X0225644Y0100393D01*
X0224821Y0099195D02*
X0213152Y0099195D01*
X0213586Y0097996D02*
X0224386Y0097996D01*
X0224386Y0096798D02*
X0213586Y0096798D01*
X0213290Y0095599D02*
X0224683Y0095599D01*
X0225311Y0094401D02*
X0212662Y0094401D01*
X0211282Y0093202D02*
X0226691Y0093202D01*
X0231282Y0093202D02*
X0236691Y0093202D01*
X0236381Y0093331D02*
X0238071Y0092630D01*
X0239901Y0092630D01*
X0241592Y0093331D01*
X0242886Y0094625D01*
X0243586Y0096315D01*
X0243586Y0098145D01*
X0242886Y0099836D01*
X0241592Y0101130D01*
X0239901Y0101830D01*
X0238071Y0101830D01*
X0236381Y0101130D01*
X0235087Y0099836D01*
X0234386Y0098145D01*
X0234386Y0096315D01*
X0235087Y0094625D01*
X0236381Y0093331D01*
X0235311Y0094401D02*
X0232662Y0094401D01*
X0233290Y0095599D02*
X0234683Y0095599D01*
X0234386Y0096798D02*
X0233586Y0096798D01*
X0233586Y0097996D02*
X0234386Y0097996D01*
X0234164Y0099195D02*
X0234821Y0099195D01*
X0235363Y0100393D02*
X0235644Y0100393D01*
X0236291Y0101592D02*
X0237495Y0101592D01*
X0237685Y0102790D02*
X0236291Y0102790D01*
X0240287Y0102790D02*
X0248691Y0102790D01*
X0248691Y0101592D02*
X0240477Y0101592D01*
X0242329Y0100393D02*
X0248691Y0100393D01*
X0248691Y0099195D02*
X0243152Y0099195D01*
X0243586Y0097996D02*
X0248691Y0097996D01*
X0248691Y0096798D02*
X0243586Y0096798D01*
X0243290Y0095599D02*
X0248691Y0095599D01*
X0248691Y0094401D02*
X0242662Y0094401D01*
X0241282Y0093202D02*
X0248691Y0093202D01*
X0248691Y0092004D02*
X0145691Y0092004D01*
X0145691Y0090805D02*
X0248691Y0090805D01*
X0248691Y0089607D02*
X0145691Y0089607D01*
X0145691Y0088408D02*
X0248691Y0088408D01*
X0248691Y0087210D02*
X0145691Y0087210D01*
X0145691Y0086011D02*
X0248691Y0086011D01*
X0248691Y0084813D02*
X0145691Y0084813D01*
X0145691Y0083614D02*
X0248691Y0083614D01*
X0248691Y0082415D02*
X0145691Y0082415D01*
X0145691Y0081217D02*
X0248691Y0081217D01*
X0248691Y0080018D02*
X0145691Y0080018D01*
X0145691Y0078820D02*
X0154330Y0078820D01*
X0154126Y0078736D02*
X0152952Y0077561D01*
X0152316Y0076027D01*
X0152316Y0074366D01*
X0152952Y0072832D01*
X0154126Y0071657D01*
X0155661Y0071022D01*
X0157321Y0071022D01*
X0158856Y0071657D01*
X0160030Y0072832D01*
X0160666Y0074366D01*
X0160666Y0076027D01*
X0160030Y0077561D01*
X0158856Y0078736D01*
X0157321Y0079371D01*
X0155661Y0079371D01*
X0154126Y0078736D01*
X0153012Y0077621D02*
X0145691Y0077621D01*
X0145691Y0076423D02*
X0152480Y0076423D01*
X0152316Y0075224D02*
X0145691Y0075224D01*
X0145691Y0074026D02*
X0152457Y0074026D01*
X0152956Y0072827D02*
X0145691Y0072827D01*
X0145691Y0071629D02*
X0154195Y0071629D01*
X0155661Y0067560D02*
X0154126Y0066925D01*
X0152952Y0065750D01*
X0152316Y0064216D01*
X0152316Y0062555D01*
X0152952Y0061021D01*
X0154126Y0059846D01*
X0155661Y0059211D01*
X0157321Y0059211D01*
X0158856Y0059846D01*
X0160030Y0061021D01*
X0160666Y0062555D01*
X0160666Y0064216D01*
X0160030Y0065750D01*
X0158856Y0066925D01*
X0157321Y0067560D01*
X0155661Y0067560D01*
X0154036Y0066835D02*
X0145691Y0066835D01*
X0145691Y0068033D02*
X0248691Y0068033D01*
X0248691Y0066835D02*
X0158946Y0066835D01*
X0160077Y0065636D02*
X0248691Y0065636D01*
X0248691Y0064438D02*
X0160574Y0064438D01*
X0160666Y0063239D02*
X0248691Y0063239D01*
X0248691Y0062041D02*
X0160453Y0062041D01*
X0159852Y0060842D02*
X0248691Y0060842D01*
X0248691Y0059644D02*
X0158367Y0059644D01*
X0154615Y0059644D02*
X0145691Y0059644D01*
X0145691Y0060842D02*
X0153130Y0060842D01*
X0152529Y0062041D02*
X0145691Y0062041D01*
X0145691Y0063239D02*
X0152316Y0063239D01*
X0152408Y0064438D02*
X0145691Y0064438D01*
X0145691Y0065636D02*
X0152905Y0065636D01*
X0158787Y0071629D02*
X0248691Y0071629D01*
X0248691Y0072827D02*
X0160026Y0072827D01*
X0160525Y0074026D02*
X0248691Y0074026D01*
X0248691Y0075224D02*
X0160666Y0075224D01*
X0160502Y0076423D02*
X0248691Y0076423D01*
X0248691Y0077621D02*
X0159970Y0077621D01*
X0158652Y0078820D02*
X0248691Y0078820D01*
X0248691Y0070430D02*
X0145691Y0070430D01*
X0145691Y0069232D02*
X0248691Y0069232D01*
X0248691Y0058445D02*
X0145691Y0058445D01*
X0145691Y0057247D02*
X0248691Y0057247D01*
X0248691Y0056048D02*
X0145691Y0056048D01*
X0145691Y0054850D02*
X0248691Y0054850D01*
X0248691Y0053651D02*
X0145691Y0053651D01*
X0145691Y0052453D02*
X0248691Y0052453D01*
X0248691Y0051254D02*
X0145691Y0051254D01*
X0145691Y0050056D02*
X0248691Y0050056D01*
X0230622Y0101592D02*
X0230477Y0101592D01*
X0230287Y0102790D02*
X0231820Y0102790D01*
X0236291Y0111180D02*
X0236501Y0111180D01*
X0236291Y0112378D02*
X0248691Y0112378D01*
X0248691Y0111180D02*
X0241472Y0111180D01*
X0242741Y0109981D02*
X0248691Y0109981D01*
X0248691Y0108783D02*
X0243322Y0108783D01*
X0243586Y0107584D02*
X0248691Y0107584D01*
X0248691Y0106386D02*
X0243586Y0106386D01*
X0243119Y0105187D02*
X0248691Y0105187D01*
X0248691Y0103989D02*
X0242250Y0103989D01*
X0236291Y0113577D02*
X0248691Y0113577D01*
X0248691Y0114775D02*
X0236291Y0114775D01*
X0236291Y0115974D02*
X0353421Y0115974D01*
X0353605Y0116419D02*
X0353141Y0115298D01*
X0353141Y0114084D01*
X0353605Y0112963D01*
X0354463Y0112105D01*
X0355584Y0111641D01*
X0356798Y0111641D01*
X0357919Y0112105D01*
X0358777Y0112963D01*
X0359241Y0114084D01*
X0359241Y0115298D01*
X0358777Y0116419D01*
X0357919Y0117277D01*
X0356798Y0117741D01*
X0355584Y0117741D01*
X0354463Y0117277D01*
X0353605Y0116419D01*
X0354359Y0117172D02*
X0236291Y0117172D01*
X0236291Y0118371D02*
X0471691Y0118371D01*
X0471691Y0119569D02*
X0236291Y0119569D01*
X0236291Y0120768D02*
X0471691Y0120768D01*
X0471691Y0121966D02*
X0236291Y0121966D01*
X0236291Y0123165D02*
X0471691Y0123165D01*
X0471691Y0124363D02*
X0236291Y0124363D01*
X0236291Y0125562D02*
X0252681Y0125562D01*
X0253333Y0125292D02*
X0254994Y0125292D01*
X0256528Y0125927D01*
X0257703Y0127102D01*
X0258100Y0128062D01*
X0258498Y0127102D01*
X0259673Y0125927D01*
X0261207Y0125292D01*
X0262868Y0125292D01*
X0264402Y0125927D01*
X0265577Y0127102D01*
X0265974Y0128062D01*
X0266372Y0127102D01*
X0267547Y0125927D01*
X0269081Y0125292D01*
X0270742Y0125292D01*
X0272276Y0125927D01*
X0273451Y0127102D01*
X0273848Y0128062D01*
X0274246Y0127102D01*
X0275421Y0125927D01*
X0276955Y0125292D01*
X0278616Y0125292D01*
X0280150Y0125927D01*
X0281325Y0127102D01*
X0281722Y0128062D01*
X0282120Y0127102D01*
X0283295Y0125927D01*
X0284829Y0125292D01*
X0286490Y0125292D01*
X0288024Y0125927D01*
X0289199Y0127102D01*
X0289596Y0128062D01*
X0289994Y0127102D01*
X0291169Y0125927D01*
X0292703Y0125292D01*
X0294364Y0125292D01*
X0295898Y0125927D01*
X0297073Y0127102D01*
X0297470Y0128062D01*
X0297868Y0127102D01*
X0299043Y0125927D01*
X0300577Y0125292D01*
X0302238Y0125292D01*
X0303772Y0125927D01*
X0304947Y0127102D01*
X0305344Y0128062D01*
X0305742Y0127102D01*
X0306917Y0125927D01*
X0308451Y0125292D01*
X0310112Y0125292D01*
X0311646Y0125927D01*
X0312821Y0127102D01*
X0313219Y0128062D01*
X0313616Y0127102D01*
X0314791Y0125927D01*
X0316325Y0125292D01*
X0317986Y0125292D01*
X0319520Y0125927D01*
X0320695Y0127102D01*
X0321093Y0128062D01*
X0321490Y0127102D01*
X0322665Y0125927D01*
X0324199Y0125292D01*
X0325860Y0125292D01*
X0327394Y0125927D01*
X0328569Y0127102D01*
X0329204Y0128636D01*
X0329204Y0130297D01*
X0328569Y0131831D01*
X0327394Y0133006D01*
X0325860Y0133641D01*
X0324199Y0133641D01*
X0322665Y0133006D01*
X0321490Y0131831D01*
X0321093Y0130871D01*
X0320695Y0131831D01*
X0319520Y0133006D01*
X0317986Y0133641D01*
X0316325Y0133641D01*
X0314791Y0133006D01*
X0313616Y0131831D01*
X0313219Y0130871D01*
X0312821Y0131831D01*
X0311646Y0133006D01*
X0310112Y0133641D01*
X0308451Y0133641D01*
X0306917Y0133006D01*
X0305742Y0131831D01*
X0305344Y0130871D01*
X0304947Y0131831D01*
X0303772Y0133006D01*
X0302238Y0133641D01*
X0300577Y0133641D01*
X0299043Y0133006D01*
X0297868Y0131831D01*
X0297470Y0130871D01*
X0297073Y0131831D01*
X0295898Y0133006D01*
X0294364Y0133641D01*
X0292703Y0133641D01*
X0291169Y0133006D01*
X0289994Y0131831D01*
X0289596Y0130871D01*
X0289199Y0131831D01*
X0288024Y0133006D01*
X0286490Y0133641D01*
X0284829Y0133641D01*
X0283295Y0133006D01*
X0282120Y0131831D01*
X0281722Y0130871D01*
X0281325Y0131831D01*
X0280150Y0133006D01*
X0278616Y0133641D01*
X0276955Y0133641D01*
X0275421Y0133006D01*
X0274246Y0131831D01*
X0273848Y0130871D01*
X0273451Y0131831D01*
X0272276Y0133006D01*
X0270742Y0133641D01*
X0269081Y0133641D01*
X0267547Y0133006D01*
X0266372Y0131831D01*
X0265974Y0130871D01*
X0265577Y0131831D01*
X0264402Y0133006D01*
X0262868Y0133641D01*
X0261207Y0133641D01*
X0259673Y0133006D01*
X0258498Y0131831D01*
X0258100Y0130871D01*
X0257703Y0131831D01*
X0256528Y0133006D01*
X0254994Y0133641D01*
X0253333Y0133641D01*
X0251799Y0133006D01*
X0250624Y0131831D01*
X0249989Y0130297D01*
X0249989Y0128636D01*
X0250624Y0127102D01*
X0251799Y0125927D01*
X0253333Y0125292D01*
X0255646Y0125562D02*
X0260555Y0125562D01*
X0258839Y0126760D02*
X0257361Y0126760D01*
X0258058Y0127959D02*
X0258143Y0127959D01*
X0258383Y0131554D02*
X0257817Y0131554D01*
X0256781Y0132753D02*
X0259420Y0132753D01*
X0264655Y0132753D02*
X0267294Y0132753D01*
X0266257Y0131554D02*
X0265691Y0131554D01*
X0265932Y0127959D02*
X0266017Y0127959D01*
X0266713Y0126760D02*
X0265235Y0126760D01*
X0263520Y0125562D02*
X0268429Y0125562D01*
X0271394Y0125562D02*
X0276303Y0125562D01*
X0274588Y0126760D02*
X0273109Y0126760D01*
X0273806Y0127959D02*
X0273891Y0127959D01*
X0274132Y0131554D02*
X0273565Y0131554D01*
X0272529Y0132753D02*
X0275168Y0132753D01*
X0280403Y0132753D02*
X0283042Y0132753D01*
X0282006Y0131554D02*
X0281439Y0131554D01*
X0281680Y0127959D02*
X0281765Y0127959D01*
X0282462Y0126760D02*
X0280983Y0126760D01*
X0279268Y0125562D02*
X0284177Y0125562D01*
X0287142Y0125562D02*
X0292051Y0125562D01*
X0290336Y0126760D02*
X0288857Y0126760D01*
X0289554Y0127959D02*
X0289639Y0127959D01*
X0289880Y0131554D02*
X0289313Y0131554D01*
X0288277Y0132753D02*
X0290916Y0132753D01*
X0296151Y0132753D02*
X0298790Y0132753D01*
X0297754Y0131554D02*
X0297187Y0131554D01*
X0297428Y0127959D02*
X0297513Y0127959D01*
X0298210Y0126760D02*
X0296731Y0126760D01*
X0295016Y0125562D02*
X0299925Y0125562D01*
X0302890Y0125562D02*
X0307799Y0125562D01*
X0306084Y0126760D02*
X0304605Y0126760D01*
X0305302Y0127959D02*
X0305387Y0127959D01*
X0305628Y0131554D02*
X0305061Y0131554D01*
X0304025Y0132753D02*
X0306664Y0132753D01*
X0311899Y0132753D02*
X0314538Y0132753D01*
X0313502Y0131554D02*
X0312935Y0131554D01*
X0313176Y0127959D02*
X0313261Y0127959D01*
X0313958Y0126760D02*
X0312479Y0126760D01*
X0310764Y0125562D02*
X0315673Y0125562D01*
X0318638Y0125562D02*
X0323547Y0125562D01*
X0321832Y0126760D02*
X0320353Y0126760D01*
X0321050Y0127959D02*
X0321135Y0127959D01*
X0321376Y0131554D02*
X0320809Y0131554D01*
X0319773Y0132753D02*
X0322412Y0132753D01*
X0327647Y0132753D02*
X0471691Y0132753D01*
X0471691Y0133951D02*
X0236291Y0133951D01*
X0236291Y0132753D02*
X0251546Y0132753D01*
X0250509Y0131554D02*
X0236291Y0131554D01*
X0236291Y0130356D02*
X0250013Y0130356D01*
X0249989Y0129157D02*
X0236291Y0129157D01*
X0236291Y0127959D02*
X0250269Y0127959D01*
X0250965Y0126760D02*
X0236291Y0126760D01*
X0230091Y0126760D02*
X0050191Y0126760D01*
X0050191Y0125562D02*
X0230091Y0125562D01*
X0230091Y0124363D02*
X0050191Y0124363D01*
X0050191Y0123165D02*
X0230091Y0123165D01*
X0230091Y0121966D02*
X0182961Y0121966D01*
X0183419Y0121777D02*
X0182298Y0122241D01*
X0181084Y0122241D01*
X0179963Y0121777D01*
X0179105Y0120919D01*
X0178641Y0119798D01*
X0178641Y0118584D01*
X0179105Y0117463D01*
X0179963Y0116605D01*
X0181084Y0116141D01*
X0182298Y0116141D01*
X0183419Y0116605D01*
X0184277Y0117463D01*
X0184741Y0118584D01*
X0184741Y0119798D01*
X0184277Y0120919D01*
X0183419Y0121777D01*
X0184339Y0120768D02*
X0230091Y0120768D01*
X0230091Y0119569D02*
X0184741Y0119569D01*
X0184653Y0118371D02*
X0230091Y0118371D01*
X0230091Y0117172D02*
X0183986Y0117172D01*
X0179396Y0117172D02*
X0050191Y0117172D01*
X0050191Y0115974D02*
X0230091Y0115974D01*
X0230091Y0114775D02*
X0050191Y0114775D01*
X0050191Y0113577D02*
X0229107Y0113577D01*
X0230091Y0127959D02*
X0050191Y0127959D01*
X0050191Y0129157D02*
X0230091Y0129157D01*
X0230091Y0130356D02*
X0050191Y0130356D01*
X0050191Y0131554D02*
X0230091Y0131554D01*
X0230091Y0132753D02*
X0050191Y0132753D01*
X0050191Y0133951D02*
X0230091Y0133951D01*
X0230091Y0135150D02*
X0059463Y0135150D01*
X0059419Y0135105D02*
X0060277Y0135963D01*
X0060741Y0137084D01*
X0060741Y0138298D01*
X0060277Y0139419D01*
X0059419Y0140277D01*
X0058298Y0140741D01*
X0057084Y0140741D01*
X0055963Y0140277D01*
X0055105Y0139419D01*
X0054641Y0138298D01*
X0054641Y0137084D01*
X0055105Y0135963D01*
X0055963Y0135105D01*
X0057084Y0134641D01*
X0058298Y0134641D01*
X0059419Y0135105D01*
X0060436Y0136348D02*
X0230091Y0136348D01*
X0230091Y0137547D02*
X0060741Y0137547D01*
X0060555Y0138746D02*
X0079332Y0138746D01*
X0079584Y0138641D02*
X0080798Y0138641D01*
X0081919Y0139105D01*
X0082777Y0139963D01*
X0083241Y0141084D01*
X0083241Y0142298D01*
X0082777Y0143419D01*
X0081919Y0144277D01*
X0080798Y0144741D01*
X0079584Y0144741D01*
X0078463Y0144277D01*
X0077605Y0143419D01*
X0077141Y0142298D01*
X0077141Y0141084D01*
X0077605Y0139963D01*
X0078463Y0139105D01*
X0079584Y0138641D01*
X0081050Y0138746D02*
X0230091Y0138746D01*
X0230091Y0139944D02*
X0082757Y0139944D01*
X0083241Y0141143D02*
X0230091Y0141143D01*
X0230091Y0142341D02*
X0083223Y0142341D01*
X0082656Y0143540D02*
X0230091Y0143540D01*
X0230091Y0144738D02*
X0080805Y0144738D01*
X0079577Y0144738D02*
X0050191Y0144738D01*
X0050191Y0143540D02*
X0077726Y0143540D01*
X0077159Y0142341D02*
X0050191Y0142341D01*
X0050191Y0141143D02*
X0077141Y0141143D01*
X0077625Y0139944D02*
X0059751Y0139944D01*
X0055631Y0139944D02*
X0050191Y0139944D01*
X0050191Y0138746D02*
X0054826Y0138746D01*
X0054641Y0137547D02*
X0050191Y0137547D01*
X0050191Y0136348D02*
X0054946Y0136348D01*
X0055919Y0135150D02*
X0050191Y0135150D01*
X0050191Y0145937D02*
X0230091Y0145937D01*
X0230091Y0147135D02*
X0050191Y0147135D01*
X0050191Y0148334D02*
X0230091Y0148334D01*
X0230091Y0149532D02*
X0050191Y0149532D01*
X0050191Y0150731D02*
X0230091Y0150731D01*
X0230091Y0151929D02*
X0050191Y0151929D01*
X0050191Y0153128D02*
X0230091Y0153128D01*
X0230091Y0154326D02*
X0050191Y0154326D01*
X0050191Y0155525D02*
X0230091Y0155525D01*
X0230091Y0156723D02*
X0050191Y0156723D01*
X0050191Y0157922D02*
X0230091Y0157922D01*
X0230091Y0159120D02*
X0050191Y0159120D01*
X0050191Y0160319D02*
X0230091Y0160319D01*
X0230091Y0161517D02*
X0050191Y0161517D01*
X0050191Y0162716D02*
X0229696Y0162716D01*
X0228498Y0163914D02*
X0050191Y0163914D01*
X0050191Y0165113D02*
X0227299Y0165113D01*
X0226591Y0166311D02*
X0050191Y0166311D01*
X0050191Y0167510D02*
X0226591Y0167510D01*
X0226591Y0168708D02*
X0050191Y0168708D01*
X0050191Y0169907D02*
X0226591Y0169907D01*
X0226591Y0171105D02*
X0050191Y0171105D01*
X0050191Y0172304D02*
X0226591Y0172304D01*
X0226591Y0173502D02*
X0050191Y0173502D01*
X0050191Y0174701D02*
X0226591Y0174701D01*
X0226591Y0175899D02*
X0050191Y0175899D01*
X0050191Y0177098D02*
X0226591Y0177098D01*
X0226591Y0178296D02*
X0050191Y0178296D01*
X0072691Y0179495D02*
X0226591Y0179495D01*
X0226591Y0180693D02*
X0088924Y0180693D01*
X0088798Y0180641D02*
X0089919Y0181105D01*
X0090777Y0181963D01*
X0091241Y0183084D01*
X0091241Y0184298D01*
X0090777Y0185419D01*
X0089919Y0186277D01*
X0088798Y0186741D01*
X0087584Y0186741D01*
X0086463Y0186277D01*
X0085605Y0185419D01*
X0085141Y0184298D01*
X0085141Y0183084D01*
X0085605Y0181963D01*
X0086463Y0181105D01*
X0087584Y0180641D01*
X0088798Y0180641D01*
X0087458Y0180693D02*
X0072691Y0180693D01*
X0072691Y0181892D02*
X0085677Y0181892D01*
X0085141Y0183090D02*
X0072691Y0183090D01*
X0072691Y0184289D02*
X0085141Y0184289D01*
X0085674Y0185487D02*
X0072691Y0185487D01*
X0072691Y0186686D02*
X0087452Y0186686D01*
X0088930Y0186686D02*
X0226591Y0186686D01*
X0226591Y0187884D02*
X0072691Y0187884D01*
X0072691Y0189083D02*
X0226591Y0189083D01*
X0226591Y0190281D02*
X0072691Y0190281D01*
X0072691Y0191480D02*
X0222589Y0191480D01*
X0221926Y0192679D02*
X0072691Y0192679D01*
X0072691Y0193877D02*
X0221841Y0193877D01*
X0222246Y0195076D02*
X0072691Y0195076D01*
X0072691Y0196274D02*
X0162294Y0196274D01*
X0162463Y0196105D02*
X0163584Y0195641D01*
X0164798Y0195641D01*
X0165919Y0196105D01*
X0166777Y0196963D01*
X0167241Y0198084D01*
X0167241Y0199298D01*
X0166777Y0200419D01*
X0165919Y0201277D01*
X0164798Y0201741D01*
X0163584Y0201741D01*
X0162463Y0201277D01*
X0161605Y0200419D01*
X0161141Y0199298D01*
X0161141Y0198084D01*
X0161605Y0196963D01*
X0162463Y0196105D01*
X0161394Y0197473D02*
X0072691Y0197473D01*
X0072691Y0198671D02*
X0161141Y0198671D01*
X0161378Y0199870D02*
X0072691Y0199870D01*
X0072691Y0201068D02*
X0162255Y0201068D01*
X0166127Y0201068D02*
X0226591Y0201068D01*
X0226591Y0199870D02*
X0167004Y0199870D01*
X0167241Y0198671D02*
X0226591Y0198671D01*
X0226591Y0197473D02*
X0166988Y0197473D01*
X0166087Y0196274D02*
X0223640Y0196274D01*
X0226142Y0196274D02*
X0226591Y0196274D01*
X0226591Y0202267D02*
X0154080Y0202267D01*
X0153919Y0202105D02*
X0154777Y0202963D01*
X0155241Y0204084D01*
X0155241Y0205298D01*
X0154777Y0206419D01*
X0153919Y0207277D01*
X0152798Y0207741D01*
X0151584Y0207741D01*
X0150463Y0207277D01*
X0149605Y0206419D01*
X0149141Y0205298D01*
X0149141Y0204084D01*
X0149605Y0202963D01*
X0150463Y0202105D01*
X0151584Y0201641D01*
X0152798Y0201641D01*
X0153919Y0202105D01*
X0154984Y0203465D02*
X0226591Y0203465D01*
X0226591Y0204664D02*
X0155241Y0204664D01*
X0155007Y0205862D02*
X0226591Y0205862D01*
X0226591Y0207061D02*
X0154135Y0207061D01*
X0150247Y0207061D02*
X0133731Y0207061D01*
X0133741Y0207084D02*
X0133277Y0205963D01*
X0132419Y0205105D01*
X0131298Y0204641D01*
X0130084Y0204641D01*
X0128963Y0205105D01*
X0128105Y0205963D01*
X0127641Y0207084D01*
X0127641Y0208298D01*
X0128105Y0209419D01*
X0128963Y0210277D01*
X0130084Y0210741D01*
X0131298Y0210741D01*
X0132419Y0210277D01*
X0133277Y0209419D01*
X0133741Y0208298D01*
X0133741Y0207084D01*
X0133741Y0208259D02*
X0226591Y0208259D01*
X0226591Y0209458D02*
X0133238Y0209458D01*
X0131502Y0210656D02*
X0225756Y0210656D01*
X0224557Y0211855D02*
X0072691Y0211855D01*
X0072691Y0213053D02*
X0223359Y0213053D01*
X0222591Y0214252D02*
X0072691Y0214252D01*
X0072691Y0215450D02*
X0222591Y0215450D01*
X0222591Y0216649D02*
X0072691Y0216649D01*
X0072691Y0217847D02*
X0221565Y0217847D01*
X0219023Y0219046D02*
X0072691Y0219046D01*
X0072691Y0220244D02*
X0218282Y0220244D01*
X0218141Y0221443D02*
X0072691Y0221443D01*
X0072691Y0222641D02*
X0218490Y0222641D01*
X0219616Y0223840D02*
X0072691Y0223840D01*
X0072691Y0225038D02*
X0219030Y0225038D01*
X0218285Y0226237D02*
X0072691Y0226237D01*
X0072691Y0227435D02*
X0127133Y0227435D01*
X0127463Y0227105D02*
X0128584Y0226641D01*
X0129798Y0226641D01*
X0130919Y0227105D01*
X0131777Y0227963D01*
X0132241Y0229084D01*
X0132241Y0230298D01*
X0131777Y0231419D01*
X0130919Y0232277D01*
X0129798Y0232741D01*
X0128584Y0232741D01*
X0127463Y0232277D01*
X0126605Y0231419D01*
X0126141Y0230298D01*
X0126141Y0229084D01*
X0126605Y0227963D01*
X0127463Y0227105D01*
X0126327Y0228634D02*
X0072691Y0228634D01*
X0072691Y0229832D02*
X0126141Y0229832D01*
X0126445Y0231031D02*
X0072691Y0231031D01*
X0072691Y0232229D02*
X0127416Y0232229D01*
X0130966Y0232229D02*
X0228758Y0232229D01*
X0229957Y0231031D02*
X0131937Y0231031D01*
X0132241Y0229832D02*
X0219598Y0229832D01*
X0218487Y0228634D02*
X0132054Y0228634D01*
X0131249Y0227435D02*
X0218141Y0227435D01*
X0222784Y0229832D02*
X0231155Y0229832D01*
X0232354Y0228634D02*
X0225218Y0228634D01*
X0226416Y0227435D02*
X0233552Y0227435D01*
X0234751Y0226237D02*
X0227615Y0226237D01*
X0228813Y0225038D02*
X0235949Y0225038D01*
X0237148Y0223840D02*
X0230012Y0223840D01*
X0231210Y0222641D02*
X0238346Y0222641D01*
X0239545Y0221443D02*
X0232409Y0221443D01*
X0232791Y0220244D02*
X0240291Y0220244D01*
X0240291Y0220697D02*
X0240291Y0214604D01*
X0240105Y0214419D01*
X0239641Y0213298D01*
X0239641Y0212084D01*
X0240105Y0210963D01*
X0240963Y0210105D01*
X0242084Y0209641D01*
X0243298Y0209641D01*
X0244419Y0210105D01*
X0245277Y0210963D01*
X0245741Y0212084D01*
X0245741Y0213298D01*
X0245277Y0214419D01*
X0245091Y0214604D01*
X0245091Y0222168D01*
X0244726Y0223050D01*
X0244050Y0223726D01*
X0227091Y0240685D01*
X0227091Y0270491D01*
X0346827Y0270491D01*
X0348004Y0270978D01*
X0350904Y0273878D01*
X0351391Y0275054D01*
X0351391Y0276327D01*
X0350904Y0277504D01*
X0350004Y0278404D01*
X0348827Y0278891D01*
X0347554Y0278891D01*
X0346378Y0278404D01*
X0344865Y0276891D01*
X0226016Y0276891D01*
X0222504Y0280404D01*
X0221327Y0280891D01*
X0196554Y0280891D01*
X0195378Y0280404D01*
X0194478Y0279504D01*
X0191865Y0276891D01*
X0149016Y0276891D01*
X0145391Y0280516D01*
X0145391Y0285327D01*
X0144904Y0286504D01*
X0144004Y0287404D01*
X0142827Y0287891D01*
X0141554Y0287891D01*
X0140378Y0287404D01*
X0139478Y0286504D01*
X0138991Y0285327D01*
X0138991Y0278554D01*
X0139478Y0277378D01*
X0144978Y0271878D01*
X0145878Y0270978D01*
X0147054Y0270491D01*
X0193827Y0270491D01*
X0195004Y0270978D01*
X0198516Y0274491D01*
X0219365Y0274491D01*
X0221978Y0271878D01*
X0222291Y0271565D01*
X0222291Y0249804D01*
X0221719Y0250377D01*
X0220598Y0250841D01*
X0219384Y0250841D01*
X0218263Y0250377D01*
X0217405Y0249519D01*
X0216941Y0248398D01*
X0216941Y0247184D01*
X0217405Y0246063D01*
X0218263Y0245205D01*
X0219384Y0244741D01*
X0220598Y0244741D01*
X0221719Y0245205D01*
X0222291Y0245778D01*
X0222291Y0239214D01*
X0222656Y0238331D01*
X0240291Y0220697D01*
X0240291Y0219046D02*
X0232791Y0219046D01*
X0232791Y0217847D02*
X0240291Y0217847D01*
X0240291Y0216649D02*
X0232791Y0216649D01*
X0232791Y0215450D02*
X0240291Y0215450D01*
X0240036Y0214252D02*
X0232791Y0214252D01*
X0232791Y0213053D02*
X0239641Y0213053D01*
X0239736Y0211855D02*
X0232791Y0211855D01*
X0232791Y0210656D02*
X0240412Y0210656D01*
X0244970Y0210656D02*
X0341716Y0210656D01*
X0341716Y0211230D02*
X0341716Y0209570D01*
X0342352Y0208035D01*
X0343526Y0206861D01*
X0344486Y0206463D01*
X0343526Y0206065D01*
X0342352Y0204891D01*
X0341716Y0203356D01*
X0341716Y0201696D01*
X0342352Y0200161D01*
X0343526Y0198987D01*
X0344486Y0198589D01*
X0343526Y0198191D01*
X0342352Y0197017D01*
X0341716Y0195482D01*
X0341716Y0193822D01*
X0342352Y0192287D01*
X0343526Y0191113D01*
X0344486Y0190715D01*
X0343526Y0190317D01*
X0342352Y0189143D01*
X0341716Y0187608D01*
X0341716Y0185948D01*
X0342352Y0184413D01*
X0343526Y0183239D01*
X0344486Y0182841D01*
X0343526Y0182443D01*
X0342352Y0181269D01*
X0341716Y0179734D01*
X0341716Y0178074D01*
X0342352Y0176539D01*
X0343526Y0175365D01*
X0344486Y0174967D01*
X0343526Y0174569D01*
X0342352Y0173395D01*
X0341716Y0171860D01*
X0341716Y0170199D01*
X0342352Y0168665D01*
X0343526Y0167491D01*
X0344486Y0167093D01*
X0343526Y0166695D01*
X0342352Y0165521D01*
X0341716Y0163986D01*
X0341716Y0162325D01*
X0342352Y0160791D01*
X0343526Y0159617D01*
X0344486Y0159219D01*
X0343526Y0158821D01*
X0342352Y0157647D01*
X0341716Y0156112D01*
X0341716Y0154451D01*
X0342352Y0152917D01*
X0343526Y0151743D01*
X0345061Y0151107D01*
X0346721Y0151107D01*
X0348256Y0151743D01*
X0349430Y0152917D01*
X0350066Y0154451D01*
X0350066Y0156112D01*
X0349430Y0157647D01*
X0348256Y0158821D01*
X0347295Y0159219D01*
X0348256Y0159617D01*
X0349430Y0160791D01*
X0350066Y0162325D01*
X0350066Y0163986D01*
X0349430Y0165521D01*
X0348256Y0166695D01*
X0347295Y0167093D01*
X0348256Y0167491D01*
X0349430Y0168665D01*
X0350066Y0170199D01*
X0350066Y0171860D01*
X0349430Y0173395D01*
X0348256Y0174569D01*
X0347295Y0174967D01*
X0348256Y0175365D01*
X0349430Y0176539D01*
X0350066Y0178074D01*
X0350066Y0179734D01*
X0349430Y0181269D01*
X0348256Y0182443D01*
X0347295Y0182841D01*
X0348256Y0183239D01*
X0349430Y0184413D01*
X0350066Y0185948D01*
X0350066Y0187608D01*
X0349430Y0189143D01*
X0348256Y0190317D01*
X0347295Y0190715D01*
X0348256Y0191113D01*
X0349430Y0192287D01*
X0350066Y0193822D01*
X0350066Y0195482D01*
X0349430Y0197017D01*
X0348256Y0198191D01*
X0347295Y0198589D01*
X0348256Y0198987D01*
X0349430Y0200161D01*
X0350066Y0201696D01*
X0350066Y0203356D01*
X0349430Y0204891D01*
X0348256Y0206065D01*
X0347295Y0206463D01*
X0348256Y0206861D01*
X0349430Y0208035D01*
X0350066Y0209570D01*
X0350066Y0211230D01*
X0349430Y0212765D01*
X0348821Y0213374D01*
X0375291Y0213374D01*
X0375291Y0194216D01*
X0376037Y0192415D01*
X0377415Y0191037D01*
X0379216Y0190291D01*
X0381166Y0190291D01*
X0382967Y0191037D01*
X0384345Y0192415D01*
X0385091Y0194216D01*
X0385091Y0219249D01*
X0384345Y0221050D01*
X0382967Y0222428D01*
X0381166Y0223174D01*
X0344916Y0223174D01*
X0343115Y0222428D01*
X0341737Y0221050D01*
X0340991Y0219249D01*
X0340991Y0217299D01*
X0341737Y0215498D01*
X0343115Y0214120D01*
X0343539Y0213945D01*
X0343526Y0213939D01*
X0342352Y0212765D01*
X0341716Y0211230D01*
X0341975Y0211855D02*
X0245646Y0211855D01*
X0245741Y0213053D02*
X0342640Y0213053D01*
X0342984Y0214252D02*
X0245346Y0214252D01*
X0245091Y0215450D02*
X0341785Y0215450D01*
X0341260Y0216649D02*
X0245091Y0216649D01*
X0245091Y0217847D02*
X0293721Y0217847D01*
X0293963Y0217605D02*
X0293105Y0218463D01*
X0292641Y0219584D01*
X0292641Y0220798D01*
X0293105Y0221919D01*
X0293963Y0222777D01*
X0295084Y0223241D01*
X0296298Y0223241D01*
X0297419Y0222777D01*
X0298277Y0221919D01*
X0298741Y0220798D01*
X0298741Y0219584D01*
X0298277Y0218463D01*
X0297419Y0217605D01*
X0296298Y0217141D01*
X0295084Y0217141D01*
X0293963Y0217605D01*
X0292864Y0219046D02*
X0245091Y0219046D01*
X0245091Y0220244D02*
X0292641Y0220244D01*
X0292908Y0221443D02*
X0245091Y0221443D01*
X0244895Y0222641D02*
X0293828Y0222641D01*
X0297554Y0222641D02*
X0343630Y0222641D01*
X0342130Y0221443D02*
X0298474Y0221443D01*
X0298741Y0220244D02*
X0341403Y0220244D01*
X0340991Y0219046D02*
X0298518Y0219046D01*
X0297661Y0217847D02*
X0340991Y0217847D01*
X0337798Y0226141D02*
X0338919Y0226605D01*
X0339777Y0227463D01*
X0340241Y0228584D01*
X0340241Y0229798D01*
X0339777Y0230919D01*
X0338919Y0231777D01*
X0337798Y0232241D01*
X0336741Y0232241D01*
X0336741Y0233298D01*
X0336277Y0234419D01*
X0335419Y0235277D01*
X0334298Y0235741D01*
X0333084Y0235741D01*
X0331963Y0235277D01*
X0331105Y0234419D01*
X0330641Y0233298D01*
X0330641Y0232084D01*
X0331105Y0230963D01*
X0331963Y0230105D01*
X0333084Y0229641D01*
X0334141Y0229641D01*
X0334141Y0228584D01*
X0334605Y0227463D01*
X0335463Y0226605D01*
X0336584Y0226141D01*
X0337798Y0226141D01*
X0338029Y0226237D02*
X0380054Y0226237D01*
X0378855Y0227435D02*
X0339749Y0227435D01*
X0340241Y0228634D02*
X0357164Y0228634D01*
X0357152Y0228639D02*
X0358475Y0228091D01*
X0378200Y0228091D01*
X0386591Y0219700D01*
X0386591Y0197813D01*
X0386461Y0197683D01*
X0385791Y0196066D01*
X0385791Y0194316D01*
X0386461Y0192699D01*
X0387699Y0191461D01*
X0389316Y0190791D01*
X0391066Y0190791D01*
X0392683Y0191461D01*
X0393921Y0192699D01*
X0394591Y0194316D01*
X0394591Y0196066D01*
X0393921Y0197683D01*
X0393791Y0197813D01*
X0393791Y0221907D01*
X0393243Y0223230D01*
X0383596Y0232877D01*
X0383243Y0233730D01*
X0382230Y0234743D01*
X0380907Y0235291D01*
X0360682Y0235291D01*
X0339243Y0256730D01*
X0338230Y0257743D01*
X0336907Y0258291D01*
X0320682Y0258291D01*
X0319230Y0259743D01*
X0317907Y0260291D01*
X0316475Y0260291D01*
X0315152Y0259743D01*
X0314139Y0258730D01*
X0313591Y0257407D01*
X0313591Y0255975D01*
X0314139Y0254652D01*
X0317152Y0251639D01*
X0318475Y0251091D01*
X0334700Y0251091D01*
X0357152Y0228639D01*
X0355958Y0229832D02*
X0340227Y0229832D01*
X0339664Y0231031D02*
X0354760Y0231031D01*
X0353561Y0232229D02*
X0337825Y0232229D01*
X0336687Y0233428D02*
X0352363Y0233428D01*
X0351164Y0234626D02*
X0336069Y0234626D01*
X0331313Y0234626D02*
X0325844Y0234626D01*
X0325777Y0234463D02*
X0326241Y0235584D01*
X0326241Y0236798D01*
X0325777Y0237919D01*
X0324919Y0238777D01*
X0323798Y0239241D01*
X0322584Y0239241D01*
X0321463Y0238777D01*
X0320605Y0237919D01*
X0320141Y0236798D01*
X0320141Y0235584D01*
X0320605Y0234463D01*
X0321328Y0233741D01*
X0321084Y0233741D01*
X0319963Y0233277D01*
X0319105Y0232419D01*
X0318641Y0231298D01*
X0318641Y0230084D01*
X0319105Y0228963D01*
X0319963Y0228105D01*
X0321084Y0227641D01*
X0322298Y0227641D01*
X0323419Y0228105D01*
X0324277Y0228963D01*
X0324741Y0230084D01*
X0324741Y0231298D01*
X0324277Y0232419D01*
X0323554Y0233141D01*
X0323798Y0233141D01*
X0324919Y0233605D01*
X0325777Y0234463D01*
X0326241Y0235825D02*
X0349966Y0235825D01*
X0348767Y0237023D02*
X0326147Y0237023D01*
X0325473Y0238222D02*
X0347569Y0238222D01*
X0346370Y0239420D02*
X0245771Y0239420D01*
X0246119Y0239277D02*
X0244998Y0239741D01*
X0243784Y0239741D01*
X0242915Y0239381D01*
X0243041Y0239684D01*
X0243041Y0240898D01*
X0242577Y0242019D01*
X0241719Y0242877D01*
X0240598Y0243341D01*
X0239384Y0243341D01*
X0238263Y0242877D01*
X0237405Y0242019D01*
X0236941Y0240898D01*
X0236941Y0239684D01*
X0237405Y0238563D01*
X0238263Y0237705D01*
X0239384Y0237241D01*
X0240598Y0237241D01*
X0241467Y0237601D01*
X0241341Y0237298D01*
X0241341Y0236084D01*
X0241805Y0234963D01*
X0242663Y0234105D01*
X0243784Y0233641D01*
X0244998Y0233641D01*
X0246119Y0234105D01*
X0246977Y0234963D01*
X0247441Y0236084D01*
X0247441Y0237298D01*
X0246977Y0238419D01*
X0246119Y0239277D01*
X0247058Y0238222D02*
X0320909Y0238222D01*
X0320234Y0237023D02*
X0247441Y0237023D01*
X0247334Y0235825D02*
X0320141Y0235825D01*
X0320538Y0234626D02*
X0246640Y0234626D01*
X0242142Y0234626D02*
X0233150Y0234626D01*
X0234348Y0233428D02*
X0320329Y0233428D01*
X0319027Y0232229D02*
X0311325Y0232229D01*
X0311298Y0232241D02*
X0310084Y0232241D01*
X0308963Y0231777D01*
X0308105Y0230919D01*
X0307641Y0229798D01*
X0307641Y0228584D01*
X0308105Y0227463D01*
X0308963Y0226605D01*
X0310084Y0226141D01*
X0311298Y0226141D01*
X0312419Y0226605D01*
X0313277Y0227463D01*
X0313741Y0228584D01*
X0313741Y0229798D01*
X0313277Y0230919D01*
X0312419Y0231777D01*
X0311298Y0232241D01*
X0310056Y0232229D02*
X0235547Y0232229D01*
X0236745Y0231031D02*
X0308218Y0231031D01*
X0307655Y0229832D02*
X0237944Y0229832D01*
X0239142Y0228634D02*
X0307641Y0228634D01*
X0308133Y0227435D02*
X0240341Y0227435D01*
X0241539Y0226237D02*
X0309853Y0226237D01*
X0311529Y0226237D02*
X0336353Y0226237D01*
X0334633Y0227435D02*
X0313249Y0227435D01*
X0313741Y0228634D02*
X0319435Y0228634D01*
X0318745Y0229832D02*
X0313727Y0229832D01*
X0313164Y0231031D02*
X0318641Y0231031D01*
X0323947Y0228634D02*
X0334141Y0228634D01*
X0332622Y0229832D02*
X0324637Y0229832D01*
X0324741Y0231031D02*
X0331077Y0231031D01*
X0330641Y0232229D02*
X0324355Y0232229D01*
X0324490Y0233428D02*
X0330695Y0233428D01*
X0342775Y0243016D02*
X0284241Y0243016D01*
X0284241Y0242584D02*
X0283777Y0241463D01*
X0282919Y0240605D01*
X0281798Y0240141D01*
X0280584Y0240141D01*
X0279463Y0240605D01*
X0278605Y0241463D01*
X0278141Y0242584D01*
X0278141Y0243798D01*
X0278605Y0244919D01*
X0279463Y0245777D01*
X0280584Y0246241D01*
X0281798Y0246241D01*
X0282919Y0245777D01*
X0283777Y0244919D01*
X0284241Y0243798D01*
X0284241Y0242584D01*
X0283923Y0241817D02*
X0343973Y0241817D01*
X0345172Y0240619D02*
X0282932Y0240619D01*
X0279450Y0240619D02*
X0243041Y0240619D01*
X0243011Y0239420D02*
X0242932Y0239420D01*
X0242660Y0241817D02*
X0278459Y0241817D01*
X0278141Y0243016D02*
X0241382Y0243016D01*
X0238600Y0243016D02*
X0233888Y0243016D01*
X0234041Y0243384D02*
X0233577Y0242263D01*
X0232719Y0241405D01*
X0231598Y0240941D01*
X0230384Y0240941D01*
X0229263Y0241405D01*
X0228405Y0242263D01*
X0227941Y0243384D01*
X0227941Y0244598D01*
X0228405Y0245719D01*
X0229263Y0246577D01*
X0230384Y0247041D01*
X0231598Y0247041D01*
X0232719Y0246577D01*
X0233577Y0245719D01*
X0234041Y0244598D01*
X0234041Y0243384D01*
X0234041Y0244215D02*
X0278314Y0244215D01*
X0279100Y0245413D02*
X0233703Y0245413D01*
X0232634Y0246612D02*
X0339179Y0246612D01*
X0337981Y0247810D02*
X0227091Y0247810D01*
X0227091Y0246612D02*
X0229348Y0246612D01*
X0228279Y0245413D02*
X0227091Y0245413D01*
X0227091Y0244215D02*
X0227941Y0244215D01*
X0228093Y0243016D02*
X0227091Y0243016D01*
X0227091Y0241817D02*
X0228851Y0241817D01*
X0227157Y0240619D02*
X0236941Y0240619D01*
X0237050Y0239420D02*
X0228356Y0239420D01*
X0229554Y0238222D02*
X0237747Y0238222D01*
X0237322Y0241817D02*
X0233131Y0241817D01*
X0230753Y0237023D02*
X0241341Y0237023D01*
X0241448Y0235825D02*
X0231951Y0235825D01*
X0227560Y0233428D02*
X0072691Y0233428D01*
X0072691Y0234626D02*
X0141942Y0234626D01*
X0141963Y0234605D02*
X0143084Y0234141D01*
X0144298Y0234141D01*
X0145419Y0234605D01*
X0146277Y0235463D01*
X0146741Y0236584D01*
X0146741Y0237798D01*
X0146277Y0238919D01*
X0145419Y0239777D01*
X0144298Y0240241D01*
X0143084Y0240241D01*
X0141963Y0239777D01*
X0141105Y0238919D01*
X0140641Y0237798D01*
X0140641Y0236584D01*
X0141105Y0235463D01*
X0141963Y0234605D01*
X0140955Y0235825D02*
X0072691Y0235825D01*
X0072691Y0237023D02*
X0140641Y0237023D01*
X0140817Y0238222D02*
X0072691Y0238222D01*
X0072691Y0239420D02*
X0141607Y0239420D01*
X0145775Y0239420D02*
X0222291Y0239420D01*
X0222291Y0240619D02*
X0208632Y0240619D01*
X0208319Y0240305D02*
X0209177Y0241163D01*
X0209641Y0242284D01*
X0209641Y0243498D01*
X0209177Y0244619D01*
X0208319Y0245477D01*
X0207198Y0245941D01*
X0205984Y0245941D01*
X0204863Y0245477D01*
X0204005Y0244619D01*
X0203541Y0243498D01*
X0203541Y0242284D01*
X0204005Y0241163D01*
X0204863Y0240305D01*
X0205984Y0239841D01*
X0207198Y0239841D01*
X0208319Y0240305D01*
X0209448Y0241817D02*
X0222291Y0241817D01*
X0222291Y0243016D02*
X0209641Y0243016D01*
X0209344Y0244215D02*
X0222291Y0244215D01*
X0222291Y0245413D02*
X0221926Y0245413D01*
X0218056Y0245413D02*
X0208382Y0245413D01*
X0204800Y0245413D02*
X0134241Y0245413D01*
X0134241Y0245084D02*
X0133777Y0243963D01*
X0132919Y0243105D01*
X0131798Y0242641D01*
X0130584Y0242641D01*
X0129463Y0243105D01*
X0128605Y0243963D01*
X0128141Y0245084D01*
X0128141Y0246298D01*
X0128605Y0247419D01*
X0129463Y0248277D01*
X0130584Y0248741D01*
X0131798Y0248741D01*
X0132919Y0248277D01*
X0133777Y0247419D01*
X0134241Y0246298D01*
X0134241Y0245084D01*
X0133881Y0244215D02*
X0203838Y0244215D01*
X0203541Y0243016D02*
X0132703Y0243016D01*
X0129679Y0243016D02*
X0072691Y0243016D01*
X0072691Y0241817D02*
X0203734Y0241817D01*
X0204550Y0240619D02*
X0072691Y0240619D01*
X0072691Y0244215D02*
X0128501Y0244215D01*
X0128141Y0245413D02*
X0072691Y0245413D01*
X0072691Y0246612D02*
X0128271Y0246612D01*
X0128997Y0247810D02*
X0072691Y0247810D01*
X0072691Y0249009D02*
X0217194Y0249009D01*
X0216941Y0247810D02*
X0133385Y0247810D01*
X0134111Y0246612D02*
X0217178Y0246612D01*
X0218094Y0250207D02*
X0072691Y0250207D01*
X0072691Y0251406D02*
X0131663Y0251406D01*
X0131963Y0251105D02*
X0133084Y0250641D01*
X0134298Y0250641D01*
X0135419Y0251105D01*
X0136277Y0251963D01*
X0136741Y0253084D01*
X0136741Y0254298D01*
X0136277Y0255419D01*
X0135419Y0256277D01*
X0134298Y0256741D01*
X0133084Y0256741D01*
X0131963Y0256277D01*
X0131105Y0255419D01*
X0130641Y0254298D01*
X0130641Y0253084D01*
X0131105Y0251963D01*
X0131963Y0251105D01*
X0130840Y0252604D02*
X0072691Y0252604D01*
X0072691Y0253803D02*
X0130641Y0253803D01*
X0130932Y0255001D02*
X0072691Y0255001D01*
X0072691Y0256200D02*
X0131886Y0256200D01*
X0135496Y0256200D02*
X0222291Y0256200D01*
X0222291Y0257398D02*
X0072691Y0257398D01*
X0072691Y0258597D02*
X0222291Y0258597D01*
X0222291Y0259795D02*
X0072691Y0259795D01*
X0072691Y0260994D02*
X0200775Y0260994D01*
X0200863Y0260905D02*
X0201984Y0260441D01*
X0203198Y0260441D01*
X0204319Y0260905D01*
X0205177Y0261763D01*
X0205641Y0262884D01*
X0205641Y0264098D01*
X0205177Y0265219D01*
X0204319Y0266077D01*
X0203198Y0266541D01*
X0201984Y0266541D01*
X0200863Y0266077D01*
X0200005Y0265219D01*
X0199541Y0264098D01*
X0199541Y0262884D01*
X0200005Y0261763D01*
X0200863Y0260905D01*
X0199828Y0262192D02*
X0072691Y0262192D01*
X0072691Y0263391D02*
X0153678Y0263391D01*
X0153963Y0263105D02*
X0155084Y0262641D01*
X0156298Y0262641D01*
X0157419Y0263105D01*
X0158277Y0263963D01*
X0158741Y0265084D01*
X0158741Y0266298D01*
X0158277Y0267419D01*
X0157419Y0268277D01*
X0156298Y0268741D01*
X0155084Y0268741D01*
X0153963Y0268277D01*
X0153105Y0267419D01*
X0152641Y0266298D01*
X0152641Y0265084D01*
X0153105Y0263963D01*
X0153963Y0263105D01*
X0152846Y0264589D02*
X0072691Y0264589D01*
X0072691Y0265788D02*
X0152641Y0265788D01*
X0152926Y0266986D02*
X0072691Y0266986D01*
X0072691Y0268185D02*
X0153871Y0268185D01*
X0157510Y0268185D02*
X0161371Y0268185D01*
X0161463Y0268277D02*
X0160605Y0267419D01*
X0160141Y0266298D01*
X0160141Y0265084D01*
X0160605Y0263963D01*
X0161463Y0263105D01*
X0162584Y0262641D01*
X0163798Y0262641D01*
X0164919Y0263105D01*
X0165777Y0263963D01*
X0166241Y0265084D01*
X0166241Y0266298D01*
X0165777Y0267419D01*
X0164919Y0268277D01*
X0163798Y0268741D01*
X0162584Y0268741D01*
X0161463Y0268277D01*
X0160426Y0266986D02*
X0158456Y0266986D01*
X0158741Y0265788D02*
X0160141Y0265788D01*
X0160346Y0264589D02*
X0158536Y0264589D01*
X0157704Y0263391D02*
X0161178Y0263391D01*
X0165204Y0263391D02*
X0199541Y0263391D01*
X0199745Y0264589D02*
X0166036Y0264589D01*
X0166241Y0265788D02*
X0200574Y0265788D01*
X0204608Y0265788D02*
X0208790Y0265788D01*
X0208763Y0265777D02*
X0207905Y0264919D01*
X0207441Y0263798D01*
X0207441Y0262584D01*
X0207905Y0261463D01*
X0208763Y0260605D01*
X0209884Y0260141D01*
X0211098Y0260141D01*
X0212219Y0260605D01*
X0213077Y0261463D01*
X0213541Y0262584D01*
X0213541Y0263798D01*
X0213077Y0264919D01*
X0212219Y0265777D01*
X0211098Y0266241D01*
X0209884Y0266241D01*
X0208763Y0265777D01*
X0207769Y0264589D02*
X0205437Y0264589D01*
X0205641Y0263391D02*
X0207441Y0263391D01*
X0207603Y0262192D02*
X0205354Y0262192D01*
X0204407Y0260994D02*
X0208375Y0260994D01*
X0212607Y0260994D02*
X0215875Y0260994D01*
X0215705Y0261163D02*
X0216563Y0260305D01*
X0217684Y0259841D01*
X0218898Y0259841D01*
X0220019Y0260305D01*
X0220877Y0261163D01*
X0221341Y0262284D01*
X0221341Y0263498D01*
X0220877Y0264619D01*
X0220019Y0265477D01*
X0218898Y0265941D01*
X0217684Y0265941D01*
X0216563Y0265477D01*
X0215705Y0264619D01*
X0215241Y0263498D01*
X0215241Y0262284D01*
X0215705Y0261163D01*
X0215279Y0262192D02*
X0213379Y0262192D01*
X0213541Y0263391D02*
X0215241Y0263391D01*
X0215693Y0264589D02*
X0213213Y0264589D01*
X0212192Y0265788D02*
X0217314Y0265788D01*
X0219268Y0265788D02*
X0222291Y0265788D01*
X0222291Y0266986D02*
X0165956Y0266986D01*
X0165010Y0268185D02*
X0222291Y0268185D01*
X0222291Y0269383D02*
X0072691Y0269383D01*
X0072691Y0270582D02*
X0146835Y0270582D01*
X0145076Y0271780D02*
X0072691Y0271780D01*
X0072691Y0272979D02*
X0143878Y0272979D01*
X0142679Y0274177D02*
X0072691Y0274177D01*
X0072691Y0275376D02*
X0141481Y0275376D01*
X0140282Y0276574D02*
X0072691Y0276574D01*
X0072691Y0277773D02*
X0139315Y0277773D01*
X0138991Y0278971D02*
X0072691Y0278971D01*
X0072691Y0280170D02*
X0138991Y0280170D01*
X0138991Y0281368D02*
X0072691Y0281368D01*
X0072691Y0282567D02*
X0138991Y0282567D01*
X0138991Y0283765D02*
X0072691Y0283765D01*
X0072691Y0284964D02*
X0138991Y0284964D01*
X0139337Y0286162D02*
X0072691Y0286162D01*
X0072691Y0287361D02*
X0140335Y0287361D01*
X0144046Y0287361D02*
X0486191Y0287361D01*
X0486191Y0288559D02*
X0072691Y0288559D01*
X0072691Y0289758D02*
X0172402Y0289758D01*
X0173071Y0289481D02*
X0174901Y0289481D01*
X0176592Y0290181D01*
X0177886Y0291475D01*
X0178586Y0293166D01*
X0178586Y0294996D01*
X0177886Y0296686D01*
X0176592Y0297980D01*
X0174901Y0298681D01*
X0173071Y0298681D01*
X0171381Y0297980D01*
X0170087Y0296686D01*
X0169386Y0294996D01*
X0169386Y0293166D01*
X0170087Y0291475D01*
X0171381Y0290181D01*
X0173071Y0289481D01*
X0175570Y0289758D02*
X0182402Y0289758D01*
X0183071Y0289481D02*
X0184901Y0289481D01*
X0186592Y0290181D01*
X0187886Y0291475D01*
X0188586Y0293166D01*
X0188586Y0294996D01*
X0187886Y0296686D01*
X0186592Y0297980D01*
X0184901Y0298681D01*
X0183071Y0298681D01*
X0181381Y0297980D01*
X0180087Y0296686D01*
X0179386Y0294996D01*
X0179386Y0293166D01*
X0180087Y0291475D01*
X0181381Y0290181D01*
X0183071Y0289481D01*
X0185570Y0289758D02*
X0192402Y0289758D01*
X0193071Y0289481D02*
X0194901Y0289481D01*
X0196592Y0290181D01*
X0197886Y0291475D01*
X0198586Y0293166D01*
X0198586Y0294996D01*
X0197886Y0296686D01*
X0196592Y0297980D01*
X0194901Y0298681D01*
X0193071Y0298681D01*
X0191381Y0297980D01*
X0190087Y0296686D01*
X0189386Y0294996D01*
X0189386Y0293166D01*
X0190087Y0291475D01*
X0191381Y0290181D01*
X0193071Y0289481D01*
X0195570Y0289758D02*
X0202402Y0289758D01*
X0203071Y0289481D02*
X0204901Y0289481D01*
X0206592Y0290181D01*
X0207886Y0291475D01*
X0208586Y0293166D01*
X0208586Y0294996D01*
X0207886Y0296686D01*
X0206592Y0297980D01*
X0204901Y0298681D01*
X0203071Y0298681D01*
X0201381Y0297980D01*
X0200087Y0296686D01*
X0199386Y0294996D01*
X0199386Y0293166D01*
X0200087Y0291475D01*
X0201381Y0290181D01*
X0203071Y0289481D01*
X0205570Y0289758D02*
X0212402Y0289758D01*
X0213071Y0289481D02*
X0214901Y0289481D01*
X0216592Y0290181D01*
X0217886Y0291475D01*
X0218586Y0293166D01*
X0218586Y0294996D01*
X0217886Y0296686D01*
X0216592Y0297980D01*
X0214901Y0298681D01*
X0213071Y0298681D01*
X0211381Y0297980D01*
X0210087Y0296686D01*
X0209386Y0294996D01*
X0209386Y0293166D01*
X0210087Y0291475D01*
X0211381Y0290181D01*
X0213071Y0289481D01*
X0215570Y0289758D02*
X0222402Y0289758D01*
X0223071Y0289481D02*
X0224901Y0289481D01*
X0226592Y0290181D01*
X0227886Y0291475D01*
X0228586Y0293166D01*
X0228586Y0294996D01*
X0227886Y0296686D01*
X0226592Y0297980D01*
X0224901Y0298681D01*
X0223071Y0298681D01*
X0221381Y0297980D01*
X0220087Y0296686D01*
X0219386Y0294996D01*
X0219386Y0293166D01*
X0220087Y0291475D01*
X0221381Y0290181D01*
X0223071Y0289481D01*
X0225570Y0289758D02*
X0232402Y0289758D01*
X0233071Y0289481D02*
X0231381Y0290181D01*
X0230087Y0291475D01*
X0229386Y0293166D01*
X0229386Y0294996D01*
X0230087Y0296686D01*
X0231381Y0297980D01*
X0233071Y0298681D01*
X0234901Y0298681D01*
X0236592Y0297980D01*
X0237886Y0296686D01*
X0238586Y0294996D01*
X0238586Y0293166D01*
X0237886Y0291475D01*
X0236592Y0290181D01*
X0234901Y0289481D01*
X0233071Y0289481D01*
X0235570Y0289758D02*
X0486191Y0289758D01*
X0486191Y0290956D02*
X0237367Y0290956D01*
X0238168Y0292155D02*
X0486191Y0292155D01*
X0486191Y0293353D02*
X0443872Y0293353D01*
X0442692Y0292865D02*
X0446039Y0294251D01*
X0448600Y0296813D01*
X0449987Y0300159D01*
X0449987Y0303782D01*
X0448600Y0307128D01*
X0446039Y0309690D01*
X0442692Y0311076D01*
X0439070Y0311076D01*
X0435723Y0309690D01*
X0433162Y0307128D01*
X0431776Y0303782D01*
X0431776Y0300159D01*
X0433162Y0296813D01*
X0435723Y0294251D01*
X0439070Y0292865D01*
X0442692Y0292865D01*
X0446340Y0294552D02*
X0486191Y0294552D01*
X0486191Y0286162D02*
X0237689Y0286162D01*
X0237791Y0286061D02*
X0236561Y0287291D01*
X0190821Y0287291D01*
X0186771Y0283241D01*
X0186084Y0283241D01*
X0184963Y0282777D01*
X0184105Y0281919D01*
X0183641Y0280798D01*
X0183641Y0279584D01*
X0184105Y0278463D01*
X0184963Y0277605D01*
X0186084Y0277141D01*
X0187298Y0277141D01*
X0188419Y0277605D01*
X0189277Y0278463D01*
X0189741Y0279584D01*
X0189741Y0280271D01*
X0192561Y0283091D01*
X0228815Y0283091D01*
X0228391Y0282068D01*
X0228391Y0280914D01*
X0228832Y0279848D01*
X0229648Y0279032D01*
X0230714Y0278591D01*
X0231868Y0278591D01*
X0232934Y0279032D01*
X0233749Y0279848D01*
X0234191Y0280914D01*
X0234191Y0282068D01*
X0233767Y0283091D01*
X0234821Y0283091D01*
X0236821Y0281091D01*
X0395821Y0281091D01*
X0412591Y0264321D01*
X0412591Y0179561D01*
X0392771Y0159741D01*
X0392084Y0159741D01*
X0390963Y0159277D01*
X0390105Y0158419D01*
X0389641Y0157298D01*
X0389641Y0156084D01*
X0390105Y0154963D01*
X0390963Y0154105D01*
X0392084Y0153641D01*
X0393298Y0153641D01*
X0394419Y0154105D01*
X0395277Y0154963D01*
X0395741Y0156084D01*
X0395741Y0156771D01*
X0416791Y0177821D01*
X0416791Y0266061D01*
X0415561Y0267291D01*
X0415561Y0267291D01*
X0398791Y0284061D01*
X0397561Y0285291D01*
X0238561Y0285291D01*
X0237791Y0286061D01*
X0235345Y0282567D02*
X0233984Y0282567D01*
X0234191Y0281368D02*
X0236544Y0281368D01*
X0233883Y0280170D02*
X0396742Y0280170D01*
X0397941Y0278971D02*
X0232786Y0278971D01*
X0229796Y0278971D02*
X0223936Y0278971D01*
X0225135Y0277773D02*
X0345747Y0277773D01*
X0350635Y0277773D02*
X0399139Y0277773D01*
X0400338Y0276574D02*
X0351289Y0276574D01*
X0351391Y0275376D02*
X0401536Y0275376D01*
X0402735Y0274177D02*
X0351028Y0274177D01*
X0350004Y0272979D02*
X0403933Y0272979D01*
X0405132Y0271780D02*
X0348806Y0271780D01*
X0347047Y0270582D02*
X0406330Y0270582D01*
X0407529Y0269383D02*
X0227091Y0269383D01*
X0227091Y0268185D02*
X0408727Y0268185D01*
X0409926Y0266986D02*
X0227091Y0266986D01*
X0227091Y0265788D02*
X0411124Y0265788D01*
X0412323Y0264589D02*
X0227091Y0264589D01*
X0227091Y0263391D02*
X0412591Y0263391D01*
X0412591Y0262192D02*
X0227091Y0262192D01*
X0227091Y0260994D02*
X0412591Y0260994D01*
X0412591Y0259795D02*
X0319104Y0259795D01*
X0320376Y0258597D02*
X0412591Y0258597D01*
X0412591Y0257398D02*
X0338575Y0257398D01*
X0339773Y0256200D02*
X0412591Y0256200D01*
X0412591Y0255001D02*
X0340972Y0255001D01*
X0342170Y0253803D02*
X0412591Y0253803D01*
X0412591Y0252604D02*
X0343369Y0252604D01*
X0344567Y0251406D02*
X0412591Y0251406D01*
X0412591Y0250207D02*
X0345766Y0250207D01*
X0346964Y0249009D02*
X0412591Y0249009D01*
X0412591Y0247810D02*
X0348163Y0247810D01*
X0349362Y0246612D02*
X0412591Y0246612D01*
X0412591Y0245413D02*
X0350560Y0245413D01*
X0351759Y0244215D02*
X0412591Y0244215D01*
X0412591Y0243016D02*
X0352957Y0243016D01*
X0354156Y0241817D02*
X0412591Y0241817D01*
X0412591Y0240619D02*
X0355354Y0240619D01*
X0356553Y0239420D02*
X0412591Y0239420D01*
X0412591Y0238222D02*
X0357751Y0238222D01*
X0358950Y0237023D02*
X0412591Y0237023D01*
X0412591Y0235825D02*
X0360148Y0235825D01*
X0341576Y0244215D02*
X0284068Y0244215D01*
X0283282Y0245413D02*
X0340378Y0245413D01*
X0336782Y0249009D02*
X0227091Y0249009D01*
X0227091Y0250207D02*
X0335584Y0250207D01*
X0317715Y0251406D02*
X0227091Y0251406D01*
X0227091Y0252604D02*
X0316187Y0252604D01*
X0314988Y0253803D02*
X0227091Y0253803D01*
X0227091Y0255001D02*
X0313994Y0255001D01*
X0313591Y0256200D02*
X0227091Y0256200D01*
X0227091Y0257398D02*
X0313591Y0257398D01*
X0314084Y0258597D02*
X0227091Y0258597D01*
X0227091Y0259795D02*
X0315278Y0259795D01*
X0301068Y0294991D02*
X0302134Y0295432D01*
X0302949Y0296248D01*
X0303391Y0297314D01*
X0303391Y0298468D01*
X0302949Y0299534D01*
X0302134Y0300349D01*
X0301068Y0300791D01*
X0299914Y0300791D01*
X0298848Y0300349D01*
X0298032Y0299534D01*
X0297591Y0298468D01*
X0297591Y0297314D01*
X0298032Y0296248D01*
X0298848Y0295432D01*
X0299914Y0294991D01*
X0301068Y0294991D01*
X0302452Y0295750D02*
X0434224Y0295750D01*
X0433105Y0296949D02*
X0303240Y0296949D01*
X0303391Y0298148D02*
X0432609Y0298148D01*
X0432112Y0299346D02*
X0303027Y0299346D01*
X0301663Y0300545D02*
X0431776Y0300545D01*
X0431776Y0301743D02*
X0237997Y0301743D01*
X0237886Y0301475D02*
X0238586Y0303166D01*
X0238586Y0304996D01*
X0237886Y0306686D01*
X0236592Y0307980D01*
X0234901Y0308681D01*
X0233071Y0308681D01*
X0231381Y0307980D01*
X0230087Y0306686D01*
X0229386Y0304996D01*
X0229386Y0303166D01*
X0230087Y0301475D01*
X0231381Y0300181D01*
X0233071Y0299481D01*
X0234901Y0299481D01*
X0236592Y0300181D01*
X0237886Y0301475D01*
X0236955Y0300545D02*
X0299319Y0300545D01*
X0297955Y0299346D02*
X0093145Y0299346D01*
X0093482Y0300159D02*
X0092096Y0296813D01*
X0089535Y0294251D01*
X0086188Y0292865D01*
X0082565Y0292865D01*
X0079219Y0294251D01*
X0076657Y0296813D01*
X0075271Y0300159D01*
X0075271Y0303782D01*
X0076657Y0307128D01*
X0079219Y0309690D01*
X0082565Y0311076D01*
X0086188Y0311076D01*
X0089535Y0309690D01*
X0092096Y0307128D01*
X0093482Y0303782D01*
X0093482Y0300159D01*
X0093482Y0300545D02*
X0171017Y0300545D01*
X0171381Y0300181D02*
X0173071Y0299481D01*
X0174901Y0299481D01*
X0176592Y0300181D01*
X0177886Y0301475D01*
X0178586Y0303166D01*
X0178586Y0304996D01*
X0177886Y0306686D01*
X0176592Y0307980D01*
X0174901Y0308681D01*
X0173071Y0308681D01*
X0171381Y0307980D01*
X0170087Y0306686D01*
X0169386Y0304996D01*
X0169386Y0303166D01*
X0170087Y0301475D01*
X0171381Y0300181D01*
X0171784Y0298148D02*
X0092649Y0298148D01*
X0092152Y0296949D02*
X0170349Y0296949D01*
X0169699Y0295750D02*
X0091034Y0295750D01*
X0089835Y0294552D02*
X0169386Y0294552D01*
X0169386Y0293353D02*
X0087367Y0293353D01*
X0081386Y0293353D02*
X0072691Y0293353D01*
X0072691Y0292155D02*
X0169805Y0292155D01*
X0170605Y0290956D02*
X0072691Y0290956D01*
X0072691Y0294552D02*
X0078918Y0294552D01*
X0077720Y0295750D02*
X0072691Y0295750D01*
X0072691Y0296949D02*
X0076601Y0296949D01*
X0076104Y0298148D02*
X0072691Y0298148D01*
X0075608Y0299346D02*
X0065691Y0299346D01*
X0065691Y0300545D02*
X0075271Y0300545D01*
X0075271Y0301743D02*
X0065691Y0301743D01*
X0065691Y0302942D02*
X0075271Y0302942D01*
X0075420Y0304140D02*
X0065691Y0304140D01*
X0065691Y0305339D02*
X0075916Y0305339D01*
X0076413Y0306537D02*
X0065691Y0306537D01*
X0065691Y0307736D02*
X0077265Y0307736D01*
X0078463Y0308934D02*
X0065691Y0308934D01*
X0065691Y0310133D02*
X0080288Y0310133D01*
X0088465Y0310133D02*
X0436792Y0310133D01*
X0434968Y0308934D02*
X0090290Y0308934D01*
X0091489Y0307736D02*
X0171136Y0307736D01*
X0170025Y0306537D02*
X0092341Y0306537D01*
X0092837Y0305339D02*
X0169528Y0305339D01*
X0169386Y0304140D02*
X0093334Y0304140D01*
X0093482Y0302942D02*
X0169479Y0302942D01*
X0169975Y0301743D02*
X0093482Y0301743D01*
X0065691Y0311331D02*
X0344737Y0311331D01*
X0344164Y0312530D02*
X0065691Y0312530D01*
X0065691Y0313728D02*
X0344141Y0313728D01*
X0344613Y0314927D02*
X0065691Y0314927D01*
X0065691Y0316125D02*
X0277691Y0316125D01*
X0277691Y0317324D02*
X0065691Y0317324D01*
X0065691Y0318522D02*
X0277691Y0318522D01*
X0277691Y0319721D02*
X0065691Y0319721D01*
X0065691Y0320919D02*
X0277691Y0320919D01*
X0277691Y0322118D02*
X0065691Y0322118D01*
X0065691Y0323316D02*
X0277691Y0323316D01*
X0277691Y0324515D02*
X0065691Y0324515D01*
X0065691Y0325713D02*
X0277691Y0325713D01*
X0277691Y0326912D02*
X0065691Y0326912D01*
X0065691Y0328110D02*
X0277691Y0328110D01*
X0277691Y0329309D02*
X0270588Y0329309D01*
X0270607Y0329317D02*
X0271971Y0330680D01*
X0272709Y0332462D01*
X0272709Y0334391D01*
X0271971Y0336173D01*
X0270607Y0337537D01*
X0268825Y0338275D01*
X0266897Y0338275D01*
X0265115Y0337537D01*
X0263751Y0336173D01*
X0263013Y0334391D01*
X0263013Y0332462D01*
X0263751Y0330680D01*
X0265115Y0329317D01*
X0266897Y0328579D01*
X0268825Y0328579D01*
X0270607Y0329317D01*
X0271798Y0330507D02*
X0277691Y0330507D01*
X0277691Y0331706D02*
X0272396Y0331706D01*
X0272709Y0332904D02*
X0277691Y0332904D01*
X0277691Y0334103D02*
X0272709Y0334103D01*
X0272332Y0335301D02*
X0277691Y0335301D01*
X0277691Y0336500D02*
X0271644Y0336500D01*
X0270216Y0337698D02*
X0277691Y0337698D01*
X0277691Y0338897D02*
X0065691Y0338897D01*
X0065691Y0340095D02*
X0277691Y0340095D01*
X0277691Y0341294D02*
X0065691Y0341294D01*
X0065691Y0342492D02*
X0277691Y0342492D01*
X0265505Y0337698D02*
X0256437Y0337698D01*
X0256828Y0337537D02*
X0255046Y0338275D01*
X0253117Y0338275D01*
X0251335Y0337537D01*
X0249971Y0336173D01*
X0249233Y0334391D01*
X0249233Y0332462D01*
X0249971Y0330680D01*
X0251335Y0329317D01*
X0253117Y0328579D01*
X0255046Y0328579D01*
X0256828Y0329317D01*
X0258191Y0330680D01*
X0258929Y0332462D01*
X0258929Y0334391D01*
X0258191Y0336173D01*
X0256828Y0337537D01*
X0257864Y0336500D02*
X0264078Y0336500D01*
X0263390Y0335301D02*
X0258552Y0335301D01*
X0258929Y0334103D02*
X0263013Y0334103D01*
X0263013Y0332904D02*
X0258929Y0332904D01*
X0258616Y0331706D02*
X0263326Y0331706D01*
X0263924Y0330507D02*
X0258018Y0330507D01*
X0256809Y0329309D02*
X0265134Y0329309D01*
X0251354Y0329309D02*
X0243029Y0329309D01*
X0243048Y0329317D02*
X0244412Y0330680D01*
X0245150Y0332462D01*
X0245150Y0334391D01*
X0244412Y0336173D01*
X0243048Y0337537D01*
X0241266Y0338275D01*
X0239338Y0338275D01*
X0237556Y0337537D01*
X0236192Y0336173D01*
X0235454Y0334391D01*
X0235454Y0332462D01*
X0236192Y0330680D01*
X0237556Y0329317D01*
X0239338Y0328579D01*
X0241266Y0328579D01*
X0243048Y0329317D01*
X0244239Y0330507D02*
X0250145Y0330507D01*
X0249547Y0331706D02*
X0244837Y0331706D01*
X0245150Y0332904D02*
X0249233Y0332904D01*
X0249233Y0334103D02*
X0245150Y0334103D01*
X0244773Y0335301D02*
X0249611Y0335301D01*
X0250299Y0336500D02*
X0244085Y0336500D01*
X0242657Y0337698D02*
X0251726Y0337698D01*
X0237946Y0337698D02*
X0228878Y0337698D01*
X0229269Y0337537D02*
X0227487Y0338275D01*
X0225558Y0338275D01*
X0223776Y0337537D01*
X0222412Y0336173D01*
X0221674Y0334391D01*
X0221674Y0332462D01*
X0222412Y0330680D01*
X0223776Y0329317D01*
X0225558Y0328579D01*
X0227487Y0328579D01*
X0229269Y0329317D01*
X0230632Y0330680D01*
X0231370Y0332462D01*
X0231370Y0334391D01*
X0230632Y0336173D01*
X0229269Y0337537D01*
X0230305Y0336500D02*
X0236519Y0336500D01*
X0235831Y0335301D02*
X0230993Y0335301D01*
X0231370Y0334103D02*
X0235454Y0334103D01*
X0235454Y0332904D02*
X0231370Y0332904D01*
X0231057Y0331706D02*
X0235767Y0331706D01*
X0236365Y0330507D02*
X0230459Y0330507D01*
X0229250Y0329309D02*
X0237575Y0329309D01*
X0223795Y0329309D02*
X0215470Y0329309D01*
X0215489Y0329317D02*
X0216853Y0330680D01*
X0217591Y0332462D01*
X0217591Y0334391D01*
X0216853Y0336173D01*
X0215489Y0337537D01*
X0213707Y0338275D01*
X0211778Y0338275D01*
X0209997Y0337537D01*
X0208633Y0336173D01*
X0207895Y0334391D01*
X0207895Y0332462D01*
X0208633Y0330680D01*
X0209997Y0329317D01*
X0211778Y0328579D01*
X0213707Y0328579D01*
X0215489Y0329317D01*
X0216680Y0330507D02*
X0222585Y0330507D01*
X0221988Y0331706D02*
X0217278Y0331706D01*
X0217591Y0332904D02*
X0221674Y0332904D01*
X0221674Y0334103D02*
X0217591Y0334103D01*
X0217214Y0335301D02*
X0222051Y0335301D01*
X0222739Y0336500D02*
X0216526Y0336500D01*
X0215098Y0337698D02*
X0224167Y0337698D01*
X0210387Y0337698D02*
X0201319Y0337698D01*
X0201709Y0337537D02*
X0199928Y0338275D01*
X0197999Y0338275D01*
X0196217Y0337537D01*
X0194853Y0336173D01*
X0194115Y0334391D01*
X0194115Y0332462D01*
X0194853Y0330680D01*
X0196217Y0329317D01*
X0197999Y0328579D01*
X0199928Y0328579D01*
X0201709Y0329317D01*
X0203073Y0330680D01*
X0203811Y0332462D01*
X0203811Y0334391D01*
X0203073Y0336173D01*
X0201709Y0337537D01*
X0202746Y0336500D02*
X0208960Y0336500D01*
X0208272Y0335301D02*
X0203434Y0335301D01*
X0203811Y0334103D02*
X0207895Y0334103D01*
X0207895Y0332904D02*
X0203811Y0332904D01*
X0203498Y0331706D02*
X0208208Y0331706D01*
X0208806Y0330507D02*
X0202900Y0330507D01*
X0201691Y0329309D02*
X0210016Y0329309D01*
X0196236Y0329309D02*
X0187911Y0329309D01*
X0187930Y0329317D02*
X0189294Y0330680D01*
X0190032Y0332462D01*
X0190032Y0334391D01*
X0189294Y0336173D01*
X0187930Y0337537D01*
X0186148Y0338275D01*
X0184219Y0338275D01*
X0182438Y0337537D01*
X0181074Y0336173D01*
X0180336Y0334391D01*
X0180336Y0332462D01*
X0181074Y0330680D01*
X0182438Y0329317D01*
X0184219Y0328579D01*
X0186148Y0328579D01*
X0187930Y0329317D01*
X0189121Y0330507D02*
X0195026Y0330507D01*
X0194429Y0331706D02*
X0189718Y0331706D01*
X0190032Y0332904D02*
X0194115Y0332904D01*
X0194115Y0334103D02*
X0190032Y0334103D01*
X0189655Y0335301D02*
X0194492Y0335301D01*
X0195180Y0336500D02*
X0188967Y0336500D01*
X0187539Y0337698D02*
X0196608Y0337698D01*
X0182828Y0337698D02*
X0173760Y0337698D01*
X0174150Y0337537D02*
X0172369Y0338275D01*
X0170440Y0338275D01*
X0168658Y0337537D01*
X0167294Y0336173D01*
X0166556Y0334391D01*
X0166556Y0332462D01*
X0167294Y0330680D01*
X0168658Y0329317D01*
X0170440Y0328579D01*
X0172369Y0328579D01*
X0174150Y0329317D01*
X0175514Y0330680D01*
X0176252Y0332462D01*
X0176252Y0334391D01*
X0175514Y0336173D01*
X0174150Y0337537D01*
X0175187Y0336500D02*
X0181401Y0336500D01*
X0180713Y0335301D02*
X0175875Y0335301D01*
X0176252Y0334103D02*
X0180336Y0334103D01*
X0180336Y0332904D02*
X0176252Y0332904D01*
X0175939Y0331706D02*
X0180649Y0331706D01*
X0181247Y0330507D02*
X0175341Y0330507D01*
X0174132Y0329309D02*
X0182456Y0329309D01*
X0168677Y0329309D02*
X0160352Y0329309D01*
X0160371Y0329317D02*
X0161735Y0330680D01*
X0162473Y0332462D01*
X0162473Y0334391D01*
X0161735Y0336173D01*
X0160371Y0337537D01*
X0158589Y0338275D01*
X0156660Y0338275D01*
X0154879Y0337537D01*
X0153515Y0336173D01*
X0152777Y0334391D01*
X0152777Y0332462D01*
X0153515Y0330680D01*
X0154879Y0329317D01*
X0156660Y0328579D01*
X0158589Y0328579D01*
X0160371Y0329317D01*
X0161562Y0330507D02*
X0167467Y0330507D01*
X0166870Y0331706D02*
X0162159Y0331706D01*
X0162473Y0332904D02*
X0166556Y0332904D01*
X0166556Y0334103D02*
X0162473Y0334103D01*
X0162096Y0335301D02*
X0166933Y0335301D01*
X0167621Y0336500D02*
X0161408Y0336500D01*
X0159980Y0337698D02*
X0169049Y0337698D01*
X0155269Y0337698D02*
X0146201Y0337698D01*
X0146591Y0337537D02*
X0144810Y0338275D01*
X0142881Y0338275D01*
X0141099Y0337537D01*
X0139735Y0336173D01*
X0138997Y0334391D01*
X0138997Y0332462D01*
X0139735Y0330680D01*
X0141099Y0329317D01*
X0142881Y0328579D01*
X0144810Y0328579D01*
X0146591Y0329317D01*
X0147955Y0330680D01*
X0148693Y0332462D01*
X0148693Y0334391D01*
X0147955Y0336173D01*
X0146591Y0337537D01*
X0147628Y0336500D02*
X0153842Y0336500D01*
X0153154Y0335301D02*
X0148316Y0335301D01*
X0148693Y0334103D02*
X0152777Y0334103D01*
X0152777Y0332904D02*
X0148693Y0332904D01*
X0148380Y0331706D02*
X0153090Y0331706D01*
X0153688Y0330507D02*
X0147782Y0330507D01*
X0146572Y0329309D02*
X0154897Y0329309D01*
X0141118Y0329309D02*
X0132793Y0329309D01*
X0132812Y0329317D02*
X0134176Y0330680D01*
X0134914Y0332462D01*
X0134914Y0334391D01*
X0134176Y0336173D01*
X0132812Y0337537D01*
X0131030Y0338275D01*
X0129101Y0338275D01*
X0127319Y0337537D01*
X0125956Y0336173D01*
X0125218Y0334391D01*
X0125218Y0332462D01*
X0125956Y0330680D01*
X0127319Y0329317D01*
X0129101Y0328579D01*
X0131030Y0328579D01*
X0132812Y0329317D01*
X0134003Y0330507D02*
X0139908Y0330507D01*
X0139310Y0331706D02*
X0134600Y0331706D01*
X0134914Y0332904D02*
X0138997Y0332904D01*
X0138997Y0334103D02*
X0134914Y0334103D01*
X0134537Y0335301D02*
X0139374Y0335301D01*
X0140062Y0336500D02*
X0133849Y0336500D01*
X0132421Y0337698D02*
X0141490Y0337698D01*
X0127710Y0337698D02*
X0118642Y0337698D01*
X0119032Y0337537D02*
X0117250Y0338275D01*
X0115322Y0338275D01*
X0113540Y0337537D01*
X0112176Y0336173D01*
X0111438Y0334391D01*
X0111438Y0332462D01*
X0112176Y0330680D01*
X0113540Y0329317D01*
X0115322Y0328579D01*
X0117250Y0328579D01*
X0119032Y0329317D01*
X0120396Y0330680D01*
X0121134Y0332462D01*
X0121134Y0334391D01*
X0120396Y0336173D01*
X0119032Y0337537D01*
X0120069Y0336500D02*
X0126283Y0336500D01*
X0125595Y0335301D02*
X0120757Y0335301D01*
X0121134Y0334103D02*
X0125218Y0334103D01*
X0125218Y0332904D02*
X0121134Y0332904D01*
X0120821Y0331706D02*
X0125531Y0331706D01*
X0126129Y0330507D02*
X0120223Y0330507D01*
X0119013Y0329309D02*
X0127338Y0329309D01*
X0113559Y0329309D02*
X0105234Y0329309D01*
X0105253Y0329317D02*
X0106617Y0330680D01*
X0107355Y0332462D01*
X0107355Y0334391D01*
X0106617Y0336173D01*
X0105253Y0337537D01*
X0103471Y0338275D01*
X0101542Y0338275D01*
X0099760Y0337537D01*
X0098397Y0336173D01*
X0097659Y0334391D01*
X0097659Y0332462D01*
X0098397Y0330680D01*
X0099760Y0329317D01*
X0101542Y0328579D01*
X0103471Y0328579D01*
X0105253Y0329317D01*
X0106443Y0330507D02*
X0112349Y0330507D01*
X0111751Y0331706D02*
X0107041Y0331706D01*
X0107355Y0332904D02*
X0111438Y0332904D01*
X0111438Y0334103D02*
X0107355Y0334103D01*
X0106978Y0335301D02*
X0111815Y0335301D01*
X0112503Y0336500D02*
X0106289Y0336500D01*
X0104862Y0337698D02*
X0113931Y0337698D01*
X0100151Y0337698D02*
X0091083Y0337698D01*
X0091473Y0337537D02*
X0089691Y0338275D01*
X0087763Y0338275D01*
X0085981Y0337537D01*
X0084617Y0336173D01*
X0083879Y0334391D01*
X0083879Y0332462D01*
X0084617Y0330680D01*
X0085981Y0329317D01*
X0087763Y0328579D01*
X0089691Y0328579D01*
X0091473Y0329317D01*
X0092837Y0330680D01*
X0093575Y0332462D01*
X0093575Y0334391D01*
X0092837Y0336173D01*
X0091473Y0337537D01*
X0092510Y0336500D02*
X0098724Y0336500D01*
X0098036Y0335301D02*
X0093198Y0335301D01*
X0093575Y0334103D02*
X0097659Y0334103D01*
X0097659Y0332904D02*
X0093575Y0332904D01*
X0093262Y0331706D02*
X0097972Y0331706D01*
X0098570Y0330507D02*
X0092664Y0330507D01*
X0091454Y0329309D02*
X0099779Y0329309D01*
X0086000Y0329309D02*
X0065691Y0329309D01*
X0065691Y0330507D02*
X0084790Y0330507D01*
X0084192Y0331706D02*
X0065691Y0331706D01*
X0065691Y0332904D02*
X0083879Y0332904D01*
X0083879Y0334103D02*
X0065691Y0334103D01*
X0065691Y0335301D02*
X0084256Y0335301D01*
X0084944Y0336500D02*
X0065691Y0336500D01*
X0065691Y0337698D02*
X0086372Y0337698D01*
X0145045Y0286162D02*
X0189693Y0286162D01*
X0188494Y0284964D02*
X0145391Y0284964D01*
X0145391Y0283765D02*
X0187296Y0283765D01*
X0184754Y0282567D02*
X0145391Y0282567D01*
X0145391Y0281368D02*
X0183877Y0281368D01*
X0183641Y0280170D02*
X0145738Y0280170D01*
X0146936Y0278971D02*
X0183895Y0278971D01*
X0184796Y0277773D02*
X0148135Y0277773D01*
X0136450Y0255001D02*
X0222291Y0255001D01*
X0222291Y0253803D02*
X0136741Y0253803D01*
X0136542Y0252604D02*
X0222291Y0252604D01*
X0222291Y0251406D02*
X0135719Y0251406D01*
X0146565Y0238222D02*
X0222766Y0238222D01*
X0223964Y0237023D02*
X0146741Y0237023D01*
X0146426Y0235825D02*
X0225163Y0235825D01*
X0226361Y0234626D02*
X0145440Y0234626D01*
X0129880Y0210656D02*
X0072691Y0210656D01*
X0072691Y0209458D02*
X0128144Y0209458D01*
X0127641Y0208259D02*
X0072691Y0208259D01*
X0072691Y0207061D02*
X0127651Y0207061D01*
X0128206Y0205862D02*
X0072691Y0205862D01*
X0072691Y0204664D02*
X0130029Y0204664D01*
X0131352Y0204664D02*
X0149141Y0204664D01*
X0149375Y0205862D02*
X0133175Y0205862D01*
X0149397Y0203465D02*
X0072691Y0203465D01*
X0072691Y0202267D02*
X0150302Y0202267D01*
X0091241Y0184289D02*
X0226591Y0184289D01*
X0226591Y0185487D02*
X0090708Y0185487D01*
X0091241Y0183090D02*
X0226591Y0183090D01*
X0226591Y0181892D02*
X0090705Y0181892D01*
X0050191Y0121966D02*
X0180421Y0121966D01*
X0179043Y0120768D02*
X0050191Y0120768D01*
X0050191Y0119569D02*
X0178641Y0119569D01*
X0178729Y0118371D02*
X0050191Y0118371D01*
X0050191Y0109981D02*
X0165232Y0109981D01*
X0164650Y0108783D02*
X0050191Y0108783D01*
X0050191Y0107584D02*
X0164386Y0107584D01*
X0164386Y0106386D02*
X0050191Y0106386D01*
X0062133Y0105187D02*
X0164853Y0105187D01*
X0165722Y0103989D02*
X0064188Y0103989D01*
X0191472Y0111180D02*
X0196501Y0111180D01*
X0195232Y0109981D02*
X0192741Y0109981D01*
X0193322Y0108783D02*
X0194650Y0108783D01*
X0194386Y0107584D02*
X0193586Y0107584D01*
X0193586Y0106386D02*
X0194386Y0106386D01*
X0194853Y0105187D02*
X0193119Y0105187D01*
X0192250Y0103989D02*
X0195722Y0103989D01*
X0236291Y0135150D02*
X0240062Y0135150D01*
X0240084Y0135141D02*
X0241298Y0135141D01*
X0242419Y0135605D01*
X0243277Y0136463D01*
X0243741Y0137584D01*
X0243741Y0138798D01*
X0243277Y0139919D01*
X0242419Y0140777D01*
X0241298Y0141241D01*
X0240084Y0141241D01*
X0238963Y0140777D01*
X0238105Y0139919D01*
X0237641Y0138798D01*
X0237641Y0137584D01*
X0238105Y0136463D01*
X0238963Y0135605D01*
X0240084Y0135141D01*
X0241319Y0135150D02*
X0471691Y0135150D01*
X0471691Y0136348D02*
X0243162Y0136348D01*
X0243725Y0137547D02*
X0471691Y0137547D01*
X0471691Y0138746D02*
X0243741Y0138746D01*
X0243251Y0139944D02*
X0248125Y0139944D01*
X0248463Y0139605D02*
X0249584Y0139141D01*
X0250798Y0139141D01*
X0251919Y0139605D01*
X0252777Y0140463D01*
X0253241Y0141584D01*
X0253241Y0142798D01*
X0252777Y0143919D01*
X0251919Y0144777D01*
X0250798Y0145241D01*
X0249584Y0145241D01*
X0248463Y0144777D01*
X0247605Y0143919D01*
X0247141Y0142798D01*
X0247141Y0141584D01*
X0247605Y0140463D01*
X0248463Y0139605D01*
X0247324Y0141143D02*
X0241535Y0141143D01*
X0239847Y0141143D02*
X0236291Y0141143D01*
X0236291Y0142341D02*
X0247141Y0142341D01*
X0247448Y0143540D02*
X0236291Y0143540D01*
X0236291Y0144738D02*
X0248425Y0144738D01*
X0251957Y0144738D02*
X0259925Y0144738D01*
X0259963Y0144777D02*
X0259105Y0143919D01*
X0258641Y0142798D01*
X0258641Y0141584D01*
X0259105Y0140463D01*
X0259963Y0139605D01*
X0261084Y0139141D01*
X0262298Y0139141D01*
X0263419Y0139605D01*
X0264277Y0140463D01*
X0264741Y0141584D01*
X0264741Y0142798D01*
X0264277Y0143919D01*
X0263419Y0144777D01*
X0262298Y0145241D01*
X0261084Y0145241D01*
X0259963Y0144777D01*
X0258948Y0143540D02*
X0252934Y0143540D01*
X0253241Y0142341D02*
X0258641Y0142341D01*
X0258824Y0141143D02*
X0253058Y0141143D01*
X0252257Y0139944D02*
X0259625Y0139944D01*
X0263757Y0139944D02*
X0269125Y0139944D01*
X0269463Y0139605D02*
X0270584Y0139141D01*
X0271798Y0139141D01*
X0272919Y0139605D01*
X0273777Y0140463D01*
X0274241Y0141584D01*
X0274241Y0142798D01*
X0273777Y0143919D01*
X0272919Y0144777D01*
X0271798Y0145241D01*
X0270584Y0145241D01*
X0269463Y0144777D01*
X0268605Y0143919D01*
X0268141Y0142798D01*
X0268141Y0141584D01*
X0268605Y0140463D01*
X0269463Y0139605D01*
X0268324Y0141143D02*
X0264558Y0141143D01*
X0264741Y0142341D02*
X0268141Y0142341D01*
X0268448Y0143540D02*
X0264434Y0143540D01*
X0263457Y0144738D02*
X0269425Y0144738D01*
X0272957Y0144738D02*
X0282323Y0144738D01*
X0282141Y0144298D02*
X0282141Y0143084D01*
X0282605Y0141963D01*
X0283463Y0141105D01*
X0284584Y0140641D01*
X0285798Y0140641D01*
X0286919Y0141105D01*
X0287777Y0141963D01*
X0288241Y0143084D01*
X0288241Y0144298D01*
X0287777Y0145419D01*
X0286919Y0146277D01*
X0285798Y0146741D01*
X0284584Y0146741D01*
X0283463Y0146277D01*
X0282605Y0145419D01*
X0282141Y0144298D01*
X0282141Y0143540D02*
X0273934Y0143540D01*
X0274241Y0142341D02*
X0282449Y0142341D01*
X0283426Y0141143D02*
X0274058Y0141143D01*
X0273257Y0139944D02*
X0471691Y0139944D01*
X0471691Y0141143D02*
X0326244Y0141143D01*
X0326649Y0141548D02*
X0325834Y0140732D01*
X0324768Y0140291D01*
X0323614Y0140291D01*
X0322548Y0140732D01*
X0321732Y0141548D01*
X0321291Y0142614D01*
X0321291Y0143768D01*
X0321732Y0144834D01*
X0322548Y0145649D01*
X0323614Y0146091D01*
X0324768Y0146091D01*
X0325834Y0145649D01*
X0326649Y0144834D01*
X0327091Y0143768D01*
X0327091Y0142614D01*
X0326649Y0141548D01*
X0326978Y0142341D02*
X0471691Y0142341D01*
X0471691Y0143540D02*
X0327091Y0143540D01*
X0326689Y0144738D02*
X0471691Y0144738D01*
X0471691Y0145937D02*
X0325140Y0145937D01*
X0323241Y0145937D02*
X0317140Y0145937D01*
X0316768Y0146091D02*
X0315614Y0146091D01*
X0314548Y0145649D01*
X0313732Y0144834D01*
X0313291Y0143768D01*
X0313291Y0142614D01*
X0313732Y0141548D01*
X0314548Y0140732D01*
X0315614Y0140291D01*
X0316768Y0140291D01*
X0317834Y0140732D01*
X0318649Y0141548D01*
X0319091Y0142614D01*
X0319091Y0143768D01*
X0318649Y0144834D01*
X0317834Y0145649D01*
X0316768Y0146091D01*
X0315241Y0145937D02*
X0302532Y0145937D01*
X0302919Y0145777D02*
X0301798Y0146241D01*
X0300584Y0146241D01*
X0299463Y0145777D01*
X0298605Y0144919D01*
X0298141Y0143798D01*
X0298141Y0142584D01*
X0298605Y0141463D01*
X0299463Y0140605D01*
X0300584Y0140141D01*
X0301798Y0140141D01*
X0302919Y0140605D01*
X0303777Y0141463D01*
X0304241Y0142584D01*
X0304241Y0143798D01*
X0303777Y0144919D01*
X0302919Y0145777D01*
X0303851Y0144738D02*
X0313693Y0144738D01*
X0313291Y0143540D02*
X0304241Y0143540D01*
X0304140Y0142341D02*
X0313404Y0142341D01*
X0314138Y0141143D02*
X0303456Y0141143D01*
X0298926Y0141143D02*
X0293956Y0141143D01*
X0293919Y0141105D02*
X0294777Y0141963D01*
X0295241Y0143084D01*
X0295241Y0144298D01*
X0294777Y0145419D01*
X0293919Y0146277D01*
X0292798Y0146741D01*
X0291584Y0146741D01*
X0290463Y0146277D01*
X0289605Y0145419D01*
X0289141Y0144298D01*
X0289141Y0143084D01*
X0289605Y0141963D01*
X0290463Y0141105D01*
X0291584Y0140641D01*
X0292798Y0140641D01*
X0293919Y0141105D01*
X0294933Y0142341D02*
X0298242Y0142341D01*
X0298141Y0143540D02*
X0295241Y0143540D01*
X0295059Y0144738D02*
X0298530Y0144738D01*
X0299849Y0145937D02*
X0294259Y0145937D01*
X0290123Y0145937D02*
X0287259Y0145937D01*
X0288059Y0144738D02*
X0289323Y0144738D01*
X0289141Y0143540D02*
X0288241Y0143540D01*
X0287933Y0142341D02*
X0289449Y0142341D01*
X0290426Y0141143D02*
X0286956Y0141143D01*
X0283123Y0145937D02*
X0236291Y0145937D01*
X0236291Y0147135D02*
X0471691Y0147135D01*
X0471691Y0148334D02*
X0236291Y0148334D01*
X0236291Y0149532D02*
X0471691Y0149532D01*
X0471691Y0150731D02*
X0236291Y0150731D01*
X0236291Y0151929D02*
X0343340Y0151929D01*
X0342264Y0153128D02*
X0236291Y0153128D01*
X0236291Y0154326D02*
X0341768Y0154326D01*
X0341716Y0155525D02*
X0236291Y0155525D01*
X0236291Y0156723D02*
X0341969Y0156723D01*
X0342627Y0157922D02*
X0313589Y0157922D01*
X0313683Y0157961D02*
X0314921Y0159199D01*
X0315591Y0160816D01*
X0315591Y0162566D01*
X0314921Y0164183D01*
X0313683Y0165421D01*
X0312066Y0166091D01*
X0310316Y0166091D01*
X0308699Y0165421D01*
X0307461Y0164183D01*
X0306791Y0162566D01*
X0306791Y0160816D01*
X0307461Y0159199D01*
X0308699Y0157961D01*
X0310316Y0157291D01*
X0312066Y0157291D01*
X0313683Y0157961D01*
X0314843Y0159120D02*
X0344248Y0159120D01*
X0342824Y0160319D02*
X0315385Y0160319D01*
X0315591Y0161517D02*
X0342051Y0161517D01*
X0341716Y0162716D02*
X0315529Y0162716D01*
X0315033Y0163914D02*
X0341716Y0163914D01*
X0342183Y0165113D02*
X0313992Y0165113D01*
X0308390Y0165113D02*
X0303992Y0165113D01*
X0303683Y0165421D02*
X0302066Y0166091D01*
X0300316Y0166091D01*
X0298699Y0165421D01*
X0297461Y0164183D01*
X0296791Y0162566D01*
X0296791Y0160816D01*
X0297461Y0159199D01*
X0298699Y0157961D01*
X0300316Y0157291D01*
X0302066Y0157291D01*
X0303683Y0157961D01*
X0304921Y0159199D01*
X0305591Y0160816D01*
X0305591Y0162566D01*
X0304921Y0164183D01*
X0303683Y0165421D01*
X0305033Y0163914D02*
X0307349Y0163914D01*
X0306853Y0162716D02*
X0305529Y0162716D01*
X0305591Y0161517D02*
X0306791Y0161517D01*
X0306997Y0160319D02*
X0305385Y0160319D01*
X0304843Y0159120D02*
X0307539Y0159120D01*
X0308793Y0157922D02*
X0303589Y0157922D01*
X0298793Y0157922D02*
X0236291Y0157922D01*
X0236291Y0159120D02*
X0297539Y0159120D01*
X0296997Y0160319D02*
X0236291Y0160319D01*
X0236291Y0161517D02*
X0296791Y0161517D01*
X0296853Y0162716D02*
X0236291Y0162716D01*
X0236291Y0163914D02*
X0297349Y0163914D01*
X0298390Y0165113D02*
X0236291Y0165113D01*
X0235540Y0166311D02*
X0343142Y0166311D01*
X0343507Y0167510D02*
X0237188Y0167510D01*
X0238378Y0168708D02*
X0342334Y0168708D01*
X0341837Y0169907D02*
X0238741Y0169907D01*
X0238613Y0171105D02*
X0341716Y0171105D01*
X0341900Y0172304D02*
X0237891Y0172304D01*
X0233490Y0172304D02*
X0232791Y0172304D01*
X0232791Y0173502D02*
X0342459Y0173502D01*
X0343844Y0174701D02*
X0232791Y0174701D01*
X0232791Y0175899D02*
X0342991Y0175899D01*
X0342120Y0177098D02*
X0232791Y0177098D01*
X0232791Y0178296D02*
X0341716Y0178296D01*
X0341716Y0179495D02*
X0232791Y0179495D01*
X0232791Y0180693D02*
X0342113Y0180693D01*
X0342975Y0181892D02*
X0329904Y0181892D01*
X0330419Y0182105D02*
X0331277Y0182963D01*
X0331741Y0184084D01*
X0331741Y0185298D01*
X0331277Y0186419D01*
X0330419Y0187277D01*
X0329298Y0187741D01*
X0328084Y0187741D01*
X0326963Y0187277D01*
X0326105Y0186419D01*
X0325641Y0185298D01*
X0325641Y0184084D01*
X0326105Y0182963D01*
X0326963Y0182105D01*
X0328084Y0181641D01*
X0329298Y0181641D01*
X0330419Y0182105D01*
X0331329Y0183090D02*
X0343884Y0183090D01*
X0342476Y0184289D02*
X0331741Y0184289D01*
X0331662Y0185487D02*
X0341907Y0185487D01*
X0341716Y0186686D02*
X0331009Y0186686D01*
X0326373Y0186686D02*
X0252209Y0186686D01*
X0252377Y0186519D02*
X0251519Y0187377D01*
X0250398Y0187841D01*
X0249184Y0187841D01*
X0248063Y0187377D01*
X0247205Y0186519D01*
X0246741Y0185398D01*
X0246741Y0184184D01*
X0247205Y0183063D01*
X0248063Y0182205D01*
X0249184Y0181741D01*
X0250398Y0181741D01*
X0251519Y0182205D01*
X0252377Y0183063D01*
X0252841Y0184184D01*
X0252841Y0185398D01*
X0252377Y0186519D01*
X0252804Y0185487D02*
X0325720Y0185487D01*
X0325641Y0184289D02*
X0252841Y0184289D01*
X0252388Y0183090D02*
X0326053Y0183090D01*
X0327478Y0181892D02*
X0250762Y0181892D01*
X0248820Y0181892D02*
X0243493Y0181892D01*
X0243334Y0181732D02*
X0244149Y0182548D01*
X0244591Y0183614D01*
X0244591Y0184768D01*
X0244149Y0185834D01*
X0243334Y0186649D01*
X0242268Y0187091D01*
X0241114Y0187091D01*
X0240048Y0186649D01*
X0239232Y0185834D01*
X0238791Y0184768D01*
X0238791Y0183614D01*
X0239232Y0182548D01*
X0240048Y0181732D01*
X0241114Y0181291D01*
X0242268Y0181291D01*
X0243334Y0181732D01*
X0244374Y0183090D02*
X0247194Y0183090D01*
X0246741Y0184289D02*
X0244591Y0184289D01*
X0244293Y0185487D02*
X0246778Y0185487D01*
X0247373Y0186686D02*
X0243245Y0186686D01*
X0240136Y0186686D02*
X0232791Y0186686D01*
X0232791Y0187884D02*
X0341831Y0187884D01*
X0342327Y0189083D02*
X0232791Y0189083D01*
X0232791Y0190281D02*
X0343490Y0190281D01*
X0343159Y0191480D02*
X0232791Y0191480D01*
X0232791Y0192679D02*
X0342190Y0192679D01*
X0341716Y0193877D02*
X0232791Y0193877D01*
X0232791Y0195076D02*
X0254493Y0195076D01*
X0254105Y0195463D02*
X0254963Y0194605D01*
X0256084Y0194141D01*
X0257298Y0194141D01*
X0258419Y0194605D01*
X0259277Y0195463D01*
X0259741Y0196584D01*
X0259741Y0197798D01*
X0259277Y0198919D01*
X0258419Y0199777D01*
X0257298Y0200241D01*
X0256084Y0200241D01*
X0254963Y0199777D01*
X0254105Y0198919D01*
X0253641Y0197798D01*
X0253641Y0196584D01*
X0254105Y0195463D01*
X0253769Y0196274D02*
X0232791Y0196274D01*
X0232791Y0197473D02*
X0253641Y0197473D01*
X0254003Y0198671D02*
X0232791Y0198671D01*
X0232791Y0199870D02*
X0255188Y0199870D01*
X0258194Y0199870D02*
X0273878Y0199870D01*
X0274105Y0200419D02*
X0273641Y0199298D01*
X0273641Y0198084D01*
X0274105Y0196963D01*
X0274963Y0196105D01*
X0276084Y0195641D01*
X0277298Y0195641D01*
X0278419Y0196105D01*
X0279277Y0196963D01*
X0279741Y0198084D01*
X0279741Y0199298D01*
X0279277Y0200419D01*
X0278419Y0201277D01*
X0277298Y0201741D01*
X0276084Y0201741D01*
X0274963Y0201277D01*
X0274105Y0200419D01*
X0274755Y0201068D02*
X0232791Y0201068D01*
X0232791Y0202267D02*
X0326302Y0202267D01*
X0326463Y0202105D02*
X0327584Y0201641D01*
X0328798Y0201641D01*
X0329919Y0202105D01*
X0330777Y0202963D01*
X0331241Y0204084D01*
X0331241Y0205298D01*
X0330777Y0206419D01*
X0329919Y0207277D01*
X0328798Y0207741D01*
X0327584Y0207741D01*
X0326463Y0207277D01*
X0325605Y0206419D01*
X0325141Y0205298D01*
X0325141Y0204084D01*
X0325605Y0202963D01*
X0326463Y0202105D01*
X0325397Y0203465D02*
X0232791Y0203465D01*
X0232791Y0204664D02*
X0325141Y0204664D01*
X0325375Y0205862D02*
X0232791Y0205862D01*
X0232791Y0207061D02*
X0326247Y0207061D01*
X0330135Y0207061D02*
X0343326Y0207061D01*
X0343323Y0205862D02*
X0331007Y0205862D01*
X0331241Y0204664D02*
X0342258Y0204664D01*
X0341761Y0203465D02*
X0337230Y0203465D01*
X0336919Y0203777D02*
X0335798Y0204241D01*
X0334584Y0204241D01*
X0333463Y0203777D01*
X0332605Y0202919D01*
X0332141Y0201798D01*
X0332141Y0200584D01*
X0332605Y0199463D01*
X0333463Y0198605D01*
X0334584Y0198141D01*
X0335798Y0198141D01*
X0336919Y0198605D01*
X0337777Y0199463D01*
X0338241Y0200584D01*
X0338241Y0201798D01*
X0337777Y0202919D01*
X0336919Y0203777D01*
X0338047Y0202267D02*
X0341716Y0202267D01*
X0341976Y0201068D02*
X0338241Y0201068D01*
X0337945Y0199870D02*
X0342643Y0199870D01*
X0344288Y0198671D02*
X0336984Y0198671D01*
X0333397Y0198671D02*
X0279741Y0198671D01*
X0279504Y0199870D02*
X0332437Y0199870D01*
X0332141Y0201068D02*
X0278627Y0201068D01*
X0279488Y0197473D02*
X0342807Y0197473D01*
X0342044Y0196274D02*
X0278587Y0196274D01*
X0274794Y0196274D02*
X0259612Y0196274D01*
X0259741Y0197473D02*
X0273894Y0197473D01*
X0273641Y0198671D02*
X0259379Y0198671D01*
X0258889Y0195076D02*
X0341716Y0195076D01*
X0347494Y0198671D02*
X0367449Y0198671D01*
X0367699Y0198921D02*
X0366461Y0197683D01*
X0365791Y0196066D01*
X0365791Y0194316D01*
X0366461Y0192699D01*
X0367699Y0191461D01*
X0369316Y0190791D01*
X0371066Y0190791D01*
X0372683Y0191461D01*
X0373921Y0192699D01*
X0374591Y0194316D01*
X0374591Y0196066D01*
X0373921Y0197683D01*
X0372683Y0198921D01*
X0371066Y0199591D01*
X0369316Y0199591D01*
X0367699Y0198921D01*
X0366373Y0197473D02*
X0348974Y0197473D01*
X0349738Y0196274D02*
X0365877Y0196274D01*
X0365791Y0195076D02*
X0350066Y0195076D01*
X0350066Y0193877D02*
X0365973Y0193877D01*
X0366481Y0192679D02*
X0349592Y0192679D01*
X0348623Y0191480D02*
X0367679Y0191480D01*
X0372703Y0191480D02*
X0376972Y0191480D01*
X0375928Y0192679D02*
X0373901Y0192679D01*
X0374409Y0193877D02*
X0375431Y0193877D01*
X0375291Y0195076D02*
X0374591Y0195076D01*
X0374505Y0196274D02*
X0375291Y0196274D01*
X0375291Y0197473D02*
X0374008Y0197473D01*
X0372933Y0198671D02*
X0375291Y0198671D01*
X0375291Y0199870D02*
X0349139Y0199870D01*
X0349806Y0201068D02*
X0375291Y0201068D01*
X0375291Y0202267D02*
X0350066Y0202267D01*
X0350021Y0203465D02*
X0375291Y0203465D01*
X0375291Y0204664D02*
X0349524Y0204664D01*
X0348459Y0205862D02*
X0375291Y0205862D01*
X0375291Y0207061D02*
X0348456Y0207061D01*
X0349523Y0208259D02*
X0375291Y0208259D01*
X0375291Y0209458D02*
X0350019Y0209458D01*
X0350066Y0210656D02*
X0375291Y0210656D01*
X0375291Y0211855D02*
X0349807Y0211855D01*
X0349142Y0213053D02*
X0375291Y0213053D01*
X0385091Y0213053D02*
X0386591Y0213053D01*
X0386591Y0211855D02*
X0385091Y0211855D01*
X0385091Y0210656D02*
X0386591Y0210656D01*
X0386591Y0209458D02*
X0385091Y0209458D01*
X0385091Y0208259D02*
X0386591Y0208259D01*
X0386591Y0207061D02*
X0385091Y0207061D01*
X0385091Y0205862D02*
X0386591Y0205862D01*
X0386591Y0204664D02*
X0385091Y0204664D01*
X0385091Y0203465D02*
X0386591Y0203465D01*
X0386591Y0202267D02*
X0385091Y0202267D01*
X0385091Y0201068D02*
X0386591Y0201068D01*
X0386591Y0199870D02*
X0385091Y0199870D01*
X0385091Y0198671D02*
X0386591Y0198671D01*
X0386373Y0197473D02*
X0385091Y0197473D01*
X0385091Y0196274D02*
X0385877Y0196274D01*
X0385791Y0195076D02*
X0385091Y0195076D01*
X0384950Y0193877D02*
X0385973Y0193877D01*
X0386481Y0192679D02*
X0384454Y0192679D01*
X0383410Y0191480D02*
X0387679Y0191480D01*
X0392703Y0191480D02*
X0412591Y0191480D01*
X0412591Y0190281D02*
X0348291Y0190281D01*
X0349455Y0189083D02*
X0412591Y0189083D01*
X0412591Y0187884D02*
X0349951Y0187884D01*
X0350066Y0186686D02*
X0412591Y0186686D01*
X0412591Y0185487D02*
X0349875Y0185487D01*
X0349306Y0184289D02*
X0412591Y0184289D01*
X0412591Y0183090D02*
X0347898Y0183090D01*
X0348807Y0181892D02*
X0412591Y0181892D01*
X0412591Y0180693D02*
X0349668Y0180693D01*
X0350066Y0179495D02*
X0412525Y0179495D01*
X0411327Y0178296D02*
X0350066Y0178296D01*
X0349662Y0177098D02*
X0410128Y0177098D01*
X0408930Y0175899D02*
X0348790Y0175899D01*
X0347938Y0174701D02*
X0407731Y0174701D01*
X0406532Y0173502D02*
X0349323Y0173502D01*
X0349882Y0172304D02*
X0405334Y0172304D01*
X0404135Y0171105D02*
X0350066Y0171105D01*
X0349944Y0169907D02*
X0402937Y0169907D01*
X0401738Y0168708D02*
X0349448Y0168708D01*
X0348275Y0167510D02*
X0400540Y0167510D01*
X0399341Y0166311D02*
X0348640Y0166311D01*
X0349599Y0165113D02*
X0398143Y0165113D01*
X0396944Y0163914D02*
X0350066Y0163914D01*
X0350066Y0162716D02*
X0395746Y0162716D01*
X0394547Y0161517D02*
X0349731Y0161517D01*
X0348958Y0160319D02*
X0393349Y0160319D01*
X0390807Y0159120D02*
X0347534Y0159120D01*
X0349155Y0157922D02*
X0389899Y0157922D01*
X0389641Y0156723D02*
X0349813Y0156723D01*
X0350066Y0155525D02*
X0389873Y0155525D01*
X0390742Y0154326D02*
X0350014Y0154326D01*
X0349517Y0153128D02*
X0428864Y0153128D01*
X0428952Y0152917D02*
X0430126Y0151743D01*
X0431661Y0151107D01*
X0433321Y0151107D01*
X0434856Y0151743D01*
X0436030Y0152917D01*
X0436666Y0154451D01*
X0436666Y0156112D01*
X0436030Y0157647D01*
X0434856Y0158821D01*
X0433895Y0159219D01*
X0434856Y0159617D01*
X0436030Y0160791D01*
X0436666Y0162325D01*
X0436666Y0163986D01*
X0436030Y0165521D01*
X0434856Y0166695D01*
X0433895Y0167093D01*
X0434856Y0167491D01*
X0436030Y0168665D01*
X0436666Y0170199D01*
X0436666Y0171860D01*
X0436030Y0173395D01*
X0434856Y0174569D01*
X0433895Y0174967D01*
X0434856Y0175365D01*
X0436030Y0176539D01*
X0436666Y0178074D01*
X0436666Y0179734D01*
X0436030Y0181269D01*
X0434856Y0182443D01*
X0433895Y0182841D01*
X0434856Y0183239D01*
X0436030Y0184413D01*
X0436666Y0185948D01*
X0436666Y0187608D01*
X0436030Y0189143D01*
X0434856Y0190317D01*
X0433895Y0190715D01*
X0434856Y0191113D01*
X0436030Y0192287D01*
X0436666Y0193822D01*
X0436666Y0195482D01*
X0436030Y0197017D01*
X0434856Y0198191D01*
X0433895Y0198589D01*
X0434856Y0198987D01*
X0436030Y0200161D01*
X0436666Y0201696D01*
X0436666Y0203356D01*
X0436030Y0204891D01*
X0434856Y0206065D01*
X0433895Y0206463D01*
X0434856Y0206861D01*
X0436030Y0208035D01*
X0436666Y0209570D01*
X0436666Y0211230D01*
X0436030Y0212765D01*
X0434856Y0213939D01*
X0433895Y0214337D01*
X0434856Y0214735D01*
X0436030Y0215909D01*
X0436666Y0217444D01*
X0436666Y0219104D01*
X0436030Y0220639D01*
X0434856Y0221813D01*
X0433321Y0222449D01*
X0431661Y0222449D01*
X0430126Y0221813D01*
X0428952Y0220639D01*
X0428316Y0219104D01*
X0428316Y0217444D01*
X0428952Y0215909D01*
X0430126Y0214735D01*
X0431086Y0214337D01*
X0430126Y0213939D01*
X0428952Y0212765D01*
X0428316Y0211230D01*
X0428316Y0209570D01*
X0428952Y0208035D01*
X0430126Y0206861D01*
X0431086Y0206463D01*
X0430126Y0206065D01*
X0428952Y0204891D01*
X0428316Y0203356D01*
X0428316Y0201696D01*
X0428952Y0200161D01*
X0430126Y0198987D01*
X0431086Y0198589D01*
X0430126Y0198191D01*
X0428952Y0197017D01*
X0428316Y0195482D01*
X0428316Y0193822D01*
X0428952Y0192287D01*
X0430126Y0191113D01*
X0431086Y0190715D01*
X0430126Y0190317D01*
X0428952Y0189143D01*
X0428316Y0187608D01*
X0428316Y0185948D01*
X0428952Y0184413D01*
X0430126Y0183239D01*
X0431086Y0182841D01*
X0430126Y0182443D01*
X0428952Y0181269D01*
X0428316Y0179734D01*
X0428316Y0178074D01*
X0428952Y0176539D01*
X0430126Y0175365D01*
X0431086Y0174967D01*
X0430126Y0174569D01*
X0428952Y0173395D01*
X0428316Y0171860D01*
X0428316Y0170199D01*
X0428952Y0168665D01*
X0430126Y0167491D01*
X0431086Y0167093D01*
X0430126Y0166695D01*
X0428952Y0165521D01*
X0428316Y0163986D01*
X0428316Y0162325D01*
X0428952Y0160791D01*
X0430126Y0159617D01*
X0431086Y0159219D01*
X0430126Y0158821D01*
X0428952Y0157647D01*
X0428316Y0156112D01*
X0428316Y0154451D01*
X0428952Y0152917D01*
X0429940Y0151929D02*
X0348442Y0151929D01*
X0321693Y0144738D02*
X0318689Y0144738D01*
X0319091Y0143540D02*
X0321291Y0143540D01*
X0321404Y0142341D02*
X0318978Y0142341D01*
X0318244Y0141143D02*
X0322138Y0141143D01*
X0328683Y0131554D02*
X0396241Y0131554D01*
X0396463Y0131777D02*
X0395605Y0130919D01*
X0395141Y0129798D01*
X0395141Y0128584D01*
X0395605Y0127463D01*
X0396463Y0126605D01*
X0397584Y0126141D01*
X0398798Y0126141D01*
X0399919Y0126605D01*
X0400777Y0127463D01*
X0401241Y0128584D01*
X0401241Y0129798D01*
X0400777Y0130919D01*
X0399919Y0131777D01*
X0398798Y0132241D01*
X0397584Y0132241D01*
X0396463Y0131777D01*
X0395372Y0130356D02*
X0329180Y0130356D01*
X0329204Y0129157D02*
X0395141Y0129157D01*
X0395400Y0127959D02*
X0328924Y0127959D01*
X0328227Y0126760D02*
X0396308Y0126760D01*
X0400074Y0126760D02*
X0471691Y0126760D01*
X0471691Y0125562D02*
X0326512Y0125562D01*
X0330691Y0114775D02*
X0353141Y0114775D01*
X0353351Y0113577D02*
X0330691Y0113577D01*
X0330691Y0112378D02*
X0354190Y0112378D01*
X0358192Y0112378D02*
X0471691Y0112378D01*
X0471691Y0111180D02*
X0330691Y0111180D01*
X0330691Y0109981D02*
X0486191Y0109981D01*
X0486191Y0108783D02*
X0330691Y0108783D01*
X0330691Y0107584D02*
X0486191Y0107584D01*
X0486191Y0106386D02*
X0330691Y0106386D01*
X0330691Y0105187D02*
X0461886Y0105187D01*
X0459832Y0103989D02*
X0330691Y0103989D01*
X0330691Y0102790D02*
X0459024Y0102790D01*
X0458691Y0101592D02*
X0443092Y0101592D01*
X0442692Y0101757D02*
X0439070Y0101757D01*
X0435723Y0100371D01*
X0433162Y0097809D01*
X0431776Y0094463D01*
X0431776Y0090840D01*
X0433162Y0087494D01*
X0435723Y0084932D01*
X0439070Y0083546D01*
X0442692Y0083546D01*
X0446039Y0084932D01*
X0448600Y0087494D01*
X0449987Y0090840D01*
X0449987Y0094463D01*
X0448600Y0097809D01*
X0446039Y0100371D01*
X0442692Y0101757D01*
X0445985Y0100393D02*
X0458691Y0100393D01*
X0458691Y0099195D02*
X0447215Y0099195D01*
X0448414Y0097996D02*
X0458691Y0097996D01*
X0458691Y0096798D02*
X0449019Y0096798D01*
X0449516Y0095599D02*
X0458691Y0095599D01*
X0458691Y0094401D02*
X0449987Y0094401D01*
X0449987Y0093202D02*
X0458691Y0093202D01*
X0458691Y0092004D02*
X0449987Y0092004D01*
X0449972Y0090805D02*
X0458691Y0090805D01*
X0458691Y0089607D02*
X0449476Y0089607D01*
X0448979Y0088408D02*
X0458691Y0088408D01*
X0458691Y0087210D02*
X0448316Y0087210D01*
X0447118Y0086011D02*
X0458691Y0086011D01*
X0458691Y0084813D02*
X0445750Y0084813D01*
X0442856Y0083614D02*
X0458691Y0083614D01*
X0458691Y0082415D02*
X0393691Y0082415D01*
X0393691Y0081217D02*
X0458691Y0081217D01*
X0458691Y0080018D02*
X0393691Y0080018D01*
X0393691Y0078820D02*
X0458691Y0078820D01*
X0458691Y0077621D02*
X0393691Y0077621D01*
X0393691Y0076423D02*
X0458691Y0076423D01*
X0458691Y0075224D02*
X0393691Y0075224D01*
X0393691Y0074026D02*
X0458691Y0074026D01*
X0458691Y0072827D02*
X0393691Y0072827D01*
X0393691Y0071629D02*
X0458691Y0071629D01*
X0458691Y0070430D02*
X0393691Y0070430D01*
X0393691Y0069232D02*
X0458691Y0069232D01*
X0458691Y0068033D02*
X0393691Y0068033D01*
X0393691Y0066835D02*
X0458691Y0066835D01*
X0458691Y0065636D02*
X0393691Y0065636D01*
X0393691Y0064438D02*
X0458691Y0064438D01*
X0458691Y0063239D02*
X0393691Y0063239D01*
X0393691Y0062041D02*
X0458691Y0062041D01*
X0458691Y0060842D02*
X0393691Y0060842D01*
X0393691Y0059644D02*
X0458691Y0059644D01*
X0458691Y0058445D02*
X0393691Y0058445D01*
X0393691Y0057247D02*
X0458691Y0057247D01*
X0458691Y0056048D02*
X0430802Y0056048D01*
X0432518Y0054850D02*
X0458691Y0054850D01*
X0458691Y0053651D02*
X0433277Y0053651D01*
X0433658Y0052453D02*
X0458691Y0052453D01*
X0458691Y0051254D02*
X0433658Y0051254D01*
X0433300Y0050056D02*
X0458691Y0050056D01*
X0427415Y0056048D02*
X0393691Y0056048D01*
X0393691Y0054850D02*
X0425699Y0054850D01*
X0424940Y0053651D02*
X0393691Y0053651D01*
X0393691Y0052453D02*
X0424558Y0052453D01*
X0424558Y0051254D02*
X0393691Y0051254D01*
X0393691Y0050056D02*
X0424916Y0050056D01*
X0438906Y0083614D02*
X0393691Y0083614D01*
X0393691Y0084813D02*
X0436012Y0084813D01*
X0434645Y0086011D02*
X0393691Y0086011D01*
X0393691Y0087210D02*
X0433446Y0087210D01*
X0432783Y0088408D02*
X0330691Y0088408D01*
X0330691Y0089607D02*
X0432287Y0089607D01*
X0431790Y0090805D02*
X0330691Y0090805D01*
X0330691Y0092004D02*
X0431776Y0092004D01*
X0431776Y0093202D02*
X0330691Y0093202D01*
X0330691Y0094401D02*
X0431776Y0094401D01*
X0432246Y0095599D02*
X0330691Y0095599D01*
X0330691Y0096798D02*
X0432743Y0096798D01*
X0433349Y0097996D02*
X0330691Y0097996D01*
X0330691Y0099195D02*
X0434547Y0099195D01*
X0435777Y0100393D02*
X0330691Y0100393D01*
X0330691Y0101592D02*
X0438671Y0101592D01*
X0471691Y0113577D02*
X0359031Y0113577D01*
X0359241Y0114775D02*
X0471691Y0114775D01*
X0471691Y0115974D02*
X0358961Y0115974D01*
X0358023Y0117172D02*
X0471691Y0117172D01*
X0471691Y0127959D02*
X0400982Y0127959D01*
X0401241Y0129157D02*
X0471691Y0129157D01*
X0471691Y0130356D02*
X0401010Y0130356D01*
X0400141Y0131554D02*
X0471691Y0131554D01*
X0471691Y0151929D02*
X0435042Y0151929D01*
X0436117Y0153128D02*
X0471691Y0153128D01*
X0471691Y0154326D02*
X0436614Y0154326D01*
X0436666Y0155525D02*
X0471691Y0155525D01*
X0471691Y0156723D02*
X0436413Y0156723D01*
X0435755Y0157922D02*
X0471691Y0157922D01*
X0471691Y0159120D02*
X0434134Y0159120D01*
X0435558Y0160319D02*
X0471691Y0160319D01*
X0471691Y0161517D02*
X0436331Y0161517D01*
X0436666Y0162716D02*
X0471691Y0162716D01*
X0471691Y0163914D02*
X0436666Y0163914D01*
X0436199Y0165113D02*
X0471691Y0165113D01*
X0471691Y0166311D02*
X0435240Y0166311D01*
X0434875Y0167510D02*
X0471691Y0167510D01*
X0471691Y0168708D02*
X0436048Y0168708D01*
X0436544Y0169907D02*
X0471691Y0169907D01*
X0471691Y0171105D02*
X0436666Y0171105D01*
X0436482Y0172304D02*
X0471691Y0172304D01*
X0471691Y0173502D02*
X0435923Y0173502D01*
X0434538Y0174701D02*
X0471691Y0174701D01*
X0471691Y0175899D02*
X0435390Y0175899D01*
X0436262Y0177098D02*
X0448547Y0177098D01*
X0448688Y0176957D02*
X0450295Y0176292D01*
X0452034Y0176292D01*
X0453641Y0176957D01*
X0454870Y0178187D01*
X0455536Y0179794D01*
X0455536Y0181533D01*
X0454870Y0183140D01*
X0453641Y0184369D01*
X0452034Y0185035D01*
X0450295Y0185035D01*
X0448688Y0184369D01*
X0447458Y0183140D01*
X0446793Y0181533D01*
X0446793Y0179794D01*
X0447458Y0178187D01*
X0448688Y0176957D01*
X0447413Y0178296D02*
X0436666Y0178296D01*
X0436666Y0179495D02*
X0446916Y0179495D01*
X0446793Y0180693D02*
X0436268Y0180693D01*
X0435407Y0181892D02*
X0446941Y0181892D01*
X0447438Y0183090D02*
X0434498Y0183090D01*
X0435906Y0184289D02*
X0448607Y0184289D01*
X0448963Y0186686D02*
X0436666Y0186686D01*
X0436551Y0187884D02*
X0447603Y0187884D01*
X0447458Y0188030D02*
X0448688Y0186800D01*
X0450295Y0186134D01*
X0452034Y0186134D01*
X0453641Y0186800D01*
X0454870Y0188030D01*
X0455536Y0189636D01*
X0455536Y0191375D01*
X0454870Y0192982D01*
X0453641Y0194212D01*
X0453083Y0194443D01*
X0453641Y0194674D01*
X0454870Y0195904D01*
X0455536Y0197510D01*
X0455536Y0199249D01*
X0454870Y0200856D01*
X0453641Y0202086D01*
X0452034Y0202752D01*
X0450295Y0202752D01*
X0448688Y0202086D01*
X0447458Y0200856D01*
X0446793Y0199249D01*
X0446793Y0197510D01*
X0447458Y0195904D01*
X0448688Y0194674D01*
X0449245Y0194443D01*
X0448688Y0194212D01*
X0447458Y0192982D01*
X0446793Y0191375D01*
X0446793Y0189636D01*
X0447458Y0188030D01*
X0447022Y0189083D02*
X0436055Y0189083D01*
X0434891Y0190281D02*
X0446793Y0190281D01*
X0446836Y0191480D02*
X0435223Y0191480D01*
X0436192Y0192679D02*
X0447332Y0192679D01*
X0448353Y0193877D02*
X0436666Y0193877D01*
X0436666Y0195076D02*
X0448286Y0195076D01*
X0447305Y0196274D02*
X0436338Y0196274D01*
X0435574Y0197473D02*
X0446808Y0197473D01*
X0446793Y0198671D02*
X0434094Y0198671D01*
X0435739Y0199870D02*
X0447049Y0199870D01*
X0447670Y0201068D02*
X0436406Y0201068D01*
X0436666Y0202267D02*
X0449124Y0202267D01*
X0453205Y0202267D02*
X0486191Y0202267D01*
X0486191Y0203465D02*
X0436621Y0203465D01*
X0436124Y0204664D02*
X0486191Y0204664D01*
X0486191Y0205862D02*
X0435059Y0205862D01*
X0435056Y0207061D02*
X0486191Y0207061D01*
X0486191Y0208259D02*
X0436123Y0208259D01*
X0436619Y0209458D02*
X0486191Y0209458D01*
X0486191Y0210656D02*
X0436666Y0210656D01*
X0436407Y0211855D02*
X0486191Y0211855D01*
X0486191Y0213053D02*
X0435742Y0213053D01*
X0434101Y0214252D02*
X0476583Y0214252D01*
X0475347Y0215450D02*
X0435571Y0215450D01*
X0436336Y0216649D02*
X0474495Y0216649D01*
X0473998Y0217847D02*
X0436666Y0217847D01*
X0436666Y0219046D02*
X0473777Y0219046D01*
X0473777Y0220244D02*
X0436194Y0220244D01*
X0435226Y0221443D02*
X0474003Y0221443D01*
X0474499Y0222641D02*
X0416791Y0222641D01*
X0416791Y0221443D02*
X0429756Y0221443D01*
X0428788Y0220244D02*
X0416791Y0220244D01*
X0416791Y0219046D02*
X0428316Y0219046D01*
X0428316Y0217847D02*
X0416791Y0217847D01*
X0416791Y0216649D02*
X0428645Y0216649D01*
X0429411Y0215450D02*
X0416791Y0215450D01*
X0416791Y0214252D02*
X0430881Y0214252D01*
X0429240Y0213053D02*
X0416791Y0213053D01*
X0416791Y0211855D02*
X0428575Y0211855D01*
X0428316Y0210656D02*
X0416791Y0210656D01*
X0416791Y0209458D02*
X0428362Y0209458D01*
X0428859Y0208259D02*
X0416791Y0208259D01*
X0416791Y0207061D02*
X0429926Y0207061D01*
X0429923Y0205862D02*
X0416791Y0205862D01*
X0416791Y0204664D02*
X0428858Y0204664D01*
X0428361Y0203465D02*
X0416791Y0203465D01*
X0416791Y0202267D02*
X0428316Y0202267D01*
X0428576Y0201068D02*
X0416791Y0201068D01*
X0416791Y0199870D02*
X0429243Y0199870D01*
X0430888Y0198671D02*
X0416791Y0198671D01*
X0416791Y0197473D02*
X0429407Y0197473D01*
X0428644Y0196274D02*
X0416791Y0196274D01*
X0416791Y0195076D02*
X0428316Y0195076D01*
X0428316Y0193877D02*
X0416791Y0193877D01*
X0416791Y0192679D02*
X0428790Y0192679D01*
X0429759Y0191480D02*
X0416791Y0191480D01*
X0416791Y0190281D02*
X0430090Y0190281D01*
X0428927Y0189083D02*
X0416791Y0189083D01*
X0416791Y0187884D02*
X0428431Y0187884D01*
X0428316Y0186686D02*
X0416791Y0186686D01*
X0416791Y0185487D02*
X0428507Y0185487D01*
X0429076Y0184289D02*
X0416791Y0184289D01*
X0416791Y0183090D02*
X0430484Y0183090D01*
X0429575Y0181892D02*
X0416791Y0181892D01*
X0416791Y0180693D02*
X0428713Y0180693D01*
X0428316Y0179495D02*
X0416791Y0179495D01*
X0416791Y0178296D02*
X0428316Y0178296D01*
X0428720Y0177098D02*
X0416068Y0177098D01*
X0414869Y0175899D02*
X0429591Y0175899D01*
X0430444Y0174701D02*
X0413671Y0174701D01*
X0412472Y0173502D02*
X0429059Y0173502D01*
X0428500Y0172304D02*
X0411274Y0172304D01*
X0410075Y0171105D02*
X0428316Y0171105D01*
X0428437Y0169907D02*
X0408877Y0169907D01*
X0407678Y0168708D02*
X0428934Y0168708D01*
X0430107Y0167510D02*
X0406480Y0167510D01*
X0405281Y0166311D02*
X0429742Y0166311D01*
X0428783Y0165113D02*
X0404083Y0165113D01*
X0402884Y0163914D02*
X0428316Y0163914D01*
X0428316Y0162716D02*
X0401686Y0162716D01*
X0400487Y0161517D02*
X0428651Y0161517D01*
X0429424Y0160319D02*
X0399289Y0160319D01*
X0398090Y0159120D02*
X0430848Y0159120D01*
X0429227Y0157922D02*
X0396892Y0157922D01*
X0395741Y0156723D02*
X0428569Y0156723D01*
X0428316Y0155525D02*
X0395509Y0155525D01*
X0394640Y0154326D02*
X0428368Y0154326D01*
X0453781Y0177098D02*
X0471691Y0177098D01*
X0471691Y0178296D02*
X0454916Y0178296D01*
X0455412Y0179495D02*
X0471691Y0179495D01*
X0471691Y0180693D02*
X0455536Y0180693D01*
X0455387Y0181892D02*
X0486191Y0181892D01*
X0486191Y0183090D02*
X0454891Y0183090D01*
X0453721Y0184289D02*
X0486191Y0184289D01*
X0486191Y0185487D02*
X0436475Y0185487D01*
X0453366Y0186686D02*
X0486191Y0186686D01*
X0486191Y0187884D02*
X0454725Y0187884D01*
X0455307Y0189083D02*
X0486191Y0189083D01*
X0486191Y0190281D02*
X0455536Y0190281D01*
X0455493Y0191480D02*
X0486191Y0191480D01*
X0486191Y0192679D02*
X0454996Y0192679D01*
X0453975Y0193877D02*
X0486191Y0193877D01*
X0486191Y0195076D02*
X0454042Y0195076D01*
X0455024Y0196274D02*
X0486191Y0196274D01*
X0486191Y0197473D02*
X0455520Y0197473D01*
X0455536Y0198671D02*
X0486191Y0198671D01*
X0486191Y0199870D02*
X0455279Y0199870D01*
X0454658Y0201068D02*
X0486191Y0201068D01*
X0486191Y0214252D02*
X0483620Y0214252D01*
X0484856Y0215450D02*
X0486191Y0215450D01*
X0486191Y0216649D02*
X0485708Y0216649D01*
X0485703Y0222641D02*
X0486191Y0222641D01*
X0486191Y0223840D02*
X0484845Y0223840D01*
X0483594Y0225038D02*
X0486191Y0225038D01*
X0486191Y0226237D02*
X0416791Y0226237D01*
X0416791Y0227435D02*
X0486191Y0227435D01*
X0486191Y0228634D02*
X0416791Y0228634D01*
X0416791Y0229832D02*
X0486191Y0229832D01*
X0486191Y0231031D02*
X0416791Y0231031D01*
X0416791Y0232229D02*
X0486191Y0232229D01*
X0486191Y0233428D02*
X0416791Y0233428D01*
X0416791Y0234626D02*
X0486191Y0234626D01*
X0486191Y0235825D02*
X0416791Y0235825D01*
X0416791Y0237023D02*
X0486191Y0237023D01*
X0486191Y0238222D02*
X0416791Y0238222D01*
X0416791Y0239420D02*
X0486191Y0239420D01*
X0486191Y0240619D02*
X0416791Y0240619D01*
X0416791Y0241817D02*
X0486191Y0241817D01*
X0486191Y0243016D02*
X0416791Y0243016D01*
X0416791Y0244215D02*
X0486191Y0244215D01*
X0486191Y0245413D02*
X0416791Y0245413D01*
X0416791Y0246612D02*
X0486191Y0246612D01*
X0486191Y0247810D02*
X0416791Y0247810D01*
X0416791Y0249009D02*
X0486191Y0249009D01*
X0486191Y0250207D02*
X0416791Y0250207D01*
X0416791Y0251406D02*
X0486191Y0251406D01*
X0486191Y0252604D02*
X0416791Y0252604D01*
X0416791Y0253803D02*
X0486191Y0253803D01*
X0486191Y0255001D02*
X0416791Y0255001D01*
X0416791Y0256200D02*
X0486191Y0256200D01*
X0486191Y0257398D02*
X0416791Y0257398D01*
X0416791Y0258597D02*
X0486191Y0258597D01*
X0486191Y0259795D02*
X0416791Y0259795D01*
X0416791Y0260994D02*
X0486191Y0260994D01*
X0486191Y0262192D02*
X0416791Y0262192D01*
X0416791Y0263391D02*
X0486191Y0263391D01*
X0486191Y0264589D02*
X0416791Y0264589D01*
X0416791Y0265788D02*
X0486191Y0265788D01*
X0486191Y0266986D02*
X0415866Y0266986D01*
X0414667Y0268185D02*
X0486191Y0268185D01*
X0486191Y0269383D02*
X0413468Y0269383D01*
X0412270Y0270582D02*
X0486191Y0270582D01*
X0486191Y0271780D02*
X0411071Y0271780D01*
X0409873Y0272979D02*
X0486191Y0272979D01*
X0486191Y0274177D02*
X0408674Y0274177D01*
X0407476Y0275376D02*
X0486191Y0275376D01*
X0486191Y0276574D02*
X0406277Y0276574D01*
X0405079Y0277773D02*
X0486191Y0277773D01*
X0486191Y0278971D02*
X0403880Y0278971D01*
X0402682Y0280170D02*
X0486191Y0280170D01*
X0486191Y0281368D02*
X0401483Y0281368D01*
X0400285Y0282567D02*
X0486191Y0282567D01*
X0486191Y0283765D02*
X0399086Y0283765D01*
X0398791Y0284061D02*
X0398791Y0284061D01*
X0397888Y0284964D02*
X0486191Y0284964D01*
X0460544Y0295750D02*
X0447538Y0295750D01*
X0448657Y0296949D02*
X0459290Y0296949D01*
X0458794Y0298148D02*
X0449153Y0298148D01*
X0449650Y0299346D02*
X0458691Y0299346D01*
X0458691Y0300545D02*
X0449987Y0300545D01*
X0449987Y0301743D02*
X0458691Y0301743D01*
X0458691Y0302942D02*
X0449987Y0302942D01*
X0449838Y0304140D02*
X0458691Y0304140D01*
X0458691Y0305339D02*
X0449342Y0305339D01*
X0448845Y0306537D02*
X0458691Y0306537D01*
X0458691Y0307736D02*
X0447993Y0307736D01*
X0446795Y0308934D02*
X0458691Y0308934D01*
X0458691Y0310133D02*
X0444970Y0310133D01*
X0458691Y0311331D02*
X0349644Y0311331D01*
X0350218Y0312530D02*
X0458691Y0312530D01*
X0458691Y0313728D02*
X0350241Y0313728D01*
X0349769Y0314927D02*
X0458691Y0314927D01*
X0433769Y0307736D02*
X0236837Y0307736D01*
X0237948Y0306537D02*
X0432917Y0306537D01*
X0432420Y0305339D02*
X0238444Y0305339D01*
X0238586Y0304140D02*
X0431924Y0304140D01*
X0431776Y0302942D02*
X0238493Y0302942D01*
X0236188Y0298148D02*
X0297591Y0298148D01*
X0297742Y0296949D02*
X0237623Y0296949D01*
X0238274Y0295750D02*
X0298530Y0295750D01*
X0238586Y0294552D02*
X0435422Y0294552D01*
X0437891Y0293353D02*
X0238586Y0293353D01*
X0231784Y0298148D02*
X0226188Y0298148D01*
X0224901Y0299481D02*
X0226592Y0300181D01*
X0227886Y0301475D01*
X0228586Y0303166D01*
X0228586Y0304996D01*
X0227886Y0306686D01*
X0226592Y0307980D01*
X0224901Y0308681D01*
X0223071Y0308681D01*
X0221381Y0307980D01*
X0220087Y0306686D01*
X0219386Y0304996D01*
X0219386Y0303166D01*
X0220087Y0301475D01*
X0221381Y0300181D01*
X0223071Y0299481D01*
X0224901Y0299481D01*
X0226955Y0300545D02*
X0231017Y0300545D01*
X0229975Y0301743D02*
X0227997Y0301743D01*
X0228493Y0302942D02*
X0229479Y0302942D01*
X0229386Y0304140D02*
X0228586Y0304140D01*
X0228444Y0305339D02*
X0229528Y0305339D01*
X0230025Y0306537D02*
X0227948Y0306537D01*
X0226837Y0307736D02*
X0231136Y0307736D01*
X0221136Y0307736D02*
X0216837Y0307736D01*
X0216592Y0307980D02*
X0214901Y0308681D01*
X0213071Y0308681D01*
X0211381Y0307980D01*
X0210087Y0306686D01*
X0209386Y0304996D01*
X0209386Y0303166D01*
X0210087Y0301475D01*
X0211381Y0300181D01*
X0213071Y0299481D01*
X0214901Y0299481D01*
X0216592Y0300181D01*
X0217886Y0301475D01*
X0218586Y0303166D01*
X0218586Y0304996D01*
X0217886Y0306686D01*
X0216592Y0307980D01*
X0217948Y0306537D02*
X0220025Y0306537D01*
X0219528Y0305339D02*
X0218444Y0305339D01*
X0218586Y0304140D02*
X0219386Y0304140D01*
X0219479Y0302942D02*
X0218493Y0302942D01*
X0217997Y0301743D02*
X0219975Y0301743D01*
X0221017Y0300545D02*
X0216955Y0300545D01*
X0216188Y0298148D02*
X0221784Y0298148D01*
X0220349Y0296949D02*
X0217623Y0296949D01*
X0218274Y0295750D02*
X0219699Y0295750D01*
X0219386Y0294552D02*
X0218586Y0294552D01*
X0218586Y0293353D02*
X0219386Y0293353D01*
X0219805Y0292155D02*
X0218168Y0292155D01*
X0217367Y0290956D02*
X0220605Y0290956D01*
X0227367Y0290956D02*
X0230605Y0290956D01*
X0229805Y0292155D02*
X0228168Y0292155D01*
X0228586Y0293353D02*
X0229386Y0293353D01*
X0229386Y0294552D02*
X0228586Y0294552D01*
X0228274Y0295750D02*
X0229699Y0295750D01*
X0230349Y0296949D02*
X0227623Y0296949D01*
X0228598Y0282567D02*
X0192037Y0282567D01*
X0190838Y0281368D02*
X0228391Y0281368D01*
X0228699Y0280170D02*
X0222738Y0280170D01*
X0219679Y0274177D02*
X0198203Y0274177D01*
X0197004Y0272979D02*
X0220878Y0272979D01*
X0222076Y0271780D02*
X0195806Y0271780D01*
X0194047Y0270582D02*
X0222291Y0270582D01*
X0222291Y0264589D02*
X0220889Y0264589D01*
X0221341Y0263391D02*
X0222291Y0263391D01*
X0222291Y0262192D02*
X0221303Y0262192D01*
X0220707Y0260994D02*
X0222291Y0260994D01*
X0222291Y0250207D02*
X0221888Y0250207D01*
X0242738Y0225038D02*
X0381252Y0225038D01*
X0382451Y0223840D02*
X0243936Y0223840D01*
X0232791Y0209458D02*
X0341762Y0209458D01*
X0342259Y0208259D02*
X0232791Y0208259D01*
X0232791Y0185487D02*
X0239089Y0185487D01*
X0238791Y0184289D02*
X0232791Y0184289D01*
X0232791Y0183090D02*
X0239008Y0183090D01*
X0239889Y0181892D02*
X0232791Y0181892D01*
X0236291Y0139944D02*
X0238131Y0139944D01*
X0237641Y0138746D02*
X0236291Y0138746D01*
X0236291Y0137547D02*
X0237656Y0137547D01*
X0238220Y0136348D02*
X0236291Y0136348D01*
X0330080Y0202267D02*
X0332335Y0202267D01*
X0333152Y0203465D02*
X0330984Y0203465D01*
X0382452Y0222641D02*
X0383649Y0222641D01*
X0383952Y0221443D02*
X0384848Y0221443D01*
X0384679Y0220244D02*
X0386046Y0220244D01*
X0386591Y0219046D02*
X0385091Y0219046D01*
X0385091Y0217847D02*
X0386591Y0217847D01*
X0386591Y0216649D02*
X0385091Y0216649D01*
X0385091Y0215450D02*
X0386591Y0215450D01*
X0386591Y0214252D02*
X0385091Y0214252D01*
X0393791Y0214252D02*
X0412591Y0214252D01*
X0412591Y0215450D02*
X0393791Y0215450D01*
X0393791Y0216649D02*
X0412591Y0216649D01*
X0412591Y0217847D02*
X0393791Y0217847D01*
X0393791Y0219046D02*
X0412591Y0219046D01*
X0412591Y0220244D02*
X0393791Y0220244D01*
X0393791Y0221443D02*
X0412591Y0221443D01*
X0412591Y0222641D02*
X0393487Y0222641D01*
X0392633Y0223840D02*
X0412591Y0223840D01*
X0412591Y0225038D02*
X0391435Y0225038D01*
X0390236Y0226237D02*
X0412591Y0226237D01*
X0412591Y0227435D02*
X0389038Y0227435D01*
X0387839Y0228634D02*
X0412591Y0228634D01*
X0412591Y0229832D02*
X0386641Y0229832D01*
X0385442Y0231031D02*
X0412591Y0231031D01*
X0412591Y0232229D02*
X0384244Y0232229D01*
X0383368Y0233428D02*
X0412591Y0233428D01*
X0412591Y0234626D02*
X0382347Y0234626D01*
X0393791Y0213053D02*
X0412591Y0213053D01*
X0412591Y0211855D02*
X0393791Y0211855D01*
X0393791Y0210656D02*
X0412591Y0210656D01*
X0412591Y0209458D02*
X0393791Y0209458D01*
X0393791Y0208259D02*
X0412591Y0208259D01*
X0412591Y0207061D02*
X0393791Y0207061D01*
X0393791Y0205862D02*
X0412591Y0205862D01*
X0412591Y0204664D02*
X0393791Y0204664D01*
X0393791Y0203465D02*
X0412591Y0203465D01*
X0412591Y0202267D02*
X0393791Y0202267D01*
X0393791Y0201068D02*
X0412591Y0201068D01*
X0412591Y0199870D02*
X0393791Y0199870D01*
X0393791Y0198671D02*
X0412591Y0198671D01*
X0412591Y0197473D02*
X0394008Y0197473D01*
X0394505Y0196274D02*
X0412591Y0196274D01*
X0412591Y0195076D02*
X0394591Y0195076D01*
X0394409Y0193877D02*
X0412591Y0193877D01*
X0412591Y0192679D02*
X0393901Y0192679D01*
X0416791Y0223840D02*
X0475357Y0223840D01*
X0476608Y0225038D02*
X0416791Y0225038D01*
X0210605Y0290956D02*
X0207367Y0290956D01*
X0208168Y0292155D02*
X0209805Y0292155D01*
X0209386Y0293353D02*
X0208586Y0293353D01*
X0208586Y0294552D02*
X0209386Y0294552D01*
X0209699Y0295750D02*
X0208274Y0295750D01*
X0207623Y0296949D02*
X0210349Y0296949D01*
X0211784Y0298148D02*
X0206188Y0298148D01*
X0204901Y0299481D02*
X0206592Y0300181D01*
X0207886Y0301475D01*
X0208586Y0303166D01*
X0208586Y0304996D01*
X0207886Y0306686D01*
X0206592Y0307980D01*
X0204901Y0308681D01*
X0203071Y0308681D01*
X0201381Y0307980D01*
X0200087Y0306686D01*
X0199386Y0304996D01*
X0199386Y0303166D01*
X0200087Y0301475D01*
X0201381Y0300181D01*
X0203071Y0299481D01*
X0204901Y0299481D01*
X0206955Y0300545D02*
X0211017Y0300545D01*
X0209975Y0301743D02*
X0207997Y0301743D01*
X0208493Y0302942D02*
X0209479Y0302942D01*
X0209386Y0304140D02*
X0208586Y0304140D01*
X0208444Y0305339D02*
X0209528Y0305339D01*
X0210025Y0306537D02*
X0207948Y0306537D01*
X0206837Y0307736D02*
X0211136Y0307736D01*
X0201136Y0307736D02*
X0196837Y0307736D01*
X0196592Y0307980D02*
X0194901Y0308681D01*
X0193071Y0308681D01*
X0191381Y0307980D01*
X0190087Y0306686D01*
X0189386Y0304996D01*
X0189386Y0303166D01*
X0190087Y0301475D01*
X0191381Y0300181D01*
X0193071Y0299481D01*
X0194901Y0299481D01*
X0196592Y0300181D01*
X0197886Y0301475D01*
X0198586Y0303166D01*
X0198586Y0304996D01*
X0197886Y0306686D01*
X0196592Y0307980D01*
X0197948Y0306537D02*
X0200025Y0306537D01*
X0199528Y0305339D02*
X0198444Y0305339D01*
X0198586Y0304140D02*
X0199386Y0304140D01*
X0199479Y0302942D02*
X0198493Y0302942D01*
X0197997Y0301743D02*
X0199975Y0301743D01*
X0201017Y0300545D02*
X0196955Y0300545D01*
X0196188Y0298148D02*
X0201784Y0298148D01*
X0200349Y0296949D02*
X0197623Y0296949D01*
X0198274Y0295750D02*
X0199699Y0295750D01*
X0199386Y0294552D02*
X0198586Y0294552D01*
X0198586Y0293353D02*
X0199386Y0293353D01*
X0199805Y0292155D02*
X0198168Y0292155D01*
X0197367Y0290956D02*
X0200605Y0290956D01*
X0190605Y0290956D02*
X0187367Y0290956D01*
X0188168Y0292155D02*
X0189805Y0292155D01*
X0189386Y0293353D02*
X0188586Y0293353D01*
X0188586Y0294552D02*
X0189386Y0294552D01*
X0189699Y0295750D02*
X0188274Y0295750D01*
X0187623Y0296949D02*
X0190349Y0296949D01*
X0191784Y0298148D02*
X0186188Y0298148D01*
X0184901Y0299481D02*
X0186592Y0300181D01*
X0187886Y0301475D01*
X0188586Y0303166D01*
X0188586Y0304996D01*
X0187886Y0306686D01*
X0186592Y0307980D01*
X0184901Y0308681D01*
X0183071Y0308681D01*
X0181381Y0307980D01*
X0180087Y0306686D01*
X0179386Y0304996D01*
X0179386Y0303166D01*
X0180087Y0301475D01*
X0181381Y0300181D01*
X0183071Y0299481D01*
X0184901Y0299481D01*
X0186955Y0300545D02*
X0191017Y0300545D01*
X0189975Y0301743D02*
X0187997Y0301743D01*
X0188493Y0302942D02*
X0189479Y0302942D01*
X0189386Y0304140D02*
X0188586Y0304140D01*
X0188444Y0305339D02*
X0189528Y0305339D01*
X0190025Y0306537D02*
X0187948Y0306537D01*
X0186837Y0307736D02*
X0191136Y0307736D01*
X0181136Y0307736D02*
X0176837Y0307736D01*
X0177948Y0306537D02*
X0180025Y0306537D01*
X0179528Y0305339D02*
X0178444Y0305339D01*
X0178586Y0304140D02*
X0179386Y0304140D01*
X0179479Y0302942D02*
X0178493Y0302942D01*
X0177997Y0301743D02*
X0179975Y0301743D01*
X0181017Y0300545D02*
X0176955Y0300545D01*
X0176188Y0298148D02*
X0181784Y0298148D01*
X0180349Y0296949D02*
X0177623Y0296949D01*
X0178274Y0295750D02*
X0179699Y0295750D01*
X0179386Y0294552D02*
X0178586Y0294552D01*
X0178586Y0293353D02*
X0179386Y0293353D01*
X0179805Y0292155D02*
X0178168Y0292155D01*
X0177367Y0290956D02*
X0180605Y0290956D01*
X0189741Y0280170D02*
X0195144Y0280170D01*
X0193946Y0278971D02*
X0189487Y0278971D01*
X0188586Y0277773D02*
X0192747Y0277773D01*
D25*
X0186691Y0280191D02*
X0191691Y0285191D01*
X0235691Y0285191D01*
X0237691Y0283191D01*
X0396691Y0283191D01*
X0414691Y0265191D01*
X0414691Y0178691D01*
X0392691Y0156691D01*
X0234191Y0164691D02*
X0234191Y0102191D01*
X0229230Y0097230D01*
X0228986Y0097230D01*
X0228986Y0107230D02*
X0228986Y0110486D01*
X0232191Y0113691D01*
X0232191Y0163191D01*
X0228691Y0166691D01*
X0228691Y0210691D01*
X0224691Y0214691D01*
X0224691Y0217691D01*
X0221191Y0221191D01*
X0221191Y0227191D02*
X0223691Y0227191D01*
X0230691Y0220191D01*
X0230691Y0168191D01*
X0234191Y0164691D01*
D26*
X0319191Y0254691D02*
X0317191Y0256691D01*
X0319191Y0254691D02*
X0336191Y0254691D01*
X0359191Y0231691D01*
X0379691Y0231691D01*
X0390191Y0221191D01*
X0390191Y0195191D01*
X0380191Y0231691D02*
X0379691Y0231691D01*
D27*
X0348191Y0275691D03*
X0300491Y0297891D03*
X0231291Y0281491D03*
X0142191Y0284691D03*
X0241691Y0184191D03*
X0316191Y0143191D03*
X0324191Y0143191D03*
D28*
X0346191Y0273691D02*
X0224691Y0273691D01*
X0220691Y0277691D01*
X0197191Y0277691D01*
X0193191Y0273691D01*
X0147691Y0273691D01*
X0142191Y0279191D01*
X0142191Y0284691D01*
X0346191Y0273691D02*
X0348191Y0275691D01*
D29*
X0242691Y0221691D02*
X0242691Y0212691D01*
X0242691Y0221691D02*
X0224691Y0239691D01*
X0224691Y0273691D01*
D30*
X0345891Y0218274D02*
X0380191Y0218274D01*
X0380191Y0195191D01*
M02*
