G75*
%MOIN*%
%OFA0B0*%
%FSLAX25Y25*%
%IPPOS*%
%LPD*%
%AMOC8*
5,1,8,0,0,1.08239X$1,22.5*
%
%ADD10C,0.10000*%
%ADD11OC8,0.06000*%
%ADD12C,0.05150*%
%ADD13R,0.05700X0.05700*%
%ADD14C,0.10039*%
%ADD15C,0.00408*%
%ADD16C,0.00630*%
%ADD17C,0.00512*%
%ADD18C,0.07650*%
%ADD19C,0.06000*%
%ADD20C,0.06693*%
%ADD21C,0.05543*%
%ADD22C,0.09449*%
%ADD23C,0.00402*%
%ADD24C,0.00394*%
%ADD25C,0.05600*%
%ADD26C,0.03500*%
%ADD27C,0.03200*%
%ADD28C,0.01000*%
%ADD29C,0.03300*%
%ADD30C,0.01200*%
%ADD31C,0.03000*%
%ADD32C,0.00800*%
%ADD33C,0.01600*%
%ADD34C,0.04000*%
%ADD35C,0.02400*%
%ADD36C,0.03200*%
D10*
X0116823Y0062327D02*
X0121823Y0062327D01*
X0137827Y0073607D02*
X0137827Y0078607D01*
X0121981Y0086737D02*
X0116981Y0086737D01*
D11*
X0168986Y0097230D03*
X0178986Y0097230D03*
X0188986Y0097230D03*
X0198986Y0097230D03*
X0208986Y0097230D03*
X0218986Y0097230D03*
X0228986Y0097230D03*
X0238986Y0097230D03*
X0238986Y0107230D03*
X0228986Y0107230D03*
X0218986Y0107230D03*
X0208986Y0107230D03*
X0198986Y0107230D03*
X0188986Y0107230D03*
X0178986Y0107230D03*
X0168986Y0107230D03*
X0173986Y0294081D03*
X0173986Y0304081D03*
X0183986Y0304081D03*
X0193986Y0304081D03*
X0203986Y0304081D03*
X0213986Y0304081D03*
X0223986Y0304081D03*
X0233986Y0304081D03*
X0233986Y0294081D03*
X0223986Y0294081D03*
X0213986Y0294081D03*
X0203986Y0294081D03*
X0193986Y0294081D03*
X0183986Y0294081D03*
D12*
X0345891Y0218274D03*
X0345891Y0210400D03*
X0345891Y0202526D03*
X0345891Y0194652D03*
X0345891Y0186778D03*
X0345891Y0178904D03*
X0345891Y0171030D03*
X0345891Y0163156D03*
X0345891Y0155282D03*
X0345891Y0147408D03*
X0325030Y0129467D03*
X0317156Y0129467D03*
X0309281Y0129467D03*
X0301407Y0129467D03*
X0293533Y0129467D03*
X0285659Y0129467D03*
X0277785Y0129467D03*
X0269911Y0129467D03*
X0262037Y0129467D03*
X0254163Y0129467D03*
X0254163Y0099467D03*
X0262037Y0099467D03*
X0269911Y0099467D03*
X0277785Y0099467D03*
X0285659Y0099467D03*
X0293533Y0099467D03*
X0301407Y0099467D03*
X0309281Y0099467D03*
X0317156Y0099467D03*
X0325030Y0099467D03*
X0339443Y0070199D03*
X0347474Y0070199D03*
X0355506Y0070199D03*
X0363537Y0070199D03*
X0359522Y0063191D03*
X0351490Y0063191D03*
X0343459Y0063191D03*
X0301530Y0070199D03*
X0293498Y0070199D03*
X0285467Y0070199D03*
X0277435Y0070199D03*
X0281451Y0063191D03*
X0289482Y0063191D03*
X0297514Y0063191D03*
X0432491Y0147408D03*
X0432491Y0155282D03*
X0432491Y0163156D03*
X0432491Y0171030D03*
X0432491Y0178904D03*
X0432491Y0186778D03*
X0432491Y0194652D03*
X0432491Y0202526D03*
X0432491Y0210400D03*
X0432491Y0218274D03*
X0156491Y0075196D03*
X0156491Y0063385D03*
X0085596Y0063691D03*
X0073785Y0063691D03*
D13*
X0305545Y0063191D03*
X0367553Y0063191D03*
D14*
X0385486Y0066695D03*
X0259502Y0066695D03*
D15*
X0273895Y0081687D02*
X0275887Y0081687D01*
X0275887Y0079695D01*
X0273895Y0079695D01*
X0273895Y0081687D01*
X0273895Y0080102D02*
X0275887Y0080102D01*
X0275887Y0080509D02*
X0273895Y0080509D01*
X0273895Y0080916D02*
X0275887Y0080916D01*
X0275887Y0081323D02*
X0273895Y0081323D01*
X0277495Y0081687D02*
X0279487Y0081687D01*
X0279487Y0079695D01*
X0277495Y0079695D01*
X0277495Y0081687D01*
X0277495Y0080102D02*
X0279487Y0080102D01*
X0279487Y0080509D02*
X0277495Y0080509D01*
X0277495Y0080916D02*
X0279487Y0080916D01*
X0279487Y0081323D02*
X0277495Y0081323D01*
X0277495Y0086789D02*
X0279487Y0086789D01*
X0277495Y0086789D02*
X0277495Y0088781D01*
X0279487Y0088781D01*
X0279487Y0086789D01*
X0279487Y0087196D02*
X0277495Y0087196D01*
X0277495Y0087603D02*
X0279487Y0087603D01*
X0279487Y0088010D02*
X0277495Y0088010D01*
X0277495Y0088417D02*
X0279487Y0088417D01*
X0275887Y0086789D02*
X0273895Y0086789D01*
X0273895Y0088781D01*
X0275887Y0088781D01*
X0275887Y0086789D01*
X0275887Y0087196D02*
X0273895Y0087196D01*
X0273895Y0087603D02*
X0275887Y0087603D01*
X0275887Y0088010D02*
X0273895Y0088010D01*
X0273895Y0088417D02*
X0275887Y0088417D01*
X0282619Y0082695D02*
X0284611Y0082695D01*
X0282619Y0082695D02*
X0282619Y0084687D01*
X0284611Y0084687D01*
X0284611Y0082695D01*
X0284611Y0083102D02*
X0282619Y0083102D01*
X0282619Y0083509D02*
X0284611Y0083509D01*
X0284611Y0083916D02*
X0282619Y0083916D01*
X0282619Y0084323D02*
X0284611Y0084323D01*
X0286219Y0082695D02*
X0288211Y0082695D01*
X0286219Y0082695D02*
X0286219Y0084687D01*
X0288211Y0084687D01*
X0288211Y0082695D01*
X0288211Y0083102D02*
X0286219Y0083102D01*
X0286219Y0083509D02*
X0288211Y0083509D01*
X0288211Y0083916D02*
X0286219Y0083916D01*
X0286219Y0084323D02*
X0288211Y0084323D01*
X0329119Y0083789D02*
X0331111Y0083789D01*
X0329119Y0083789D02*
X0329119Y0085781D01*
X0331111Y0085781D01*
X0331111Y0083789D01*
X0331111Y0084196D02*
X0329119Y0084196D01*
X0329119Y0084603D02*
X0331111Y0084603D01*
X0331111Y0085010D02*
X0329119Y0085010D01*
X0329119Y0085417D02*
X0331111Y0085417D01*
X0332719Y0083789D02*
X0334711Y0083789D01*
X0332719Y0083789D02*
X0332719Y0085781D01*
X0334711Y0085781D01*
X0334711Y0083789D01*
X0334711Y0084196D02*
X0332719Y0084196D01*
X0332719Y0084603D02*
X0334711Y0084603D01*
X0334711Y0085010D02*
X0332719Y0085010D01*
X0332719Y0085417D02*
X0334711Y0085417D01*
X0334763Y0081842D02*
X0332771Y0081842D01*
X0334763Y0081842D02*
X0334763Y0079850D01*
X0332771Y0079850D01*
X0332771Y0081842D01*
X0332771Y0080257D02*
X0334763Y0080257D01*
X0334763Y0080664D02*
X0332771Y0080664D01*
X0332771Y0081071D02*
X0334763Y0081071D01*
X0334763Y0081478D02*
X0332771Y0081478D01*
X0331163Y0081842D02*
X0329171Y0081842D01*
X0331163Y0081842D02*
X0331163Y0079850D01*
X0329171Y0079850D01*
X0329171Y0081842D01*
X0329171Y0080257D02*
X0331163Y0080257D01*
X0331163Y0080664D02*
X0329171Y0080664D01*
X0329171Y0081071D02*
X0331163Y0081071D01*
X0331163Y0081478D02*
X0329171Y0081478D01*
X0341619Y0079789D02*
X0343611Y0079789D01*
X0341619Y0079789D02*
X0341619Y0081781D01*
X0343611Y0081781D01*
X0343611Y0079789D01*
X0343611Y0080196D02*
X0341619Y0080196D01*
X0341619Y0080603D02*
X0343611Y0080603D01*
X0343611Y0081010D02*
X0341619Y0081010D01*
X0341619Y0081417D02*
X0343611Y0081417D01*
X0345219Y0079789D02*
X0347211Y0079789D01*
X0345219Y0079789D02*
X0345219Y0081781D01*
X0347211Y0081781D01*
X0347211Y0079789D01*
X0347211Y0080196D02*
X0345219Y0080196D01*
X0345219Y0080603D02*
X0347211Y0080603D01*
X0347211Y0081010D02*
X0345219Y0081010D01*
X0345219Y0081417D02*
X0347211Y0081417D01*
X0329395Y0152895D02*
X0329395Y0154887D01*
X0331387Y0154887D01*
X0331387Y0152895D01*
X0329395Y0152895D01*
X0329395Y0153302D02*
X0331387Y0153302D01*
X0331387Y0153709D02*
X0329395Y0153709D01*
X0329395Y0154116D02*
X0331387Y0154116D01*
X0331387Y0154523D02*
X0329395Y0154523D01*
X0327487Y0154887D02*
X0327487Y0152895D01*
X0325495Y0152895D01*
X0325495Y0154887D01*
X0327487Y0154887D01*
X0327487Y0153302D02*
X0325495Y0153302D01*
X0325495Y0153709D02*
X0327487Y0153709D01*
X0327487Y0154116D02*
X0325495Y0154116D01*
X0325495Y0154523D02*
X0327487Y0154523D01*
X0327487Y0156495D02*
X0327487Y0158487D01*
X0327487Y0156495D02*
X0325495Y0156495D01*
X0325495Y0158487D01*
X0327487Y0158487D01*
X0327487Y0156902D02*
X0325495Y0156902D01*
X0325495Y0157309D02*
X0327487Y0157309D01*
X0327487Y0157716D02*
X0325495Y0157716D01*
X0325495Y0158123D02*
X0327487Y0158123D01*
X0329395Y0158487D02*
X0329395Y0156495D01*
X0329395Y0158487D02*
X0331387Y0158487D01*
X0331387Y0156495D01*
X0329395Y0156495D01*
X0329395Y0156902D02*
X0331387Y0156902D01*
X0331387Y0157309D02*
X0329395Y0157309D01*
X0329395Y0157716D02*
X0331387Y0157716D01*
X0331387Y0158123D02*
X0329395Y0158123D01*
X0334095Y0199287D02*
X0336087Y0199287D01*
X0336087Y0197295D01*
X0334095Y0197295D01*
X0334095Y0199287D01*
X0334095Y0197702D02*
X0336087Y0197702D01*
X0336087Y0198109D02*
X0334095Y0198109D01*
X0334095Y0198516D02*
X0336087Y0198516D01*
X0336087Y0198923D02*
X0334095Y0198923D01*
X0337695Y0199287D02*
X0339687Y0199287D01*
X0339687Y0197295D01*
X0337695Y0197295D01*
X0337695Y0199287D01*
X0337695Y0197702D02*
X0339687Y0197702D01*
X0339687Y0198109D02*
X0337695Y0198109D01*
X0337695Y0198516D02*
X0339687Y0198516D01*
X0339687Y0198923D02*
X0337695Y0198923D01*
X0330487Y0228595D02*
X0328495Y0228595D01*
X0328495Y0230587D01*
X0330487Y0230587D01*
X0330487Y0228595D01*
X0330487Y0229002D02*
X0328495Y0229002D01*
X0328495Y0229409D02*
X0330487Y0229409D01*
X0330487Y0229816D02*
X0328495Y0229816D01*
X0328495Y0230223D02*
X0330487Y0230223D01*
X0330487Y0234287D02*
X0328495Y0234287D01*
X0330487Y0234287D02*
X0330487Y0232295D01*
X0328495Y0232295D01*
X0328495Y0234287D01*
X0328495Y0232702D02*
X0330487Y0232702D01*
X0330487Y0233109D02*
X0328495Y0233109D01*
X0328495Y0233516D02*
X0330487Y0233516D01*
X0330487Y0233923D02*
X0328495Y0233923D01*
X0326887Y0234287D02*
X0324895Y0234287D01*
X0326887Y0234287D02*
X0326887Y0232295D01*
X0324895Y0232295D01*
X0324895Y0234287D01*
X0324895Y0232702D02*
X0326887Y0232702D01*
X0326887Y0233109D02*
X0324895Y0233109D01*
X0324895Y0233516D02*
X0326887Y0233516D01*
X0326887Y0233923D02*
X0324895Y0233923D01*
X0324895Y0236295D02*
X0326887Y0236295D01*
X0324895Y0236295D02*
X0324895Y0238287D01*
X0326887Y0238287D01*
X0326887Y0236295D01*
X0326887Y0236702D02*
X0324895Y0236702D01*
X0324895Y0237109D02*
X0326887Y0237109D01*
X0326887Y0237516D02*
X0324895Y0237516D01*
X0324895Y0237923D02*
X0326887Y0237923D01*
X0328495Y0236295D02*
X0330487Y0236295D01*
X0328495Y0236295D02*
X0328495Y0238287D01*
X0330487Y0238287D01*
X0330487Y0236295D01*
X0330487Y0236702D02*
X0328495Y0236702D01*
X0328495Y0237109D02*
X0330487Y0237109D01*
X0330487Y0237516D02*
X0328495Y0237516D01*
X0328495Y0237923D02*
X0330487Y0237923D01*
X0326887Y0228595D02*
X0324895Y0228595D01*
X0324895Y0230587D01*
X0326887Y0230587D01*
X0326887Y0228595D01*
X0326887Y0229002D02*
X0324895Y0229002D01*
X0324895Y0229409D02*
X0326887Y0229409D01*
X0326887Y0229816D02*
X0324895Y0229816D01*
X0324895Y0230223D02*
X0326887Y0230223D01*
X0319487Y0234787D02*
X0317495Y0234787D01*
X0319487Y0234787D02*
X0319487Y0232795D01*
X0317495Y0232795D01*
X0317495Y0234787D01*
X0317495Y0233202D02*
X0319487Y0233202D01*
X0319487Y0233609D02*
X0317495Y0233609D01*
X0317495Y0234016D02*
X0319487Y0234016D01*
X0319487Y0234423D02*
X0317495Y0234423D01*
X0315887Y0234787D02*
X0313895Y0234787D01*
X0315887Y0234787D02*
X0315887Y0232795D01*
X0313895Y0232795D01*
X0313895Y0234787D01*
X0313895Y0233202D02*
X0315887Y0233202D01*
X0315887Y0233609D02*
X0313895Y0233609D01*
X0313895Y0234016D02*
X0315887Y0234016D01*
X0315887Y0234423D02*
X0313895Y0234423D01*
X0313795Y0238787D02*
X0315787Y0238787D01*
X0315787Y0236795D01*
X0313795Y0236795D01*
X0313795Y0238787D01*
X0313795Y0237202D02*
X0315787Y0237202D01*
X0315787Y0237609D02*
X0313795Y0237609D01*
X0313795Y0238016D02*
X0315787Y0238016D01*
X0315787Y0238423D02*
X0313795Y0238423D01*
X0317395Y0238787D02*
X0319387Y0238787D01*
X0319387Y0236795D01*
X0317395Y0236795D01*
X0317395Y0238787D01*
X0317395Y0237202D02*
X0319387Y0237202D01*
X0319387Y0237609D02*
X0317395Y0237609D01*
X0317395Y0238016D02*
X0319387Y0238016D01*
X0319387Y0238423D02*
X0317395Y0238423D01*
X0248487Y0216195D02*
X0246495Y0216195D01*
X0246495Y0218187D01*
X0248487Y0218187D01*
X0248487Y0216195D01*
X0248487Y0216602D02*
X0246495Y0216602D01*
X0246495Y0217009D02*
X0248487Y0217009D01*
X0248487Y0217416D02*
X0246495Y0217416D01*
X0246495Y0217823D02*
X0248487Y0217823D01*
X0244887Y0216195D02*
X0242895Y0216195D01*
X0242895Y0218187D01*
X0244887Y0218187D01*
X0244887Y0216195D01*
X0244887Y0216602D02*
X0242895Y0216602D01*
X0242895Y0217009D02*
X0244887Y0217009D01*
X0244887Y0217416D02*
X0242895Y0217416D01*
X0242895Y0217823D02*
X0244887Y0217823D01*
X0239987Y0216195D02*
X0237995Y0216195D01*
X0237995Y0218187D01*
X0239987Y0218187D01*
X0239987Y0216195D01*
X0239987Y0216602D02*
X0237995Y0216602D01*
X0237995Y0217009D02*
X0239987Y0217009D01*
X0239987Y0217416D02*
X0237995Y0217416D01*
X0237995Y0217823D02*
X0239987Y0217823D01*
X0236387Y0216195D02*
X0234395Y0216195D01*
X0234395Y0218187D01*
X0236387Y0218187D01*
X0236387Y0216195D01*
X0236387Y0216602D02*
X0234395Y0216602D01*
X0234395Y0217009D02*
X0236387Y0217009D01*
X0236387Y0217416D02*
X0234395Y0217416D01*
X0234395Y0217823D02*
X0236387Y0217823D01*
X0238395Y0199195D02*
X0240387Y0199195D01*
X0238395Y0199195D02*
X0238395Y0201187D01*
X0240387Y0201187D01*
X0240387Y0199195D01*
X0240387Y0199602D02*
X0238395Y0199602D01*
X0238395Y0200009D02*
X0240387Y0200009D01*
X0240387Y0200416D02*
X0238395Y0200416D01*
X0238395Y0200823D02*
X0240387Y0200823D01*
X0241995Y0199195D02*
X0243987Y0199195D01*
X0241995Y0199195D02*
X0241995Y0201187D01*
X0243987Y0201187D01*
X0243987Y0199195D01*
X0243987Y0199602D02*
X0241995Y0199602D01*
X0241995Y0200009D02*
X0243987Y0200009D01*
X0243987Y0200416D02*
X0241995Y0200416D01*
X0241995Y0200823D02*
X0243987Y0200823D01*
X0243395Y0253695D02*
X0243395Y0255687D01*
X0245387Y0255687D01*
X0245387Y0253695D01*
X0243395Y0253695D01*
X0243395Y0254102D02*
X0245387Y0254102D01*
X0245387Y0254509D02*
X0243395Y0254509D01*
X0243395Y0254916D02*
X0245387Y0254916D01*
X0245387Y0255323D02*
X0243395Y0255323D01*
X0243395Y0257295D02*
X0243395Y0259287D01*
X0245387Y0259287D01*
X0245387Y0257295D01*
X0243395Y0257295D01*
X0243395Y0257702D02*
X0245387Y0257702D01*
X0245387Y0258109D02*
X0243395Y0258109D01*
X0243395Y0258516D02*
X0245387Y0258516D01*
X0245387Y0258923D02*
X0243395Y0258923D01*
X0238995Y0259287D02*
X0238995Y0257295D01*
X0238995Y0259287D02*
X0240987Y0259287D01*
X0240987Y0257295D01*
X0238995Y0257295D01*
X0238995Y0257702D02*
X0240987Y0257702D01*
X0240987Y0258109D02*
X0238995Y0258109D01*
X0238995Y0258516D02*
X0240987Y0258516D01*
X0240987Y0258923D02*
X0238995Y0258923D01*
X0234495Y0259187D02*
X0234495Y0257195D01*
X0234495Y0259187D02*
X0236487Y0259187D01*
X0236487Y0257195D01*
X0234495Y0257195D01*
X0234495Y0257602D02*
X0236487Y0257602D01*
X0236487Y0258009D02*
X0234495Y0258009D01*
X0234495Y0258416D02*
X0236487Y0258416D01*
X0236487Y0258823D02*
X0234495Y0258823D01*
X0231987Y0259187D02*
X0231987Y0257195D01*
X0229995Y0257195D01*
X0229995Y0259187D01*
X0231987Y0259187D01*
X0231987Y0257602D02*
X0229995Y0257602D01*
X0229995Y0258009D02*
X0231987Y0258009D01*
X0231987Y0258416D02*
X0229995Y0258416D01*
X0229995Y0258823D02*
X0231987Y0258823D01*
X0231987Y0255587D02*
X0231987Y0253595D01*
X0229995Y0253595D01*
X0229995Y0255587D01*
X0231987Y0255587D01*
X0231987Y0254002D02*
X0229995Y0254002D01*
X0229995Y0254409D02*
X0231987Y0254409D01*
X0231987Y0254816D02*
X0229995Y0254816D01*
X0229995Y0255223D02*
X0231987Y0255223D01*
X0234495Y0255587D02*
X0234495Y0253595D01*
X0234495Y0255587D02*
X0236487Y0255587D01*
X0236487Y0253595D01*
X0234495Y0253595D01*
X0234495Y0254002D02*
X0236487Y0254002D01*
X0236487Y0254409D02*
X0234495Y0254409D01*
X0234495Y0254816D02*
X0236487Y0254816D01*
X0236487Y0255223D02*
X0234495Y0255223D01*
X0238995Y0255687D02*
X0238995Y0253695D01*
X0238995Y0255687D02*
X0240987Y0255687D01*
X0240987Y0253695D01*
X0238995Y0253695D01*
X0238995Y0254102D02*
X0240987Y0254102D01*
X0240987Y0254509D02*
X0238995Y0254509D01*
X0238995Y0254916D02*
X0240987Y0254916D01*
X0240987Y0255323D02*
X0238995Y0255323D01*
X0227487Y0255587D02*
X0227487Y0253595D01*
X0225495Y0253595D01*
X0225495Y0255587D01*
X0227487Y0255587D01*
X0227487Y0254002D02*
X0225495Y0254002D01*
X0225495Y0254409D02*
X0227487Y0254409D01*
X0227487Y0254816D02*
X0225495Y0254816D01*
X0225495Y0255223D02*
X0227487Y0255223D01*
X0227487Y0257195D02*
X0227487Y0259187D01*
X0227487Y0257195D02*
X0225495Y0257195D01*
X0225495Y0259187D01*
X0227487Y0259187D01*
X0227487Y0257602D02*
X0225495Y0257602D01*
X0225495Y0258009D02*
X0227487Y0258009D01*
X0227487Y0258416D02*
X0225495Y0258416D01*
X0225495Y0258823D02*
X0227487Y0258823D01*
X0217295Y0259287D02*
X0217295Y0257295D01*
X0217295Y0259287D02*
X0219287Y0259287D01*
X0219287Y0257295D01*
X0217295Y0257295D01*
X0217295Y0257702D02*
X0219287Y0257702D01*
X0219287Y0258109D02*
X0217295Y0258109D01*
X0217295Y0258516D02*
X0219287Y0258516D01*
X0219287Y0258923D02*
X0217295Y0258923D01*
X0217295Y0255687D02*
X0217295Y0253695D01*
X0217295Y0255687D02*
X0219287Y0255687D01*
X0219287Y0253695D01*
X0217295Y0253695D01*
X0217295Y0254102D02*
X0219287Y0254102D01*
X0219287Y0254509D02*
X0217295Y0254509D01*
X0217295Y0254916D02*
X0219287Y0254916D01*
X0219287Y0255323D02*
X0217295Y0255323D01*
X0211387Y0255787D02*
X0211387Y0253795D01*
X0209395Y0253795D01*
X0209395Y0255787D01*
X0211387Y0255787D01*
X0211387Y0254202D02*
X0209395Y0254202D01*
X0209395Y0254609D02*
X0211387Y0254609D01*
X0211387Y0255016D02*
X0209395Y0255016D01*
X0209395Y0255423D02*
X0211387Y0255423D01*
X0211387Y0257395D02*
X0211387Y0259387D01*
X0211387Y0257395D02*
X0209395Y0257395D01*
X0209395Y0259387D01*
X0211387Y0259387D01*
X0211387Y0257802D02*
X0209395Y0257802D01*
X0209395Y0258209D02*
X0211387Y0258209D01*
X0211387Y0258616D02*
X0209395Y0258616D01*
X0209395Y0259023D02*
X0211387Y0259023D01*
X0203587Y0259387D02*
X0203587Y0257395D01*
X0201595Y0257395D01*
X0201595Y0259387D01*
X0203587Y0259387D01*
X0203587Y0257802D02*
X0201595Y0257802D01*
X0201595Y0258209D02*
X0203587Y0258209D01*
X0203587Y0258616D02*
X0201595Y0258616D01*
X0201595Y0259023D02*
X0203587Y0259023D01*
X0203587Y0255787D02*
X0203587Y0253795D01*
X0201595Y0253795D01*
X0201595Y0255787D01*
X0203587Y0255787D01*
X0203587Y0254202D02*
X0201595Y0254202D01*
X0201595Y0254609D02*
X0203587Y0254609D01*
X0203587Y0255016D02*
X0201595Y0255016D01*
X0201595Y0255423D02*
X0203587Y0255423D01*
D16*
X0252751Y0085893D02*
X0258419Y0085893D01*
X0258419Y0079437D01*
X0252751Y0079437D01*
X0252751Y0085893D01*
X0252751Y0080066D02*
X0258419Y0080066D01*
X0258419Y0080695D02*
X0252751Y0080695D01*
X0252751Y0081324D02*
X0258419Y0081324D01*
X0258419Y0081953D02*
X0252751Y0081953D01*
X0252751Y0082582D02*
X0258419Y0082582D01*
X0258419Y0083211D02*
X0252751Y0083211D01*
X0252751Y0083840D02*
X0258419Y0083840D01*
X0258419Y0084469D02*
X0252751Y0084469D01*
X0252751Y0085098D02*
X0258419Y0085098D01*
X0258419Y0085727D02*
X0252751Y0085727D01*
X0263774Y0085893D02*
X0269442Y0085893D01*
X0269442Y0079437D01*
X0263774Y0079437D01*
X0263774Y0085893D01*
X0263774Y0080066D02*
X0269442Y0080066D01*
X0269442Y0080695D02*
X0263774Y0080695D01*
X0263774Y0081324D02*
X0269442Y0081324D01*
X0269442Y0081953D02*
X0263774Y0081953D01*
X0263774Y0082582D02*
X0269442Y0082582D01*
X0269442Y0083211D02*
X0263774Y0083211D01*
X0263774Y0083840D02*
X0269442Y0083840D01*
X0269442Y0084469D02*
X0263774Y0084469D01*
X0263774Y0085098D02*
X0269442Y0085098D01*
X0269442Y0085727D02*
X0263774Y0085727D01*
X0363001Y0079687D02*
X0368669Y0079687D01*
X0363001Y0079687D02*
X0363001Y0086143D01*
X0368669Y0086143D01*
X0368669Y0079687D01*
X0368669Y0080316D02*
X0363001Y0080316D01*
X0363001Y0080945D02*
X0368669Y0080945D01*
X0368669Y0081574D02*
X0363001Y0081574D01*
X0363001Y0082203D02*
X0368669Y0082203D01*
X0368669Y0082832D02*
X0363001Y0082832D01*
X0363001Y0083461D02*
X0368669Y0083461D01*
X0368669Y0084090D02*
X0363001Y0084090D01*
X0363001Y0084719D02*
X0368669Y0084719D01*
X0368669Y0085348D02*
X0363001Y0085348D01*
X0363001Y0085977D02*
X0368669Y0085977D01*
X0374024Y0079687D02*
X0379692Y0079687D01*
X0374024Y0079687D02*
X0374024Y0086143D01*
X0379692Y0086143D01*
X0379692Y0079687D01*
X0379692Y0080316D02*
X0374024Y0080316D01*
X0374024Y0080945D02*
X0379692Y0080945D01*
X0379692Y0081574D02*
X0374024Y0081574D01*
X0374024Y0082203D02*
X0379692Y0082203D01*
X0379692Y0082832D02*
X0374024Y0082832D01*
X0374024Y0083461D02*
X0379692Y0083461D01*
X0379692Y0084090D02*
X0374024Y0084090D01*
X0374024Y0084719D02*
X0379692Y0084719D01*
X0379692Y0085348D02*
X0374024Y0085348D01*
X0374024Y0085977D02*
X0379692Y0085977D01*
D17*
X0383067Y0085793D02*
X0387673Y0085793D01*
X0387673Y0080399D01*
X0383067Y0080399D01*
X0383067Y0085793D01*
X0383067Y0080910D02*
X0387673Y0080910D01*
X0387673Y0081421D02*
X0383067Y0081421D01*
X0383067Y0081932D02*
X0387673Y0081932D01*
X0387673Y0082443D02*
X0383067Y0082443D01*
X0383067Y0082954D02*
X0387673Y0082954D01*
X0387673Y0083465D02*
X0383067Y0083465D01*
X0383067Y0083976D02*
X0387673Y0083976D01*
X0387673Y0084487D02*
X0383067Y0084487D01*
X0383067Y0084998D02*
X0387673Y0084998D01*
X0387673Y0085509D02*
X0383067Y0085509D01*
X0389760Y0085793D02*
X0394366Y0085793D01*
X0394366Y0080399D01*
X0389760Y0080399D01*
X0389760Y0085793D01*
X0389760Y0080910D02*
X0394366Y0080910D01*
X0394366Y0081421D02*
X0389760Y0081421D01*
X0389760Y0081932D02*
X0394366Y0081932D01*
X0394366Y0082443D02*
X0389760Y0082443D01*
X0389760Y0082954D02*
X0394366Y0082954D01*
X0394366Y0083465D02*
X0389760Y0083465D01*
X0389760Y0083976D02*
X0394366Y0083976D01*
X0394366Y0084487D02*
X0389760Y0084487D01*
X0389760Y0084998D02*
X0394366Y0084998D01*
X0394366Y0085509D02*
X0389760Y0085509D01*
D18*
X0406470Y0061667D03*
X0434030Y0061667D03*
D19*
X0429108Y0051825D03*
X0411392Y0051825D03*
D20*
X0267861Y0333427D03*
X0254081Y0333427D03*
X0240302Y0333427D03*
X0226522Y0333427D03*
X0212743Y0333427D03*
X0198963Y0333427D03*
X0185184Y0333427D03*
X0171404Y0333427D03*
X0157625Y0333427D03*
X0143845Y0333427D03*
X0130066Y0333427D03*
X0116286Y0333427D03*
X0102507Y0333427D03*
X0088727Y0333427D03*
D21*
X0451164Y0208222D03*
X0451164Y0198380D03*
X0451164Y0190506D03*
X0451164Y0180663D03*
D22*
X0480101Y0169246D03*
X0480101Y0219640D03*
D23*
X0242257Y0221349D02*
X0238329Y0221349D01*
X0238329Y0222127D01*
X0242257Y0222127D01*
X0242257Y0221349D01*
X0242257Y0221750D02*
X0238329Y0221750D01*
X0238329Y0223318D02*
X0242257Y0223318D01*
X0238329Y0223318D02*
X0238329Y0224096D01*
X0242257Y0224096D01*
X0242257Y0223318D01*
X0242257Y0223719D02*
X0238329Y0223719D01*
X0238329Y0225286D02*
X0242257Y0225286D01*
X0238329Y0225286D02*
X0238329Y0226064D01*
X0242257Y0226064D01*
X0242257Y0225286D01*
X0242257Y0225687D02*
X0238329Y0225687D01*
X0238329Y0227255D02*
X0242257Y0227255D01*
X0238329Y0227255D02*
X0238329Y0228033D01*
X0242257Y0228033D01*
X0242257Y0227255D01*
X0242257Y0227656D02*
X0238329Y0227656D01*
X0230053Y0227255D02*
X0226125Y0227255D01*
X0226125Y0228033D01*
X0230053Y0228033D01*
X0230053Y0227255D01*
X0230053Y0227656D02*
X0226125Y0227656D01*
X0226125Y0225286D02*
X0230053Y0225286D01*
X0226125Y0225286D02*
X0226125Y0226064D01*
X0230053Y0226064D01*
X0230053Y0225286D01*
X0230053Y0225687D02*
X0226125Y0225687D01*
X0226125Y0223318D02*
X0230053Y0223318D01*
X0226125Y0223318D02*
X0226125Y0224096D01*
X0230053Y0224096D01*
X0230053Y0223318D01*
X0230053Y0223719D02*
X0226125Y0223719D01*
X0226125Y0221349D02*
X0230053Y0221349D01*
X0226125Y0221349D02*
X0226125Y0222127D01*
X0230053Y0222127D01*
X0230053Y0221349D01*
X0230053Y0221750D02*
X0226125Y0221750D01*
D24*
X0234404Y0214505D02*
X0235978Y0214505D01*
X0235978Y0210963D01*
X0234404Y0210963D01*
X0234404Y0214505D01*
X0234404Y0211356D02*
X0235978Y0211356D01*
X0235978Y0211749D02*
X0234404Y0211749D01*
X0234404Y0212142D02*
X0235978Y0212142D01*
X0235978Y0212535D02*
X0234404Y0212535D01*
X0234404Y0212928D02*
X0235978Y0212928D01*
X0235978Y0213321D02*
X0234404Y0213321D01*
X0234404Y0213714D02*
X0235978Y0213714D01*
X0235978Y0214107D02*
X0234404Y0214107D01*
X0234404Y0214500D02*
X0235978Y0214500D01*
X0236963Y0207419D02*
X0238537Y0207419D01*
X0238537Y0203877D01*
X0236963Y0203877D01*
X0236963Y0207419D01*
X0236963Y0204270D02*
X0238537Y0204270D01*
X0238537Y0204663D02*
X0236963Y0204663D01*
X0236963Y0205056D02*
X0238537Y0205056D01*
X0238537Y0205449D02*
X0236963Y0205449D01*
X0236963Y0205842D02*
X0238537Y0205842D01*
X0238537Y0206235D02*
X0236963Y0206235D01*
X0236963Y0206628D02*
X0238537Y0206628D01*
X0238537Y0207021D02*
X0236963Y0207021D01*
X0236963Y0207414D02*
X0238537Y0207414D01*
X0233419Y0207419D02*
X0231845Y0207419D01*
X0233419Y0207419D02*
X0233419Y0203877D01*
X0231845Y0203877D01*
X0231845Y0207419D01*
X0231845Y0204270D02*
X0233419Y0204270D01*
X0233419Y0204663D02*
X0231845Y0204663D01*
X0231845Y0205056D02*
X0233419Y0205056D01*
X0233419Y0205449D02*
X0231845Y0205449D01*
X0231845Y0205842D02*
X0233419Y0205842D01*
X0233419Y0206235D02*
X0231845Y0206235D01*
X0231845Y0206628D02*
X0233419Y0206628D01*
X0233419Y0207021D02*
X0231845Y0207021D01*
X0231845Y0207414D02*
X0233419Y0207414D01*
D25*
X0291191Y0163091D02*
X0291191Y0160291D01*
X0301191Y0160291D02*
X0301191Y0163091D01*
X0311191Y0163091D02*
X0311191Y0160291D01*
X0370191Y0193791D02*
X0370191Y0196591D01*
X0380191Y0196591D02*
X0380191Y0193791D01*
X0390191Y0193791D02*
X0390191Y0196591D01*
D26*
X0398191Y0199691D03*
X0408191Y0200191D03*
X0420691Y0201191D03*
X0420691Y0207191D03*
X0420691Y0214191D03*
X0405191Y0217691D03*
X0396191Y0214691D03*
X0397191Y0228191D03*
X0406691Y0225691D03*
X0406691Y0238691D03*
X0399691Y0244191D03*
X0388691Y0237691D03*
X0385191Y0245191D03*
X0379191Y0246191D03*
X0383691Y0252191D03*
X0381691Y0262191D03*
X0381191Y0270691D03*
X0388191Y0269191D03*
X0386691Y0276191D03*
X0395191Y0277691D03*
X0398691Y0269191D03*
X0394191Y0258691D03*
X0408691Y0255691D03*
X0418691Y0245191D03*
X0419191Y0237191D03*
X0419691Y0228691D03*
X0428691Y0232191D03*
X0441191Y0234691D03*
X0454191Y0229191D03*
X0451691Y0215191D03*
X0444191Y0209691D03*
X0441691Y0196191D03*
X0421691Y0194191D03*
X0405191Y0185191D03*
X0401191Y0178691D03*
X0419691Y0178691D03*
X0420191Y0172191D03*
X0416691Y0161191D03*
X0403691Y0153691D03*
X0398691Y0156191D03*
X0386691Y0164191D03*
X0375191Y0162691D03*
X0366191Y0166191D03*
X0356191Y0168191D03*
X0365691Y0177691D03*
X0357691Y0181191D03*
X0354191Y0193191D03*
X0354191Y0205191D03*
X0331191Y0212691D03*
X0333691Y0225691D03*
X0344191Y0234191D03*
X0340691Y0240191D03*
X0358691Y0241191D03*
X0355691Y0256191D03*
X0362691Y0256691D03*
X0360691Y0261691D03*
X0355691Y0263691D03*
X0351691Y0270691D03*
X0346691Y0263691D03*
X0340191Y0265691D03*
X0334191Y0264191D03*
X0327191Y0263191D03*
X0323691Y0268691D03*
X0311191Y0258191D03*
X0296691Y0258691D03*
X0287691Y0256191D03*
X0289191Y0266691D03*
X0290191Y0244191D03*
X0290191Y0234691D03*
X0292691Y0216691D03*
X0302191Y0216191D03*
X0305191Y0206691D03*
X0312691Y0206191D03*
X0296191Y0205691D03*
X0290691Y0200191D03*
X0310191Y0189191D03*
X0310191Y0180691D03*
X0316691Y0172191D03*
X0322691Y0173191D03*
X0325691Y0167691D03*
X0318691Y0163691D03*
X0334691Y0162191D03*
X0334191Y0152191D03*
X0333191Y0141191D03*
X0333191Y0134191D03*
X0333191Y0127191D03*
X0342191Y0133691D03*
X0348691Y0141691D03*
X0350691Y0150191D03*
X0368191Y0155691D03*
X0377191Y0153191D03*
X0377691Y0147691D03*
X0383191Y0143691D03*
X0386691Y0147191D03*
X0370191Y0136191D03*
X0368191Y0131191D03*
X0368191Y0125191D03*
X0375191Y0131191D03*
X0373191Y0115191D03*
X0373191Y0110191D03*
X0373191Y0103691D03*
X0373191Y0096691D03*
X0399191Y0075691D03*
X0413691Y0071691D03*
X0419191Y0075691D03*
X0441691Y0074691D03*
X0455191Y0077191D03*
X0454191Y0085191D03*
X0452691Y0101691D03*
X0450191Y0107691D03*
X0454691Y0115191D03*
X0452191Y0121691D03*
X0459691Y0121191D03*
X0459191Y0127191D03*
X0465191Y0144191D03*
X0458691Y0155191D03*
X0444691Y0152191D03*
X0441691Y0162191D03*
X0442691Y0180691D03*
X0462191Y0178191D03*
X0462691Y0184691D03*
X0483191Y0190691D03*
X0483691Y0210691D03*
X0481691Y0235191D03*
X0477691Y0243691D03*
X0474191Y0256191D03*
X0462191Y0262191D03*
X0456191Y0257191D03*
X0447691Y0254191D03*
X0438691Y0250191D03*
X0446691Y0243691D03*
X0461691Y0244691D03*
X0443691Y0264191D03*
X0455191Y0269191D03*
X0459191Y0280191D03*
X0463191Y0287691D03*
X0455191Y0292691D03*
X0447691Y0287691D03*
X0443691Y0279191D03*
X0429191Y0271691D03*
X0428691Y0264191D03*
X0419191Y0266691D03*
X0413691Y0279191D03*
X0413691Y0289191D03*
X0415691Y0295691D03*
X0423191Y0290191D03*
X0430691Y0291191D03*
X0429691Y0299191D03*
X0428691Y0312191D03*
X0453191Y0311691D03*
X0404691Y0296191D03*
X0403691Y0288191D03*
X0394191Y0290191D03*
X0394191Y0296191D03*
X0386191Y0295691D03*
X0379191Y0289691D03*
X0377191Y0278191D03*
X0371191Y0275191D03*
X0346191Y0256691D03*
X0378691Y0238691D03*
X0378691Y0225191D03*
X0363191Y0225691D03*
X0375191Y0187691D03*
X0375191Y0179691D03*
X0419191Y0132191D03*
X0411191Y0128191D03*
X0421691Y0126691D03*
X0466691Y0109691D03*
X0453691Y0058691D03*
X0447191Y0052191D03*
X0334191Y0096691D03*
X0307691Y0144691D03*
X0312691Y0147691D03*
X0297191Y0172691D03*
X0289191Y0171691D03*
X0273191Y0169691D03*
X0263691Y0169691D03*
X0250691Y0170191D03*
X0242691Y0170191D03*
X0214691Y0170691D03*
X0202691Y0163691D03*
X0198691Y0169191D03*
X0200691Y0189191D03*
X0202191Y0200191D03*
X0212191Y0200691D03*
X0213191Y0193191D03*
X0217691Y0188691D03*
X0192691Y0203191D03*
X0182291Y0206091D03*
X0176191Y0200691D03*
X0168191Y0205991D03*
X0160391Y0214591D03*
X0154791Y0222591D03*
X0147691Y0227191D03*
X0160291Y0230891D03*
X0165591Y0235891D03*
X0154691Y0243191D03*
X0146691Y0250191D03*
X0143191Y0244191D03*
X0150191Y0237191D03*
X0167291Y0221591D03*
X0174091Y0228191D03*
X0183291Y0220991D03*
X0178591Y0214491D03*
X0192191Y0215191D03*
X0201191Y0210691D03*
X0198191Y0231191D03*
X0200191Y0237691D03*
X0193691Y0243191D03*
X0188991Y0249791D03*
X0183191Y0245191D03*
X0188191Y0237691D03*
X0200691Y0247491D03*
X0175391Y0250391D03*
X0146691Y0261191D03*
X0140191Y0259191D03*
X0131691Y0261191D03*
X0106691Y0269191D03*
X0104691Y0276191D03*
X0104691Y0261191D03*
X0105191Y0253191D03*
X0104691Y0244691D03*
X0104691Y0240191D03*
X0105691Y0230191D03*
X0104691Y0216191D03*
X0103691Y0204191D03*
X0103191Y0193691D03*
X0104191Y0180191D03*
X0104191Y0170691D03*
X0096691Y0169691D03*
X0096691Y0163191D03*
X0102191Y0163191D03*
X0108191Y0163191D03*
X0113691Y0163191D03*
X0119191Y0168191D03*
X0134691Y0165191D03*
X0135191Y0170191D03*
X0150191Y0169191D03*
X0157191Y0169191D03*
X0152191Y0154191D03*
X0151691Y0147691D03*
X0159191Y0148191D03*
X0178191Y0140691D03*
X0178191Y0134691D03*
X0175691Y0129191D03*
X0176691Y0123691D03*
X0192691Y0131191D03*
X0198191Y0133191D03*
X0196691Y0140191D03*
X0198691Y0125691D03*
X0194691Y0119691D03*
X0201691Y0116191D03*
X0227691Y0117691D03*
X0227691Y0127191D03*
X0227691Y0136191D03*
X0244691Y0131191D03*
X0245191Y0120191D03*
X0243691Y0115191D03*
X0270191Y0136191D03*
X0225691Y0085191D03*
X0214691Y0085191D03*
X0204691Y0085191D03*
X0194691Y0084691D03*
X0185191Y0084691D03*
X0176191Y0086191D03*
X0177691Y0079191D03*
X0193691Y0066691D03*
X0203691Y0066191D03*
X0199691Y0055191D03*
X0218191Y0066191D03*
X0229191Y0066691D03*
X0242191Y0071691D03*
X0232691Y0057191D03*
X0164691Y0051691D03*
X0102691Y0098691D03*
X0094691Y0103191D03*
X0077691Y0107691D03*
X0074191Y0098191D03*
X0067191Y0098191D03*
X0067191Y0089191D03*
X0073191Y0089191D03*
X0073191Y0083191D03*
X0067191Y0083191D03*
X0067191Y0077191D03*
X0074191Y0073191D03*
X0067191Y0071191D03*
X0067191Y0065191D03*
X0067191Y0059191D03*
X0067191Y0053191D03*
X0074191Y0053191D03*
X0078191Y0057191D03*
X0054691Y0108691D03*
X0061691Y0113191D03*
X0066691Y0110691D03*
X0064691Y0124191D03*
X0056691Y0123691D03*
X0052691Y0128191D03*
X0076691Y0128191D03*
X0101691Y0151191D03*
X0107191Y0154691D03*
X0113691Y0152691D03*
X0113691Y0145691D03*
X0108191Y0147691D03*
X0080191Y0163691D03*
X0080191Y0169191D03*
X0070691Y0168191D03*
X0060691Y0167691D03*
X0060691Y0160691D03*
X0070691Y0161691D03*
X0051691Y0162191D03*
X0051691Y0156691D03*
X0051691Y0168691D03*
X0073691Y0204691D03*
X0074691Y0216191D03*
X0076691Y0223691D03*
X0076691Y0231691D03*
X0076691Y0242691D03*
X0077191Y0254191D03*
X0076691Y0263691D03*
X0076491Y0272691D03*
X0076191Y0281691D03*
X0076191Y0290191D03*
X0095991Y0298491D03*
X0102091Y0294291D03*
X0075191Y0312691D03*
X0068691Y0310191D03*
X0068691Y0325191D03*
X0078691Y0325191D03*
X0078691Y0340191D03*
X0068691Y0340191D03*
X0151291Y0286891D03*
X0160691Y0287291D03*
X0248691Y0293191D03*
X0257691Y0293691D03*
X0268691Y0293191D03*
X0269691Y0300191D03*
X0260691Y0304691D03*
X0250691Y0301191D03*
X0250191Y0308691D03*
X0258191Y0313191D03*
X0271691Y0308691D03*
X0275691Y0319191D03*
X0295691Y0309691D03*
X0293191Y0299191D03*
X0293191Y0291191D03*
X0285191Y0289691D03*
X0306691Y0290191D03*
X0317191Y0290191D03*
X0319691Y0299191D03*
X0320691Y0308191D03*
X0341691Y0298691D03*
X0337191Y0291691D03*
X0332191Y0288191D03*
X0355191Y0294191D03*
X0354191Y0302691D03*
X0260191Y0250191D03*
X0260691Y0243191D03*
X0262191Y0229191D03*
X0249191Y0232191D03*
X0248191Y0222191D03*
X0252691Y0216691D03*
X0263691Y0218191D03*
X0252191Y0205691D03*
X0249691Y0195191D03*
X0185191Y0191691D03*
X0141191Y0188691D03*
X0134191Y0189691D03*
X0127191Y0189691D03*
X0127191Y0203691D03*
X0134191Y0212691D03*
X0138191Y0207191D03*
X0128691Y0217691D03*
X0255691Y0261691D03*
X0156191Y0117191D03*
X0154691Y0108191D03*
X0471191Y0269191D03*
X0479191Y0271191D03*
D27*
X0348191Y0275691D03*
X0338691Y0278191D03*
X0330191Y0278191D03*
X0316191Y0278191D03*
X0309691Y0278191D03*
X0303191Y0278191D03*
X0282691Y0278191D03*
X0271691Y0278191D03*
X0142191Y0284691D03*
D28*
X0155691Y0265691D02*
X0155191Y0265191D01*
X0155191Y0255191D01*
X0186675Y0223707D01*
X0221191Y0223707D01*
X0221191Y0221191D01*
X0221191Y0223707D02*
X0228089Y0223707D01*
X0228089Y0225675D02*
X0222707Y0225675D01*
X0221191Y0227191D01*
X0219691Y0225691D01*
X0190691Y0225691D01*
X0163191Y0253191D01*
X0163191Y0265691D01*
X0167091Y0259091D02*
X0167091Y0303481D01*
X0167691Y0304081D01*
X0173976Y0304091D02*
X0173986Y0304081D01*
X0178991Y0302791D02*
X0178991Y0274691D01*
X0181891Y0271791D01*
X0211091Y0271791D01*
X0214091Y0268791D01*
X0214091Y0255591D01*
X0213291Y0254791D01*
X0210391Y0254791D01*
X0210391Y0258391D02*
X0210491Y0258491D01*
X0210491Y0263191D01*
X0206691Y0265291D02*
X0206691Y0253091D01*
X0210091Y0249691D01*
X0216191Y0249691D01*
X0218291Y0251791D01*
X0218291Y0254691D01*
X0218291Y0258291D02*
X0218291Y0262891D01*
X0226491Y0261691D02*
X0226491Y0258191D01*
X0226491Y0261691D02*
X0213091Y0275091D01*
X0183791Y0275091D01*
X0182091Y0276791D01*
X0182091Y0291491D01*
X0183986Y0293386D01*
X0183986Y0294081D01*
X0188991Y0296291D02*
X0191191Y0294091D01*
X0193976Y0294091D01*
X0193986Y0294081D01*
X0193986Y0285891D01*
X0197786Y0282091D01*
X0210291Y0282091D01*
X0223091Y0269291D01*
X0228291Y0269291D01*
X0230991Y0266591D01*
X0230991Y0258191D01*
X0230991Y0254591D02*
X0230991Y0243991D01*
X0227691Y0240091D02*
X0224891Y0242891D01*
X0206591Y0242891D01*
X0219991Y0247791D02*
X0225191Y0247791D01*
X0226491Y0249091D01*
X0226491Y0254591D01*
X0235491Y0254591D02*
X0235491Y0241091D01*
X0234491Y0240091D01*
X0227691Y0240091D01*
X0239991Y0240291D02*
X0239991Y0254691D01*
X0239991Y0258291D02*
X0239991Y0271391D01*
X0236091Y0275291D01*
X0224891Y0275291D01*
X0208891Y0291291D01*
X0208891Y0302991D01*
X0207801Y0304081D01*
X0203986Y0304081D01*
X0198991Y0302791D02*
X0198991Y0289091D01*
X0202391Y0285691D01*
X0209991Y0285691D01*
X0223191Y0272491D01*
X0233091Y0272491D01*
X0235491Y0270091D01*
X0235491Y0258191D01*
X0244391Y0258291D02*
X0244591Y0258491D01*
X0244591Y0274391D01*
X0241291Y0277691D01*
X0228691Y0277691D01*
X0219091Y0287291D01*
X0219091Y0301691D01*
X0216701Y0304081D01*
X0213986Y0304081D01*
X0198991Y0302791D02*
X0197701Y0304081D01*
X0193986Y0304081D01*
X0193986Y0310696D01*
X0188691Y0315991D01*
X0163391Y0315991D01*
X0157625Y0321757D01*
X0157625Y0333427D01*
X0143845Y0333427D02*
X0143845Y0317437D01*
X0147191Y0314091D01*
X0184191Y0314091D01*
X0188991Y0309291D01*
X0188991Y0296291D01*
X0183986Y0304081D02*
X0180281Y0304081D01*
X0178991Y0302791D01*
X0183986Y0304081D02*
X0183991Y0304085D01*
X0183991Y0307091D01*
X0180691Y0310391D01*
X0135991Y0310391D01*
X0130066Y0316316D01*
X0130066Y0333427D01*
X0173986Y0294081D02*
X0173986Y0270196D01*
X0176191Y0267991D01*
X0203991Y0267991D01*
X0206691Y0265291D01*
X0202591Y0263491D02*
X0202591Y0258391D01*
X0202591Y0254791D02*
X0171391Y0254791D01*
X0167091Y0259091D01*
X0138191Y0249191D02*
X0133691Y0253691D01*
X0138191Y0249191D02*
X0138191Y0221691D01*
X0148191Y0211691D01*
X0148191Y0202191D01*
X0149691Y0200691D01*
X0149691Y0197191D01*
X0154691Y0192191D01*
X0156691Y0192191D01*
X0205691Y0143191D01*
X0205691Y0113935D01*
X0198986Y0107230D01*
X0208691Y0107526D02*
X0208691Y0144191D01*
X0158191Y0194691D01*
X0155691Y0194691D01*
X0152191Y0198191D01*
X0152191Y0204691D01*
X0156191Y0207191D02*
X0156191Y0200691D01*
X0214191Y0142691D01*
X0214191Y0103691D01*
X0208986Y0098486D01*
X0208986Y0097230D01*
X0220191Y0090191D02*
X0223691Y0093691D01*
X0223691Y0174191D01*
X0226691Y0177191D01*
X0252191Y0177191D01*
X0258191Y0183191D01*
X0258191Y0193691D01*
X0256691Y0195191D01*
X0256691Y0197191D01*
X0242991Y0200191D02*
X0242991Y0185491D01*
X0241691Y0184191D01*
X0248391Y0180791D02*
X0228491Y0180791D01*
X0224891Y0184391D01*
X0224891Y0193491D01*
X0237750Y0201832D02*
X0237750Y0205648D01*
X0237750Y0201832D02*
X0239391Y0200191D01*
X0235191Y0212734D02*
X0235191Y0216991D01*
X0235391Y0217191D01*
X0232691Y0219891D01*
X0232691Y0221691D01*
X0228136Y0221691D01*
X0228089Y0221738D01*
X0232691Y0221691D02*
X0234707Y0223707D01*
X0240293Y0223707D01*
X0240293Y0225675D02*
X0253175Y0225675D01*
X0276691Y0249191D01*
X0345691Y0249191D01*
X0346441Y0248441D01*
X0352191Y0242691D01*
X0352191Y0236691D01*
X0337691Y0222191D01*
X0337691Y0210726D01*
X0345891Y0202526D01*
X0345891Y0210400D02*
X0343482Y0210400D01*
X0340191Y0213691D01*
X0340191Y0221191D01*
X0354691Y0235691D01*
X0354691Y0243691D01*
X0347191Y0251191D01*
X0275691Y0251191D01*
X0252144Y0227644D01*
X0240293Y0227644D01*
X0244391Y0236691D02*
X0244391Y0254691D01*
X0231291Y0281491D02*
X0298591Y0281491D01*
X0300491Y0283391D01*
X0300491Y0297891D01*
X0281191Y0243191D02*
X0260191Y0222191D01*
X0260191Y0172691D01*
X0240691Y0153191D01*
X0240691Y0138191D01*
X0219191Y0140691D02*
X0164191Y0195691D01*
X0164191Y0198691D01*
X0155691Y0189691D02*
X0153691Y0189691D01*
X0147691Y0195691D01*
X0147691Y0199191D01*
X0146191Y0200691D01*
X0146191Y0210691D01*
X0136191Y0220691D01*
X0136191Y0240691D01*
X0131191Y0245691D01*
X0141191Y0234691D02*
X0143691Y0237191D01*
X0141191Y0234691D02*
X0141191Y0222191D01*
X0156191Y0207191D01*
X0144191Y0209691D02*
X0133691Y0220191D01*
X0133691Y0225191D01*
X0129191Y0229691D01*
X0130691Y0207691D02*
X0130691Y0205691D01*
X0151691Y0184691D01*
X0153691Y0184691D01*
X0184191Y0154191D01*
X0184191Y0121691D01*
X0181691Y0119191D01*
X0186691Y0115691D02*
X0186691Y0155191D01*
X0154691Y0187191D01*
X0152691Y0187191D01*
X0145191Y0194691D01*
X0145191Y0198191D01*
X0144191Y0199191D01*
X0144191Y0209691D01*
X0155691Y0189691D02*
X0188986Y0156396D01*
X0188986Y0107230D01*
X0184191Y0102691D02*
X0184191Y0113191D01*
X0186691Y0115691D01*
X0184191Y0102691D02*
X0188986Y0097896D01*
X0188986Y0097230D01*
X0182691Y0090191D02*
X0220191Y0090191D01*
X0218986Y0107230D02*
X0219191Y0107435D01*
X0219191Y0140691D01*
X0208691Y0107526D02*
X0208986Y0107230D01*
X0182691Y0090191D02*
X0178986Y0093896D01*
X0178986Y0097230D01*
X0248391Y0180791D02*
X0249791Y0182191D01*
X0249791Y0184791D01*
X0295691Y0220191D02*
X0309691Y0220191D01*
X0323191Y0206691D01*
X0323191Y0204691D01*
X0325691Y0202191D01*
X0325691Y0187691D01*
X0328691Y0184691D01*
X0328191Y0204691D02*
X0328191Y0205191D01*
X0315691Y0217691D01*
X0315691Y0226191D01*
X0312691Y0229191D01*
X0329491Y0229591D02*
X0329491Y0233291D01*
X0333091Y0233291D01*
X0333691Y0232691D01*
X0331291Y0233291D02*
X0329491Y0233291D01*
X0329491Y0237291D02*
X0331591Y0237291D01*
X0331691Y0237191D01*
D29*
X0331691Y0237191D03*
X0333691Y0232691D03*
X0337191Y0229191D03*
X0321691Y0230691D03*
X0323191Y0236191D03*
X0310691Y0229191D03*
X0295691Y0220191D03*
X0276691Y0198691D03*
X0256691Y0197191D03*
X0249791Y0184791D03*
X0235691Y0170191D03*
X0224891Y0193491D03*
X0242691Y0212691D03*
X0221191Y0221191D03*
X0221191Y0227191D03*
X0206591Y0242891D03*
X0219991Y0247791D03*
X0230991Y0243991D03*
X0239991Y0240291D03*
X0244391Y0236691D03*
X0218291Y0262891D03*
X0210491Y0263191D03*
X0202591Y0263491D03*
X0186691Y0280191D03*
X0163191Y0265691D03*
X0155691Y0265691D03*
X0133691Y0253691D03*
X0131191Y0245691D03*
X0143691Y0237191D03*
X0129191Y0229691D03*
X0130691Y0207691D03*
X0152191Y0204691D03*
X0164191Y0198691D03*
X0088191Y0183691D03*
X0060191Y0186191D03*
X0080191Y0141691D03*
X0057691Y0137691D03*
X0181691Y0119191D03*
X0240691Y0138191D03*
X0250191Y0142191D03*
X0261691Y0142191D03*
X0271191Y0142191D03*
X0285191Y0143691D03*
X0292191Y0143691D03*
X0301191Y0143191D03*
X0328691Y0184691D03*
X0335191Y0201191D03*
X0328191Y0204691D03*
X0281191Y0243191D03*
X0317191Y0256691D03*
X0347191Y0313191D03*
X0392691Y0156691D03*
X0398191Y0129191D03*
X0356191Y0114691D03*
D30*
X0065329Y0101987D02*
X0065329Y0049762D01*
X0079691Y0049762D01*
X0079691Y0084737D01*
X0079219Y0084932D01*
X0076657Y0087494D01*
X0075271Y0090840D01*
X0075271Y0094463D01*
X0076657Y0097809D01*
X0079219Y0100371D01*
X0082565Y0101757D01*
X0086188Y0101757D01*
X0089535Y0100371D01*
X0092096Y0097809D01*
X0093482Y0094463D01*
X0093482Y0092691D01*
X0114109Y0092691D01*
X0115668Y0093337D01*
X0123294Y0093337D01*
X0124853Y0092691D01*
X0145691Y0092691D01*
X0145691Y0049762D01*
X0248691Y0049762D01*
X0248691Y0115691D01*
X0330691Y0115691D01*
X0330691Y0088191D01*
X0341231Y0088191D01*
X0341329Y0088289D01*
X0342358Y0088715D01*
X0366392Y0088715D01*
X0367421Y0088289D01*
X0367519Y0088191D01*
X0393691Y0088191D01*
X0393691Y0049762D01*
X0424984Y0049762D01*
X0424508Y0050910D01*
X0424508Y0052740D01*
X0425209Y0054430D01*
X0425491Y0054713D01*
X0425491Y0077280D01*
X0417780Y0084991D01*
X0397280Y0084991D01*
X0395991Y0086280D01*
X0392280Y0089991D01*
X0346280Y0089991D01*
X0344991Y0091280D01*
X0334991Y0101280D01*
X0334991Y0143280D01*
X0328191Y0150080D01*
X0328191Y0151091D01*
X0324748Y0151091D01*
X0324348Y0151491D01*
X0323280Y0151491D01*
X0322280Y0152491D01*
X0283780Y0152491D01*
X0282491Y0153780D01*
X0276491Y0159780D01*
X0276491Y0195441D01*
X0276044Y0195441D01*
X0274850Y0195936D01*
X0273936Y0196850D01*
X0273441Y0198044D01*
X0273441Y0199337D01*
X0273936Y0200532D01*
X0274850Y0201446D01*
X0276044Y0201941D01*
X0277337Y0201941D01*
X0278532Y0201446D01*
X0279446Y0200532D01*
X0279789Y0199704D01*
X0280891Y0198602D01*
X0280891Y0161602D01*
X0285602Y0156891D01*
X0298368Y0156891D01*
X0297461Y0157799D01*
X0296791Y0159416D01*
X0296791Y0163966D01*
X0297461Y0165583D01*
X0298699Y0166821D01*
X0300316Y0167491D01*
X0302066Y0167491D01*
X0303683Y0166821D01*
X0304921Y0165583D01*
X0305591Y0163966D01*
X0305591Y0159416D01*
X0304921Y0157799D01*
X0304013Y0156891D01*
X0308368Y0156891D01*
X0307461Y0157799D01*
X0306791Y0159416D01*
X0306791Y0163966D01*
X0307461Y0165583D01*
X0308699Y0166821D01*
X0310316Y0167491D01*
X0312066Y0167491D01*
X0313683Y0166821D01*
X0314921Y0165583D01*
X0315591Y0163966D01*
X0315591Y0159416D01*
X0314921Y0157799D01*
X0314013Y0156891D01*
X0324102Y0156891D01*
X0324525Y0156468D01*
X0324748Y0156691D01*
X0327591Y0156691D01*
X0327591Y0159234D01*
X0328648Y0160291D01*
X0332134Y0160291D01*
X0332534Y0159891D01*
X0334602Y0159891D01*
X0335891Y0158602D01*
X0341891Y0152602D01*
X0341891Y0142102D01*
X0344102Y0139891D01*
X0350280Y0139891D01*
X0351491Y0141102D01*
X0351491Y0147602D01*
X0352780Y0148891D01*
X0358491Y0154602D01*
X0358491Y0179602D01*
X0359780Y0180891D01*
X0367991Y0189102D01*
X0367991Y0189940D01*
X0367699Y0190061D01*
X0366461Y0191299D01*
X0365791Y0192916D01*
X0365791Y0197466D01*
X0366461Y0199083D01*
X0366491Y0199113D01*
X0366491Y0202827D01*
X0366978Y0204004D01*
X0367878Y0204904D01*
X0370491Y0207516D01*
X0370491Y0257865D01*
X0355865Y0272491D01*
X0347554Y0272491D01*
X0346378Y0272978D01*
X0345478Y0273878D01*
X0344991Y0275054D01*
X0344991Y0276327D01*
X0345478Y0277504D01*
X0345991Y0278016D01*
X0345991Y0310170D01*
X0345350Y0310436D01*
X0344436Y0311350D01*
X0343941Y0312544D01*
X0343941Y0313837D01*
X0344436Y0315032D01*
X0345095Y0315691D01*
X0278191Y0315691D01*
X0278191Y0342943D01*
X0065691Y0342943D01*
X0065691Y0299191D01*
X0072691Y0299191D01*
X0072691Y0178691D01*
X0069802Y0178691D01*
X0077891Y0170602D01*
X0077891Y0147102D01*
X0080052Y0144941D01*
X0080837Y0144941D01*
X0082032Y0144446D01*
X0082946Y0143532D01*
X0083441Y0142337D01*
X0083441Y0141044D01*
X0082963Y0139891D01*
X0084591Y0139891D01*
X0084591Y0184407D01*
X0085139Y0185730D01*
X0086152Y0186743D01*
X0087475Y0187291D01*
X0088907Y0187291D01*
X0090230Y0186743D01*
X0091243Y0185730D01*
X0091791Y0184407D01*
X0091791Y0113791D01*
X0125907Y0113791D01*
X0127230Y0113243D01*
X0128243Y0112230D01*
X0139182Y0101291D01*
X0166541Y0101291D01*
X0167081Y0101830D01*
X0170892Y0101830D01*
X0173586Y0099136D01*
X0173586Y0095325D01*
X0170892Y0092630D01*
X0167081Y0092630D01*
X0165620Y0094091D01*
X0136975Y0094091D01*
X0135652Y0094639D01*
X0123700Y0106591D01*
X0087475Y0106591D01*
X0086152Y0107139D01*
X0085139Y0108152D01*
X0084591Y0109475D01*
X0084591Y0135491D01*
X0060087Y0135491D01*
X0059532Y0134936D01*
X0058337Y0134441D01*
X0057044Y0134441D01*
X0055850Y0134936D01*
X0054936Y0135850D01*
X0054441Y0137044D01*
X0054441Y0138337D01*
X0054936Y0139532D01*
X0055850Y0140446D01*
X0057044Y0140941D01*
X0058337Y0140941D01*
X0059532Y0140446D01*
X0060087Y0139891D01*
X0077419Y0139891D01*
X0076941Y0141044D01*
X0076941Y0141830D01*
X0073491Y0145280D01*
X0073491Y0168780D01*
X0063580Y0178691D01*
X0050191Y0178691D01*
X0050191Y0105191D01*
X0062124Y0105191D01*
X0063595Y0104582D01*
X0064720Y0103457D01*
X0065329Y0101987D01*
X0065329Y0101592D02*
X0082166Y0101592D01*
X0079273Y0100393D02*
X0065329Y0100393D01*
X0065329Y0099195D02*
X0078043Y0099195D01*
X0076844Y0097996D02*
X0065329Y0097996D01*
X0065329Y0096798D02*
X0076238Y0096798D01*
X0075742Y0095599D02*
X0065329Y0095599D01*
X0065329Y0094401D02*
X0075271Y0094401D01*
X0075271Y0093202D02*
X0065329Y0093202D01*
X0065329Y0092004D02*
X0075271Y0092004D01*
X0075286Y0090805D02*
X0065329Y0090805D01*
X0065329Y0089607D02*
X0075782Y0089607D01*
X0076279Y0088408D02*
X0065329Y0088408D01*
X0065329Y0087210D02*
X0076942Y0087210D01*
X0078140Y0086011D02*
X0065329Y0086011D01*
X0065329Y0084813D02*
X0079508Y0084813D01*
X0079691Y0083614D02*
X0065329Y0083614D01*
X0065329Y0082415D02*
X0079691Y0082415D01*
X0079691Y0081217D02*
X0065329Y0081217D01*
X0065329Y0080018D02*
X0079691Y0080018D01*
X0079691Y0078820D02*
X0065329Y0078820D01*
X0065329Y0077621D02*
X0079691Y0077621D01*
X0079691Y0076423D02*
X0065329Y0076423D01*
X0065329Y0075224D02*
X0079691Y0075224D01*
X0079691Y0074026D02*
X0065329Y0074026D01*
X0065329Y0072827D02*
X0079691Y0072827D01*
X0079691Y0071629D02*
X0065329Y0071629D01*
X0065329Y0070430D02*
X0079691Y0070430D01*
X0079691Y0069232D02*
X0065329Y0069232D01*
X0065329Y0068033D02*
X0079691Y0068033D01*
X0079691Y0066835D02*
X0065329Y0066835D01*
X0065329Y0065636D02*
X0079691Y0065636D01*
X0079691Y0064438D02*
X0065329Y0064438D01*
X0065329Y0063239D02*
X0079691Y0063239D01*
X0079691Y0062041D02*
X0065329Y0062041D01*
X0065329Y0060842D02*
X0079691Y0060842D01*
X0079691Y0059644D02*
X0065329Y0059644D01*
X0065329Y0058445D02*
X0079691Y0058445D01*
X0079691Y0057247D02*
X0065329Y0057247D01*
X0065329Y0056048D02*
X0079691Y0056048D01*
X0079691Y0054850D02*
X0065329Y0054850D01*
X0065329Y0053651D02*
X0079691Y0053651D01*
X0079691Y0052453D02*
X0065329Y0052453D01*
X0065329Y0051254D02*
X0079691Y0051254D01*
X0079691Y0050056D02*
X0065329Y0050056D01*
X0093482Y0093202D02*
X0115343Y0093202D01*
X0123619Y0093202D02*
X0166509Y0093202D01*
X0171463Y0093202D02*
X0176509Y0093202D01*
X0177081Y0092630D02*
X0174386Y0095325D01*
X0174386Y0099136D01*
X0177081Y0101830D01*
X0180892Y0101830D01*
X0183586Y0099136D01*
X0183586Y0095325D01*
X0182056Y0093795D01*
X0183561Y0092291D01*
X0219321Y0092291D01*
X0221591Y0094561D01*
X0221591Y0103330D01*
X0220892Y0102630D01*
X0217081Y0102630D01*
X0216291Y0103420D01*
X0216291Y0102821D01*
X0215061Y0101591D01*
X0213096Y0099626D01*
X0213586Y0099136D01*
X0213586Y0095325D01*
X0210892Y0092630D01*
X0207081Y0092630D01*
X0204386Y0095325D01*
X0204386Y0099136D01*
X0207081Y0101830D01*
X0209360Y0101830D01*
X0210160Y0102630D01*
X0207081Y0102630D01*
X0204386Y0105325D01*
X0204386Y0109136D01*
X0206591Y0111340D01*
X0206591Y0111865D01*
X0206561Y0111835D01*
X0203586Y0108860D01*
X0203586Y0105325D01*
X0200892Y0102630D01*
X0197081Y0102630D01*
X0194386Y0105325D01*
X0194386Y0109136D01*
X0197081Y0111830D01*
X0200616Y0111830D01*
X0203591Y0114805D01*
X0203591Y0142321D01*
X0191086Y0154826D01*
X0191086Y0111636D01*
X0193586Y0109136D01*
X0193586Y0105325D01*
X0190892Y0102630D01*
X0187221Y0102630D01*
X0188021Y0101830D01*
X0190892Y0101830D01*
X0193586Y0099136D01*
X0193586Y0095325D01*
X0190892Y0092630D01*
X0187081Y0092630D01*
X0184386Y0095325D01*
X0184386Y0099136D01*
X0184581Y0099331D01*
X0183321Y0100591D01*
X0182091Y0101821D01*
X0182091Y0114061D01*
X0184591Y0116561D01*
X0184591Y0117700D01*
X0184446Y0117350D01*
X0183532Y0116436D01*
X0182337Y0115941D01*
X0181044Y0115941D01*
X0179850Y0116436D01*
X0178936Y0117350D01*
X0178441Y0118544D01*
X0178441Y0119837D01*
X0178936Y0121032D01*
X0179850Y0121946D01*
X0181044Y0122441D01*
X0181971Y0122441D01*
X0182091Y0122561D01*
X0182091Y0153321D01*
X0152821Y0182591D01*
X0150821Y0182591D01*
X0129821Y0203591D01*
X0128591Y0204821D01*
X0128591Y0205195D01*
X0127936Y0205850D01*
X0127441Y0207044D01*
X0127441Y0208337D01*
X0127936Y0209532D01*
X0128850Y0210446D01*
X0130044Y0210941D01*
X0131337Y0210941D01*
X0132532Y0210446D01*
X0133446Y0209532D01*
X0133941Y0208337D01*
X0133941Y0207044D01*
X0133462Y0205889D01*
X0143091Y0196261D01*
X0143091Y0197321D01*
X0142091Y0198321D01*
X0142091Y0208821D01*
X0132821Y0218091D01*
X0131591Y0219321D01*
X0131591Y0224321D01*
X0129471Y0226441D01*
X0128544Y0226441D01*
X0127350Y0226936D01*
X0126436Y0227850D01*
X0125941Y0229044D01*
X0125941Y0230337D01*
X0126436Y0231532D01*
X0127350Y0232446D01*
X0128544Y0232941D01*
X0129837Y0232941D01*
X0131032Y0232446D01*
X0131946Y0231532D01*
X0132441Y0230337D01*
X0132441Y0229411D01*
X0134091Y0227761D01*
X0134091Y0239821D01*
X0131471Y0242441D01*
X0130544Y0242441D01*
X0129350Y0242936D01*
X0128436Y0243850D01*
X0127941Y0245044D01*
X0127941Y0246337D01*
X0128436Y0247532D01*
X0129350Y0248446D01*
X0130544Y0248941D01*
X0131837Y0248941D01*
X0133032Y0248446D01*
X0133946Y0247532D01*
X0134441Y0246337D01*
X0134441Y0245411D01*
X0136091Y0243761D01*
X0136091Y0248321D01*
X0133971Y0250441D01*
X0133044Y0250441D01*
X0131850Y0250936D01*
X0130936Y0251850D01*
X0130441Y0253044D01*
X0130441Y0254337D01*
X0130936Y0255532D01*
X0131850Y0256446D01*
X0133044Y0256941D01*
X0134337Y0256941D01*
X0135532Y0256446D01*
X0136446Y0255532D01*
X0136941Y0254337D01*
X0136941Y0253411D01*
X0140291Y0250061D01*
X0140291Y0236761D01*
X0140441Y0236911D01*
X0140441Y0237837D01*
X0140936Y0239032D01*
X0141850Y0239946D01*
X0143044Y0240441D01*
X0144337Y0240441D01*
X0145532Y0239946D01*
X0146446Y0239032D01*
X0146941Y0237837D01*
X0146941Y0236544D01*
X0146446Y0235350D01*
X0145532Y0234436D01*
X0144337Y0233941D01*
X0143411Y0233941D01*
X0143291Y0233821D01*
X0143291Y0223061D01*
X0157061Y0209291D01*
X0157061Y0209291D01*
X0158291Y0208061D01*
X0158291Y0201561D01*
X0160941Y0198911D01*
X0160941Y0199337D01*
X0161436Y0200532D01*
X0162350Y0201446D01*
X0163544Y0201941D01*
X0164837Y0201941D01*
X0166032Y0201446D01*
X0166946Y0200532D01*
X0167441Y0199337D01*
X0167441Y0198044D01*
X0166946Y0196850D01*
X0166474Y0196378D01*
X0221291Y0141561D01*
X0221291Y0111431D01*
X0221591Y0111131D01*
X0221591Y0175061D01*
X0224591Y0178061D01*
X0225821Y0179291D01*
X0227021Y0179291D01*
X0224021Y0182291D01*
X0222791Y0183521D01*
X0222791Y0190995D01*
X0222136Y0191650D01*
X0221641Y0192844D01*
X0221641Y0194137D01*
X0222136Y0195332D01*
X0223050Y0196246D01*
X0224244Y0196741D01*
X0225537Y0196741D01*
X0226732Y0196246D01*
X0227646Y0195332D01*
X0228141Y0194137D01*
X0228141Y0192844D01*
X0227646Y0191650D01*
X0226991Y0190995D01*
X0226991Y0185261D01*
X0229361Y0182891D01*
X0238874Y0182891D01*
X0238591Y0183574D01*
X0238591Y0184808D01*
X0239063Y0185947D01*
X0239935Y0186819D01*
X0240891Y0187215D01*
X0240891Y0197391D01*
X0237648Y0197391D01*
X0236591Y0198448D01*
X0236591Y0200021D01*
X0235650Y0200962D01*
X0235650Y0202647D01*
X0235166Y0203132D01*
X0235166Y0208164D01*
X0236168Y0209166D01*
X0233659Y0209166D01*
X0232607Y0210218D01*
X0232607Y0215250D01*
X0232698Y0215341D01*
X0232591Y0215448D01*
X0232591Y0217021D01*
X0231821Y0217791D01*
X0231821Y0217791D01*
X0230591Y0219021D01*
X0230591Y0219548D01*
X0225378Y0219548D01*
X0224423Y0220502D01*
X0223946Y0219350D01*
X0223032Y0218436D01*
X0221837Y0217941D01*
X0220544Y0217941D01*
X0219350Y0218436D01*
X0218436Y0219350D01*
X0217941Y0220544D01*
X0217941Y0221607D01*
X0185805Y0221607D01*
X0154321Y0253091D01*
X0153091Y0254321D01*
X0153091Y0263695D01*
X0152936Y0263850D01*
X0152441Y0265044D01*
X0152441Y0266337D01*
X0152936Y0267532D01*
X0153850Y0268446D01*
X0155044Y0268941D01*
X0156337Y0268941D01*
X0157532Y0268446D01*
X0158446Y0267532D01*
X0158941Y0266337D01*
X0158941Y0265044D01*
X0158446Y0263850D01*
X0157532Y0262936D01*
X0157291Y0262836D01*
X0157291Y0256061D01*
X0187545Y0225807D01*
X0187605Y0225807D01*
X0162321Y0251091D01*
X0161091Y0252321D01*
X0161091Y0263195D01*
X0160436Y0263850D01*
X0159941Y0265044D01*
X0159941Y0266337D01*
X0160436Y0267532D01*
X0161350Y0268446D01*
X0162544Y0268941D01*
X0163837Y0268941D01*
X0164991Y0268463D01*
X0164991Y0300881D01*
X0111965Y0300881D01*
X0110789Y0301368D01*
X0099794Y0312363D01*
X0099307Y0313539D01*
X0099307Y0329631D01*
X0098313Y0330625D01*
X0097560Y0332443D01*
X0097560Y0334411D01*
X0098313Y0336229D01*
X0099705Y0337620D01*
X0101523Y0338373D01*
X0103491Y0338373D01*
X0105309Y0337620D01*
X0106700Y0336229D01*
X0107453Y0334411D01*
X0107453Y0332443D01*
X0106700Y0330625D01*
X0105707Y0329631D01*
X0105707Y0315501D01*
X0113927Y0307281D01*
X0170681Y0307281D01*
X0171691Y0308291D01*
X0135121Y0308291D01*
X0133891Y0309521D01*
X0127966Y0315446D01*
X0127966Y0328942D01*
X0127264Y0329233D01*
X0125872Y0330625D01*
X0125119Y0332443D01*
X0125119Y0334411D01*
X0125872Y0336229D01*
X0127264Y0337620D01*
X0129082Y0338373D01*
X0131050Y0338373D01*
X0132868Y0337620D01*
X0134259Y0336229D01*
X0135012Y0334411D01*
X0135012Y0332443D01*
X0134259Y0330625D01*
X0132868Y0329233D01*
X0132166Y0328942D01*
X0132166Y0317186D01*
X0136861Y0312491D01*
X0145821Y0312491D01*
X0145091Y0313221D01*
X0141745Y0316567D01*
X0141745Y0328942D01*
X0141043Y0329233D01*
X0139652Y0330625D01*
X0138899Y0332443D01*
X0138899Y0334411D01*
X0139652Y0336229D01*
X0141043Y0337620D01*
X0142861Y0338373D01*
X0144829Y0338373D01*
X0146647Y0337620D01*
X0148039Y0336229D01*
X0148792Y0334411D01*
X0148792Y0332443D01*
X0148039Y0330625D01*
X0146647Y0329233D01*
X0145945Y0328942D01*
X0145945Y0318307D01*
X0148061Y0316191D01*
X0160221Y0316191D01*
X0156755Y0319657D01*
X0156755Y0319657D01*
X0155525Y0320887D01*
X0155525Y0328942D01*
X0154823Y0329233D01*
X0153431Y0330625D01*
X0152678Y0332443D01*
X0152678Y0334411D01*
X0153431Y0336229D01*
X0154823Y0337620D01*
X0156641Y0338373D01*
X0158609Y0338373D01*
X0160427Y0337620D01*
X0161818Y0336229D01*
X0162571Y0334411D01*
X0162571Y0332443D01*
X0161818Y0330625D01*
X0160427Y0329233D01*
X0159725Y0328942D01*
X0159725Y0322627D01*
X0164261Y0318091D01*
X0189561Y0318091D01*
X0190791Y0316861D01*
X0196086Y0311566D01*
X0196086Y0308486D01*
X0198392Y0306181D01*
X0198571Y0306181D01*
X0199386Y0305365D01*
X0199386Y0305986D01*
X0202081Y0308681D01*
X0205892Y0308681D01*
X0208392Y0306181D01*
X0208671Y0306181D01*
X0209386Y0305465D01*
X0209386Y0305986D01*
X0212081Y0308681D01*
X0215892Y0308681D01*
X0218586Y0305986D01*
X0218586Y0305166D01*
X0219386Y0304365D01*
X0219386Y0305986D01*
X0222081Y0308681D01*
X0225892Y0308681D01*
X0228586Y0305986D01*
X0228586Y0302175D01*
X0225892Y0299481D01*
X0222081Y0299481D01*
X0221191Y0300371D01*
X0221191Y0297791D01*
X0222081Y0298681D01*
X0225892Y0298681D01*
X0228586Y0295986D01*
X0228586Y0292175D01*
X0225892Y0289481D01*
X0222081Y0289481D01*
X0221191Y0290371D01*
X0221191Y0288161D01*
X0228191Y0281161D01*
X0228191Y0282108D01*
X0228663Y0283247D01*
X0229535Y0284119D01*
X0230674Y0284591D01*
X0231908Y0284591D01*
X0233047Y0284119D01*
X0233575Y0283591D01*
X0297721Y0283591D01*
X0298391Y0284261D01*
X0298391Y0295607D01*
X0297863Y0296135D01*
X0297391Y0297274D01*
X0297391Y0298508D01*
X0297863Y0299647D01*
X0298735Y0300519D01*
X0299874Y0300991D01*
X0301108Y0300991D01*
X0302247Y0300519D01*
X0303119Y0299647D01*
X0303591Y0298508D01*
X0303591Y0297274D01*
X0303119Y0296135D01*
X0302591Y0295607D01*
X0302591Y0282521D01*
X0301361Y0281291D01*
X0299461Y0279391D01*
X0242561Y0279391D01*
X0245461Y0276491D01*
X0246691Y0275261D01*
X0246691Y0260534D01*
X0247191Y0260034D01*
X0247191Y0256548D01*
X0247134Y0256491D01*
X0247191Y0256434D01*
X0247191Y0252948D01*
X0246491Y0252248D01*
X0246491Y0239187D01*
X0247146Y0238532D01*
X0247641Y0237337D01*
X0247641Y0236044D01*
X0247146Y0234850D01*
X0246232Y0233936D01*
X0245037Y0233441D01*
X0243744Y0233441D01*
X0242550Y0233936D01*
X0241636Y0234850D01*
X0241141Y0236044D01*
X0241141Y0237250D01*
X0240637Y0237041D01*
X0239344Y0237041D01*
X0238150Y0237536D01*
X0237236Y0238450D01*
X0236821Y0239451D01*
X0236591Y0239221D01*
X0235361Y0237991D01*
X0226821Y0237991D01*
X0225591Y0239221D01*
X0224021Y0240791D01*
X0209087Y0240791D01*
X0208432Y0240136D01*
X0207237Y0239641D01*
X0205944Y0239641D01*
X0204750Y0240136D01*
X0203836Y0241050D01*
X0203341Y0242244D01*
X0203341Y0243537D01*
X0203836Y0244732D01*
X0204750Y0245646D01*
X0205944Y0246141D01*
X0207237Y0246141D01*
X0208432Y0245646D01*
X0209087Y0244991D01*
X0218258Y0244991D01*
X0218150Y0245036D01*
X0217236Y0245950D01*
X0216741Y0247144D01*
X0216741Y0247591D01*
X0209221Y0247591D01*
X0207991Y0248821D01*
X0205821Y0250991D01*
X0204591Y0252221D01*
X0204591Y0252248D01*
X0204334Y0251991D01*
X0200848Y0251991D01*
X0200148Y0252691D01*
X0170521Y0252691D01*
X0166221Y0256991D01*
X0165291Y0257921D01*
X0165291Y0254061D01*
X0191561Y0227791D01*
X0217941Y0227791D01*
X0217941Y0227837D01*
X0218436Y0229032D01*
X0219350Y0229946D01*
X0220544Y0230441D01*
X0221837Y0230441D01*
X0223032Y0229946D01*
X0223946Y0229032D01*
X0224441Y0227837D01*
X0224441Y0227775D01*
X0225288Y0227775D01*
X0225378Y0227866D01*
X0230799Y0227866D01*
X0231854Y0226811D01*
X0231854Y0223824D01*
X0233837Y0225807D01*
X0236528Y0225807D01*
X0236528Y0228779D01*
X0237583Y0229834D01*
X0243004Y0229834D01*
X0243094Y0229744D01*
X0251274Y0229744D01*
X0273591Y0252061D01*
X0274821Y0253291D01*
X0348061Y0253291D01*
X0349291Y0252061D01*
X0355561Y0245791D01*
X0356791Y0244561D01*
X0356791Y0234821D01*
X0355561Y0233591D01*
X0343965Y0221995D01*
X0345061Y0222449D01*
X0346721Y0222449D01*
X0348256Y0221813D01*
X0349430Y0220639D01*
X0350066Y0219104D01*
X0350066Y0217444D01*
X0349430Y0215909D01*
X0348256Y0214735D01*
X0347295Y0214337D01*
X0348256Y0213939D01*
X0349430Y0212765D01*
X0350066Y0211230D01*
X0350066Y0209570D01*
X0349430Y0208035D01*
X0348256Y0206861D01*
X0347295Y0206463D01*
X0348256Y0206065D01*
X0349430Y0204891D01*
X0350066Y0203356D01*
X0350066Y0201696D01*
X0349430Y0200161D01*
X0348256Y0198987D01*
X0347295Y0198589D01*
X0348256Y0198191D01*
X0349430Y0197017D01*
X0350066Y0195482D01*
X0350066Y0193822D01*
X0349430Y0192287D01*
X0348256Y0191113D01*
X0347295Y0190715D01*
X0348256Y0190317D01*
X0349430Y0189143D01*
X0350066Y0187608D01*
X0350066Y0185948D01*
X0349430Y0184413D01*
X0348256Y0183239D01*
X0347295Y0182841D01*
X0348256Y0182443D01*
X0349430Y0181269D01*
X0350066Y0179734D01*
X0350066Y0178074D01*
X0349430Y0176539D01*
X0348256Y0175365D01*
X0347295Y0174967D01*
X0348256Y0174569D01*
X0349430Y0173395D01*
X0350066Y0171860D01*
X0350066Y0170199D01*
X0349430Y0168665D01*
X0348256Y0167491D01*
X0347295Y0167093D01*
X0348256Y0166695D01*
X0349430Y0165521D01*
X0350066Y0163986D01*
X0350066Y0162325D01*
X0349430Y0160791D01*
X0348256Y0159617D01*
X0347295Y0159219D01*
X0348256Y0158821D01*
X0349430Y0157647D01*
X0350066Y0156112D01*
X0350066Y0154451D01*
X0349430Y0152917D01*
X0348256Y0151743D01*
X0346721Y0151107D01*
X0345061Y0151107D01*
X0343526Y0151743D01*
X0342352Y0152917D01*
X0341716Y0154451D01*
X0341716Y0156112D01*
X0342352Y0157647D01*
X0343526Y0158821D01*
X0344486Y0159219D01*
X0343526Y0159617D01*
X0342352Y0160791D01*
X0341716Y0162325D01*
X0341716Y0163986D01*
X0342352Y0165521D01*
X0343526Y0166695D01*
X0344486Y0167093D01*
X0343526Y0167491D01*
X0342352Y0168665D01*
X0341716Y0170199D01*
X0341716Y0171860D01*
X0342352Y0173395D01*
X0343526Y0174569D01*
X0344486Y0174967D01*
X0343526Y0175365D01*
X0342352Y0176539D01*
X0341716Y0178074D01*
X0341716Y0179734D01*
X0342352Y0181269D01*
X0343526Y0182443D01*
X0344486Y0182841D01*
X0343526Y0183239D01*
X0342352Y0184413D01*
X0341716Y0185948D01*
X0341716Y0187608D01*
X0342352Y0189143D01*
X0343526Y0190317D01*
X0344486Y0190715D01*
X0343526Y0191113D01*
X0342352Y0192287D01*
X0341716Y0193822D01*
X0341716Y0195482D01*
X0342352Y0197017D01*
X0343526Y0198191D01*
X0344486Y0198589D01*
X0343526Y0198987D01*
X0342352Y0200161D01*
X0341716Y0201696D01*
X0341716Y0203356D01*
X0341826Y0203621D01*
X0336821Y0208626D01*
X0335591Y0209856D01*
X0335591Y0223061D01*
X0336821Y0224291D01*
X0338919Y0226389D01*
X0337837Y0225941D01*
X0336544Y0225941D01*
X0335350Y0226436D01*
X0334436Y0227350D01*
X0333941Y0228544D01*
X0333941Y0229441D01*
X0333044Y0229441D01*
X0332291Y0229753D01*
X0332291Y0227848D01*
X0331234Y0226791D01*
X0327748Y0226791D01*
X0326691Y0227848D01*
X0326691Y0230491D01*
X0324941Y0230491D01*
X0324941Y0230044D01*
X0324446Y0228850D01*
X0323532Y0227936D01*
X0322337Y0227441D01*
X0321044Y0227441D01*
X0319850Y0227936D01*
X0318936Y0228850D01*
X0318441Y0230044D01*
X0318441Y0230830D01*
X0318280Y0230991D01*
X0317091Y0230991D01*
X0317091Y0229880D01*
X0316031Y0228820D01*
X0317791Y0227061D01*
X0317791Y0218561D01*
X0328411Y0207941D01*
X0328837Y0207941D01*
X0330032Y0207446D01*
X0330946Y0206532D01*
X0331441Y0205337D01*
X0331441Y0204044D01*
X0330946Y0202850D01*
X0330032Y0201936D01*
X0328837Y0201441D01*
X0327791Y0201441D01*
X0327791Y0188561D01*
X0328411Y0187941D01*
X0329337Y0187941D01*
X0330532Y0187446D01*
X0331446Y0186532D01*
X0331941Y0185337D01*
X0331941Y0184044D01*
X0331446Y0182850D01*
X0330532Y0181936D01*
X0329337Y0181441D01*
X0328044Y0181441D01*
X0326850Y0181936D01*
X0325936Y0182850D01*
X0325441Y0184044D01*
X0325441Y0184971D01*
X0323591Y0186821D01*
X0323591Y0201321D01*
X0321091Y0203821D01*
X0321091Y0205821D01*
X0308821Y0218091D01*
X0298187Y0218091D01*
X0297532Y0217436D01*
X0296337Y0216941D01*
X0295044Y0216941D01*
X0293850Y0217436D01*
X0292936Y0218350D01*
X0292441Y0219544D01*
X0292441Y0220837D01*
X0292936Y0222032D01*
X0293850Y0222946D01*
X0295044Y0223441D01*
X0296337Y0223441D01*
X0297532Y0222946D01*
X0298187Y0222291D01*
X0310561Y0222291D01*
X0313591Y0219261D01*
X0313591Y0225321D01*
X0312493Y0226419D01*
X0311337Y0225941D01*
X0310044Y0225941D01*
X0308850Y0226436D01*
X0307936Y0227350D01*
X0307441Y0228544D01*
X0307441Y0229837D01*
X0307936Y0231032D01*
X0308850Y0231946D01*
X0310044Y0232441D01*
X0311337Y0232441D01*
X0312091Y0232129D01*
X0312091Y0235534D01*
X0312298Y0235741D01*
X0311991Y0236048D01*
X0311991Y0239534D01*
X0313048Y0240591D01*
X0316534Y0240591D01*
X0316591Y0240534D01*
X0316648Y0240591D01*
X0317980Y0240591D01*
X0318991Y0241602D01*
X0320280Y0242891D01*
X0334102Y0242891D01*
X0338102Y0238891D01*
X0339391Y0237602D01*
X0339391Y0231587D01*
X0339946Y0231032D01*
X0340441Y0229837D01*
X0340441Y0228544D01*
X0339993Y0227463D01*
X0350091Y0237561D01*
X0350091Y0241821D01*
X0345571Y0246341D01*
X0344821Y0247091D01*
X0277561Y0247091D01*
X0254045Y0223575D01*
X0244059Y0223575D01*
X0244059Y0220603D01*
X0243447Y0219991D01*
X0245634Y0219991D01*
X0246691Y0218934D01*
X0246691Y0215448D01*
X0245634Y0214391D01*
X0245505Y0214391D01*
X0245941Y0213337D01*
X0245941Y0212044D01*
X0245446Y0210850D01*
X0244532Y0209936D01*
X0243337Y0209441D01*
X0242044Y0209441D01*
X0240850Y0209936D01*
X0239936Y0210850D01*
X0239441Y0212044D01*
X0239441Y0213337D01*
X0239877Y0214391D01*
X0237775Y0214391D01*
X0237775Y0210218D01*
X0236773Y0209216D01*
X0239282Y0209216D01*
X0240334Y0208164D01*
X0240334Y0203132D01*
X0240193Y0202991D01*
X0241134Y0202991D01*
X0241191Y0202934D01*
X0241248Y0202991D01*
X0244734Y0202991D01*
X0245791Y0201934D01*
X0245791Y0198448D01*
X0245091Y0197748D01*
X0245091Y0184621D01*
X0244791Y0184321D01*
X0244791Y0183574D01*
X0244508Y0182891D01*
X0247095Y0182891D01*
X0247036Y0182950D01*
X0246541Y0184144D01*
X0246541Y0185437D01*
X0247036Y0186632D01*
X0247950Y0187546D01*
X0249144Y0188041D01*
X0250437Y0188041D01*
X0251632Y0187546D01*
X0252546Y0186632D01*
X0253041Y0185437D01*
X0253041Y0184144D01*
X0252546Y0182950D01*
X0251891Y0182295D01*
X0251891Y0181321D01*
X0250491Y0179921D01*
X0249861Y0179291D01*
X0251321Y0179291D01*
X0256091Y0184061D01*
X0256091Y0192821D01*
X0255821Y0193091D01*
X0254591Y0194321D01*
X0254591Y0194695D01*
X0253936Y0195350D01*
X0253441Y0196544D01*
X0253441Y0197837D01*
X0253936Y0199032D01*
X0254850Y0199946D01*
X0256044Y0200441D01*
X0257337Y0200441D01*
X0258091Y0200129D01*
X0258091Y0223061D01*
X0277941Y0242911D01*
X0277941Y0243837D01*
X0278436Y0245032D01*
X0279350Y0245946D01*
X0280544Y0246441D01*
X0281837Y0246441D01*
X0283032Y0245946D01*
X0283946Y0245032D01*
X0284441Y0243837D01*
X0284441Y0242544D01*
X0283946Y0241350D01*
X0283032Y0240436D01*
X0281837Y0239941D01*
X0280911Y0239941D01*
X0262291Y0221321D01*
X0262291Y0171821D01*
X0261061Y0170591D01*
X0242791Y0152321D01*
X0242791Y0140687D01*
X0243446Y0140032D01*
X0243941Y0138837D01*
X0243941Y0137544D01*
X0243446Y0136350D01*
X0242532Y0135436D01*
X0241337Y0134941D01*
X0240044Y0134941D01*
X0238850Y0135436D01*
X0238091Y0136195D01*
X0238091Y0127091D01*
X0250635Y0127091D01*
X0250624Y0127102D01*
X0249989Y0128636D01*
X0249989Y0130297D01*
X0250624Y0131831D01*
X0251799Y0133006D01*
X0253333Y0133641D01*
X0254994Y0133641D01*
X0256528Y0133006D01*
X0257703Y0131831D01*
X0258100Y0130871D01*
X0258498Y0131831D01*
X0259673Y0133006D01*
X0261207Y0133641D01*
X0262868Y0133641D01*
X0264402Y0133006D01*
X0265577Y0131831D01*
X0265974Y0130871D01*
X0266372Y0131831D01*
X0267547Y0133006D01*
X0269081Y0133641D01*
X0270742Y0133641D01*
X0272276Y0133006D01*
X0273451Y0131831D01*
X0273848Y0130871D01*
X0274246Y0131831D01*
X0275421Y0133006D01*
X0276955Y0133641D01*
X0278616Y0133641D01*
X0280150Y0133006D01*
X0281325Y0131831D01*
X0281722Y0130871D01*
X0282120Y0131831D01*
X0283295Y0133006D01*
X0284829Y0133641D01*
X0286490Y0133641D01*
X0288024Y0133006D01*
X0289199Y0131831D01*
X0289596Y0130871D01*
X0289994Y0131831D01*
X0291169Y0133006D01*
X0292703Y0133641D01*
X0294364Y0133641D01*
X0295898Y0133006D01*
X0297073Y0131831D01*
X0297470Y0130871D01*
X0297868Y0131831D01*
X0299043Y0133006D01*
X0300577Y0133641D01*
X0302238Y0133641D01*
X0303772Y0133006D01*
X0304947Y0131831D01*
X0305344Y0130871D01*
X0305742Y0131831D01*
X0306917Y0133006D01*
X0308451Y0133641D01*
X0310112Y0133641D01*
X0311646Y0133006D01*
X0312821Y0131831D01*
X0313219Y0130871D01*
X0313616Y0131831D01*
X0314791Y0133006D01*
X0316325Y0133641D01*
X0317986Y0133641D01*
X0319520Y0133006D01*
X0320695Y0131831D01*
X0321093Y0130871D01*
X0321490Y0131831D01*
X0322665Y0133006D01*
X0324199Y0133641D01*
X0325860Y0133641D01*
X0327394Y0133006D01*
X0328569Y0131831D01*
X0329204Y0130297D01*
X0329204Y0128636D01*
X0328569Y0127102D01*
X0327394Y0125927D01*
X0325860Y0125292D01*
X0324199Y0125292D01*
X0322665Y0125927D01*
X0321490Y0127102D01*
X0321093Y0128062D01*
X0320695Y0127102D01*
X0319520Y0125927D01*
X0317986Y0125292D01*
X0316325Y0125292D01*
X0314791Y0125927D01*
X0313616Y0127102D01*
X0313219Y0128062D01*
X0312821Y0127102D01*
X0311681Y0125962D01*
X0311681Y0124214D01*
X0311316Y0123331D01*
X0310641Y0122656D01*
X0309759Y0122291D01*
X0235214Y0122291D01*
X0234331Y0122656D01*
X0233656Y0123331D01*
X0233291Y0124214D01*
X0233291Y0167995D01*
X0232936Y0168350D01*
X0232441Y0169544D01*
X0232441Y0170837D01*
X0232936Y0172032D01*
X0233850Y0172946D01*
X0235044Y0173441D01*
X0236337Y0173441D01*
X0237532Y0172946D01*
X0238446Y0172032D01*
X0238941Y0170837D01*
X0238941Y0169544D01*
X0238446Y0168350D01*
X0238091Y0167995D01*
X0238091Y0140187D01*
X0238591Y0140687D01*
X0238591Y0154061D01*
X0258091Y0173561D01*
X0258091Y0180121D01*
X0253061Y0175091D01*
X0227561Y0175091D01*
X0225791Y0173321D01*
X0225791Y0110540D01*
X0227081Y0111830D01*
X0230892Y0111830D01*
X0233586Y0109136D01*
X0233586Y0105325D01*
X0230892Y0102630D01*
X0227081Y0102630D01*
X0225791Y0103920D01*
X0225791Y0100540D01*
X0227081Y0101830D01*
X0230892Y0101830D01*
X0233586Y0099136D01*
X0233586Y0095325D01*
X0230892Y0092630D01*
X0227081Y0092630D01*
X0225791Y0093920D01*
X0225791Y0092821D01*
X0224561Y0091591D01*
X0224561Y0091591D01*
X0221061Y0088091D01*
X0181821Y0088091D01*
X0177282Y0092630D01*
X0177081Y0092630D01*
X0177908Y0092004D02*
X0145691Y0092004D01*
X0145691Y0090805D02*
X0179107Y0090805D01*
X0180305Y0089607D02*
X0145691Y0089607D01*
X0145691Y0088408D02*
X0181504Y0088408D01*
X0182650Y0093202D02*
X0186509Y0093202D01*
X0185311Y0094401D02*
X0182662Y0094401D01*
X0183586Y0095599D02*
X0184386Y0095599D01*
X0184386Y0096798D02*
X0183586Y0096798D01*
X0183586Y0097996D02*
X0184386Y0097996D01*
X0184445Y0099195D02*
X0183527Y0099195D01*
X0183519Y0100393D02*
X0182329Y0100393D01*
X0182320Y0101592D02*
X0181130Y0101592D01*
X0182091Y0102790D02*
X0171051Y0102790D01*
X0170892Y0102630D02*
X0173586Y0105325D01*
X0173586Y0109136D01*
X0170892Y0111830D01*
X0167081Y0111830D01*
X0164386Y0109136D01*
X0164386Y0105325D01*
X0167081Y0102630D01*
X0170892Y0102630D01*
X0171130Y0101592D02*
X0176842Y0101592D01*
X0175644Y0100393D02*
X0172329Y0100393D01*
X0173527Y0099195D02*
X0174445Y0099195D01*
X0174386Y0097996D02*
X0173586Y0097996D01*
X0173586Y0096798D02*
X0174386Y0096798D01*
X0174386Y0095599D02*
X0173586Y0095599D01*
X0172662Y0094401D02*
X0175311Y0094401D01*
X0166842Y0101592D02*
X0138881Y0101592D01*
X0137683Y0102790D02*
X0166921Y0102790D01*
X0165722Y0103989D02*
X0136484Y0103989D01*
X0135286Y0105187D02*
X0164524Y0105187D01*
X0164386Y0106386D02*
X0134087Y0106386D01*
X0132889Y0107584D02*
X0164386Y0107584D01*
X0164386Y0108783D02*
X0131690Y0108783D01*
X0130492Y0109981D02*
X0165232Y0109981D01*
X0166430Y0111180D02*
X0129293Y0111180D01*
X0128095Y0112378D02*
X0182091Y0112378D01*
X0182091Y0111180D02*
X0171542Y0111180D01*
X0172741Y0109981D02*
X0182091Y0109981D01*
X0182091Y0108783D02*
X0173586Y0108783D01*
X0173586Y0107584D02*
X0182091Y0107584D01*
X0182091Y0106386D02*
X0173586Y0106386D01*
X0173448Y0105187D02*
X0182091Y0105187D01*
X0182091Y0103989D02*
X0172250Y0103989D01*
X0182091Y0113577D02*
X0126424Y0113577D01*
X0123905Y0106386D02*
X0050191Y0106386D01*
X0050191Y0107584D02*
X0085706Y0107584D01*
X0084878Y0108783D02*
X0050191Y0108783D01*
X0050191Y0109981D02*
X0084591Y0109981D01*
X0084591Y0111180D02*
X0050191Y0111180D01*
X0050191Y0112378D02*
X0084591Y0112378D01*
X0084591Y0113577D02*
X0050191Y0113577D01*
X0050191Y0114775D02*
X0084591Y0114775D01*
X0084591Y0115974D02*
X0050191Y0115974D01*
X0050191Y0117172D02*
X0084591Y0117172D01*
X0084591Y0118371D02*
X0050191Y0118371D01*
X0050191Y0119569D02*
X0084591Y0119569D01*
X0084591Y0120768D02*
X0050191Y0120768D01*
X0050191Y0121966D02*
X0084591Y0121966D01*
X0084591Y0123165D02*
X0050191Y0123165D01*
X0050191Y0124363D02*
X0084591Y0124363D01*
X0084591Y0125562D02*
X0050191Y0125562D01*
X0050191Y0126760D02*
X0084591Y0126760D01*
X0084591Y0127959D02*
X0050191Y0127959D01*
X0050191Y0129157D02*
X0084591Y0129157D01*
X0084591Y0130356D02*
X0050191Y0130356D01*
X0050191Y0131554D02*
X0084591Y0131554D01*
X0084591Y0132753D02*
X0050191Y0132753D01*
X0050191Y0133951D02*
X0084591Y0133951D01*
X0084591Y0135150D02*
X0059746Y0135150D01*
X0057691Y0137691D02*
X0088191Y0137691D01*
X0088191Y0138191D01*
X0091791Y0138746D02*
X0182091Y0138746D01*
X0182091Y0139944D02*
X0091791Y0139944D01*
X0091791Y0141143D02*
X0182091Y0141143D01*
X0182091Y0142341D02*
X0091791Y0142341D01*
X0091791Y0143540D02*
X0182091Y0143540D01*
X0182091Y0144738D02*
X0091791Y0144738D01*
X0091791Y0145937D02*
X0182091Y0145937D01*
X0182091Y0147135D02*
X0091791Y0147135D01*
X0091791Y0148334D02*
X0182091Y0148334D01*
X0182091Y0149532D02*
X0091791Y0149532D01*
X0091791Y0150731D02*
X0182091Y0150731D01*
X0182091Y0151929D02*
X0091791Y0151929D01*
X0091791Y0153128D02*
X0182091Y0153128D01*
X0181086Y0154326D02*
X0091791Y0154326D01*
X0091791Y0155525D02*
X0179887Y0155525D01*
X0178689Y0156723D02*
X0091791Y0156723D01*
X0091791Y0157922D02*
X0177490Y0157922D01*
X0176292Y0159120D02*
X0091791Y0159120D01*
X0091791Y0160319D02*
X0175093Y0160319D01*
X0173895Y0161517D02*
X0091791Y0161517D01*
X0091791Y0162716D02*
X0172696Y0162716D01*
X0171498Y0163914D02*
X0091791Y0163914D01*
X0091791Y0165113D02*
X0170299Y0165113D01*
X0169101Y0166311D02*
X0091791Y0166311D01*
X0091791Y0167510D02*
X0167902Y0167510D01*
X0166704Y0168708D02*
X0091791Y0168708D01*
X0091791Y0169907D02*
X0165505Y0169907D01*
X0164307Y0171105D02*
X0091791Y0171105D01*
X0091791Y0172304D02*
X0163108Y0172304D01*
X0161910Y0173502D02*
X0091791Y0173502D01*
X0091791Y0174701D02*
X0160711Y0174701D01*
X0159513Y0175899D02*
X0091791Y0175899D01*
X0091791Y0177098D02*
X0158314Y0177098D01*
X0157116Y0178296D02*
X0091791Y0178296D01*
X0091791Y0179495D02*
X0155917Y0179495D01*
X0154719Y0180693D02*
X0091791Y0180693D01*
X0091791Y0181892D02*
X0153520Y0181892D01*
X0150322Y0183090D02*
X0091791Y0183090D01*
X0091791Y0184289D02*
X0149123Y0184289D01*
X0147925Y0185487D02*
X0091343Y0185487D01*
X0090287Y0186686D02*
X0146726Y0186686D01*
X0145528Y0187884D02*
X0072691Y0187884D01*
X0072691Y0186686D02*
X0086095Y0186686D01*
X0085038Y0185487D02*
X0072691Y0185487D01*
X0072691Y0184289D02*
X0084591Y0184289D01*
X0084591Y0183090D02*
X0072691Y0183090D01*
X0072691Y0181892D02*
X0084591Y0181892D01*
X0084591Y0180693D02*
X0072691Y0180693D01*
X0072691Y0179495D02*
X0084591Y0179495D01*
X0084591Y0178296D02*
X0070197Y0178296D01*
X0071395Y0177098D02*
X0084591Y0177098D01*
X0084591Y0175899D02*
X0072594Y0175899D01*
X0073792Y0174701D02*
X0084591Y0174701D01*
X0084591Y0173502D02*
X0074991Y0173502D01*
X0076189Y0172304D02*
X0084591Y0172304D01*
X0084591Y0171105D02*
X0077388Y0171105D01*
X0077891Y0169907D02*
X0084591Y0169907D01*
X0084591Y0168708D02*
X0077891Y0168708D01*
X0077891Y0167510D02*
X0084591Y0167510D01*
X0084591Y0166311D02*
X0077891Y0166311D01*
X0077891Y0165113D02*
X0084591Y0165113D01*
X0084591Y0163914D02*
X0077891Y0163914D01*
X0077891Y0162716D02*
X0084591Y0162716D01*
X0084591Y0161517D02*
X0077891Y0161517D01*
X0077891Y0160319D02*
X0084591Y0160319D01*
X0084591Y0159120D02*
X0077891Y0159120D01*
X0077891Y0157922D02*
X0084591Y0157922D01*
X0084591Y0156723D02*
X0077891Y0156723D01*
X0077891Y0155525D02*
X0084591Y0155525D01*
X0084591Y0154326D02*
X0077891Y0154326D01*
X0077891Y0153128D02*
X0084591Y0153128D01*
X0084591Y0151929D02*
X0077891Y0151929D01*
X0077891Y0150731D02*
X0084591Y0150731D01*
X0084591Y0149532D02*
X0077891Y0149532D01*
X0077891Y0148334D02*
X0084591Y0148334D01*
X0084591Y0147135D02*
X0077891Y0147135D01*
X0079057Y0145937D02*
X0084591Y0145937D01*
X0084591Y0144738D02*
X0081327Y0144738D01*
X0082939Y0143540D02*
X0084591Y0143540D01*
X0084591Y0142341D02*
X0083439Y0142341D01*
X0083441Y0141143D02*
X0084591Y0141143D01*
X0084591Y0139944D02*
X0082985Y0139944D01*
X0080191Y0141691D02*
X0075691Y0146191D01*
X0075691Y0169691D01*
X0060191Y0185191D01*
X0060191Y0186191D01*
X0063974Y0178296D02*
X0050191Y0178296D01*
X0050191Y0177098D02*
X0065173Y0177098D01*
X0066371Y0175899D02*
X0050191Y0175899D01*
X0050191Y0174701D02*
X0067570Y0174701D01*
X0068768Y0173502D02*
X0050191Y0173502D01*
X0050191Y0172304D02*
X0069967Y0172304D01*
X0071165Y0171105D02*
X0050191Y0171105D01*
X0050191Y0169907D02*
X0072364Y0169907D01*
X0073491Y0168708D02*
X0050191Y0168708D01*
X0050191Y0167510D02*
X0073491Y0167510D01*
X0073491Y0166311D02*
X0050191Y0166311D01*
X0050191Y0165113D02*
X0073491Y0165113D01*
X0073491Y0163914D02*
X0050191Y0163914D01*
X0050191Y0162716D02*
X0073491Y0162716D01*
X0073491Y0161517D02*
X0050191Y0161517D01*
X0050191Y0160319D02*
X0073491Y0160319D01*
X0073491Y0159120D02*
X0050191Y0159120D01*
X0050191Y0157922D02*
X0073491Y0157922D01*
X0073491Y0156723D02*
X0050191Y0156723D01*
X0050191Y0155525D02*
X0073491Y0155525D01*
X0073491Y0154326D02*
X0050191Y0154326D01*
X0050191Y0153128D02*
X0073491Y0153128D01*
X0073491Y0151929D02*
X0050191Y0151929D01*
X0050191Y0150731D02*
X0073491Y0150731D01*
X0073491Y0149532D02*
X0050191Y0149532D01*
X0050191Y0148334D02*
X0073491Y0148334D01*
X0073491Y0147135D02*
X0050191Y0147135D01*
X0050191Y0145937D02*
X0073491Y0145937D01*
X0074033Y0144738D02*
X0050191Y0144738D01*
X0050191Y0143540D02*
X0075231Y0143540D01*
X0076430Y0142341D02*
X0050191Y0142341D01*
X0050191Y0141143D02*
X0076941Y0141143D01*
X0077397Y0139944D02*
X0060034Y0139944D01*
X0055348Y0139944D02*
X0050191Y0139944D01*
X0050191Y0138746D02*
X0054610Y0138746D01*
X0054441Y0137547D02*
X0050191Y0137547D01*
X0050191Y0136348D02*
X0054729Y0136348D01*
X0055636Y0135150D02*
X0050191Y0135150D01*
X0088191Y0159691D02*
X0088191Y0183691D01*
X0072691Y0189083D02*
X0144329Y0189083D01*
X0143131Y0190281D02*
X0072691Y0190281D01*
X0072691Y0191480D02*
X0141932Y0191480D01*
X0140734Y0192679D02*
X0072691Y0192679D01*
X0072691Y0193877D02*
X0139535Y0193877D01*
X0138336Y0195076D02*
X0072691Y0195076D01*
X0072691Y0196274D02*
X0137138Y0196274D01*
X0135939Y0197473D02*
X0072691Y0197473D01*
X0072691Y0198671D02*
X0134741Y0198671D01*
X0133542Y0199870D02*
X0072691Y0199870D01*
X0072691Y0201068D02*
X0132344Y0201068D01*
X0131145Y0202267D02*
X0072691Y0202267D01*
X0072691Y0203465D02*
X0129947Y0203465D01*
X0128748Y0204664D02*
X0072691Y0204664D01*
X0072691Y0205862D02*
X0127931Y0205862D01*
X0127441Y0207061D02*
X0072691Y0207061D01*
X0072691Y0208259D02*
X0127441Y0208259D01*
X0127905Y0209458D02*
X0072691Y0209458D01*
X0072691Y0210656D02*
X0129357Y0210656D01*
X0132025Y0210656D02*
X0140256Y0210656D01*
X0141454Y0209458D02*
X0133477Y0209458D01*
X0133941Y0208259D02*
X0142091Y0208259D01*
X0142091Y0207061D02*
X0133941Y0207061D01*
X0133490Y0205862D02*
X0142091Y0205862D01*
X0142091Y0204664D02*
X0134688Y0204664D01*
X0135887Y0203465D02*
X0142091Y0203465D01*
X0142091Y0202267D02*
X0137085Y0202267D01*
X0138284Y0201068D02*
X0142091Y0201068D01*
X0142091Y0199870D02*
X0139482Y0199870D01*
X0140681Y0198671D02*
X0142091Y0198671D01*
X0141879Y0197473D02*
X0142939Y0197473D01*
X0143078Y0196274D02*
X0143091Y0196274D01*
X0158291Y0202267D02*
X0235650Y0202267D01*
X0235650Y0201068D02*
X0166410Y0201068D01*
X0167220Y0199870D02*
X0236591Y0199870D01*
X0236591Y0198671D02*
X0167441Y0198671D01*
X0167204Y0197473D02*
X0237566Y0197473D01*
X0240891Y0196274D02*
X0226665Y0196274D01*
X0227752Y0195076D02*
X0240891Y0195076D01*
X0240891Y0193877D02*
X0228141Y0193877D01*
X0228072Y0192679D02*
X0240891Y0192679D01*
X0240891Y0191480D02*
X0227476Y0191480D01*
X0226991Y0190281D02*
X0240891Y0190281D01*
X0240891Y0189083D02*
X0226991Y0189083D01*
X0226991Y0187884D02*
X0240891Y0187884D01*
X0239802Y0186686D02*
X0226991Y0186686D01*
X0226991Y0185487D02*
X0238873Y0185487D01*
X0238591Y0184289D02*
X0227963Y0184289D01*
X0229161Y0183090D02*
X0238791Y0183090D01*
X0244590Y0183090D02*
X0246978Y0183090D01*
X0246541Y0184289D02*
X0244791Y0184289D01*
X0245091Y0185487D02*
X0246562Y0185487D01*
X0247090Y0186686D02*
X0245091Y0186686D01*
X0245091Y0187884D02*
X0248767Y0187884D01*
X0250815Y0187884D02*
X0256091Y0187884D01*
X0256091Y0186686D02*
X0252492Y0186686D01*
X0253020Y0185487D02*
X0256091Y0185487D01*
X0256091Y0184289D02*
X0253041Y0184289D01*
X0252604Y0183090D02*
X0255121Y0183090D01*
X0253922Y0181892D02*
X0251891Y0181892D01*
X0251263Y0180693D02*
X0252724Y0180693D01*
X0251525Y0179495D02*
X0250065Y0179495D01*
X0253869Y0175899D02*
X0258091Y0175899D01*
X0258091Y0174701D02*
X0227171Y0174701D01*
X0225972Y0173502D02*
X0258032Y0173502D01*
X0256834Y0172304D02*
X0238174Y0172304D01*
X0238830Y0171105D02*
X0255635Y0171105D01*
X0254437Y0169907D02*
X0238941Y0169907D01*
X0238595Y0168708D02*
X0253238Y0168708D01*
X0252040Y0167510D02*
X0238091Y0167510D01*
X0238091Y0166311D02*
X0250841Y0166311D01*
X0249643Y0165113D02*
X0238091Y0165113D01*
X0238091Y0163914D02*
X0248444Y0163914D01*
X0247246Y0162716D02*
X0238091Y0162716D01*
X0238091Y0161517D02*
X0246047Y0161517D01*
X0244849Y0160319D02*
X0238091Y0160319D01*
X0238091Y0159120D02*
X0243650Y0159120D01*
X0242452Y0157922D02*
X0238091Y0157922D01*
X0238091Y0156723D02*
X0241253Y0156723D01*
X0240055Y0155525D02*
X0238091Y0155525D01*
X0238091Y0154326D02*
X0238856Y0154326D01*
X0238591Y0153128D02*
X0238091Y0153128D01*
X0238091Y0151929D02*
X0238591Y0151929D01*
X0238591Y0150731D02*
X0238091Y0150731D01*
X0238091Y0149532D02*
X0238591Y0149532D01*
X0238591Y0148334D02*
X0238091Y0148334D01*
X0238091Y0147135D02*
X0238591Y0147135D01*
X0238591Y0145937D02*
X0238091Y0145937D01*
X0238091Y0144738D02*
X0238591Y0144738D01*
X0238591Y0143540D02*
X0238091Y0143540D01*
X0238091Y0142341D02*
X0238591Y0142341D01*
X0238591Y0141143D02*
X0238091Y0141143D01*
X0242791Y0141143D02*
X0247107Y0141143D01*
X0246941Y0141544D02*
X0247436Y0140350D01*
X0248350Y0139436D01*
X0249544Y0138941D01*
X0250837Y0138941D01*
X0252032Y0139436D01*
X0252787Y0140191D01*
X0259095Y0140191D01*
X0259850Y0139436D01*
X0261044Y0138941D01*
X0262337Y0138941D01*
X0263532Y0139436D01*
X0264446Y0140350D01*
X0264941Y0141544D01*
X0264941Y0142837D01*
X0264446Y0144032D01*
X0263532Y0144946D01*
X0262337Y0145441D01*
X0261044Y0145441D01*
X0259850Y0144946D01*
X0259095Y0144191D01*
X0252787Y0144191D01*
X0252032Y0144946D01*
X0250837Y0145441D01*
X0249544Y0145441D01*
X0248350Y0144946D01*
X0247436Y0144032D01*
X0246941Y0142837D01*
X0246941Y0141544D01*
X0246941Y0142341D02*
X0242791Y0142341D01*
X0242791Y0143540D02*
X0247232Y0143540D01*
X0248142Y0144738D02*
X0242791Y0144738D01*
X0242791Y0145937D02*
X0282840Y0145937D01*
X0282436Y0145532D02*
X0281941Y0144337D01*
X0281941Y0144191D01*
X0273787Y0144191D01*
X0273032Y0144946D01*
X0271837Y0145441D01*
X0270544Y0145441D01*
X0269350Y0144946D01*
X0268436Y0144032D01*
X0267941Y0142837D01*
X0267941Y0141544D01*
X0268436Y0140350D01*
X0269350Y0139436D01*
X0270544Y0138941D01*
X0271837Y0138941D01*
X0273032Y0139436D01*
X0273787Y0140191D01*
X0284519Y0140191D01*
X0284769Y0140441D01*
X0285837Y0140441D01*
X0287032Y0140936D01*
X0287946Y0141850D01*
X0288441Y0143044D01*
X0288441Y0144337D01*
X0287946Y0145532D01*
X0287032Y0146446D01*
X0285837Y0146941D01*
X0284544Y0146941D01*
X0283350Y0146446D01*
X0282436Y0145532D01*
X0282107Y0144738D02*
X0273240Y0144738D01*
X0269142Y0144738D02*
X0263740Y0144738D01*
X0264650Y0143540D02*
X0268232Y0143540D01*
X0267941Y0142341D02*
X0264941Y0142341D01*
X0264774Y0141143D02*
X0268107Y0141143D01*
X0268842Y0139944D02*
X0264040Y0139944D01*
X0259342Y0139944D02*
X0252540Y0139944D01*
X0247842Y0139944D02*
X0243483Y0139944D01*
X0243941Y0138746D02*
X0334991Y0138746D01*
X0334991Y0139944D02*
X0301845Y0139944D01*
X0301837Y0139941D02*
X0303032Y0140436D01*
X0303946Y0141350D01*
X0304441Y0142544D01*
X0304441Y0143837D01*
X0303946Y0145032D01*
X0303032Y0145946D01*
X0301837Y0146441D01*
X0300544Y0146441D01*
X0299350Y0145946D01*
X0299095Y0145691D01*
X0294787Y0145691D01*
X0294032Y0146446D01*
X0292837Y0146941D01*
X0291544Y0146941D01*
X0290350Y0146446D01*
X0289436Y0145532D01*
X0288941Y0144337D01*
X0288941Y0143044D01*
X0289436Y0141850D01*
X0290350Y0140936D01*
X0291544Y0140441D01*
X0292837Y0140441D01*
X0294032Y0140936D01*
X0294787Y0141691D01*
X0298294Y0141691D01*
X0298436Y0141350D01*
X0299350Y0140436D01*
X0300544Y0139941D01*
X0301837Y0139941D01*
X0300537Y0139944D02*
X0273540Y0139944D01*
X0272529Y0132753D02*
X0275168Y0132753D01*
X0274132Y0131554D02*
X0273565Y0131554D01*
X0280403Y0132753D02*
X0283042Y0132753D01*
X0282006Y0131554D02*
X0281439Y0131554D01*
X0288277Y0132753D02*
X0290916Y0132753D01*
X0289880Y0131554D02*
X0289313Y0131554D01*
X0296151Y0132753D02*
X0298790Y0132753D01*
X0297754Y0131554D02*
X0297187Y0131554D01*
X0304025Y0132753D02*
X0306664Y0132753D01*
X0305628Y0131554D02*
X0305061Y0131554D01*
X0311899Y0132753D02*
X0314538Y0132753D01*
X0313502Y0131554D02*
X0312935Y0131554D01*
X0313176Y0127959D02*
X0313261Y0127959D01*
X0313958Y0126760D02*
X0312479Y0126760D01*
X0311681Y0125562D02*
X0315673Y0125562D01*
X0318638Y0125562D02*
X0323547Y0125562D01*
X0321832Y0126760D02*
X0320353Y0126760D01*
X0321050Y0127959D02*
X0321135Y0127959D01*
X0321376Y0131554D02*
X0320809Y0131554D01*
X0319773Y0132753D02*
X0322412Y0132753D01*
X0327647Y0132753D02*
X0334991Y0132753D01*
X0334991Y0133951D02*
X0238091Y0133951D01*
X0238091Y0132753D02*
X0251546Y0132753D01*
X0250509Y0131554D02*
X0238091Y0131554D01*
X0238091Y0130356D02*
X0250013Y0130356D01*
X0249989Y0129157D02*
X0238091Y0129157D01*
X0238091Y0127959D02*
X0250269Y0127959D01*
X0256781Y0132753D02*
X0259420Y0132753D01*
X0258383Y0131554D02*
X0257817Y0131554D01*
X0264655Y0132753D02*
X0267294Y0132753D01*
X0266257Y0131554D02*
X0265691Y0131554D01*
X0259642Y0144738D02*
X0252240Y0144738D01*
X0242791Y0147135D02*
X0331136Y0147135D01*
X0332334Y0145937D02*
X0325663Y0145937D01*
X0325947Y0145819D02*
X0324808Y0146291D01*
X0323574Y0146291D01*
X0322435Y0145819D01*
X0321807Y0145191D01*
X0318575Y0145191D01*
X0317947Y0145819D01*
X0316808Y0146291D01*
X0315574Y0146291D01*
X0314435Y0145819D01*
X0313563Y0144947D01*
X0313091Y0143808D01*
X0313091Y0142574D01*
X0313563Y0141435D01*
X0314435Y0140563D01*
X0315574Y0140091D01*
X0316808Y0140091D01*
X0317947Y0140563D01*
X0318575Y0141191D01*
X0321807Y0141191D01*
X0322435Y0140563D01*
X0323574Y0140091D01*
X0324808Y0140091D01*
X0325947Y0140563D01*
X0326819Y0141435D01*
X0327291Y0142574D01*
X0327291Y0143808D01*
X0326819Y0144947D01*
X0325947Y0145819D01*
X0326906Y0144738D02*
X0333533Y0144738D01*
X0334731Y0143540D02*
X0327291Y0143540D01*
X0327194Y0142341D02*
X0334991Y0142341D01*
X0334991Y0141143D02*
X0326527Y0141143D01*
X0321855Y0141143D02*
X0318527Y0141143D01*
X0313855Y0141143D02*
X0303739Y0141143D01*
X0304357Y0142341D02*
X0313188Y0142341D01*
X0313091Y0143540D02*
X0304441Y0143540D01*
X0304068Y0144738D02*
X0313476Y0144738D01*
X0314719Y0145937D02*
X0303041Y0145937D01*
X0299340Y0145937D02*
X0294541Y0145937D01*
X0289840Y0145937D02*
X0287541Y0145937D01*
X0288275Y0144738D02*
X0289107Y0144738D01*
X0288941Y0143540D02*
X0288441Y0143540D01*
X0288150Y0142341D02*
X0289232Y0142341D01*
X0290143Y0141143D02*
X0287239Y0141143D01*
X0294239Y0141143D02*
X0298643Y0141143D01*
X0317663Y0145937D02*
X0322719Y0145937D01*
X0322841Y0151929D02*
X0242791Y0151929D01*
X0242791Y0150731D02*
X0328191Y0150731D01*
X0328738Y0149532D02*
X0242791Y0149532D01*
X0242791Y0148334D02*
X0329937Y0148334D01*
X0330391Y0150991D02*
X0337191Y0144191D01*
X0337191Y0102191D01*
X0347191Y0092191D01*
X0393191Y0092191D01*
X0398191Y0087191D01*
X0418691Y0087191D01*
X0427691Y0078191D01*
X0427691Y0053242D01*
X0429108Y0051825D01*
X0424862Y0050056D02*
X0393691Y0050056D01*
X0393691Y0051254D02*
X0424508Y0051254D01*
X0424508Y0052453D02*
X0393691Y0052453D01*
X0393691Y0053651D02*
X0424886Y0053651D01*
X0425491Y0054850D02*
X0393691Y0054850D01*
X0393691Y0056048D02*
X0425491Y0056048D01*
X0425491Y0057247D02*
X0393691Y0057247D01*
X0393691Y0058445D02*
X0425491Y0058445D01*
X0425491Y0059644D02*
X0393691Y0059644D01*
X0393691Y0060842D02*
X0425491Y0060842D01*
X0425491Y0062041D02*
X0393691Y0062041D01*
X0393691Y0063239D02*
X0425491Y0063239D01*
X0425491Y0064438D02*
X0393691Y0064438D01*
X0393691Y0065636D02*
X0425491Y0065636D01*
X0425491Y0066835D02*
X0393691Y0066835D01*
X0393691Y0068033D02*
X0425491Y0068033D01*
X0425491Y0069232D02*
X0393691Y0069232D01*
X0393691Y0070430D02*
X0425491Y0070430D01*
X0425491Y0071629D02*
X0393691Y0071629D01*
X0393691Y0072827D02*
X0425491Y0072827D01*
X0425491Y0074026D02*
X0393691Y0074026D01*
X0393691Y0075224D02*
X0425491Y0075224D01*
X0425491Y0076423D02*
X0393691Y0076423D01*
X0393691Y0077621D02*
X0425149Y0077621D01*
X0423951Y0078820D02*
X0393691Y0078820D01*
X0393691Y0080018D02*
X0422752Y0080018D01*
X0421554Y0081217D02*
X0393691Y0081217D01*
X0393691Y0082415D02*
X0420355Y0082415D01*
X0419157Y0083614D02*
X0393691Y0083614D01*
X0393691Y0084813D02*
X0417958Y0084813D01*
X0420585Y0088408D02*
X0432783Y0088408D01*
X0433162Y0087494D02*
X0435723Y0084932D01*
X0439070Y0083546D01*
X0442692Y0083546D01*
X0446039Y0084932D01*
X0448600Y0087494D01*
X0449987Y0090840D01*
X0449987Y0094463D01*
X0448600Y0097809D01*
X0446039Y0100371D01*
X0442692Y0101757D01*
X0439070Y0101757D01*
X0435723Y0100371D01*
X0433162Y0097809D01*
X0431776Y0094463D01*
X0431776Y0090840D01*
X0433162Y0087494D01*
X0433446Y0087210D02*
X0421784Y0087210D01*
X0422982Y0086011D02*
X0434645Y0086011D01*
X0436012Y0084813D02*
X0424181Y0084813D01*
X0425379Y0083614D02*
X0438906Y0083614D01*
X0442856Y0083614D02*
X0458691Y0083614D01*
X0458691Y0084813D02*
X0445750Y0084813D01*
X0447118Y0086011D02*
X0458691Y0086011D01*
X0458691Y0087210D02*
X0448316Y0087210D01*
X0448979Y0088408D02*
X0458691Y0088408D01*
X0458691Y0089607D02*
X0449476Y0089607D01*
X0449972Y0090805D02*
X0458691Y0090805D01*
X0458691Y0092004D02*
X0449987Y0092004D01*
X0449987Y0093202D02*
X0458691Y0093202D01*
X0458691Y0094401D02*
X0449987Y0094401D01*
X0449516Y0095599D02*
X0458691Y0095599D01*
X0458691Y0096798D02*
X0449019Y0096798D01*
X0448414Y0097996D02*
X0458691Y0097996D01*
X0458691Y0099195D02*
X0447215Y0099195D01*
X0445985Y0100393D02*
X0458691Y0100393D01*
X0458691Y0101592D02*
X0443092Y0101592D01*
X0438671Y0101592D02*
X0340901Y0101592D01*
X0339703Y0102790D02*
X0459024Y0102790D01*
X0459300Y0103457D02*
X0458691Y0101987D01*
X0458691Y0049762D01*
X0433233Y0049762D01*
X0433708Y0050910D01*
X0433708Y0052740D01*
X0433008Y0054430D01*
X0431714Y0055724D01*
X0430023Y0056425D01*
X0429891Y0056425D01*
X0429891Y0079102D01*
X0428602Y0080391D01*
X0419602Y0089391D01*
X0399102Y0089391D01*
X0394102Y0094391D01*
X0348102Y0094391D01*
X0339391Y0103102D01*
X0339391Y0138380D01*
X0342280Y0135491D01*
X0352102Y0135491D01*
X0353391Y0136780D01*
X0355891Y0139280D01*
X0355891Y0145780D01*
X0362891Y0152780D01*
X0362891Y0177780D01*
X0372391Y0187280D01*
X0372391Y0189940D01*
X0372683Y0190061D01*
X0373921Y0191299D01*
X0374591Y0192916D01*
X0374591Y0197466D01*
X0373921Y0199083D01*
X0372891Y0200113D01*
X0372891Y0200865D01*
X0376404Y0204378D01*
X0376891Y0205554D01*
X0376891Y0259827D01*
X0376404Y0261004D01*
X0375504Y0261904D01*
X0359004Y0278404D01*
X0357827Y0278891D01*
X0350391Y0278891D01*
X0350391Y0312424D01*
X0350441Y0312544D01*
X0350441Y0313837D01*
X0349946Y0315032D01*
X0349287Y0315691D01*
X0458691Y0315691D01*
X0458691Y0298395D01*
X0459300Y0296925D01*
X0460425Y0295800D01*
X0461895Y0295191D01*
X0486191Y0295191D01*
X0486191Y0227691D01*
X0472191Y0227691D01*
X0471691Y0110191D01*
X0486191Y0110191D01*
X0486191Y0105191D01*
X0461895Y0105191D01*
X0460425Y0104582D01*
X0459300Y0103457D01*
X0459832Y0103989D02*
X0339391Y0103989D01*
X0339391Y0105187D02*
X0461886Y0105187D01*
X0471695Y0111180D02*
X0339391Y0111180D01*
X0339391Y0112378D02*
X0353907Y0112378D01*
X0354350Y0111936D02*
X0355544Y0111441D01*
X0356837Y0111441D01*
X0358032Y0111936D01*
X0358946Y0112850D01*
X0359441Y0114044D01*
X0359441Y0114830D01*
X0359602Y0114991D01*
X0368602Y0114991D01*
X0369891Y0116280D01*
X0380602Y0126991D01*
X0395795Y0126991D01*
X0396350Y0126436D01*
X0397544Y0125941D01*
X0398837Y0125941D01*
X0400032Y0126436D01*
X0400946Y0127350D01*
X0401441Y0128544D01*
X0401441Y0129837D01*
X0400946Y0131032D01*
X0400032Y0131946D01*
X0398837Y0132441D01*
X0397544Y0132441D01*
X0396350Y0131946D01*
X0395795Y0131391D01*
X0378780Y0131391D01*
X0366780Y0119391D01*
X0357780Y0119391D01*
X0356330Y0117941D01*
X0355544Y0117941D01*
X0354350Y0117446D01*
X0353436Y0116532D01*
X0352941Y0115337D01*
X0352941Y0114044D01*
X0353436Y0112850D01*
X0354350Y0111936D01*
X0353135Y0113577D02*
X0339391Y0113577D01*
X0339391Y0114775D02*
X0352941Y0114775D01*
X0353205Y0115974D02*
X0339391Y0115974D01*
X0339391Y0117172D02*
X0354076Y0117172D01*
X0356760Y0118371D02*
X0339391Y0118371D01*
X0339391Y0119569D02*
X0366958Y0119569D01*
X0368157Y0120768D02*
X0339391Y0120768D01*
X0339391Y0121966D02*
X0369355Y0121966D01*
X0370554Y0123165D02*
X0339391Y0123165D01*
X0339391Y0124363D02*
X0371752Y0124363D01*
X0372951Y0125562D02*
X0339391Y0125562D01*
X0339391Y0126760D02*
X0374149Y0126760D01*
X0375348Y0127959D02*
X0339391Y0127959D01*
X0339391Y0129157D02*
X0376546Y0129157D01*
X0377745Y0130356D02*
X0339391Y0130356D01*
X0339391Y0131554D02*
X0395958Y0131554D01*
X0398191Y0129191D02*
X0379691Y0129191D01*
X0367691Y0117191D01*
X0358691Y0117191D01*
X0356191Y0114691D01*
X0358474Y0112378D02*
X0471700Y0112378D01*
X0471705Y0113577D02*
X0359247Y0113577D01*
X0359441Y0114775D02*
X0471710Y0114775D01*
X0471716Y0115974D02*
X0369585Y0115974D01*
X0370784Y0117172D02*
X0471721Y0117172D01*
X0471726Y0118371D02*
X0371982Y0118371D01*
X0373181Y0119569D02*
X0471731Y0119569D01*
X0471736Y0120768D02*
X0374379Y0120768D01*
X0375578Y0121966D02*
X0471741Y0121966D01*
X0471746Y0123165D02*
X0376776Y0123165D01*
X0377975Y0124363D02*
X0471751Y0124363D01*
X0471756Y0125562D02*
X0379173Y0125562D01*
X0380372Y0126760D02*
X0396025Y0126760D01*
X0400357Y0126760D02*
X0471761Y0126760D01*
X0471767Y0127959D02*
X0401198Y0127959D01*
X0401441Y0129157D02*
X0471772Y0129157D01*
X0471777Y0130356D02*
X0401226Y0130356D01*
X0400424Y0131554D02*
X0471782Y0131554D01*
X0471787Y0132753D02*
X0339391Y0132753D01*
X0339391Y0133951D02*
X0471792Y0133951D01*
X0471797Y0135150D02*
X0339391Y0135150D01*
X0339391Y0136348D02*
X0341422Y0136348D01*
X0340224Y0137547D02*
X0339391Y0137547D01*
X0339691Y0141191D02*
X0343191Y0137691D01*
X0351191Y0137691D01*
X0353691Y0140191D01*
X0353691Y0146691D01*
X0360691Y0153691D01*
X0360691Y0178691D01*
X0370191Y0188191D01*
X0370191Y0195191D01*
X0374591Y0195076D02*
X0375791Y0195076D01*
X0375791Y0196274D02*
X0374591Y0196274D01*
X0374588Y0197473D02*
X0375794Y0197473D01*
X0375791Y0197466D02*
X0376461Y0199083D01*
X0377699Y0200321D01*
X0379316Y0200991D01*
X0381066Y0200991D01*
X0382683Y0200321D01*
X0383921Y0199083D01*
X0384591Y0197466D01*
X0384591Y0192916D01*
X0383921Y0191299D01*
X0382683Y0190061D01*
X0381066Y0189391D01*
X0379316Y0189391D01*
X0377699Y0190061D01*
X0376461Y0191299D01*
X0375791Y0192916D01*
X0375791Y0197466D01*
X0376290Y0198671D02*
X0374092Y0198671D01*
X0373135Y0199870D02*
X0377247Y0199870D01*
X0374292Y0202267D02*
X0428316Y0202267D01*
X0428316Y0201696D02*
X0428952Y0200161D01*
X0430126Y0198987D01*
X0431086Y0198589D01*
X0430126Y0198191D01*
X0428952Y0197017D01*
X0428316Y0195482D01*
X0428316Y0193822D01*
X0428952Y0192287D01*
X0430126Y0191113D01*
X0431086Y0190715D01*
X0430126Y0190317D01*
X0428952Y0189143D01*
X0428316Y0187608D01*
X0428316Y0185948D01*
X0428952Y0184413D01*
X0430126Y0183239D01*
X0431086Y0182841D01*
X0430126Y0182443D01*
X0428952Y0181269D01*
X0428316Y0179734D01*
X0428316Y0178074D01*
X0428952Y0176539D01*
X0430126Y0175365D01*
X0431086Y0174967D01*
X0430126Y0174569D01*
X0428952Y0173395D01*
X0428316Y0171860D01*
X0428316Y0170199D01*
X0428952Y0168665D01*
X0430126Y0167491D01*
X0431086Y0167093D01*
X0430126Y0166695D01*
X0428952Y0165521D01*
X0428316Y0163986D01*
X0428316Y0162325D01*
X0428952Y0160791D01*
X0430126Y0159617D01*
X0431086Y0159219D01*
X0430126Y0158821D01*
X0428952Y0157647D01*
X0428316Y0156112D01*
X0428316Y0154451D01*
X0428952Y0152917D01*
X0430126Y0151743D01*
X0431661Y0151107D01*
X0433321Y0151107D01*
X0434856Y0151743D01*
X0436030Y0152917D01*
X0436666Y0154451D01*
X0436666Y0156112D01*
X0436030Y0157647D01*
X0434856Y0158821D01*
X0433895Y0159219D01*
X0434856Y0159617D01*
X0436030Y0160791D01*
X0436666Y0162325D01*
X0436666Y0163986D01*
X0436030Y0165521D01*
X0434856Y0166695D01*
X0433895Y0167093D01*
X0434856Y0167491D01*
X0436030Y0168665D01*
X0436666Y0170199D01*
X0436666Y0171860D01*
X0436030Y0173395D01*
X0434856Y0174569D01*
X0433895Y0174967D01*
X0434856Y0175365D01*
X0436030Y0176539D01*
X0436666Y0178074D01*
X0436666Y0179734D01*
X0436030Y0181269D01*
X0434856Y0182443D01*
X0433895Y0182841D01*
X0434856Y0183239D01*
X0436030Y0184413D01*
X0436666Y0185948D01*
X0436666Y0187608D01*
X0436030Y0189143D01*
X0434856Y0190317D01*
X0433895Y0190715D01*
X0434856Y0191113D01*
X0436030Y0192287D01*
X0436666Y0193822D01*
X0436666Y0195482D01*
X0436030Y0197017D01*
X0434856Y0198191D01*
X0433895Y0198589D01*
X0434856Y0198987D01*
X0436030Y0200161D01*
X0436666Y0201696D01*
X0436666Y0203356D01*
X0436030Y0204891D01*
X0434856Y0206065D01*
X0433895Y0206463D01*
X0434856Y0206861D01*
X0436030Y0208035D01*
X0436666Y0209570D01*
X0436666Y0211230D01*
X0436030Y0212765D01*
X0434856Y0213939D01*
X0433895Y0214337D01*
X0434856Y0214735D01*
X0436030Y0215909D01*
X0436666Y0217444D01*
X0436666Y0219104D01*
X0436030Y0220639D01*
X0434856Y0221813D01*
X0433321Y0222449D01*
X0431661Y0222449D01*
X0430126Y0221813D01*
X0428952Y0220639D01*
X0428316Y0219104D01*
X0428316Y0217444D01*
X0428952Y0215909D01*
X0430126Y0214735D01*
X0431086Y0214337D01*
X0430126Y0213939D01*
X0428952Y0212765D01*
X0428316Y0211230D01*
X0428316Y0209570D01*
X0428952Y0208035D01*
X0430126Y0206861D01*
X0431086Y0206463D01*
X0430126Y0206065D01*
X0428952Y0204891D01*
X0428316Y0203356D01*
X0428316Y0201696D01*
X0428576Y0201068D02*
X0373094Y0201068D01*
X0375491Y0203465D02*
X0428361Y0203465D01*
X0428858Y0204664D02*
X0376522Y0204664D01*
X0376891Y0205862D02*
X0429923Y0205862D01*
X0429926Y0207061D02*
X0376891Y0207061D01*
X0376891Y0208259D02*
X0428859Y0208259D01*
X0428362Y0209458D02*
X0376891Y0209458D01*
X0376891Y0210656D02*
X0428316Y0210656D01*
X0428575Y0211855D02*
X0376891Y0211855D01*
X0376891Y0213053D02*
X0429240Y0213053D01*
X0430881Y0214252D02*
X0376891Y0214252D01*
X0376891Y0215450D02*
X0429411Y0215450D01*
X0428645Y0216649D02*
X0376891Y0216649D01*
X0376891Y0217847D02*
X0428316Y0217847D01*
X0428316Y0219046D02*
X0376891Y0219046D01*
X0376891Y0220244D02*
X0428788Y0220244D01*
X0429756Y0221443D02*
X0376891Y0221443D01*
X0376891Y0222641D02*
X0472169Y0222641D01*
X0472164Y0221443D02*
X0435226Y0221443D01*
X0436194Y0220244D02*
X0472159Y0220244D01*
X0472154Y0219046D02*
X0436666Y0219046D01*
X0436666Y0217847D02*
X0472149Y0217847D01*
X0472144Y0216649D02*
X0436336Y0216649D01*
X0435571Y0215450D02*
X0472139Y0215450D01*
X0472134Y0214252D02*
X0434101Y0214252D01*
X0435742Y0213053D02*
X0472129Y0213053D01*
X0472124Y0211855D02*
X0436407Y0211855D01*
X0436666Y0210656D02*
X0472118Y0210656D01*
X0472113Y0209458D02*
X0436619Y0209458D01*
X0436123Y0208259D02*
X0472108Y0208259D01*
X0472103Y0207061D02*
X0435056Y0207061D01*
X0435059Y0205862D02*
X0472098Y0205862D01*
X0472093Y0204664D02*
X0436124Y0204664D01*
X0436621Y0203465D02*
X0472088Y0203465D01*
X0472083Y0202267D02*
X0453205Y0202267D01*
X0453641Y0202086D02*
X0452034Y0202752D01*
X0450295Y0202752D01*
X0448688Y0202086D01*
X0447458Y0200856D01*
X0446793Y0199249D01*
X0446793Y0197510D01*
X0447458Y0195904D01*
X0448688Y0194674D01*
X0449245Y0194443D01*
X0448688Y0194212D01*
X0447458Y0192982D01*
X0446793Y0191375D01*
X0446793Y0189636D01*
X0447458Y0188030D01*
X0448688Y0186800D01*
X0450295Y0186134D01*
X0452034Y0186134D01*
X0453641Y0186800D01*
X0454870Y0188030D01*
X0455536Y0189636D01*
X0455536Y0191375D01*
X0454870Y0192982D01*
X0453641Y0194212D01*
X0453083Y0194443D01*
X0453641Y0194674D01*
X0454870Y0195904D01*
X0455536Y0197510D01*
X0455536Y0199249D01*
X0454870Y0200856D01*
X0453641Y0202086D01*
X0454658Y0201068D02*
X0472078Y0201068D01*
X0472073Y0199870D02*
X0455279Y0199870D01*
X0455536Y0198671D02*
X0472067Y0198671D01*
X0472062Y0197473D02*
X0455520Y0197473D01*
X0455024Y0196274D02*
X0472057Y0196274D01*
X0472052Y0195076D02*
X0454042Y0195076D01*
X0453975Y0193877D02*
X0472047Y0193877D01*
X0472042Y0192679D02*
X0454996Y0192679D01*
X0455493Y0191480D02*
X0472037Y0191480D01*
X0472032Y0190281D02*
X0455536Y0190281D01*
X0455307Y0189083D02*
X0472027Y0189083D01*
X0472022Y0187884D02*
X0454725Y0187884D01*
X0453366Y0186686D02*
X0472016Y0186686D01*
X0472011Y0185487D02*
X0436475Y0185487D01*
X0436666Y0186686D02*
X0448963Y0186686D01*
X0447603Y0187884D02*
X0436551Y0187884D01*
X0436055Y0189083D02*
X0447022Y0189083D01*
X0446793Y0190281D02*
X0434891Y0190281D01*
X0435223Y0191480D02*
X0446836Y0191480D01*
X0447332Y0192679D02*
X0436192Y0192679D01*
X0436666Y0193877D02*
X0448353Y0193877D01*
X0448286Y0195076D02*
X0436666Y0195076D01*
X0436338Y0196274D02*
X0447305Y0196274D01*
X0446808Y0197473D02*
X0435574Y0197473D01*
X0434094Y0198671D02*
X0446793Y0198671D01*
X0447049Y0199870D02*
X0435739Y0199870D01*
X0436406Y0201068D02*
X0447670Y0201068D01*
X0449124Y0202267D02*
X0436666Y0202267D01*
X0430888Y0198671D02*
X0394092Y0198671D01*
X0393921Y0199083D02*
X0392683Y0200321D01*
X0391066Y0200991D01*
X0389316Y0200991D01*
X0387699Y0200321D01*
X0386461Y0199083D01*
X0385791Y0197466D01*
X0385791Y0192916D01*
X0386461Y0191299D01*
X0387699Y0190061D01*
X0389316Y0189391D01*
X0391066Y0189391D01*
X0392683Y0190061D01*
X0393921Y0191299D01*
X0394591Y0192916D01*
X0394591Y0197466D01*
X0393921Y0199083D01*
X0393135Y0199870D02*
X0429243Y0199870D01*
X0429407Y0197473D02*
X0394588Y0197473D01*
X0394591Y0196274D02*
X0428644Y0196274D01*
X0428316Y0195076D02*
X0394591Y0195076D01*
X0394591Y0193877D02*
X0428316Y0193877D01*
X0428790Y0192679D02*
X0394493Y0192679D01*
X0393996Y0191480D02*
X0429759Y0191480D01*
X0430090Y0190281D02*
X0392904Y0190281D01*
X0387478Y0190281D02*
X0382904Y0190281D01*
X0383996Y0191480D02*
X0386386Y0191480D01*
X0385889Y0192679D02*
X0384493Y0192679D01*
X0384591Y0193877D02*
X0385791Y0193877D01*
X0385791Y0195076D02*
X0384591Y0195076D01*
X0384591Y0196274D02*
X0385791Y0196274D01*
X0385794Y0197473D02*
X0384588Y0197473D01*
X0384092Y0198671D02*
X0386290Y0198671D01*
X0387247Y0199870D02*
X0383135Y0199870D01*
X0375791Y0193877D02*
X0374591Y0193877D01*
X0374493Y0192679D02*
X0375889Y0192679D01*
X0376386Y0191480D02*
X0373996Y0191480D01*
X0372904Y0190281D02*
X0377478Y0190281D01*
X0372391Y0189083D02*
X0428927Y0189083D01*
X0428431Y0187884D02*
X0372391Y0187884D01*
X0371797Y0186686D02*
X0428316Y0186686D01*
X0428507Y0185487D02*
X0370599Y0185487D01*
X0369400Y0184289D02*
X0429076Y0184289D01*
X0430484Y0183090D02*
X0368202Y0183090D01*
X0367003Y0181892D02*
X0429575Y0181892D01*
X0428713Y0180693D02*
X0365805Y0180693D01*
X0364606Y0179495D02*
X0428316Y0179495D01*
X0428316Y0178296D02*
X0363408Y0178296D01*
X0362891Y0177098D02*
X0428720Y0177098D01*
X0429591Y0175899D02*
X0362891Y0175899D01*
X0362891Y0174701D02*
X0430444Y0174701D01*
X0429059Y0173502D02*
X0362891Y0173502D01*
X0362891Y0172304D02*
X0428500Y0172304D01*
X0428316Y0171105D02*
X0362891Y0171105D01*
X0362891Y0169907D02*
X0428437Y0169907D01*
X0428934Y0168708D02*
X0362891Y0168708D01*
X0362891Y0167510D02*
X0430107Y0167510D01*
X0429742Y0166311D02*
X0362891Y0166311D01*
X0362891Y0165113D02*
X0428783Y0165113D01*
X0428316Y0163914D02*
X0362891Y0163914D01*
X0362891Y0162716D02*
X0428316Y0162716D01*
X0428651Y0161517D02*
X0362891Y0161517D01*
X0362891Y0160319D02*
X0429424Y0160319D01*
X0430848Y0159120D02*
X0394858Y0159120D01*
X0394532Y0159446D02*
X0393337Y0159941D01*
X0392044Y0159941D01*
X0390850Y0159446D01*
X0389936Y0158532D01*
X0389441Y0157337D01*
X0389441Y0156044D01*
X0389936Y0154850D01*
X0390850Y0153936D01*
X0392044Y0153441D01*
X0393337Y0153441D01*
X0394532Y0153936D01*
X0395446Y0154850D01*
X0395941Y0156044D01*
X0395941Y0157337D01*
X0395446Y0158532D01*
X0394532Y0159446D01*
X0395699Y0157922D02*
X0429227Y0157922D01*
X0428569Y0156723D02*
X0395941Y0156723D01*
X0395726Y0155525D02*
X0428316Y0155525D01*
X0428368Y0154326D02*
X0394922Y0154326D01*
X0390460Y0154326D02*
X0362891Y0154326D01*
X0362891Y0153128D02*
X0428864Y0153128D01*
X0429940Y0151929D02*
X0362040Y0151929D01*
X0360842Y0150731D02*
X0471863Y0150731D01*
X0471869Y0151929D02*
X0435042Y0151929D01*
X0436117Y0153128D02*
X0471874Y0153128D01*
X0471879Y0154326D02*
X0436614Y0154326D01*
X0436666Y0155525D02*
X0471884Y0155525D01*
X0471889Y0156723D02*
X0436413Y0156723D01*
X0435755Y0157922D02*
X0471894Y0157922D01*
X0471899Y0159120D02*
X0434134Y0159120D01*
X0435558Y0160319D02*
X0471904Y0160319D01*
X0471909Y0161517D02*
X0436331Y0161517D01*
X0436666Y0162716D02*
X0471914Y0162716D01*
X0471920Y0163914D02*
X0436666Y0163914D01*
X0436199Y0165113D02*
X0471925Y0165113D01*
X0471930Y0166311D02*
X0435240Y0166311D01*
X0434875Y0167510D02*
X0471935Y0167510D01*
X0471940Y0168708D02*
X0436048Y0168708D01*
X0436544Y0169907D02*
X0471945Y0169907D01*
X0471950Y0171105D02*
X0436666Y0171105D01*
X0436482Y0172304D02*
X0471955Y0172304D01*
X0471960Y0173502D02*
X0435923Y0173502D01*
X0434538Y0174701D02*
X0471965Y0174701D01*
X0471971Y0175899D02*
X0435390Y0175899D01*
X0436262Y0177098D02*
X0448547Y0177098D01*
X0448688Y0176957D02*
X0450295Y0176292D01*
X0452034Y0176292D01*
X0453641Y0176957D01*
X0454870Y0178187D01*
X0455536Y0179794D01*
X0455536Y0181533D01*
X0454870Y0183140D01*
X0453641Y0184369D01*
X0452034Y0185035D01*
X0450295Y0185035D01*
X0448688Y0184369D01*
X0447458Y0183140D01*
X0446793Y0181533D01*
X0446793Y0179794D01*
X0447458Y0178187D01*
X0448688Y0176957D01*
X0447413Y0178296D02*
X0436666Y0178296D01*
X0436666Y0179495D02*
X0446916Y0179495D01*
X0446793Y0180693D02*
X0436268Y0180693D01*
X0435407Y0181892D02*
X0446941Y0181892D01*
X0447438Y0183090D02*
X0434498Y0183090D01*
X0435906Y0184289D02*
X0448607Y0184289D01*
X0453721Y0184289D02*
X0472006Y0184289D01*
X0472001Y0183090D02*
X0454891Y0183090D01*
X0455387Y0181892D02*
X0471996Y0181892D01*
X0471991Y0180693D02*
X0455536Y0180693D01*
X0455412Y0179495D02*
X0471986Y0179495D01*
X0471981Y0178296D02*
X0454916Y0178296D01*
X0453781Y0177098D02*
X0471976Y0177098D01*
X0471858Y0149532D02*
X0359643Y0149532D01*
X0358445Y0148334D02*
X0471853Y0148334D01*
X0471848Y0147135D02*
X0357246Y0147135D01*
X0356048Y0145937D02*
X0471843Y0145937D01*
X0471838Y0144738D02*
X0355891Y0144738D01*
X0355891Y0143540D02*
X0471833Y0143540D01*
X0471828Y0142341D02*
X0355891Y0142341D01*
X0355891Y0141143D02*
X0471823Y0141143D01*
X0471818Y0139944D02*
X0355891Y0139944D01*
X0355357Y0138746D02*
X0471812Y0138746D01*
X0471807Y0137547D02*
X0354158Y0137547D01*
X0352960Y0136348D02*
X0471802Y0136348D01*
X0486191Y0109981D02*
X0339391Y0109981D01*
X0339391Y0108783D02*
X0486191Y0108783D01*
X0486191Y0107584D02*
X0339391Y0107584D01*
X0339391Y0106386D02*
X0486191Y0106386D01*
X0458691Y0082415D02*
X0426578Y0082415D01*
X0427776Y0081217D02*
X0458691Y0081217D01*
X0458691Y0080018D02*
X0428975Y0080018D01*
X0429891Y0078820D02*
X0458691Y0078820D01*
X0458691Y0077621D02*
X0429891Y0077621D01*
X0429891Y0076423D02*
X0458691Y0076423D01*
X0458691Y0075224D02*
X0429891Y0075224D01*
X0429891Y0074026D02*
X0458691Y0074026D01*
X0458691Y0072827D02*
X0429891Y0072827D01*
X0429891Y0071629D02*
X0458691Y0071629D01*
X0458691Y0070430D02*
X0429891Y0070430D01*
X0429891Y0069232D02*
X0458691Y0069232D01*
X0458691Y0068033D02*
X0429891Y0068033D01*
X0429891Y0066835D02*
X0458691Y0066835D01*
X0458691Y0065636D02*
X0429891Y0065636D01*
X0429891Y0064438D02*
X0458691Y0064438D01*
X0458691Y0063239D02*
X0429891Y0063239D01*
X0429891Y0062041D02*
X0458691Y0062041D01*
X0458691Y0060842D02*
X0429891Y0060842D01*
X0429891Y0059644D02*
X0458691Y0059644D01*
X0458691Y0058445D02*
X0429891Y0058445D01*
X0429891Y0057247D02*
X0458691Y0057247D01*
X0458691Y0056048D02*
X0430932Y0056048D01*
X0432589Y0054850D02*
X0458691Y0054850D01*
X0458691Y0053651D02*
X0433331Y0053651D01*
X0433708Y0052453D02*
X0458691Y0052453D01*
X0458691Y0051254D02*
X0433708Y0051254D01*
X0433354Y0050056D02*
X0458691Y0050056D01*
X0432287Y0089607D02*
X0398887Y0089607D01*
X0397688Y0090805D02*
X0431790Y0090805D01*
X0431776Y0092004D02*
X0396490Y0092004D01*
X0395291Y0093202D02*
X0431776Y0093202D01*
X0431776Y0094401D02*
X0348093Y0094401D01*
X0346894Y0095599D02*
X0432246Y0095599D01*
X0432743Y0096798D02*
X0345696Y0096798D01*
X0344497Y0097996D02*
X0433349Y0097996D01*
X0434547Y0099195D02*
X0343299Y0099195D01*
X0342100Y0100393D02*
X0435777Y0100393D01*
X0396260Y0086011D02*
X0393691Y0086011D01*
X0393691Y0087210D02*
X0395061Y0087210D01*
X0393863Y0088408D02*
X0367134Y0088408D01*
X0345466Y0090805D02*
X0330691Y0090805D01*
X0330691Y0089607D02*
X0392664Y0089607D01*
X0344267Y0092004D02*
X0330691Y0092004D01*
X0330691Y0093202D02*
X0343069Y0093202D01*
X0341870Y0094401D02*
X0330691Y0094401D01*
X0330691Y0095599D02*
X0340672Y0095599D01*
X0339473Y0096798D02*
X0330691Y0096798D01*
X0330691Y0097996D02*
X0338274Y0097996D01*
X0337076Y0099195D02*
X0330691Y0099195D01*
X0330691Y0100393D02*
X0335877Y0100393D01*
X0334991Y0101592D02*
X0330691Y0101592D01*
X0330691Y0102790D02*
X0334991Y0102790D01*
X0334991Y0103989D02*
X0330691Y0103989D01*
X0330691Y0105187D02*
X0334991Y0105187D01*
X0334991Y0106386D02*
X0330691Y0106386D01*
X0330691Y0107584D02*
X0334991Y0107584D01*
X0334991Y0108783D02*
X0330691Y0108783D01*
X0330691Y0109981D02*
X0334991Y0109981D01*
X0334991Y0111180D02*
X0330691Y0111180D01*
X0330691Y0112378D02*
X0334991Y0112378D01*
X0334991Y0113577D02*
X0330691Y0113577D01*
X0330691Y0114775D02*
X0334991Y0114775D01*
X0334991Y0115974D02*
X0225791Y0115974D01*
X0225791Y0117172D02*
X0334991Y0117172D01*
X0334991Y0118371D02*
X0225791Y0118371D01*
X0225791Y0119569D02*
X0334991Y0119569D01*
X0334991Y0120768D02*
X0225791Y0120768D01*
X0225791Y0121966D02*
X0334991Y0121966D01*
X0334991Y0123165D02*
X0311150Y0123165D01*
X0311681Y0124363D02*
X0334991Y0124363D01*
X0334991Y0125562D02*
X0326512Y0125562D01*
X0328227Y0126760D02*
X0334991Y0126760D01*
X0334991Y0127959D02*
X0328924Y0127959D01*
X0329204Y0129157D02*
X0334991Y0129157D01*
X0334991Y0130356D02*
X0329180Y0130356D01*
X0328683Y0131554D02*
X0334991Y0131554D01*
X0334991Y0135150D02*
X0241842Y0135150D01*
X0243445Y0136348D02*
X0334991Y0136348D01*
X0334991Y0137547D02*
X0243941Y0137547D01*
X0239540Y0135150D02*
X0238091Y0135150D01*
X0233291Y0135150D02*
X0225791Y0135150D01*
X0225791Y0136348D02*
X0233291Y0136348D01*
X0233291Y0137547D02*
X0225791Y0137547D01*
X0225791Y0138746D02*
X0233291Y0138746D01*
X0233291Y0139944D02*
X0225791Y0139944D01*
X0225791Y0141143D02*
X0233291Y0141143D01*
X0233291Y0142341D02*
X0225791Y0142341D01*
X0225791Y0143540D02*
X0233291Y0143540D01*
X0233291Y0144738D02*
X0225791Y0144738D01*
X0225791Y0145937D02*
X0233291Y0145937D01*
X0233291Y0147135D02*
X0225791Y0147135D01*
X0225791Y0148334D02*
X0233291Y0148334D01*
X0233291Y0149532D02*
X0225791Y0149532D01*
X0225791Y0150731D02*
X0233291Y0150731D01*
X0233291Y0151929D02*
X0225791Y0151929D01*
X0225791Y0153128D02*
X0233291Y0153128D01*
X0233291Y0154326D02*
X0225791Y0154326D01*
X0225791Y0155525D02*
X0233291Y0155525D01*
X0233291Y0156723D02*
X0225791Y0156723D01*
X0225791Y0157922D02*
X0233291Y0157922D01*
X0233291Y0159120D02*
X0225791Y0159120D01*
X0225791Y0160319D02*
X0233291Y0160319D01*
X0233291Y0161517D02*
X0225791Y0161517D01*
X0225791Y0162716D02*
X0233291Y0162716D01*
X0233291Y0163914D02*
X0225791Y0163914D01*
X0225791Y0165113D02*
X0233291Y0165113D01*
X0233291Y0166311D02*
X0225791Y0166311D01*
X0225791Y0167510D02*
X0233291Y0167510D01*
X0232787Y0168708D02*
X0225791Y0168708D01*
X0225791Y0169907D02*
X0232441Y0169907D01*
X0232552Y0171105D02*
X0225791Y0171105D01*
X0225791Y0172304D02*
X0233208Y0172304D01*
X0226817Y0179495D02*
X0183357Y0179495D01*
X0184555Y0178296D02*
X0224827Y0178296D01*
X0223628Y0177098D02*
X0185754Y0177098D01*
X0186952Y0175899D02*
X0222430Y0175899D01*
X0221591Y0174701D02*
X0188151Y0174701D01*
X0189349Y0173502D02*
X0221591Y0173502D01*
X0221591Y0172304D02*
X0190548Y0172304D01*
X0191746Y0171105D02*
X0221591Y0171105D01*
X0221591Y0169907D02*
X0192945Y0169907D01*
X0194143Y0168708D02*
X0221591Y0168708D01*
X0221591Y0167510D02*
X0195342Y0167510D01*
X0196540Y0166311D02*
X0221591Y0166311D01*
X0221591Y0165113D02*
X0197739Y0165113D01*
X0198937Y0163914D02*
X0221591Y0163914D01*
X0221591Y0162716D02*
X0200136Y0162716D01*
X0201334Y0161517D02*
X0221591Y0161517D01*
X0221591Y0160319D02*
X0202533Y0160319D01*
X0203732Y0159120D02*
X0221591Y0159120D01*
X0221591Y0157922D02*
X0204930Y0157922D01*
X0206129Y0156723D02*
X0221591Y0156723D01*
X0221591Y0155525D02*
X0207327Y0155525D01*
X0208526Y0154326D02*
X0221591Y0154326D01*
X0221591Y0153128D02*
X0209724Y0153128D01*
X0210923Y0151929D02*
X0221591Y0151929D01*
X0221591Y0150731D02*
X0212121Y0150731D01*
X0213320Y0149532D02*
X0221591Y0149532D01*
X0221591Y0148334D02*
X0214518Y0148334D01*
X0215717Y0147135D02*
X0221591Y0147135D01*
X0221591Y0145937D02*
X0216915Y0145937D01*
X0218114Y0144738D02*
X0221591Y0144738D01*
X0221591Y0143540D02*
X0219312Y0143540D01*
X0220511Y0142341D02*
X0221591Y0142341D01*
X0221591Y0141143D02*
X0221291Y0141143D01*
X0221291Y0139944D02*
X0221591Y0139944D01*
X0221591Y0138746D02*
X0221291Y0138746D01*
X0221291Y0137547D02*
X0221591Y0137547D01*
X0221591Y0136348D02*
X0221291Y0136348D01*
X0221291Y0135150D02*
X0221591Y0135150D01*
X0221591Y0133951D02*
X0221291Y0133951D01*
X0221291Y0132753D02*
X0221591Y0132753D01*
X0221591Y0131554D02*
X0221291Y0131554D01*
X0221291Y0130356D02*
X0221591Y0130356D01*
X0221591Y0129157D02*
X0221291Y0129157D01*
X0221291Y0127959D02*
X0221591Y0127959D01*
X0221591Y0126760D02*
X0221291Y0126760D01*
X0221291Y0125562D02*
X0221591Y0125562D01*
X0221591Y0124363D02*
X0221291Y0124363D01*
X0221291Y0123165D02*
X0221591Y0123165D01*
X0221591Y0121966D02*
X0221291Y0121966D01*
X0221291Y0120768D02*
X0221591Y0120768D01*
X0221591Y0119569D02*
X0221291Y0119569D01*
X0221291Y0118371D02*
X0221591Y0118371D01*
X0221591Y0117172D02*
X0221291Y0117172D01*
X0221291Y0115974D02*
X0221591Y0115974D01*
X0221591Y0114775D02*
X0221291Y0114775D01*
X0221291Y0113577D02*
X0221591Y0113577D01*
X0221591Y0112378D02*
X0221291Y0112378D01*
X0221542Y0111180D02*
X0221591Y0111180D01*
X0225791Y0111180D02*
X0226430Y0111180D01*
X0225791Y0112378D02*
X0248691Y0112378D01*
X0248691Y0111180D02*
X0241542Y0111180D01*
X0240892Y0111830D02*
X0237081Y0111830D01*
X0234386Y0109136D01*
X0234386Y0105325D01*
X0237081Y0102630D01*
X0240892Y0102630D01*
X0243586Y0105325D01*
X0243586Y0109136D01*
X0240892Y0111830D01*
X0242741Y0109981D02*
X0248691Y0109981D01*
X0248691Y0108783D02*
X0243586Y0108783D01*
X0243586Y0107584D02*
X0248691Y0107584D01*
X0248691Y0106386D02*
X0243586Y0106386D01*
X0243448Y0105187D02*
X0248691Y0105187D01*
X0248691Y0103989D02*
X0242250Y0103989D01*
X0241051Y0102790D02*
X0248691Y0102790D01*
X0248691Y0101592D02*
X0241130Y0101592D01*
X0240892Y0101830D02*
X0237081Y0101830D01*
X0234386Y0099136D01*
X0234386Y0095325D01*
X0237081Y0092630D01*
X0240892Y0092630D01*
X0243586Y0095325D01*
X0243586Y0099136D01*
X0240892Y0101830D01*
X0242329Y0100393D02*
X0248691Y0100393D01*
X0248691Y0099195D02*
X0243527Y0099195D01*
X0243586Y0097996D02*
X0248691Y0097996D01*
X0248691Y0096798D02*
X0243586Y0096798D01*
X0243586Y0095599D02*
X0248691Y0095599D01*
X0248691Y0094401D02*
X0242662Y0094401D01*
X0241463Y0093202D02*
X0248691Y0093202D01*
X0248691Y0092004D02*
X0224973Y0092004D01*
X0225791Y0093202D02*
X0226509Y0093202D01*
X0223775Y0090805D02*
X0248691Y0090805D01*
X0248691Y0089607D02*
X0222576Y0089607D01*
X0221378Y0088408D02*
X0248691Y0088408D01*
X0248691Y0087210D02*
X0145691Y0087210D01*
X0145691Y0086011D02*
X0248691Y0086011D01*
X0248691Y0084813D02*
X0145691Y0084813D01*
X0145691Y0083614D02*
X0248691Y0083614D01*
X0248691Y0082415D02*
X0145691Y0082415D01*
X0145691Y0081217D02*
X0248691Y0081217D01*
X0248691Y0080018D02*
X0145691Y0080018D01*
X0145691Y0078820D02*
X0154330Y0078820D01*
X0154126Y0078736D02*
X0152952Y0077561D01*
X0152316Y0076027D01*
X0152316Y0074366D01*
X0152952Y0072832D01*
X0154126Y0071657D01*
X0155661Y0071022D01*
X0157321Y0071022D01*
X0158856Y0071657D01*
X0160030Y0072832D01*
X0160666Y0074366D01*
X0160666Y0076027D01*
X0160030Y0077561D01*
X0158856Y0078736D01*
X0157321Y0079371D01*
X0155661Y0079371D01*
X0154126Y0078736D01*
X0153012Y0077621D02*
X0145691Y0077621D01*
X0145691Y0076423D02*
X0152480Y0076423D01*
X0152316Y0075224D02*
X0145691Y0075224D01*
X0145691Y0074026D02*
X0152457Y0074026D01*
X0152956Y0072827D02*
X0145691Y0072827D01*
X0145691Y0071629D02*
X0154195Y0071629D01*
X0155661Y0067560D02*
X0154126Y0066925D01*
X0152952Y0065750D01*
X0152316Y0064216D01*
X0152316Y0062555D01*
X0152952Y0061021D01*
X0154126Y0059846D01*
X0155661Y0059211D01*
X0157321Y0059211D01*
X0158856Y0059846D01*
X0160030Y0061021D01*
X0160666Y0062555D01*
X0160666Y0064216D01*
X0160030Y0065750D01*
X0158856Y0066925D01*
X0157321Y0067560D01*
X0155661Y0067560D01*
X0154036Y0066835D02*
X0145691Y0066835D01*
X0145691Y0068033D02*
X0248691Y0068033D01*
X0248691Y0066835D02*
X0158946Y0066835D01*
X0160077Y0065636D02*
X0248691Y0065636D01*
X0248691Y0064438D02*
X0160574Y0064438D01*
X0160666Y0063239D02*
X0248691Y0063239D01*
X0248691Y0062041D02*
X0160453Y0062041D01*
X0159852Y0060842D02*
X0248691Y0060842D01*
X0248691Y0059644D02*
X0158367Y0059644D01*
X0154615Y0059644D02*
X0145691Y0059644D01*
X0145691Y0060842D02*
X0153130Y0060842D01*
X0152529Y0062041D02*
X0145691Y0062041D01*
X0145691Y0063239D02*
X0152316Y0063239D01*
X0152408Y0064438D02*
X0145691Y0064438D01*
X0145691Y0065636D02*
X0152905Y0065636D01*
X0158787Y0071629D02*
X0248691Y0071629D01*
X0248691Y0072827D02*
X0160026Y0072827D01*
X0160525Y0074026D02*
X0248691Y0074026D01*
X0248691Y0075224D02*
X0160666Y0075224D01*
X0160502Y0076423D02*
X0248691Y0076423D01*
X0248691Y0077621D02*
X0159970Y0077621D01*
X0158652Y0078820D02*
X0248691Y0078820D01*
X0248691Y0070430D02*
X0145691Y0070430D01*
X0145691Y0069232D02*
X0248691Y0069232D01*
X0248691Y0058445D02*
X0145691Y0058445D01*
X0145691Y0057247D02*
X0248691Y0057247D01*
X0248691Y0056048D02*
X0145691Y0056048D01*
X0145691Y0054850D02*
X0248691Y0054850D01*
X0248691Y0053651D02*
X0145691Y0053651D01*
X0145691Y0052453D02*
X0248691Y0052453D01*
X0248691Y0051254D02*
X0145691Y0051254D01*
X0145691Y0050056D02*
X0248691Y0050056D01*
X0236509Y0093202D02*
X0231463Y0093202D01*
X0232662Y0094401D02*
X0235311Y0094401D01*
X0234386Y0095599D02*
X0233586Y0095599D01*
X0233586Y0096798D02*
X0234386Y0096798D01*
X0234386Y0097996D02*
X0233586Y0097996D01*
X0233527Y0099195D02*
X0234445Y0099195D01*
X0235644Y0100393D02*
X0232329Y0100393D01*
X0231130Y0101592D02*
X0236842Y0101592D01*
X0236921Y0102790D02*
X0231051Y0102790D01*
X0232250Y0103989D02*
X0235722Y0103989D01*
X0234524Y0105187D02*
X0233448Y0105187D01*
X0233586Y0106386D02*
X0234386Y0106386D01*
X0234386Y0107584D02*
X0233586Y0107584D01*
X0233586Y0108783D02*
X0234386Y0108783D01*
X0235232Y0109981D02*
X0232741Y0109981D01*
X0231542Y0111180D02*
X0236430Y0111180D01*
X0225791Y0113577D02*
X0248691Y0113577D01*
X0248691Y0114775D02*
X0225791Y0114775D01*
X0225791Y0123165D02*
X0233823Y0123165D01*
X0233291Y0124363D02*
X0225791Y0124363D01*
X0225791Y0125562D02*
X0233291Y0125562D01*
X0233291Y0126760D02*
X0225791Y0126760D01*
X0225791Y0127959D02*
X0233291Y0127959D01*
X0233291Y0129157D02*
X0225791Y0129157D01*
X0225791Y0130356D02*
X0233291Y0130356D01*
X0233291Y0131554D02*
X0225791Y0131554D01*
X0225791Y0132753D02*
X0233291Y0132753D01*
X0233291Y0133951D02*
X0225791Y0133951D01*
X0203591Y0133951D02*
X0191086Y0133951D01*
X0191086Y0132753D02*
X0203591Y0132753D01*
X0203591Y0131554D02*
X0191086Y0131554D01*
X0191086Y0130356D02*
X0203591Y0130356D01*
X0203591Y0129157D02*
X0191086Y0129157D01*
X0191086Y0127959D02*
X0203591Y0127959D01*
X0203591Y0126760D02*
X0191086Y0126760D01*
X0191086Y0125562D02*
X0203591Y0125562D01*
X0203591Y0124363D02*
X0191086Y0124363D01*
X0191086Y0123165D02*
X0203591Y0123165D01*
X0203591Y0121966D02*
X0191086Y0121966D01*
X0191086Y0120768D02*
X0203591Y0120768D01*
X0203591Y0119569D02*
X0191086Y0119569D01*
X0191086Y0118371D02*
X0203591Y0118371D01*
X0203591Y0117172D02*
X0191086Y0117172D01*
X0191086Y0115974D02*
X0203591Y0115974D01*
X0203561Y0114775D02*
X0191086Y0114775D01*
X0191086Y0113577D02*
X0202363Y0113577D01*
X0201164Y0112378D02*
X0191086Y0112378D01*
X0191542Y0111180D02*
X0196430Y0111180D01*
X0195232Y0109981D02*
X0192741Y0109981D01*
X0193586Y0108783D02*
X0194386Y0108783D01*
X0194386Y0107584D02*
X0193586Y0107584D01*
X0193586Y0106386D02*
X0194386Y0106386D01*
X0194524Y0105187D02*
X0193448Y0105187D01*
X0192250Y0103989D02*
X0195722Y0103989D01*
X0196921Y0102790D02*
X0191051Y0102790D01*
X0191130Y0101592D02*
X0196842Y0101592D01*
X0197081Y0101830D02*
X0194386Y0099136D01*
X0194386Y0095325D01*
X0197081Y0092630D01*
X0200892Y0092630D01*
X0203586Y0095325D01*
X0203586Y0099136D01*
X0200892Y0101830D01*
X0197081Y0101830D01*
X0195644Y0100393D02*
X0192329Y0100393D01*
X0193527Y0099195D02*
X0194445Y0099195D01*
X0194386Y0097996D02*
X0193586Y0097996D01*
X0193586Y0096798D02*
X0194386Y0096798D01*
X0194386Y0095599D02*
X0193586Y0095599D01*
X0192662Y0094401D02*
X0195311Y0094401D01*
X0196509Y0093202D02*
X0191463Y0093202D01*
X0201463Y0093202D02*
X0206509Y0093202D01*
X0205311Y0094401D02*
X0202662Y0094401D01*
X0203586Y0095599D02*
X0204386Y0095599D01*
X0204386Y0096798D02*
X0203586Y0096798D01*
X0203586Y0097996D02*
X0204386Y0097996D01*
X0204445Y0099195D02*
X0203527Y0099195D01*
X0202329Y0100393D02*
X0205644Y0100393D01*
X0206842Y0101592D02*
X0201130Y0101592D01*
X0201051Y0102790D02*
X0206921Y0102790D01*
X0205722Y0103989D02*
X0202250Y0103989D01*
X0203448Y0105187D02*
X0204524Y0105187D01*
X0204386Y0106386D02*
X0203586Y0106386D01*
X0203586Y0107584D02*
X0204386Y0107584D01*
X0204386Y0108783D02*
X0203586Y0108783D01*
X0204707Y0109981D02*
X0205232Y0109981D01*
X0205905Y0111180D02*
X0206430Y0111180D01*
X0216260Y0102790D02*
X0216921Y0102790D01*
X0215062Y0101592D02*
X0221591Y0101592D01*
X0221591Y0102790D02*
X0221051Y0102790D01*
X0221591Y0100393D02*
X0213863Y0100393D01*
X0213527Y0099195D02*
X0221591Y0099195D01*
X0221591Y0097996D02*
X0213586Y0097996D01*
X0213586Y0096798D02*
X0221591Y0096798D01*
X0221591Y0095599D02*
X0213586Y0095599D01*
X0212662Y0094401D02*
X0221431Y0094401D01*
X0220232Y0093202D02*
X0211463Y0093202D01*
X0225791Y0101592D02*
X0226842Y0101592D01*
X0226921Y0102790D02*
X0225791Y0102790D01*
X0184591Y0117172D02*
X0184268Y0117172D01*
X0184004Y0115974D02*
X0182417Y0115974D01*
X0182805Y0114775D02*
X0091791Y0114775D01*
X0091791Y0115974D02*
X0180965Y0115974D01*
X0179113Y0117172D02*
X0091791Y0117172D01*
X0091791Y0118371D02*
X0178513Y0118371D01*
X0178441Y0119569D02*
X0091791Y0119569D01*
X0091791Y0120768D02*
X0178826Y0120768D01*
X0179899Y0121966D02*
X0091791Y0121966D01*
X0091791Y0123165D02*
X0182091Y0123165D01*
X0182091Y0124363D02*
X0091791Y0124363D01*
X0091791Y0125562D02*
X0182091Y0125562D01*
X0182091Y0126760D02*
X0091791Y0126760D01*
X0091791Y0127959D02*
X0182091Y0127959D01*
X0182091Y0129157D02*
X0091791Y0129157D01*
X0091791Y0130356D02*
X0182091Y0130356D01*
X0182091Y0131554D02*
X0091791Y0131554D01*
X0091791Y0132753D02*
X0182091Y0132753D01*
X0182091Y0133951D02*
X0091791Y0133951D01*
X0091791Y0135150D02*
X0182091Y0135150D01*
X0182091Y0136348D02*
X0091791Y0136348D01*
X0091791Y0137547D02*
X0182091Y0137547D01*
X0191086Y0137547D02*
X0203591Y0137547D01*
X0203591Y0136348D02*
X0191086Y0136348D01*
X0191086Y0135150D02*
X0203591Y0135150D01*
X0203591Y0138746D02*
X0191086Y0138746D01*
X0191086Y0139944D02*
X0203591Y0139944D01*
X0203591Y0141143D02*
X0191086Y0141143D01*
X0191086Y0142341D02*
X0203571Y0142341D01*
X0202372Y0143540D02*
X0191086Y0143540D01*
X0191086Y0144738D02*
X0201174Y0144738D01*
X0199975Y0145937D02*
X0191086Y0145937D01*
X0191086Y0147135D02*
X0198777Y0147135D01*
X0197578Y0148334D02*
X0191086Y0148334D01*
X0191086Y0149532D02*
X0196380Y0149532D01*
X0195181Y0150731D02*
X0191086Y0150731D01*
X0191086Y0151929D02*
X0193983Y0151929D01*
X0192784Y0153128D02*
X0191086Y0153128D01*
X0191086Y0154326D02*
X0191586Y0154326D01*
X0182158Y0180693D02*
X0225619Y0180693D01*
X0224420Y0181892D02*
X0180960Y0181892D01*
X0179761Y0183090D02*
X0223222Y0183090D01*
X0222791Y0184289D02*
X0178563Y0184289D01*
X0177364Y0185487D02*
X0222791Y0185487D01*
X0222791Y0186686D02*
X0176166Y0186686D01*
X0174967Y0187884D02*
X0222791Y0187884D01*
X0222791Y0189083D02*
X0173769Y0189083D01*
X0172570Y0190281D02*
X0222791Y0190281D01*
X0222306Y0191480D02*
X0171372Y0191480D01*
X0170173Y0192679D02*
X0221710Y0192679D01*
X0221641Y0193877D02*
X0168975Y0193877D01*
X0167776Y0195076D02*
X0222030Y0195076D01*
X0223117Y0196274D02*
X0166578Y0196274D01*
X0161161Y0199870D02*
X0159982Y0199870D01*
X0158784Y0201068D02*
X0161972Y0201068D01*
X0158291Y0203465D02*
X0235166Y0203465D01*
X0235166Y0204664D02*
X0158291Y0204664D01*
X0158291Y0205862D02*
X0235166Y0205862D01*
X0235166Y0207061D02*
X0158291Y0207061D01*
X0158093Y0208259D02*
X0235261Y0208259D01*
X0237015Y0209458D02*
X0242004Y0209458D01*
X0243378Y0209458D02*
X0258091Y0209458D01*
X0258091Y0210656D02*
X0245252Y0210656D01*
X0245862Y0211855D02*
X0258091Y0211855D01*
X0258091Y0213053D02*
X0245941Y0213053D01*
X0245562Y0214252D02*
X0258091Y0214252D01*
X0258091Y0215450D02*
X0246691Y0215450D01*
X0246691Y0216649D02*
X0258091Y0216649D01*
X0258091Y0217847D02*
X0246691Y0217847D01*
X0246579Y0219046D02*
X0258091Y0219046D01*
X0258091Y0220244D02*
X0243700Y0220244D01*
X0244059Y0221443D02*
X0258091Y0221443D01*
X0258091Y0222641D02*
X0244059Y0222641D01*
X0240293Y0221738D02*
X0240293Y0218493D01*
X0238991Y0217191D01*
X0243891Y0217191D01*
X0239820Y0214252D02*
X0237775Y0214252D01*
X0237775Y0213053D02*
X0239441Y0213053D01*
X0239520Y0211855D02*
X0237775Y0211855D01*
X0237775Y0210656D02*
X0240130Y0210656D01*
X0240239Y0208259D02*
X0258091Y0208259D01*
X0258091Y0207061D02*
X0240334Y0207061D01*
X0240334Y0205862D02*
X0258091Y0205862D01*
X0258091Y0204664D02*
X0240334Y0204664D01*
X0240334Y0203465D02*
X0258091Y0203465D01*
X0258091Y0202267D02*
X0245459Y0202267D01*
X0245791Y0201068D02*
X0258091Y0201068D01*
X0254773Y0199870D02*
X0245791Y0199870D01*
X0245791Y0198671D02*
X0253786Y0198671D01*
X0253441Y0197473D02*
X0245091Y0197473D01*
X0245091Y0196274D02*
X0253553Y0196274D01*
X0254210Y0195076D02*
X0245091Y0195076D01*
X0245091Y0193877D02*
X0255035Y0193877D01*
X0256091Y0192679D02*
X0245091Y0192679D01*
X0245091Y0191480D02*
X0256091Y0191480D01*
X0256091Y0190281D02*
X0245091Y0190281D01*
X0245091Y0189083D02*
X0256091Y0189083D01*
X0262291Y0189083D02*
X0276491Y0189083D01*
X0276491Y0190281D02*
X0262291Y0190281D01*
X0262291Y0191480D02*
X0276491Y0191480D01*
X0276491Y0192679D02*
X0262291Y0192679D01*
X0262291Y0193877D02*
X0276491Y0193877D01*
X0276491Y0195076D02*
X0262291Y0195076D01*
X0262291Y0196274D02*
X0274512Y0196274D01*
X0273678Y0197473D02*
X0262291Y0197473D01*
X0262291Y0198671D02*
X0273441Y0198671D01*
X0273661Y0199870D02*
X0262291Y0199870D01*
X0262291Y0201068D02*
X0274472Y0201068D01*
X0276691Y0198691D02*
X0277691Y0198691D01*
X0278691Y0197691D01*
X0278691Y0160691D01*
X0284691Y0154691D01*
X0323191Y0154691D01*
X0324191Y0153691D01*
X0326291Y0153691D01*
X0326491Y0153891D01*
X0330391Y0153891D01*
X0330391Y0150991D01*
X0332768Y0151725D02*
X0333191Y0152148D01*
X0333191Y0155080D01*
X0337491Y0150780D01*
X0337491Y0147002D01*
X0332768Y0151725D01*
X0332972Y0151929D02*
X0336341Y0151929D01*
X0337491Y0150731D02*
X0333763Y0150731D01*
X0334961Y0149532D02*
X0337491Y0149532D01*
X0337491Y0148334D02*
X0336160Y0148334D01*
X0337358Y0147135D02*
X0337491Y0147135D01*
X0341891Y0147135D02*
X0351491Y0147135D01*
X0351491Y0145937D02*
X0341891Y0145937D01*
X0341891Y0144738D02*
X0351491Y0144738D01*
X0351491Y0143540D02*
X0341891Y0143540D01*
X0341891Y0142341D02*
X0351491Y0142341D01*
X0351491Y0141143D02*
X0342851Y0141143D01*
X0344049Y0139944D02*
X0350333Y0139944D01*
X0352222Y0148334D02*
X0341891Y0148334D01*
X0341891Y0149532D02*
X0353421Y0149532D01*
X0354619Y0150731D02*
X0341891Y0150731D01*
X0341891Y0151929D02*
X0343340Y0151929D01*
X0342264Y0153128D02*
X0341366Y0153128D01*
X0341768Y0154326D02*
X0340167Y0154326D01*
X0338968Y0155525D02*
X0341716Y0155525D01*
X0341969Y0156723D02*
X0337770Y0156723D01*
X0336571Y0157922D02*
X0342627Y0157922D01*
X0344248Y0159120D02*
X0335373Y0159120D01*
X0333691Y0157691D02*
X0330591Y0157691D01*
X0330391Y0157491D01*
X0327591Y0157922D02*
X0314972Y0157922D01*
X0315469Y0159120D02*
X0327591Y0159120D01*
X0327591Y0156723D02*
X0324270Y0156723D01*
X0333191Y0154326D02*
X0333944Y0154326D01*
X0333191Y0153128D02*
X0335143Y0153128D01*
X0339691Y0151691D02*
X0333691Y0157691D01*
X0342051Y0161517D02*
X0315591Y0161517D01*
X0315591Y0160319D02*
X0342824Y0160319D01*
X0341716Y0162716D02*
X0315591Y0162716D01*
X0315591Y0163914D02*
X0341716Y0163914D01*
X0342183Y0165113D02*
X0315116Y0165113D01*
X0314193Y0166311D02*
X0343142Y0166311D01*
X0343507Y0167510D02*
X0280891Y0167510D01*
X0280891Y0168708D02*
X0342334Y0168708D01*
X0341837Y0169907D02*
X0280891Y0169907D01*
X0280891Y0171105D02*
X0341716Y0171105D01*
X0341900Y0172304D02*
X0280891Y0172304D01*
X0280891Y0173502D02*
X0342459Y0173502D01*
X0343844Y0174701D02*
X0280891Y0174701D01*
X0280891Y0175899D02*
X0342991Y0175899D01*
X0342120Y0177098D02*
X0280891Y0177098D01*
X0280891Y0178296D02*
X0341716Y0178296D01*
X0341716Y0179495D02*
X0280891Y0179495D01*
X0280891Y0180693D02*
X0342113Y0180693D01*
X0342975Y0181892D02*
X0330426Y0181892D01*
X0331546Y0183090D02*
X0343884Y0183090D01*
X0342476Y0184289D02*
X0331941Y0184289D01*
X0331879Y0185487D02*
X0341907Y0185487D01*
X0341716Y0186686D02*
X0331292Y0186686D01*
X0329474Y0187884D02*
X0341831Y0187884D01*
X0342327Y0189083D02*
X0327791Y0189083D01*
X0327791Y0190281D02*
X0343490Y0190281D01*
X0343159Y0191480D02*
X0327791Y0191480D01*
X0327791Y0192679D02*
X0342190Y0192679D01*
X0341716Y0193877D02*
X0327791Y0193877D01*
X0327791Y0195076D02*
X0341716Y0195076D01*
X0342044Y0196274D02*
X0337617Y0196274D01*
X0337891Y0196548D02*
X0337891Y0199295D01*
X0337946Y0199350D01*
X0338441Y0200544D01*
X0338441Y0201837D01*
X0337946Y0203032D01*
X0337032Y0203946D01*
X0335837Y0204441D01*
X0334544Y0204441D01*
X0333350Y0203946D01*
X0332436Y0203032D01*
X0331941Y0201837D01*
X0331941Y0200544D01*
X0332291Y0199700D01*
X0332291Y0196548D01*
X0333348Y0195491D01*
X0336834Y0195491D01*
X0337891Y0196548D01*
X0337891Y0197473D02*
X0342807Y0197473D01*
X0344288Y0198671D02*
X0337891Y0198671D01*
X0338161Y0199870D02*
X0342643Y0199870D01*
X0341976Y0201068D02*
X0338441Y0201068D01*
X0338263Y0202267D02*
X0341716Y0202267D01*
X0341761Y0203465D02*
X0337513Y0203465D01*
X0339585Y0205862D02*
X0331224Y0205862D01*
X0331441Y0204664D02*
X0340783Y0204664D01*
X0338386Y0207061D02*
X0330417Y0207061D01*
X0328093Y0208259D02*
X0337188Y0208259D01*
X0335989Y0209458D02*
X0326894Y0209458D01*
X0325696Y0210656D02*
X0335591Y0210656D01*
X0335591Y0211855D02*
X0324497Y0211855D01*
X0323299Y0213053D02*
X0335591Y0213053D01*
X0335591Y0214252D02*
X0322100Y0214252D01*
X0320901Y0215450D02*
X0335591Y0215450D01*
X0335591Y0216649D02*
X0319703Y0216649D01*
X0318504Y0217847D02*
X0335591Y0217847D01*
X0335591Y0219046D02*
X0317791Y0219046D01*
X0317791Y0220244D02*
X0335591Y0220244D01*
X0335591Y0221443D02*
X0317791Y0221443D01*
X0317791Y0222641D02*
X0335591Y0222641D01*
X0336370Y0223840D02*
X0317791Y0223840D01*
X0317791Y0225038D02*
X0337568Y0225038D01*
X0338552Y0226237D02*
X0338767Y0226237D01*
X0340441Y0228634D02*
X0341164Y0228634D01*
X0340441Y0229832D02*
X0342363Y0229832D01*
X0343561Y0231031D02*
X0339947Y0231031D01*
X0339391Y0232229D02*
X0344760Y0232229D01*
X0345958Y0233428D02*
X0339391Y0233428D01*
X0339391Y0234626D02*
X0347157Y0234626D01*
X0348355Y0235825D02*
X0339391Y0235825D01*
X0339391Y0237023D02*
X0349554Y0237023D01*
X0350091Y0238222D02*
X0338771Y0238222D01*
X0337573Y0239420D02*
X0350091Y0239420D01*
X0350091Y0240619D02*
X0336374Y0240619D01*
X0335176Y0241817D02*
X0350091Y0241817D01*
X0348896Y0243016D02*
X0284441Y0243016D01*
X0284285Y0244215D02*
X0347698Y0244215D01*
X0346499Y0245413D02*
X0283565Y0245413D01*
X0284140Y0241817D02*
X0319206Y0241817D01*
X0318008Y0240619D02*
X0283215Y0240619D01*
X0280390Y0239420D02*
X0311991Y0239420D01*
X0311991Y0238222D02*
X0279192Y0238222D01*
X0277993Y0237023D02*
X0311991Y0237023D01*
X0312214Y0235825D02*
X0276795Y0235825D01*
X0275596Y0234626D02*
X0312091Y0234626D01*
X0312091Y0233428D02*
X0274398Y0233428D01*
X0273199Y0232229D02*
X0309534Y0232229D01*
X0307935Y0231031D02*
X0272001Y0231031D01*
X0270802Y0229832D02*
X0307441Y0229832D01*
X0307441Y0228634D02*
X0269604Y0228634D01*
X0268405Y0227435D02*
X0307900Y0227435D01*
X0309330Y0226237D02*
X0267207Y0226237D01*
X0266008Y0225038D02*
X0313591Y0225038D01*
X0313591Y0223840D02*
X0264810Y0223840D01*
X0263611Y0222641D02*
X0293545Y0222641D01*
X0292692Y0221443D02*
X0262413Y0221443D01*
X0262291Y0220244D02*
X0292441Y0220244D01*
X0292648Y0219046D02*
X0262291Y0219046D01*
X0262291Y0217847D02*
X0293438Y0217847D01*
X0297943Y0217847D02*
X0309065Y0217847D01*
X0310263Y0216649D02*
X0262291Y0216649D01*
X0262291Y0215450D02*
X0311462Y0215450D01*
X0312660Y0214252D02*
X0262291Y0214252D01*
X0262291Y0213053D02*
X0313859Y0213053D01*
X0315057Y0211855D02*
X0262291Y0211855D01*
X0262291Y0210656D02*
X0316256Y0210656D01*
X0317454Y0209458D02*
X0262291Y0209458D01*
X0262291Y0208259D02*
X0318653Y0208259D01*
X0319851Y0207061D02*
X0262291Y0207061D01*
X0262291Y0205862D02*
X0321050Y0205862D01*
X0321091Y0204664D02*
X0262291Y0204664D01*
X0262291Y0203465D02*
X0321447Y0203465D01*
X0322645Y0202267D02*
X0262291Y0202267D01*
X0262291Y0187884D02*
X0276491Y0187884D01*
X0276491Y0186686D02*
X0262291Y0186686D01*
X0262291Y0185487D02*
X0276491Y0185487D01*
X0276491Y0184289D02*
X0262291Y0184289D01*
X0262291Y0183090D02*
X0276491Y0183090D01*
X0276491Y0181892D02*
X0262291Y0181892D01*
X0262291Y0180693D02*
X0276491Y0180693D01*
X0276491Y0179495D02*
X0262291Y0179495D01*
X0262291Y0178296D02*
X0276491Y0178296D01*
X0276491Y0177098D02*
X0262291Y0177098D01*
X0262291Y0175899D02*
X0276491Y0175899D01*
X0276491Y0174701D02*
X0262291Y0174701D01*
X0262291Y0173502D02*
X0276491Y0173502D01*
X0276491Y0172304D02*
X0262291Y0172304D01*
X0261575Y0171105D02*
X0276491Y0171105D01*
X0276491Y0169907D02*
X0260377Y0169907D01*
X0259178Y0168708D02*
X0276491Y0168708D01*
X0276491Y0167510D02*
X0257980Y0167510D01*
X0256781Y0166311D02*
X0276491Y0166311D01*
X0276491Y0165113D02*
X0255583Y0165113D01*
X0254384Y0163914D02*
X0276491Y0163914D01*
X0276491Y0162716D02*
X0253186Y0162716D01*
X0251987Y0161517D02*
X0276491Y0161517D01*
X0276491Y0160319D02*
X0250789Y0160319D01*
X0249590Y0159120D02*
X0277150Y0159120D01*
X0278349Y0157922D02*
X0248392Y0157922D01*
X0247193Y0156723D02*
X0279547Y0156723D01*
X0280746Y0155525D02*
X0245995Y0155525D01*
X0244796Y0154326D02*
X0281944Y0154326D01*
X0283143Y0153128D02*
X0243597Y0153128D01*
X0255068Y0177098D02*
X0258091Y0177098D01*
X0258091Y0178296D02*
X0256266Y0178296D01*
X0257465Y0179495D02*
X0258091Y0179495D01*
X0280891Y0181892D02*
X0326956Y0181892D01*
X0325836Y0183090D02*
X0280891Y0183090D01*
X0280891Y0184289D02*
X0325441Y0184289D01*
X0324925Y0185487D02*
X0280891Y0185487D01*
X0280891Y0186686D02*
X0323726Y0186686D01*
X0323591Y0187884D02*
X0280891Y0187884D01*
X0280891Y0189083D02*
X0323591Y0189083D01*
X0323591Y0190281D02*
X0280891Y0190281D01*
X0280891Y0191480D02*
X0323591Y0191480D01*
X0323591Y0192679D02*
X0280891Y0192679D01*
X0280891Y0193877D02*
X0323591Y0193877D01*
X0323591Y0195076D02*
X0280891Y0195076D01*
X0280891Y0196274D02*
X0323591Y0196274D01*
X0323591Y0197473D02*
X0280891Y0197473D01*
X0280822Y0198671D02*
X0323591Y0198671D01*
X0323591Y0199870D02*
X0279720Y0199870D01*
X0278910Y0201068D02*
X0323591Y0201068D01*
X0327791Y0201068D02*
X0331941Y0201068D01*
X0332119Y0202267D02*
X0330363Y0202267D01*
X0331201Y0203465D02*
X0332869Y0203465D01*
X0335191Y0201191D02*
X0335191Y0198391D01*
X0335091Y0198291D01*
X0332291Y0198671D02*
X0327791Y0198671D01*
X0327791Y0197473D02*
X0332291Y0197473D01*
X0332565Y0196274D02*
X0327791Y0196274D01*
X0327791Y0199870D02*
X0332220Y0199870D01*
X0347494Y0198671D02*
X0366290Y0198671D01*
X0366491Y0199870D02*
X0349139Y0199870D01*
X0349806Y0201068D02*
X0366491Y0201068D01*
X0366491Y0202267D02*
X0350066Y0202267D01*
X0350021Y0203465D02*
X0366755Y0203465D01*
X0367638Y0204664D02*
X0349524Y0204664D01*
X0348459Y0205862D02*
X0368837Y0205862D01*
X0370035Y0207061D02*
X0348456Y0207061D01*
X0349523Y0208259D02*
X0370491Y0208259D01*
X0370491Y0209458D02*
X0350019Y0209458D01*
X0350066Y0210656D02*
X0370491Y0210656D01*
X0370491Y0211855D02*
X0349807Y0211855D01*
X0349142Y0213053D02*
X0370491Y0213053D01*
X0370491Y0214252D02*
X0347501Y0214252D01*
X0348971Y0215450D02*
X0370491Y0215450D01*
X0370491Y0216649D02*
X0349736Y0216649D01*
X0350066Y0217847D02*
X0370491Y0217847D01*
X0370491Y0219046D02*
X0350066Y0219046D01*
X0349594Y0220244D02*
X0370491Y0220244D01*
X0370491Y0221443D02*
X0348626Y0221443D01*
X0345810Y0223840D02*
X0370491Y0223840D01*
X0370491Y0225038D02*
X0347008Y0225038D01*
X0348207Y0226237D02*
X0370491Y0226237D01*
X0370491Y0227435D02*
X0349405Y0227435D01*
X0350604Y0228634D02*
X0370491Y0228634D01*
X0370491Y0229832D02*
X0351802Y0229832D01*
X0353001Y0231031D02*
X0370491Y0231031D01*
X0370491Y0232229D02*
X0354199Y0232229D01*
X0355398Y0233428D02*
X0370491Y0233428D01*
X0370491Y0234626D02*
X0356596Y0234626D01*
X0356791Y0235825D02*
X0370491Y0235825D01*
X0370491Y0237023D02*
X0356791Y0237023D01*
X0356791Y0238222D02*
X0370491Y0238222D01*
X0370491Y0239420D02*
X0356791Y0239420D01*
X0356791Y0240619D02*
X0370491Y0240619D01*
X0370491Y0241817D02*
X0356791Y0241817D01*
X0356791Y0243016D02*
X0370491Y0243016D01*
X0370491Y0244215D02*
X0356791Y0244215D01*
X0355939Y0245413D02*
X0370491Y0245413D01*
X0370491Y0246612D02*
X0354740Y0246612D01*
X0353542Y0247810D02*
X0370491Y0247810D01*
X0370491Y0249009D02*
X0352343Y0249009D01*
X0351145Y0250207D02*
X0370491Y0250207D01*
X0370491Y0251406D02*
X0349946Y0251406D01*
X0348748Y0252604D02*
X0370491Y0252604D01*
X0370491Y0253803D02*
X0318710Y0253803D01*
X0319032Y0253936D02*
X0319946Y0254850D01*
X0320441Y0256044D01*
X0320441Y0257337D01*
X0319946Y0258532D01*
X0319032Y0259446D01*
X0317837Y0259941D01*
X0316544Y0259941D01*
X0315350Y0259446D01*
X0314436Y0258532D01*
X0313941Y0257337D01*
X0313941Y0256044D01*
X0314436Y0254850D01*
X0315350Y0253936D01*
X0316544Y0253441D01*
X0317837Y0253441D01*
X0319032Y0253936D01*
X0320009Y0255001D02*
X0370491Y0255001D01*
X0370491Y0256200D02*
X0320441Y0256200D01*
X0320416Y0257398D02*
X0370491Y0257398D01*
X0369760Y0258597D02*
X0319881Y0258597D01*
X0318189Y0259795D02*
X0368561Y0259795D01*
X0367363Y0260994D02*
X0246691Y0260994D01*
X0246691Y0262192D02*
X0366164Y0262192D01*
X0364966Y0263391D02*
X0246691Y0263391D01*
X0246691Y0264589D02*
X0363767Y0264589D01*
X0362569Y0265788D02*
X0246691Y0265788D01*
X0246691Y0266986D02*
X0361370Y0266986D01*
X0360172Y0268185D02*
X0246691Y0268185D01*
X0246691Y0269383D02*
X0358973Y0269383D01*
X0357775Y0270582D02*
X0246691Y0270582D01*
X0246691Y0271780D02*
X0356576Y0271780D01*
X0362032Y0275376D02*
X0486191Y0275376D01*
X0486191Y0276574D02*
X0360833Y0276574D01*
X0359635Y0277773D02*
X0486191Y0277773D01*
X0486191Y0278971D02*
X0350391Y0278971D01*
X0350391Y0280170D02*
X0486191Y0280170D01*
X0486191Y0281368D02*
X0350391Y0281368D01*
X0350391Y0282567D02*
X0486191Y0282567D01*
X0486191Y0283765D02*
X0350391Y0283765D01*
X0350391Y0284964D02*
X0486191Y0284964D01*
X0486191Y0286162D02*
X0350391Y0286162D01*
X0350391Y0287361D02*
X0486191Y0287361D01*
X0486191Y0288559D02*
X0350391Y0288559D01*
X0350391Y0289758D02*
X0486191Y0289758D01*
X0486191Y0290956D02*
X0350391Y0290956D01*
X0350391Y0292155D02*
X0486191Y0292155D01*
X0486191Y0293353D02*
X0443872Y0293353D01*
X0442692Y0292865D02*
X0446039Y0294251D01*
X0448600Y0296813D01*
X0449987Y0300159D01*
X0449987Y0303782D01*
X0448600Y0307128D01*
X0446039Y0309690D01*
X0442692Y0311076D01*
X0439070Y0311076D01*
X0435723Y0309690D01*
X0433162Y0307128D01*
X0431776Y0303782D01*
X0431776Y0300159D01*
X0433162Y0296813D01*
X0435723Y0294251D01*
X0439070Y0292865D01*
X0442692Y0292865D01*
X0446340Y0294552D02*
X0486191Y0294552D01*
X0460544Y0295750D02*
X0447538Y0295750D01*
X0448657Y0296949D02*
X0459290Y0296949D01*
X0458794Y0298148D02*
X0449153Y0298148D01*
X0449650Y0299346D02*
X0458691Y0299346D01*
X0458691Y0300545D02*
X0449987Y0300545D01*
X0449987Y0301743D02*
X0458691Y0301743D01*
X0458691Y0302942D02*
X0449987Y0302942D01*
X0449838Y0304140D02*
X0458691Y0304140D01*
X0458691Y0305339D02*
X0449342Y0305339D01*
X0448845Y0306537D02*
X0458691Y0306537D01*
X0458691Y0307736D02*
X0447993Y0307736D01*
X0446795Y0308934D02*
X0458691Y0308934D01*
X0458691Y0310133D02*
X0444970Y0310133D01*
X0436792Y0310133D02*
X0350391Y0310133D01*
X0350391Y0311331D02*
X0458691Y0311331D01*
X0458691Y0312530D02*
X0350435Y0312530D01*
X0350441Y0313728D02*
X0458691Y0313728D01*
X0458691Y0314927D02*
X0349990Y0314927D01*
X0348191Y0312191D02*
X0347191Y0313191D01*
X0348191Y0312191D02*
X0348191Y0275691D01*
X0345747Y0277773D02*
X0244179Y0277773D01*
X0242980Y0278971D02*
X0345991Y0278971D01*
X0345991Y0280170D02*
X0300240Y0280170D01*
X0301438Y0281368D02*
X0345991Y0281368D01*
X0345991Y0282567D02*
X0302591Y0282567D01*
X0302591Y0283765D02*
X0345991Y0283765D01*
X0345991Y0284964D02*
X0302591Y0284964D01*
X0302591Y0286162D02*
X0345991Y0286162D01*
X0345991Y0287361D02*
X0302591Y0287361D01*
X0302591Y0288559D02*
X0345991Y0288559D01*
X0345991Y0289758D02*
X0302591Y0289758D01*
X0302591Y0290956D02*
X0345991Y0290956D01*
X0345991Y0292155D02*
X0302591Y0292155D01*
X0302591Y0293353D02*
X0345991Y0293353D01*
X0345991Y0294552D02*
X0302591Y0294552D01*
X0302735Y0295750D02*
X0345991Y0295750D01*
X0345991Y0296949D02*
X0303456Y0296949D01*
X0303591Y0298148D02*
X0345991Y0298148D01*
X0345991Y0299346D02*
X0303244Y0299346D01*
X0302185Y0300545D02*
X0345991Y0300545D01*
X0345991Y0301743D02*
X0238154Y0301743D01*
X0238586Y0302175D02*
X0235892Y0299481D01*
X0232081Y0299481D01*
X0229386Y0302175D01*
X0229386Y0305986D01*
X0232081Y0308681D01*
X0235892Y0308681D01*
X0238586Y0305986D01*
X0238586Y0302175D01*
X0238586Y0302942D02*
X0345991Y0302942D01*
X0345991Y0304140D02*
X0238586Y0304140D01*
X0238586Y0305339D02*
X0345991Y0305339D01*
X0345991Y0306537D02*
X0238035Y0306537D01*
X0236837Y0307736D02*
X0345991Y0307736D01*
X0345991Y0308934D02*
X0196086Y0308934D01*
X0196086Y0310133D02*
X0345991Y0310133D01*
X0344455Y0311331D02*
X0196086Y0311331D01*
X0195122Y0312530D02*
X0343947Y0312530D01*
X0343941Y0313728D02*
X0193924Y0313728D01*
X0192725Y0314927D02*
X0344392Y0314927D01*
X0350391Y0308934D02*
X0434968Y0308934D01*
X0433769Y0307736D02*
X0350391Y0307736D01*
X0350391Y0306537D02*
X0432917Y0306537D01*
X0432420Y0305339D02*
X0350391Y0305339D01*
X0350391Y0304140D02*
X0431924Y0304140D01*
X0431776Y0302942D02*
X0350391Y0302942D01*
X0350391Y0301743D02*
X0431776Y0301743D01*
X0431776Y0300545D02*
X0350391Y0300545D01*
X0350391Y0299346D02*
X0432112Y0299346D01*
X0432609Y0298148D02*
X0350391Y0298148D01*
X0350391Y0296949D02*
X0433105Y0296949D01*
X0434224Y0295750D02*
X0350391Y0295750D01*
X0350391Y0294552D02*
X0435422Y0294552D01*
X0437891Y0293353D02*
X0350391Y0293353D01*
X0345093Y0276574D02*
X0245377Y0276574D01*
X0246576Y0275376D02*
X0344991Y0275376D01*
X0345354Y0274177D02*
X0246691Y0274177D01*
X0246691Y0272979D02*
X0346378Y0272979D01*
X0363230Y0274177D02*
X0486191Y0274177D01*
X0486191Y0272979D02*
X0364429Y0272979D01*
X0365627Y0271780D02*
X0486191Y0271780D01*
X0486191Y0270582D02*
X0366826Y0270582D01*
X0368024Y0269383D02*
X0486191Y0269383D01*
X0486191Y0268185D02*
X0369223Y0268185D01*
X0370421Y0266986D02*
X0486191Y0266986D01*
X0486191Y0265788D02*
X0371620Y0265788D01*
X0372818Y0264589D02*
X0486191Y0264589D01*
X0486191Y0263391D02*
X0374017Y0263391D01*
X0375215Y0262192D02*
X0486191Y0262192D01*
X0486191Y0260994D02*
X0376408Y0260994D01*
X0376891Y0259795D02*
X0486191Y0259795D01*
X0486191Y0258597D02*
X0376891Y0258597D01*
X0376891Y0257398D02*
X0486191Y0257398D01*
X0486191Y0256200D02*
X0376891Y0256200D01*
X0376891Y0255001D02*
X0486191Y0255001D01*
X0486191Y0253803D02*
X0376891Y0253803D01*
X0376891Y0252604D02*
X0486191Y0252604D01*
X0486191Y0251406D02*
X0376891Y0251406D01*
X0376891Y0250207D02*
X0486191Y0250207D01*
X0486191Y0249009D02*
X0376891Y0249009D01*
X0376891Y0247810D02*
X0486191Y0247810D01*
X0486191Y0246612D02*
X0376891Y0246612D01*
X0376891Y0245413D02*
X0486191Y0245413D01*
X0486191Y0244215D02*
X0376891Y0244215D01*
X0376891Y0243016D02*
X0486191Y0243016D01*
X0486191Y0241817D02*
X0376891Y0241817D01*
X0376891Y0240619D02*
X0486191Y0240619D01*
X0486191Y0239420D02*
X0376891Y0239420D01*
X0376891Y0238222D02*
X0486191Y0238222D01*
X0486191Y0237023D02*
X0376891Y0237023D01*
X0376891Y0235825D02*
X0486191Y0235825D01*
X0486191Y0234626D02*
X0376891Y0234626D01*
X0376891Y0233428D02*
X0486191Y0233428D01*
X0486191Y0232229D02*
X0376891Y0232229D01*
X0376891Y0231031D02*
X0486191Y0231031D01*
X0486191Y0229832D02*
X0376891Y0229832D01*
X0376891Y0228634D02*
X0486191Y0228634D01*
X0472190Y0227435D02*
X0376891Y0227435D01*
X0376891Y0226237D02*
X0472185Y0226237D01*
X0472180Y0225038D02*
X0376891Y0225038D01*
X0376891Y0223840D02*
X0472175Y0223840D01*
X0390524Y0159120D02*
X0362891Y0159120D01*
X0362891Y0157922D02*
X0389683Y0157922D01*
X0389441Y0156723D02*
X0362891Y0156723D01*
X0362891Y0155525D02*
X0389656Y0155525D01*
X0358491Y0155525D02*
X0350066Y0155525D01*
X0350014Y0154326D02*
X0358215Y0154326D01*
X0357016Y0153128D02*
X0349517Y0153128D01*
X0348442Y0151929D02*
X0355818Y0151929D01*
X0358491Y0156723D02*
X0349813Y0156723D01*
X0349155Y0157922D02*
X0358491Y0157922D01*
X0358491Y0159120D02*
X0347534Y0159120D01*
X0348958Y0160319D02*
X0358491Y0160319D01*
X0358491Y0161517D02*
X0349731Y0161517D01*
X0350066Y0162716D02*
X0358491Y0162716D01*
X0358491Y0163914D02*
X0350066Y0163914D01*
X0349599Y0165113D02*
X0358491Y0165113D01*
X0358491Y0166311D02*
X0348640Y0166311D01*
X0348275Y0167510D02*
X0358491Y0167510D01*
X0358491Y0168708D02*
X0349448Y0168708D01*
X0349944Y0169907D02*
X0358491Y0169907D01*
X0358491Y0171105D02*
X0350066Y0171105D01*
X0349882Y0172304D02*
X0358491Y0172304D01*
X0358491Y0173502D02*
X0349323Y0173502D01*
X0347938Y0174701D02*
X0358491Y0174701D01*
X0358491Y0175899D02*
X0348790Y0175899D01*
X0349662Y0177098D02*
X0358491Y0177098D01*
X0358491Y0178296D02*
X0350066Y0178296D01*
X0350066Y0179495D02*
X0358491Y0179495D01*
X0359582Y0180693D02*
X0349668Y0180693D01*
X0348807Y0181892D02*
X0360781Y0181892D01*
X0361979Y0183090D02*
X0347898Y0183090D01*
X0349306Y0184289D02*
X0363178Y0184289D01*
X0364376Y0185487D02*
X0349875Y0185487D01*
X0350066Y0186686D02*
X0365575Y0186686D01*
X0366773Y0187884D02*
X0349951Y0187884D01*
X0349455Y0189083D02*
X0367972Y0189083D01*
X0367478Y0190281D02*
X0348291Y0190281D01*
X0348623Y0191480D02*
X0366386Y0191480D01*
X0365889Y0192679D02*
X0349592Y0192679D01*
X0350066Y0193877D02*
X0365791Y0193877D01*
X0365791Y0195076D02*
X0350066Y0195076D01*
X0349738Y0196274D02*
X0365791Y0196274D01*
X0365794Y0197473D02*
X0348974Y0197473D01*
X0344611Y0222641D02*
X0370491Y0222641D01*
X0345301Y0246612D02*
X0277081Y0246612D01*
X0275883Y0245413D02*
X0278817Y0245413D01*
X0278097Y0244215D02*
X0274684Y0244215D01*
X0273486Y0243016D02*
X0277941Y0243016D01*
X0276848Y0241817D02*
X0272287Y0241817D01*
X0271089Y0240619D02*
X0275649Y0240619D01*
X0274451Y0239420D02*
X0269890Y0239420D01*
X0268692Y0238222D02*
X0273252Y0238222D01*
X0272054Y0237023D02*
X0267493Y0237023D01*
X0266295Y0235825D02*
X0270855Y0235825D01*
X0269657Y0234626D02*
X0265096Y0234626D01*
X0263898Y0233428D02*
X0268458Y0233428D01*
X0267260Y0232229D02*
X0262699Y0232229D01*
X0261501Y0231031D02*
X0266061Y0231031D01*
X0264863Y0229832D02*
X0260302Y0229832D01*
X0259104Y0228634D02*
X0263664Y0228634D01*
X0262466Y0227435D02*
X0257905Y0227435D01*
X0256707Y0226237D02*
X0261267Y0226237D01*
X0260068Y0225038D02*
X0255508Y0225038D01*
X0254310Y0223840D02*
X0258870Y0223840D01*
X0252561Y0231031D02*
X0188321Y0231031D01*
X0189519Y0229832D02*
X0219236Y0229832D01*
X0218271Y0228634D02*
X0190718Y0228634D01*
X0187175Y0226237D02*
X0187115Y0226237D01*
X0185977Y0227435D02*
X0185916Y0227435D01*
X0184778Y0228634D02*
X0184718Y0228634D01*
X0183580Y0229832D02*
X0183519Y0229832D01*
X0182381Y0231031D02*
X0182321Y0231031D01*
X0181183Y0232229D02*
X0181122Y0232229D01*
X0179984Y0233428D02*
X0179924Y0233428D01*
X0178786Y0234626D02*
X0178725Y0234626D01*
X0177587Y0235825D02*
X0177527Y0235825D01*
X0176389Y0237023D02*
X0176328Y0237023D01*
X0175190Y0238222D02*
X0175130Y0238222D01*
X0173992Y0239420D02*
X0173931Y0239420D01*
X0172793Y0240619D02*
X0172733Y0240619D01*
X0171595Y0241817D02*
X0171534Y0241817D01*
X0170396Y0243016D02*
X0170336Y0243016D01*
X0169198Y0244215D02*
X0169137Y0244215D01*
X0167999Y0245413D02*
X0167939Y0245413D01*
X0166801Y0246612D02*
X0166740Y0246612D01*
X0165602Y0247810D02*
X0165542Y0247810D01*
X0164403Y0249009D02*
X0164343Y0249009D01*
X0163205Y0250207D02*
X0163145Y0250207D01*
X0162006Y0251406D02*
X0161946Y0251406D01*
X0161091Y0252604D02*
X0160748Y0252604D01*
X0161091Y0253803D02*
X0159549Y0253803D01*
X0158351Y0255001D02*
X0161091Y0255001D01*
X0161091Y0256200D02*
X0157291Y0256200D01*
X0157291Y0257398D02*
X0161091Y0257398D01*
X0161091Y0258597D02*
X0157291Y0258597D01*
X0157291Y0259795D02*
X0161091Y0259795D01*
X0161091Y0260994D02*
X0157291Y0260994D01*
X0157291Y0262192D02*
X0161091Y0262192D01*
X0160895Y0263391D02*
X0157987Y0263391D01*
X0158752Y0264589D02*
X0160130Y0264589D01*
X0159941Y0265788D02*
X0158941Y0265788D01*
X0158672Y0266986D02*
X0160210Y0266986D01*
X0161089Y0268185D02*
X0157793Y0268185D01*
X0153589Y0268185D02*
X0072691Y0268185D01*
X0072691Y0269383D02*
X0164991Y0269383D01*
X0164991Y0270582D02*
X0072691Y0270582D01*
X0072691Y0271780D02*
X0164991Y0271780D01*
X0164991Y0272979D02*
X0072691Y0272979D01*
X0072691Y0274177D02*
X0164991Y0274177D01*
X0164991Y0275376D02*
X0072691Y0275376D01*
X0072691Y0276574D02*
X0164991Y0276574D01*
X0164991Y0277773D02*
X0072691Y0277773D01*
X0072691Y0278971D02*
X0164991Y0278971D01*
X0164991Y0280170D02*
X0072691Y0280170D01*
X0072691Y0281368D02*
X0164991Y0281368D01*
X0164991Y0282567D02*
X0144592Y0282567D01*
X0144904Y0282878D02*
X0145391Y0284054D01*
X0145391Y0285327D01*
X0144904Y0286504D01*
X0144004Y0287404D01*
X0142827Y0287891D01*
X0141554Y0287891D01*
X0140378Y0287404D01*
X0139478Y0286504D01*
X0138991Y0285327D01*
X0138991Y0284054D01*
X0139478Y0282878D01*
X0140378Y0281978D01*
X0141554Y0281491D01*
X0142827Y0281491D01*
X0144004Y0281978D01*
X0144904Y0282878D01*
X0145271Y0283765D02*
X0164991Y0283765D01*
X0164991Y0284964D02*
X0145391Y0284964D01*
X0145045Y0286162D02*
X0164991Y0286162D01*
X0164991Y0287361D02*
X0144046Y0287361D01*
X0140335Y0287361D02*
X0072691Y0287361D01*
X0072691Y0288559D02*
X0164991Y0288559D01*
X0164991Y0289758D02*
X0072691Y0289758D01*
X0072691Y0290956D02*
X0164991Y0290956D01*
X0164991Y0292155D02*
X0072691Y0292155D01*
X0072691Y0293353D02*
X0081386Y0293353D01*
X0082565Y0292865D02*
X0086188Y0292865D01*
X0089535Y0294251D01*
X0092096Y0296813D01*
X0093482Y0300159D01*
X0093482Y0303782D01*
X0092096Y0307128D01*
X0089535Y0309690D01*
X0086188Y0311076D01*
X0082565Y0311076D01*
X0079219Y0309690D01*
X0076657Y0307128D01*
X0075271Y0303782D01*
X0075271Y0300159D01*
X0076657Y0296813D01*
X0079219Y0294251D01*
X0082565Y0292865D01*
X0078918Y0294552D02*
X0072691Y0294552D01*
X0072691Y0295750D02*
X0077720Y0295750D01*
X0076601Y0296949D02*
X0072691Y0296949D01*
X0072691Y0298148D02*
X0076104Y0298148D01*
X0075608Y0299346D02*
X0065691Y0299346D01*
X0065691Y0300545D02*
X0075271Y0300545D01*
X0075271Y0301743D02*
X0065691Y0301743D01*
X0065691Y0302942D02*
X0075271Y0302942D01*
X0075420Y0304140D02*
X0065691Y0304140D01*
X0065691Y0305339D02*
X0075916Y0305339D01*
X0076413Y0306537D02*
X0065691Y0306537D01*
X0065691Y0307736D02*
X0077265Y0307736D01*
X0078463Y0308934D02*
X0065691Y0308934D01*
X0065691Y0310133D02*
X0080288Y0310133D01*
X0088465Y0310133D02*
X0102024Y0310133D01*
X0100825Y0311331D02*
X0065691Y0311331D01*
X0065691Y0312530D02*
X0099725Y0312530D01*
X0099307Y0313728D02*
X0065691Y0313728D01*
X0065691Y0314927D02*
X0099307Y0314927D01*
X0099307Y0316125D02*
X0065691Y0316125D01*
X0065691Y0317324D02*
X0099307Y0317324D01*
X0099307Y0318522D02*
X0065691Y0318522D01*
X0065691Y0319721D02*
X0099307Y0319721D01*
X0099307Y0320919D02*
X0065691Y0320919D01*
X0065691Y0322118D02*
X0099307Y0322118D01*
X0099307Y0323316D02*
X0065691Y0323316D01*
X0065691Y0324515D02*
X0099307Y0324515D01*
X0099307Y0325713D02*
X0065691Y0325713D01*
X0065691Y0326912D02*
X0099307Y0326912D01*
X0099307Y0328110D02*
X0065691Y0328110D01*
X0065691Y0329309D02*
X0085850Y0329309D01*
X0085925Y0329233D02*
X0084534Y0330625D01*
X0083781Y0332443D01*
X0083781Y0334411D01*
X0084534Y0336229D01*
X0085925Y0337620D01*
X0087743Y0338373D01*
X0089711Y0338373D01*
X0091529Y0337620D01*
X0092920Y0336229D01*
X0093674Y0334411D01*
X0093674Y0332443D01*
X0092920Y0330625D01*
X0091529Y0329233D01*
X0089711Y0328480D01*
X0087743Y0328480D01*
X0085925Y0329233D01*
X0084651Y0330507D02*
X0065691Y0330507D01*
X0065691Y0331706D02*
X0084086Y0331706D01*
X0083781Y0332904D02*
X0065691Y0332904D01*
X0065691Y0334103D02*
X0083781Y0334103D01*
X0084150Y0335301D02*
X0065691Y0335301D01*
X0065691Y0336500D02*
X0084805Y0336500D01*
X0086114Y0337698D02*
X0065691Y0337698D01*
X0065691Y0338897D02*
X0278191Y0338897D01*
X0278191Y0340095D02*
X0065691Y0340095D01*
X0065691Y0341294D02*
X0278191Y0341294D01*
X0278191Y0342492D02*
X0065691Y0342492D01*
X0091340Y0337698D02*
X0099894Y0337698D01*
X0098585Y0336500D02*
X0092649Y0336500D01*
X0093305Y0335301D02*
X0097929Y0335301D01*
X0097560Y0334103D02*
X0093674Y0334103D01*
X0093674Y0332904D02*
X0097560Y0332904D01*
X0097865Y0331706D02*
X0093368Y0331706D01*
X0092803Y0330507D02*
X0098431Y0330507D01*
X0099307Y0329309D02*
X0091605Y0329309D01*
X0105707Y0329309D02*
X0113409Y0329309D01*
X0113484Y0329233D02*
X0115302Y0328480D01*
X0117270Y0328480D01*
X0119088Y0329233D01*
X0120480Y0330625D01*
X0121233Y0332443D01*
X0121233Y0334411D01*
X0120480Y0336229D01*
X0119088Y0337620D01*
X0117270Y0338373D01*
X0115302Y0338373D01*
X0113484Y0337620D01*
X0112093Y0336229D01*
X0111340Y0334411D01*
X0111340Y0332443D01*
X0112093Y0330625D01*
X0113484Y0329233D01*
X0112210Y0330507D02*
X0106583Y0330507D01*
X0107148Y0331706D02*
X0111645Y0331706D01*
X0111340Y0332904D02*
X0107453Y0332904D01*
X0107453Y0334103D02*
X0111340Y0334103D01*
X0111709Y0335301D02*
X0107084Y0335301D01*
X0106429Y0336500D02*
X0112364Y0336500D01*
X0113673Y0337698D02*
X0105119Y0337698D01*
X0105707Y0328110D02*
X0127966Y0328110D01*
X0127966Y0326912D02*
X0105707Y0326912D01*
X0105707Y0325713D02*
X0127966Y0325713D01*
X0127966Y0324515D02*
X0105707Y0324515D01*
X0105707Y0323316D02*
X0127966Y0323316D01*
X0127966Y0322118D02*
X0105707Y0322118D01*
X0105707Y0320919D02*
X0127966Y0320919D01*
X0127966Y0319721D02*
X0105707Y0319721D01*
X0105707Y0318522D02*
X0127966Y0318522D01*
X0127966Y0317324D02*
X0105707Y0317324D01*
X0105707Y0316125D02*
X0127966Y0316125D01*
X0128485Y0314927D02*
X0106281Y0314927D01*
X0107479Y0313728D02*
X0129684Y0313728D01*
X0130882Y0312530D02*
X0108678Y0312530D01*
X0109876Y0311331D02*
X0132081Y0311331D01*
X0133279Y0310133D02*
X0111075Y0310133D01*
X0112273Y0308934D02*
X0134478Y0308934D01*
X0136822Y0312530D02*
X0145782Y0312530D01*
X0144584Y0313728D02*
X0135624Y0313728D01*
X0134425Y0314927D02*
X0143385Y0314927D01*
X0142187Y0316125D02*
X0133227Y0316125D01*
X0132166Y0317324D02*
X0141745Y0317324D01*
X0141745Y0318522D02*
X0132166Y0318522D01*
X0132166Y0319721D02*
X0141745Y0319721D01*
X0141745Y0320919D02*
X0132166Y0320919D01*
X0132166Y0322118D02*
X0141745Y0322118D01*
X0141745Y0323316D02*
X0132166Y0323316D01*
X0132166Y0324515D02*
X0141745Y0324515D01*
X0141745Y0325713D02*
X0132166Y0325713D01*
X0132166Y0326912D02*
X0141745Y0326912D01*
X0141745Y0328110D02*
X0132166Y0328110D01*
X0132943Y0329309D02*
X0140968Y0329309D01*
X0139769Y0330507D02*
X0134142Y0330507D01*
X0134707Y0331706D02*
X0139204Y0331706D01*
X0138899Y0332904D02*
X0135012Y0332904D01*
X0135012Y0334103D02*
X0138899Y0334103D01*
X0139268Y0335301D02*
X0134643Y0335301D01*
X0133988Y0336500D02*
X0139923Y0336500D01*
X0141232Y0337698D02*
X0132678Y0337698D01*
X0127453Y0337698D02*
X0118899Y0337698D01*
X0120208Y0336500D02*
X0126144Y0336500D01*
X0125488Y0335301D02*
X0120864Y0335301D01*
X0121233Y0334103D02*
X0125119Y0334103D01*
X0125119Y0332904D02*
X0121233Y0332904D01*
X0120927Y0331706D02*
X0125424Y0331706D01*
X0125990Y0330507D02*
X0120362Y0330507D01*
X0119164Y0329309D02*
X0127188Y0329309D01*
X0145945Y0328110D02*
X0155525Y0328110D01*
X0155525Y0326912D02*
X0145945Y0326912D01*
X0145945Y0325713D02*
X0155525Y0325713D01*
X0155525Y0324515D02*
X0145945Y0324515D01*
X0145945Y0323316D02*
X0155525Y0323316D01*
X0155525Y0322118D02*
X0145945Y0322118D01*
X0145945Y0320919D02*
X0155525Y0320919D01*
X0156691Y0319721D02*
X0145945Y0319721D01*
X0145945Y0318522D02*
X0157890Y0318522D01*
X0159088Y0317324D02*
X0146928Y0317324D01*
X0159725Y0323316D02*
X0278191Y0323316D01*
X0278191Y0322118D02*
X0160234Y0322118D01*
X0161432Y0320919D02*
X0278191Y0320919D01*
X0278191Y0319721D02*
X0162631Y0319721D01*
X0163830Y0318522D02*
X0278191Y0318522D01*
X0278191Y0317324D02*
X0190328Y0317324D01*
X0191527Y0316125D02*
X0278191Y0316125D01*
X0278191Y0324515D02*
X0159725Y0324515D01*
X0159725Y0325713D02*
X0278191Y0325713D01*
X0278191Y0326912D02*
X0159725Y0326912D01*
X0159725Y0328110D02*
X0278191Y0328110D01*
X0278191Y0329309D02*
X0270738Y0329309D01*
X0270663Y0329233D02*
X0272054Y0330625D01*
X0272807Y0332443D01*
X0272807Y0334411D01*
X0272054Y0336229D01*
X0270663Y0337620D01*
X0268845Y0338373D01*
X0266877Y0338373D01*
X0265059Y0337620D01*
X0263668Y0336229D01*
X0262914Y0334411D01*
X0262914Y0332443D01*
X0263668Y0330625D01*
X0265059Y0329233D01*
X0266877Y0328480D01*
X0268845Y0328480D01*
X0270663Y0329233D01*
X0271937Y0330507D02*
X0278191Y0330507D01*
X0278191Y0331706D02*
X0272502Y0331706D01*
X0272807Y0332904D02*
X0278191Y0332904D01*
X0278191Y0334103D02*
X0272807Y0334103D01*
X0272438Y0335301D02*
X0278191Y0335301D01*
X0278191Y0336500D02*
X0271783Y0336500D01*
X0270474Y0337698D02*
X0278191Y0337698D01*
X0265248Y0337698D02*
X0256694Y0337698D01*
X0256883Y0337620D02*
X0255065Y0338373D01*
X0253098Y0338373D01*
X0251279Y0337620D01*
X0249888Y0336229D01*
X0249135Y0334411D01*
X0249135Y0332443D01*
X0249888Y0330625D01*
X0251279Y0329233D01*
X0253098Y0328480D01*
X0255065Y0328480D01*
X0256883Y0329233D01*
X0258275Y0330625D01*
X0259028Y0332443D01*
X0259028Y0334411D01*
X0258275Y0336229D01*
X0256883Y0337620D01*
X0258003Y0336500D02*
X0263939Y0336500D01*
X0263284Y0335301D02*
X0258659Y0335301D01*
X0259028Y0334103D02*
X0262914Y0334103D01*
X0262914Y0332904D02*
X0259028Y0332904D01*
X0258723Y0331706D02*
X0263220Y0331706D01*
X0263785Y0330507D02*
X0258157Y0330507D01*
X0256959Y0329309D02*
X0264983Y0329309D01*
X0251204Y0329309D02*
X0243179Y0329309D01*
X0243104Y0329233D02*
X0244495Y0330625D01*
X0245248Y0332443D01*
X0245248Y0334411D01*
X0244495Y0336229D01*
X0243104Y0337620D01*
X0241286Y0338373D01*
X0239318Y0338373D01*
X0237500Y0337620D01*
X0236108Y0336229D01*
X0235355Y0334411D01*
X0235355Y0332443D01*
X0236108Y0330625D01*
X0237500Y0329233D01*
X0239318Y0328480D01*
X0241286Y0328480D01*
X0243104Y0329233D01*
X0244378Y0330507D02*
X0250005Y0330507D01*
X0249440Y0331706D02*
X0244943Y0331706D01*
X0245248Y0332904D02*
X0249135Y0332904D01*
X0249135Y0334103D02*
X0245248Y0334103D01*
X0244879Y0335301D02*
X0249504Y0335301D01*
X0250159Y0336500D02*
X0244224Y0336500D01*
X0242915Y0337698D02*
X0251469Y0337698D01*
X0237689Y0337698D02*
X0229135Y0337698D01*
X0229324Y0337620D02*
X0227506Y0338373D01*
X0225538Y0338373D01*
X0223720Y0337620D01*
X0222329Y0336229D01*
X0221576Y0334411D01*
X0221576Y0332443D01*
X0222329Y0330625D01*
X0223720Y0329233D01*
X0225538Y0328480D01*
X0227506Y0328480D01*
X0229324Y0329233D01*
X0230716Y0330625D01*
X0231469Y0332443D01*
X0231469Y0334411D01*
X0230716Y0336229D01*
X0229324Y0337620D01*
X0230444Y0336500D02*
X0236380Y0336500D01*
X0235724Y0335301D02*
X0231100Y0335301D01*
X0231469Y0334103D02*
X0235355Y0334103D01*
X0235355Y0332904D02*
X0231469Y0332904D01*
X0231164Y0331706D02*
X0235661Y0331706D01*
X0236226Y0330507D02*
X0230598Y0330507D01*
X0229400Y0329309D02*
X0237424Y0329309D01*
X0223645Y0329309D02*
X0215620Y0329309D01*
X0215545Y0329233D02*
X0216936Y0330625D01*
X0217689Y0332443D01*
X0217689Y0334411D01*
X0216936Y0336229D01*
X0215545Y0337620D01*
X0213727Y0338373D01*
X0211759Y0338373D01*
X0209941Y0337620D01*
X0208549Y0336229D01*
X0207796Y0334411D01*
X0207796Y0332443D01*
X0208549Y0330625D01*
X0209941Y0329233D01*
X0211759Y0328480D01*
X0213727Y0328480D01*
X0215545Y0329233D01*
X0216819Y0330507D02*
X0222446Y0330507D01*
X0221881Y0331706D02*
X0217384Y0331706D01*
X0217689Y0332904D02*
X0221576Y0332904D01*
X0221576Y0334103D02*
X0217689Y0334103D01*
X0217320Y0335301D02*
X0221945Y0335301D01*
X0222600Y0336500D02*
X0216665Y0336500D01*
X0215356Y0337698D02*
X0223910Y0337698D01*
X0210130Y0337698D02*
X0201576Y0337698D01*
X0201765Y0337620D02*
X0199947Y0338373D01*
X0197979Y0338373D01*
X0196161Y0337620D01*
X0194770Y0336229D01*
X0194017Y0334411D01*
X0194017Y0332443D01*
X0194770Y0330625D01*
X0196161Y0329233D01*
X0197979Y0328480D01*
X0199947Y0328480D01*
X0201765Y0329233D01*
X0203157Y0330625D01*
X0203910Y0332443D01*
X0203910Y0334411D01*
X0203157Y0336229D01*
X0201765Y0337620D01*
X0202885Y0336500D02*
X0208821Y0336500D01*
X0208165Y0335301D02*
X0203541Y0335301D01*
X0203910Y0334103D02*
X0207796Y0334103D01*
X0207796Y0332904D02*
X0203910Y0332904D01*
X0203605Y0331706D02*
X0208102Y0331706D01*
X0208667Y0330507D02*
X0203039Y0330507D01*
X0201841Y0329309D02*
X0209865Y0329309D01*
X0196086Y0329309D02*
X0188061Y0329309D01*
X0187986Y0329233D02*
X0189377Y0330625D01*
X0190130Y0332443D01*
X0190130Y0334411D01*
X0189377Y0336229D01*
X0187986Y0337620D01*
X0186168Y0338373D01*
X0184200Y0338373D01*
X0182382Y0337620D01*
X0180990Y0336229D01*
X0180237Y0334411D01*
X0180237Y0332443D01*
X0180990Y0330625D01*
X0182382Y0329233D01*
X0184200Y0328480D01*
X0186168Y0328480D01*
X0187986Y0329233D01*
X0189260Y0330507D02*
X0194887Y0330507D01*
X0194322Y0331706D02*
X0189825Y0331706D01*
X0190130Y0332904D02*
X0194017Y0332904D01*
X0194017Y0334103D02*
X0190130Y0334103D01*
X0189761Y0335301D02*
X0194386Y0335301D01*
X0195041Y0336500D02*
X0189106Y0336500D01*
X0187796Y0337698D02*
X0196351Y0337698D01*
X0182571Y0337698D02*
X0174017Y0337698D01*
X0174206Y0337620D02*
X0172388Y0338373D01*
X0170420Y0338373D01*
X0168602Y0337620D01*
X0167211Y0336229D01*
X0166458Y0334411D01*
X0166458Y0332443D01*
X0167211Y0330625D01*
X0168602Y0329233D01*
X0170420Y0328480D01*
X0172388Y0328480D01*
X0174206Y0329233D01*
X0175598Y0330625D01*
X0176351Y0332443D01*
X0176351Y0334411D01*
X0175598Y0336229D01*
X0174206Y0337620D01*
X0175326Y0336500D02*
X0181262Y0336500D01*
X0180606Y0335301D02*
X0175982Y0335301D01*
X0176351Y0334103D02*
X0180237Y0334103D01*
X0180237Y0332904D02*
X0176351Y0332904D01*
X0176045Y0331706D02*
X0180543Y0331706D01*
X0181108Y0330507D02*
X0175480Y0330507D01*
X0174282Y0329309D02*
X0182306Y0329309D01*
X0168527Y0329309D02*
X0160502Y0329309D01*
X0161701Y0330507D02*
X0167328Y0330507D01*
X0166763Y0331706D02*
X0162266Y0331706D01*
X0162571Y0332904D02*
X0166458Y0332904D01*
X0166458Y0334103D02*
X0162571Y0334103D01*
X0162202Y0335301D02*
X0166827Y0335301D01*
X0167482Y0336500D02*
X0161547Y0336500D01*
X0160237Y0337698D02*
X0168792Y0337698D01*
X0155012Y0337698D02*
X0146458Y0337698D01*
X0147767Y0336500D02*
X0153703Y0336500D01*
X0153047Y0335301D02*
X0148423Y0335301D01*
X0148792Y0334103D02*
X0152678Y0334103D01*
X0152678Y0332904D02*
X0148792Y0332904D01*
X0148486Y0331706D02*
X0152983Y0331706D01*
X0153549Y0330507D02*
X0147921Y0330507D01*
X0146723Y0329309D02*
X0154747Y0329309D01*
X0171136Y0307736D02*
X0113472Y0307736D01*
X0109215Y0302942D02*
X0093482Y0302942D01*
X0093482Y0301743D02*
X0110413Y0301743D01*
X0108016Y0304140D02*
X0093334Y0304140D01*
X0092837Y0305339D02*
X0106818Y0305339D01*
X0105619Y0306537D02*
X0092341Y0306537D01*
X0091489Y0307736D02*
X0104421Y0307736D01*
X0103222Y0308934D02*
X0090290Y0308934D01*
X0093482Y0300545D02*
X0164991Y0300545D01*
X0164991Y0299346D02*
X0093145Y0299346D01*
X0092649Y0298148D02*
X0164991Y0298148D01*
X0164991Y0296949D02*
X0092152Y0296949D01*
X0091034Y0295750D02*
X0164991Y0295750D01*
X0164991Y0294552D02*
X0089835Y0294552D01*
X0087367Y0293353D02*
X0164991Y0293353D01*
X0139337Y0286162D02*
X0072691Y0286162D01*
X0072691Y0284964D02*
X0138991Y0284964D01*
X0139111Y0283765D02*
X0072691Y0283765D01*
X0072691Y0282567D02*
X0139790Y0282567D01*
X0152710Y0266986D02*
X0072691Y0266986D01*
X0072691Y0265788D02*
X0152441Y0265788D01*
X0152630Y0264589D02*
X0072691Y0264589D01*
X0072691Y0263391D02*
X0153091Y0263391D01*
X0153091Y0262192D02*
X0072691Y0262192D01*
X0072691Y0260994D02*
X0153091Y0260994D01*
X0153091Y0259795D02*
X0072691Y0259795D01*
X0072691Y0258597D02*
X0153091Y0258597D01*
X0153091Y0257398D02*
X0072691Y0257398D01*
X0072691Y0256200D02*
X0131603Y0256200D01*
X0130716Y0255001D02*
X0072691Y0255001D01*
X0072691Y0253803D02*
X0130441Y0253803D01*
X0130623Y0252604D02*
X0072691Y0252604D01*
X0072691Y0251406D02*
X0131380Y0251406D01*
X0134205Y0250207D02*
X0072691Y0250207D01*
X0072691Y0249009D02*
X0135403Y0249009D01*
X0136091Y0247810D02*
X0133668Y0247810D01*
X0134327Y0246612D02*
X0136091Y0246612D01*
X0136091Y0245413D02*
X0134441Y0245413D01*
X0135637Y0244215D02*
X0136091Y0244215D01*
X0140291Y0244215D02*
X0163198Y0244215D01*
X0161999Y0245413D02*
X0140291Y0245413D01*
X0140291Y0246612D02*
X0160801Y0246612D01*
X0159602Y0247810D02*
X0140291Y0247810D01*
X0140291Y0249009D02*
X0158403Y0249009D01*
X0157205Y0250207D02*
X0140145Y0250207D01*
X0138946Y0251406D02*
X0156006Y0251406D01*
X0154808Y0252604D02*
X0137748Y0252604D01*
X0136941Y0253803D02*
X0153609Y0253803D01*
X0153091Y0255001D02*
X0136666Y0255001D01*
X0135778Y0256200D02*
X0153091Y0256200D01*
X0165291Y0256200D02*
X0167012Y0256200D01*
X0165814Y0257398D02*
X0165291Y0257398D01*
X0165291Y0255001D02*
X0168211Y0255001D01*
X0169409Y0253803D02*
X0165549Y0253803D01*
X0166748Y0252604D02*
X0200235Y0252604D01*
X0205406Y0251406D02*
X0167946Y0251406D01*
X0169145Y0250207D02*
X0206605Y0250207D01*
X0207803Y0249009D02*
X0170343Y0249009D01*
X0171542Y0247810D02*
X0209002Y0247810D01*
X0208665Y0245413D02*
X0217773Y0245413D01*
X0216962Y0246612D02*
X0172740Y0246612D01*
X0173939Y0245413D02*
X0204517Y0245413D01*
X0203621Y0244215D02*
X0175137Y0244215D01*
X0176336Y0243016D02*
X0203341Y0243016D01*
X0203518Y0241817D02*
X0177534Y0241817D01*
X0178733Y0240619D02*
X0204267Y0240619D01*
X0208915Y0240619D02*
X0224193Y0240619D01*
X0225392Y0239420D02*
X0179931Y0239420D01*
X0181130Y0238222D02*
X0226590Y0238222D01*
X0235592Y0238222D02*
X0237464Y0238222D01*
X0236834Y0239420D02*
X0236790Y0239420D01*
X0241141Y0237023D02*
X0182328Y0237023D01*
X0183527Y0235825D02*
X0241232Y0235825D01*
X0241859Y0234626D02*
X0184725Y0234626D01*
X0185924Y0233428D02*
X0254958Y0233428D01*
X0256157Y0234626D02*
X0246923Y0234626D01*
X0247550Y0235825D02*
X0257355Y0235825D01*
X0258554Y0237023D02*
X0247641Y0237023D01*
X0247275Y0238222D02*
X0259752Y0238222D01*
X0260951Y0239420D02*
X0246491Y0239420D01*
X0246491Y0240619D02*
X0262149Y0240619D01*
X0263348Y0241817D02*
X0246491Y0241817D01*
X0246491Y0243016D02*
X0264546Y0243016D01*
X0265745Y0244215D02*
X0246491Y0244215D01*
X0246491Y0245413D02*
X0266943Y0245413D01*
X0268142Y0246612D02*
X0246491Y0246612D01*
X0246491Y0247810D02*
X0269340Y0247810D01*
X0270539Y0249009D02*
X0246491Y0249009D01*
X0246491Y0250207D02*
X0271737Y0250207D01*
X0272936Y0251406D02*
X0246491Y0251406D01*
X0246847Y0252604D02*
X0274134Y0252604D01*
X0253760Y0232229D02*
X0187122Y0232229D01*
X0181175Y0226237D02*
X0143291Y0226237D01*
X0143291Y0227435D02*
X0179977Y0227435D01*
X0178778Y0228634D02*
X0143291Y0228634D01*
X0143291Y0229832D02*
X0177580Y0229832D01*
X0176381Y0231031D02*
X0143291Y0231031D01*
X0143291Y0232229D02*
X0175183Y0232229D01*
X0173984Y0233428D02*
X0143291Y0233428D01*
X0145723Y0234626D02*
X0172786Y0234626D01*
X0171587Y0235825D02*
X0146643Y0235825D01*
X0146941Y0237023D02*
X0170389Y0237023D01*
X0169190Y0238222D02*
X0146782Y0238222D01*
X0146058Y0239420D02*
X0167992Y0239420D01*
X0166793Y0240619D02*
X0140291Y0240619D01*
X0140291Y0241817D02*
X0165595Y0241817D01*
X0164396Y0243016D02*
X0140291Y0243016D01*
X0140291Y0239420D02*
X0141324Y0239420D01*
X0140600Y0238222D02*
X0140291Y0238222D01*
X0140291Y0237023D02*
X0140441Y0237023D01*
X0134091Y0237023D02*
X0072691Y0237023D01*
X0072691Y0235825D02*
X0134091Y0235825D01*
X0134091Y0234626D02*
X0072691Y0234626D01*
X0072691Y0233428D02*
X0134091Y0233428D01*
X0134091Y0232229D02*
X0131249Y0232229D01*
X0132154Y0231031D02*
X0134091Y0231031D01*
X0134091Y0229832D02*
X0132441Y0229832D01*
X0133218Y0228634D02*
X0134091Y0228634D01*
X0130874Y0225038D02*
X0072691Y0225038D01*
X0072691Y0223840D02*
X0131591Y0223840D01*
X0131591Y0222641D02*
X0072691Y0222641D01*
X0072691Y0221443D02*
X0131591Y0221443D01*
X0131591Y0220244D02*
X0072691Y0220244D01*
X0072691Y0219046D02*
X0131866Y0219046D01*
X0133065Y0217847D02*
X0072691Y0217847D01*
X0072691Y0216649D02*
X0134263Y0216649D01*
X0135462Y0215450D02*
X0072691Y0215450D01*
X0072691Y0214252D02*
X0136660Y0214252D01*
X0137859Y0213053D02*
X0072691Y0213053D01*
X0072691Y0211855D02*
X0139057Y0211855D01*
X0147306Y0219046D02*
X0218740Y0219046D01*
X0218065Y0220244D02*
X0146107Y0220244D01*
X0144909Y0221443D02*
X0217941Y0221443D01*
X0223642Y0219046D02*
X0230591Y0219046D01*
X0231765Y0217847D02*
X0148504Y0217847D01*
X0149703Y0216649D02*
X0232591Y0216649D01*
X0232591Y0215450D02*
X0150901Y0215450D01*
X0152100Y0214252D02*
X0232607Y0214252D01*
X0232607Y0213053D02*
X0153298Y0213053D01*
X0154497Y0211855D02*
X0232607Y0211855D01*
X0232607Y0210656D02*
X0155696Y0210656D01*
X0156894Y0209458D02*
X0233367Y0209458D01*
X0224681Y0220244D02*
X0224317Y0220244D01*
X0231854Y0223840D02*
X0231870Y0223840D01*
X0231854Y0225038D02*
X0233068Y0225038D01*
X0231854Y0226237D02*
X0236528Y0226237D01*
X0236528Y0227435D02*
X0231229Y0227435D01*
X0236528Y0228634D02*
X0224111Y0228634D01*
X0223146Y0229832D02*
X0237581Y0229832D01*
X0243006Y0229832D02*
X0251363Y0229832D01*
X0247191Y0253803D02*
X0315671Y0253803D01*
X0314373Y0255001D02*
X0247191Y0255001D01*
X0247191Y0256200D02*
X0313941Y0256200D01*
X0313966Y0257398D02*
X0247191Y0257398D01*
X0247191Y0258597D02*
X0314500Y0258597D01*
X0316193Y0259795D02*
X0247191Y0259795D01*
X0228191Y0281368D02*
X0227983Y0281368D01*
X0228381Y0282567D02*
X0226785Y0282567D01*
X0225586Y0283765D02*
X0229181Y0283765D01*
X0233401Y0283765D02*
X0297896Y0283765D01*
X0298391Y0284964D02*
X0224388Y0284964D01*
X0223189Y0286162D02*
X0298391Y0286162D01*
X0298391Y0287361D02*
X0221991Y0287361D01*
X0221191Y0288559D02*
X0298391Y0288559D01*
X0298391Y0289758D02*
X0236169Y0289758D01*
X0235892Y0289481D02*
X0238586Y0292175D01*
X0238586Y0295986D01*
X0235892Y0298681D01*
X0232081Y0298681D01*
X0229386Y0295986D01*
X0229386Y0292175D01*
X0232081Y0289481D01*
X0235892Y0289481D01*
X0237367Y0290956D02*
X0298391Y0290956D01*
X0298391Y0292155D02*
X0238566Y0292155D01*
X0238586Y0293353D02*
X0298391Y0293353D01*
X0298391Y0294552D02*
X0238586Y0294552D01*
X0238586Y0295750D02*
X0298247Y0295750D01*
X0297526Y0296949D02*
X0237623Y0296949D01*
X0236425Y0298148D02*
X0297391Y0298148D01*
X0297738Y0299346D02*
X0221191Y0299346D01*
X0221191Y0298148D02*
X0221548Y0298148D01*
X0226425Y0298148D02*
X0231548Y0298148D01*
X0230349Y0296949D02*
X0227623Y0296949D01*
X0228586Y0295750D02*
X0229386Y0295750D01*
X0229386Y0294552D02*
X0228586Y0294552D01*
X0228586Y0293353D02*
X0229386Y0293353D01*
X0229407Y0292155D02*
X0228566Y0292155D01*
X0227367Y0290956D02*
X0230605Y0290956D01*
X0231804Y0289758D02*
X0226169Y0289758D01*
X0221804Y0289758D02*
X0221191Y0289758D01*
X0226955Y0300545D02*
X0231017Y0300545D01*
X0229818Y0301743D02*
X0228154Y0301743D01*
X0228586Y0302942D02*
X0229386Y0302942D01*
X0229386Y0304140D02*
X0228586Y0304140D01*
X0228586Y0305339D02*
X0229386Y0305339D01*
X0229937Y0306537D02*
X0228035Y0306537D01*
X0226837Y0307736D02*
X0231136Y0307736D01*
X0236955Y0300545D02*
X0298797Y0300545D01*
X0321191Y0240691D02*
X0333191Y0240691D01*
X0337191Y0236691D01*
X0337191Y0229191D01*
X0335830Y0226237D02*
X0317791Y0226237D01*
X0317416Y0227435D02*
X0327103Y0227435D01*
X0326691Y0228634D02*
X0324230Y0228634D01*
X0324853Y0229832D02*
X0326691Y0229832D01*
X0325891Y0233291D02*
X0325891Y0237291D01*
X0324291Y0237291D01*
X0323191Y0236191D01*
X0321191Y0240691D02*
X0318391Y0237891D01*
X0318391Y0237791D01*
X0314791Y0237791D02*
X0314791Y0233891D01*
X0314891Y0233791D01*
X0314891Y0230791D01*
X0313291Y0229191D01*
X0312691Y0229191D01*
X0310691Y0229191D01*
X0311848Y0232229D02*
X0312091Y0232229D01*
X0316218Y0228634D02*
X0319152Y0228634D01*
X0318529Y0229832D02*
X0317044Y0229832D01*
X0318491Y0233791D02*
X0318591Y0233791D01*
X0321691Y0230691D01*
X0328691Y0236091D02*
X0328691Y0238491D01*
X0332280Y0238491D01*
X0334991Y0235780D01*
X0334991Y0235670D01*
X0334337Y0235941D01*
X0333044Y0235941D01*
X0331870Y0235455D01*
X0331234Y0236091D01*
X0328691Y0236091D01*
X0328691Y0237023D02*
X0333747Y0237023D01*
X0334617Y0235825D02*
X0334946Y0235825D01*
X0332764Y0235825D02*
X0331500Y0235825D01*
X0332549Y0238222D02*
X0328691Y0238222D01*
X0332291Y0228634D02*
X0333941Y0228634D01*
X0334400Y0227435D02*
X0331879Y0227435D01*
X0313591Y0222641D02*
X0297837Y0222641D01*
X0311409Y0221443D02*
X0313591Y0221443D01*
X0313591Y0220244D02*
X0312607Y0220244D01*
X0312675Y0226237D02*
X0312052Y0226237D01*
X0308189Y0166311D02*
X0304193Y0166311D01*
X0305116Y0165113D02*
X0307266Y0165113D01*
X0306791Y0163914D02*
X0305591Y0163914D01*
X0305591Y0162716D02*
X0306791Y0162716D01*
X0306791Y0161517D02*
X0305591Y0161517D01*
X0305591Y0160319D02*
X0306791Y0160319D01*
X0306913Y0159120D02*
X0305469Y0159120D01*
X0304972Y0157922D02*
X0307410Y0157922D01*
X0297410Y0157922D02*
X0284571Y0157922D01*
X0283373Y0159120D02*
X0296913Y0159120D01*
X0296791Y0160319D02*
X0282174Y0160319D01*
X0280976Y0161517D02*
X0296791Y0161517D01*
X0296791Y0162716D02*
X0280891Y0162716D01*
X0280891Y0163914D02*
X0296791Y0163914D01*
X0297266Y0165113D02*
X0280891Y0165113D01*
X0280891Y0166311D02*
X0298189Y0166311D01*
X0339691Y0151691D02*
X0339691Y0141191D01*
X0341616Y0088408D02*
X0330691Y0088408D01*
X0184771Y0222641D02*
X0143710Y0222641D01*
X0143291Y0223840D02*
X0183572Y0223840D01*
X0182374Y0225038D02*
X0143291Y0225038D01*
X0129675Y0226237D02*
X0072691Y0226237D01*
X0072691Y0227435D02*
X0126850Y0227435D01*
X0126111Y0228634D02*
X0072691Y0228634D01*
X0072691Y0229832D02*
X0125941Y0229832D01*
X0126228Y0231031D02*
X0072691Y0231031D01*
X0072691Y0232229D02*
X0127133Y0232229D01*
X0134091Y0238222D02*
X0072691Y0238222D01*
X0072691Y0239420D02*
X0134091Y0239420D01*
X0133293Y0240619D02*
X0072691Y0240619D01*
X0072691Y0241817D02*
X0132095Y0241817D01*
X0129270Y0243016D02*
X0072691Y0243016D01*
X0072691Y0244215D02*
X0128285Y0244215D01*
X0127941Y0245413D02*
X0072691Y0245413D01*
X0072691Y0246612D02*
X0128055Y0246612D01*
X0128714Y0247810D02*
X0072691Y0247810D01*
X0196837Y0307736D02*
X0201136Y0307736D01*
X0199937Y0306537D02*
X0198035Y0306537D01*
X0206837Y0307736D02*
X0211136Y0307736D01*
X0209937Y0306537D02*
X0208035Y0306537D01*
X0216837Y0307736D02*
X0221136Y0307736D01*
X0219937Y0306537D02*
X0218035Y0306537D01*
X0218586Y0305339D02*
X0219386Y0305339D01*
X0125104Y0105187D02*
X0062133Y0105187D01*
X0064188Y0103989D02*
X0126302Y0103989D01*
X0127501Y0102790D02*
X0064996Y0102790D01*
X0086587Y0101592D02*
X0128699Y0101592D01*
X0129898Y0100393D02*
X0089481Y0100393D01*
X0090711Y0099195D02*
X0131096Y0099195D01*
X0132295Y0097996D02*
X0091909Y0097996D01*
X0092515Y0096798D02*
X0133493Y0096798D01*
X0134692Y0095599D02*
X0093012Y0095599D01*
X0093482Y0094401D02*
X0136227Y0094401D01*
D31*
X0241691Y0184191D03*
X0316191Y0143191D03*
X0324191Y0143191D03*
X0231291Y0281491D03*
X0300491Y0297891D03*
D32*
X0300691Y0143691D02*
X0292191Y0143691D01*
X0285191Y0143691D02*
X0283691Y0142191D01*
X0271191Y0142191D01*
X0261691Y0142191D02*
X0250191Y0142191D01*
X0300691Y0143691D02*
X0301191Y0143191D01*
X0316191Y0143191D02*
X0324191Y0143191D01*
D33*
X0309281Y0129467D02*
X0309281Y0124691D01*
X0269911Y0124691D01*
X0235691Y0124691D01*
X0235691Y0170191D01*
X0269911Y0129467D02*
X0269911Y0124691D01*
X0242691Y0212691D02*
X0242691Y0215991D01*
X0243891Y0217191D01*
D34*
X0125191Y0110191D02*
X0088191Y0110191D01*
X0088191Y0138191D01*
X0088191Y0183691D01*
X0125191Y0110191D02*
X0137691Y0097691D01*
X0168526Y0097691D01*
X0168986Y0097230D01*
X0255191Y0082272D02*
X0255191Y0074691D01*
X0259502Y0070380D01*
X0259502Y0066695D01*
X0277691Y0066191D02*
X0277691Y0069943D01*
X0277435Y0070199D01*
X0277691Y0066191D02*
X0280691Y0063191D01*
X0281451Y0063191D01*
X0289482Y0063191D02*
X0289482Y0064982D01*
X0291691Y0067191D01*
X0291691Y0068392D01*
X0293498Y0070199D01*
X0255585Y0082665D02*
X0255191Y0082272D01*
X0339443Y0070199D02*
X0339691Y0069951D01*
X0339691Y0066191D01*
X0341844Y0064037D01*
X0342612Y0064037D01*
X0343459Y0063191D01*
X0351490Y0063191D02*
X0351490Y0064990D01*
X0353691Y0067191D01*
X0353691Y0068384D01*
X0355506Y0070199D01*
X0376858Y0067541D02*
X0377705Y0066695D01*
X0385486Y0066695D01*
X0376858Y0067541D02*
X0376858Y0082915D01*
X0385189Y0082915D01*
X0385370Y0083096D01*
D35*
X0365835Y0082915D02*
X0365835Y0085915D01*
X0342915Y0085915D01*
X0342691Y0085691D01*
X0342691Y0080861D01*
X0342615Y0080785D01*
X0342554Y0080846D01*
X0333767Y0080846D01*
X0333767Y0084734D01*
X0333715Y0084785D01*
X0330115Y0084785D02*
X0329210Y0085691D01*
X0318691Y0085691D01*
X0309281Y0095100D01*
X0309281Y0099467D01*
X0293498Y0077408D02*
X0287215Y0083691D01*
X0283615Y0083691D02*
X0278791Y0083691D01*
X0278491Y0083391D01*
X0277691Y0084191D01*
X0268134Y0084191D01*
X0266608Y0082665D01*
X0274891Y0080691D02*
X0274891Y0072743D01*
X0277435Y0070199D01*
X0278491Y0080691D02*
X0278491Y0083391D01*
X0277691Y0084191D02*
X0278491Y0084991D01*
X0278491Y0087785D01*
X0274891Y0087785D02*
X0269911Y0092765D01*
X0269911Y0099467D01*
X0293498Y0077408D02*
X0293498Y0070199D01*
X0330191Y0073691D02*
X0332837Y0071045D01*
X0338596Y0071045D01*
X0339443Y0070199D01*
X0330191Y0073691D02*
X0330191Y0080822D01*
X0330167Y0080846D01*
X0346215Y0080785D02*
X0349096Y0080785D01*
X0355506Y0074376D01*
X0355506Y0070199D01*
D36*
X0370191Y0195191D02*
X0369691Y0195691D01*
X0369691Y0202191D01*
X0373691Y0206191D01*
X0373691Y0259191D01*
X0357191Y0275691D01*
X0348191Y0275691D01*
X0173986Y0304081D02*
X0167691Y0304081D01*
X0112601Y0304081D01*
X0102507Y0314175D01*
X0102507Y0333427D01*
M02*
