%
M48
M72
T01C0.01000
T02C0.01200
T03C0.01300
T04C0.01500
T05C0.03150
T06C0.03543
T07C0.03600
T08C0.03700
T09C0.03900
T10C0.03937
T11C0.04000
T12C0.04331
T13C0.05100
T14C0.06299
T15C0.06693
T16C0.11811
T17C0.12795
%
T01
X241691Y184191
X316191Y143191
X324191Y143191
X348191Y275691
X300491Y297891
X231291Y281491
X142191Y284691
T02
X271691Y278191
X282691Y278191
X303191Y278191
X309691Y278191
X316191Y278191
X330191Y278191
X338691Y278191
T03
X317191Y256691
X323191Y236191
X321691Y230691
X310691Y229191
X295691Y220191
X276691Y198691
X256691Y197191
X249791Y184791
X235691Y170191
X224891Y193491
X242691Y212691
X221191Y221191
X221191Y227191
X206591Y242891
X219991Y247791
X230991Y243991
X239991Y240291
X244391Y236691
X218291Y262891
X210491Y263191
X202591Y263491
X186691Y280191
X163191Y265691
X155691Y265691
X133691Y253691
X131191Y245691
X143691Y237191
X129191Y229691
X130691Y207691
X152191Y204691
X164191Y198691
X88191Y183691
X60191Y186191
X80191Y141691
X57691Y137691
X181691Y119191
X240691Y138191
X250191Y142191
X261691Y142191
X271191Y142191
X285191Y143691
X292191Y143691
X301191Y143191
X328691Y184691
X335191Y201191
X328191Y204691
X337191Y229191
X333691Y232691
X331691Y237191
X281191Y243191
X347191Y313191
X392691Y156691
X398191Y129191
X356191Y114691
T04
X67191Y53191
X74191Y53191
X78191Y57191
X67191Y59191
X67191Y65191
X67191Y71191
X74191Y73191
X67191Y77191
X67191Y83191
X73191Y83191
X73191Y89191
X67191Y89191
X67191Y98191
X74191Y98191
X77691Y107691
X66691Y110691
X61691Y113191
X54691Y108691
X56691Y123691
X52691Y128191
X64691Y124191
X76691Y128191
X101691Y151191
X107191Y154691
X113691Y152691
X113691Y145691
X108191Y147691
X108191Y163191
X113691Y163191
X119191Y168191
X104191Y170691
X96691Y169691
X96691Y163191
X102191Y163191
X104191Y180191
X103191Y193691
X103691Y204191
X104691Y216191
X105691Y230191
X104691Y240191
X104691Y244691
X105191Y253191
X104691Y261191
X106691Y269191
X104691Y276191
X102091Y294291
X95991Y298491
X76191Y290191
X76191Y281691
X76491Y272691
X76691Y263691
X77191Y254191
X76691Y242691
X76691Y231691
X76691Y223691
X74691Y216191
X73691Y204691
X80191Y169191
X80191Y163691
X70691Y161691
X60691Y160691
X60691Y167691
X70691Y168191
X51691Y168691
X51691Y162191
X51691Y156691
X94691Y103191
X102691Y98691
X154691Y108191
X156191Y117191
X176691Y123691
X175691Y129191
X178191Y134691
X178191Y140691
X192691Y131191
X198191Y133191
X196691Y140191
X198691Y125691
X194691Y119691
X201691Y116191
X227691Y117691
X227691Y127191
X227691Y136191
X244691Y131191
X245191Y120191
X243691Y115191
X270191Y136191
X307691Y144691
X312691Y147691
X333191Y141191
X333191Y134191
X333191Y127191
X342191Y133691
X348691Y141691
X350691Y150191
X334191Y152191
X334691Y162191
X325691Y167691
X322691Y173191
X316691Y172191
X318691Y163691
X310191Y180691
X310191Y189191
X312691Y206191
X305191Y206691
X296191Y205691
X290691Y200191
X292691Y216691
X302191Y216191
X290191Y234691
X290191Y244191
X287691Y256191
X296691Y258691
X289191Y266691
X311191Y258191
X323691Y268691
X327191Y263191
X334191Y264191
X340191Y265691
X346691Y263691
X346191Y256691
X355691Y256191
X362691Y256691
X360691Y261691
X355691Y263691
X351691Y270691
X371191Y275191
X377191Y278191
X381191Y270691
X388191Y269191
X386691Y276191
X395191Y277691
X398691Y269191
X394191Y258691
X408691Y255691
X418691Y245191
X419191Y237191
X419691Y228691
X428691Y232191
X441191Y234691
X454191Y229191
X451691Y215191
X444191Y209691
X441691Y196191
X421691Y194191
X420691Y201191
X420691Y207191
X420691Y214191
X405191Y217691
X396191Y214691
X397191Y228191
X406691Y225691
X406691Y238691
X399691Y244191
X388691Y237691
X385191Y245191
X379191Y246191
X383691Y252191
X381691Y262191
X358691Y241191
X344191Y234191
X340691Y240191
X333691Y225691
X331191Y212691
X354191Y205191
X354191Y193191
X357691Y181191
X365691Y177691
X375191Y179691
X375191Y187691
X398191Y199691
X408191Y200191
X405191Y185191
X401191Y178691
X419691Y178691
X420191Y172191
X416691Y161191
X403691Y153691
X398691Y156191
X386691Y164191
X375191Y162691
X366191Y166191
X356191Y168191
X368191Y155691
X377191Y153191
X377691Y147691
X383191Y143691
X386691Y147191
X370191Y136191
X368191Y131191
X368191Y125191
X375191Y131191
X373191Y115191
X373191Y110191
X373191Y103691
X373191Y96691
X399191Y75691
X413691Y71691
X419191Y75691
X441691Y74691
X455191Y77191
X454191Y85191
X452691Y101691
X450191Y107691
X454691Y115191
X452191Y121691
X459691Y121191
X459191Y127191
X465191Y144191
X458691Y155191
X444691Y152191
X441691Y162191
X442691Y180691
X462191Y178191
X462691Y184691
X483191Y190691
X483691Y210691
X481691Y235191
X477691Y243691
X474191Y256191
X462191Y262191
X456191Y257191
X447691Y254191
X438691Y250191
X446691Y243691
X461691Y244691
X443691Y264191
X455191Y269191
X459191Y280191
X463191Y287691
X455191Y292691
X447691Y287691
X443691Y279191
X429191Y271691
X428691Y264191
X419191Y266691
X413691Y279191
X413691Y289191
X415691Y295691
X423191Y290191
X430691Y291191
X429691Y299191
X428691Y312191
X453191Y311691
X404691Y296191
X403691Y288191
X394191Y290191
X394191Y296191
X386191Y295691
X379191Y289691
X355191Y294191
X354191Y302691
X341691Y298691
X337191Y291691
X332191Y288191
X317191Y290191
X306691Y290191
X293191Y291191
X293191Y299191
X295691Y309691
X275691Y319191
X271691Y308691
X260691Y304691
X269691Y300191
X268691Y293191
X257691Y293691
X248691Y293191
X250691Y301191
X250191Y308691
X258191Y313191
X285191Y289691
X319691Y299191
X320691Y308191
X255691Y261691
X260191Y250191
X260691Y243191
X262191Y229191
X249191Y232191
X248191Y222191
X252691Y216691
X263691Y218191
X252191Y205691
X249691Y195191
X217691Y188691
X213191Y193191
X212191Y200691
X202191Y200191
X192691Y203191
X182291Y206091
X176191Y200691
X168191Y205991
X160391Y214591
X154791Y222591
X147691Y227191
X160291Y230891
X165591Y235891
X154691Y243191
X146691Y250191
X143191Y244191
X150191Y237191
X167291Y221591
X174091Y228191
X183291Y220991
X178591Y214491
X192191Y215191
X201191Y210691
X198191Y231191
X200191Y237691
X193691Y243191
X188991Y249791
X183191Y245191
X188191Y237691
X200691Y247491
X175391Y250391
X146691Y261191
X140191Y259191
X131691Y261191
X151291Y286891
X160691Y287291
X78691Y325191
X68691Y325191
X75191Y312691
X68691Y310191
X68691Y340191
X78691Y340191
X128691Y217691
X134191Y212691
X138191Y207191
X127191Y203691
X127191Y189691
X134191Y189691
X141191Y188691
X135191Y170191
X134691Y165191
X150191Y169191
X157191Y169191
X152191Y154191
X151691Y147691
X159191Y148191
X198691Y169191
X202691Y163691
X214691Y170691
X200691Y189191
X185191Y191691
X242691Y170191
X250691Y170191
X263691Y169691
X273191Y169691
X289191Y171691
X297191Y172691
X363191Y225691
X378691Y225191
X378691Y238691
X471191Y269191
X479191Y271191
X419191Y132191
X411191Y128191
X421691Y126691
X466691Y109691
X453691Y58691
X447191Y52191
X334191Y96691
X242191Y71691
X229191Y66691
X218191Y66191
X203691Y66191
X193691Y66691
X199691Y55191
X177691Y79191
X176191Y86191
X185191Y84691
X194691Y84691
X204691Y85191
X214691Y85191
X225691Y85191
X232691Y57191
X164691Y51691
T05
X156491Y63385
X156491Y75196
X85596Y63691
X73785Y63691
X254163Y99467
X262037Y99467
X269911Y99467
X277785Y99467
X285659Y99467
X293533Y99467
X301407Y99467
X309281Y99467
X317156Y99467
X325030Y99467
X325030Y129467
X317156Y129467
X309281Y129467
X301407Y129467
X293533Y129467
X285659Y129467
X277785Y129467
X269911Y129467
X262037Y129467
X254163Y129467
X277435Y70199
X285467Y70199
X293498Y70199
X301530Y70199
X297514Y63191
X289482Y63191
X281451Y63191
X339443Y70199
X347474Y70199
X355506Y70199
X363537Y70199
X359522Y63191
X351490Y63191
X343459Y63191
X345891Y147408
X345891Y155282
X345891Y163156
X345891Y171030
X345891Y178904
X345891Y186778
X345891Y194652
X345891Y202526
X345891Y210400
X345891Y218274
X432491Y218274
X432491Y210400
X432491Y202526
X432491Y194652
X432491Y186778
X432491Y178904
X432491Y171030
X432491Y163156
X432491Y155282
X432491Y147408
T06
X451164Y180663
X451164Y190506
X451164Y198380
X451164Y208222
T07
X390191Y195191
X380191Y195191
X370191Y195191
X311191Y161691
X301191Y161691
X291191Y161691
T08
X305545Y63191
X367553Y63191
T09
X411392Y51825
X429108Y51825
T10
X137827Y76107
X119481Y86737
X119323Y62327
T11
X168986Y97230
X178986Y97230
X188986Y97230
X198986Y97230
X208986Y97230
X218986Y97230
X228986Y97230
X238986Y97230
X238986Y107230
X228986Y107230
X218986Y107230
X208986Y107230
X198986Y107230
X188986Y107230
X178986Y107230
X168986Y107230
X173986Y294081
X173986Y304081
X183986Y304081
X193986Y304081
X203986Y304081
X213986Y304081
X223986Y304081
X233986Y304081
X233986Y294081
X223986Y294081
X213986Y294081
X203986Y294081
X193986Y294081
X183986Y294081
T12
X185184Y333427
X198963Y333427
X212743Y333427
X226522Y333427
X240302Y333427
X254081Y333427
X267861Y333427
X171404Y333427
X157625Y333427
X143845Y333427
X130066Y333427
X116286Y333427
X102507Y333427
X88727Y333427
T13
X406470Y61667
X434030Y61667
T14
X480101Y169246
X480101Y219640
T15
X385486Y66695
X259502Y66695
T16
X84377Y92652
X84377Y301970
X440881Y301970
X440881Y92652
T17
X378498Y53191
X266490Y53191
M30
